<svg xmlns="http://www.w3.org/2000/svg" viewBox="0 0 16 17" height="17" width="16" fill="#949AB6"><path xmlns="http://www.w3.org/2000/svg" id="newsDateIcon" d="M3.75 0.5C3.94891 0.5 4.13968 0.579018 4.28033 0.71967C4.42098 0.860322 4.5 1.05109 4.5 1.25V2.5H11.5V1.25C11.5 1.05109 11.579 0.860322 11.7197 0.71967C11.8603 0.579018 12.0511 0.5 12.25 0.5C12.4489 0.5 12.6397 0.579018 12.7803 0.71967C12.921 0.860322 13 1.05109 13 1.25V2.5H13.25C13.9793 2.5 14.6788 2.78973 15.1945 3.30546C15.7103 3.82118 16 4.52065 16 5.25V13.75C16 14.4793 15.7103 15.1788 15.1945 15.6945C14.6788 16.2103 13.9793 16.5 13.25 16.5H2.75C2.02065 16.5 1.32118 16.2103 0.805456 15.6945C0.289731 15.1788 0 14.4793 0 13.75V5.25C0 4.52065 0.289731 3.82118 0.805456 3.30546C1.32118 2.78973 2.02065 2.5 2.75 2.5H3V1.25C3 1.05109 3.07902 0.860322 3.21967 0.71967C3.36032 0.579018 3.55109 0.5 3.75 0.5ZM2.75 6C2.06 6 1.5 6.56 1.5 7.25V13.75C1.5 14.44 2.06 15 2.75 15H13.25C13.94 15 14.5 14.44 14.5 13.75V7.25C14.5 6.56 13.94 6 13.25 6H2.75Z" clip-rule="evenodd" fill-rule="evenodd"></path></svg>
