<svg width="500" height="500" viewBox="0 0 500 500" fill="none" xmlns="http://www.w3.org/2000/svg">
<rect width="500" height="500" rx="250" fill="#FFAFF3"/>
<path d="M310.681 251.58C308.016 252.6 306.566 253.404 304.999 253.699C300.591 254.542 296.143 255.111 291.735 255.955C290.207 256.249 288.796 257.308 287.268 257.446C285.701 257.583 284.074 257.034 281.821 256.681C280.822 255.876 279.294 254.64 277.55 253.247C278.177 250.618 279.451 248.009 278.354 245.459C279.862 242.536 281.234 239.848 282.742 236.925C285.25 236.513 287.738 236.179 290.168 235.708C292.068 235.336 293.91 235.041 295.654 233.864C297.789 232.412 300.297 232.138 302.374 233.178C304.215 232.569 305.998 231.314 307.213 231.726C309.76 232.589 312.15 232.295 314.619 232C317.636 231.647 320.614 230.607 323.631 232.157C324.278 232.491 325.277 232.118 326.12 232.02C328.902 231.686 331.782 230.706 334.427 231.157C336.954 231.588 339.344 231.49 341.833 231.49C343.165 231.49 344.497 231.942 345.947 232.216C347.534 231.51 349.258 230.764 351.1 229.94C352.648 230.823 354.097 231.628 355.547 232.452C357.095 230.431 359.701 229.725 361.542 230.431C364.148 231.431 366.46 230.764 368.909 230.784C369.987 230.784 371.064 231.137 372.495 231.373C372.808 231.157 373.474 230.725 374.434 230.078C376.824 230.823 379.528 231 382.291 230.411C384.759 229.882 387.267 229.627 389.795 229.391C392.537 229.136 395.28 228.234 398.004 229.685C398.748 230.078 400.159 229.273 402.432 227.802C405.703 229.764 409.015 227.606 412.737 228.037C414.598 230.804 417.635 227.802 420.339 228.92C422.808 229.96 425.668 230.058 428.372 230.568C429.371 231.902 430.37 233.197 431.565 234.767C431.33 235.591 431.056 236.65 430.723 237.808C431.075 238.259 431.526 238.867 431.996 239.495C431.781 239.691 431.565 240.044 431.369 240.024C429.763 239.867 428.176 239.573 426.569 239.436C426.04 239.377 425.394 239.455 424.923 239.711C422.749 240.848 420.613 242.045 418.34 243.301C415.931 242.693 413.344 242.026 410.582 241.339C409.054 242.81 407.682 244.144 406.252 245.498C404.92 245.694 403.529 245.91 402.059 246.126C400.041 245.459 397.945 244.772 395.594 243.987C395.104 244.282 394.438 244.753 393.713 245.047C392.459 245.557 391.186 246.165 389.873 246.381C384.622 247.244 379.352 247.99 374.062 248.774C372.984 248.402 371.946 248.029 371.005 247.695C363.776 248.323 356.723 250.403 348.807 249.834C348.807 249.834 348.141 250.344 347.299 251.011C346.339 250.717 345.3 250.403 343.674 249.893C342.048 250.128 339.854 250.481 337.64 250.795C335.132 251.148 332.605 251.305 330.156 251.854C328.138 252.306 325.982 250.344 324.121 252.306C321.692 250.815 319.203 252.109 316.754 252.188C314.58 252.227 312.307 253.326 310.681 251.58Z" fill="#282828"/>
<path d="M148.084 377.316C147.007 376.805 146.282 376.452 145.577 376.119C144.636 377.257 143.754 378.336 142.873 379.415C142.089 379.062 141.364 378.728 140.345 378.257C138.465 379.532 136.447 380.906 134.429 382.279C133.664 381.22 132.881 380.121 131.94 378.826C132.469 377.276 133.096 375.511 133.469 374.392C134.076 373.608 134.213 373.333 134.429 373.176C138.876 369.939 143.402 366.878 147.007 362.523C149.24 359.816 152.493 357.972 155.334 355.794C157.743 353.95 160.369 352.38 162.152 349.791C162.759 348.908 163.66 348.202 164.522 347.554C169.127 344.042 173.476 340.276 177.865 336.509C182.038 332.938 186.289 329.427 190.482 325.856C195.909 321.206 201.669 316.91 207.018 312.162C214.639 305.394 222.907 299.39 230.215 292.23C233.154 289.346 235.975 286.305 239.091 283.578C242.206 280.851 244.89 277.614 247.574 274.416C249.592 272.022 251.786 270.08 254.96 269.335C257.997 271.826 260.544 274.592 262.699 277.986C262.445 280.4 262.17 283.087 261.759 287.011C260.054 289.679 257.703 293.446 253.883 295.996C252.942 298.37 249.455 298.606 249.2 301.548C247.241 303.059 245.223 304.491 243.362 306.1C241.481 307.728 239.776 309.514 237.993 311.24C237.386 311.829 236.916 312.574 236.211 312.966C230.156 316.36 225.474 321.559 219.851 325.503C216.932 327.563 214.189 329.799 211.799 332.507C209.545 335.077 206.528 336.43 203.178 336.725C202.414 338.275 201.924 339.903 200.925 341.1C199.886 342.336 198.319 343.12 196.948 344.101C196.497 343.905 195.988 343.67 195.439 343.434C194.342 344.16 193.225 344.886 191.893 345.788C191.912 349.673 188.601 351.144 185.819 352.733C183.977 353.773 181.489 353.381 179.785 355.245C178.315 356.853 176.474 358.129 174.749 359.62C171.928 360.169 169.048 360.816 167.226 363.524C167.579 363.975 167.931 364.407 168.323 364.917C166.599 366.623 164.209 365.937 162.289 366.761C156.666 369.193 153.139 374.51 148.084 377.316Z" fill="#282828"/>
<path d="M135.173 171.712C134.703 170.594 134.389 169.809 134.037 168.966C133.371 168.554 132.685 167.789 131.94 167.71C126.494 167.082 123.633 163.747 122.203 158.784C122.144 158.548 121.85 158.372 121.654 158.175C118.813 156.861 118.813 156.861 115.404 157.096C112.857 155.213 111.976 152.192 110.291 149.779C108.625 147.366 107.097 144.776 105.001 142.716C105.432 142.108 105.667 141.441 106.078 141.303C108.449 140.479 110.859 139.773 112.995 139.126C114.386 139.969 115.483 140.735 116.678 141.303C117.658 141.774 119.186 141.657 119.695 142.363C121.106 144.305 123.457 144.442 125.142 145.737C125.73 146.188 125.906 147.189 126.278 147.974C132.606 149.524 137.74 153.31 142.892 157.508C143.206 158.274 143.637 159.294 144.068 160.294C148.692 160.706 152.238 163.473 155.96 165.788C157.587 166.808 158.939 168.338 160.663 169.142C167.735 172.517 173.398 177.951 179.922 182.13C182.743 185.7 187.328 186.976 190.345 190.232C193.264 193.371 197.163 195 200.69 197.197C201.16 197.491 201.708 197.707 202.12 198.08C207.958 203.2 214.287 207.654 220.674 212.048C222.907 213.578 224.612 215.913 226.728 218.032C226.747 219.974 226.767 222.152 226.806 225.036C225.807 228.842 223.044 232.197 218.989 235.179C217.422 235.081 215.521 234.943 213.19 234.786C212.798 234.041 212.523 232.805 211.759 232.197C208.272 229.509 205.588 225.899 201.865 223.486C200.474 222.583 198.907 221.779 197.849 220.543C195.263 217.561 192.285 215.187 189.071 213.99C188.268 212.48 187.759 211.499 187.602 211.165C184.663 208.85 182.253 206.987 179.902 205.084C175.2 201.278 169.616 198.57 165.796 193.666C161.642 191.939 159.036 187.917 154.785 186.348C149.417 181.6 142.755 178.54 137.661 173.38C136.878 172.615 135.82 172.144 135.173 171.712Z" fill="#282828"/>
<path d="M272.3 383.888C271.575 385.595 270.948 387.105 270.34 388.518C268.166 389.538 266.461 388.949 264.463 386.654C264.09 384.967 263.581 382.554 263.013 379.944C261.328 379.081 259.682 378.218 257.919 377.316C258.232 376.04 258.546 374.745 258.859 373.47C258.448 371.567 256.489 371.195 255.195 369.547C254.764 366.663 254.275 363.347 253.746 359.698C254.02 358.815 254.431 357.56 254.823 356.324C252.942 355.578 251.453 355.009 249.788 354.342C249.141 351.576 248.495 348.888 247.731 345.631C246.673 344.042 245.301 342.002 243.734 339.667C243.401 336.98 242.147 334.253 241.05 331.408C237.033 320.912 233.605 310.181 228.021 300.352C227.355 294.25 222.222 290.444 220.008 285.088C219.146 282.97 216.52 281.577 214.855 279.988C214.071 277.79 213.346 275.73 212.465 273.258C214.679 267.49 220.38 265.136 225.866 262.547C227.178 262.959 228.491 263.39 230.157 263.92C232.37 267 234.8 270.355 237.19 273.729C239.6 277.123 241.324 281.027 242.127 284.912C242.833 288.286 245.282 290.817 245.536 294.191C249.102 298.527 249.318 304.472 252.57 308.984C253.021 309.612 253.138 310.593 253.158 311.417C253.256 317.106 257.292 321.756 257.409 327.445C260.583 330.015 258.957 334.449 261.269 337.333C263.424 340.021 261.994 344.121 264.972 346.436C265.599 350.026 266.187 353.636 266.853 357.206C267.304 359.639 267.127 362.248 269.106 364.25C269.596 364.76 269.596 365.819 269.713 366.623C270.595 372.195 271.398 377.747 272.3 383.888Z" fill="#282828"/>
<path d="M284.388 92.0018C286.347 92.7473 287.621 93.2378 288.894 93.7283C290.148 95.5136 289.678 97.3381 289.012 99.1822C289.364 99.6139 289.737 100.045 290.089 100.477C289.502 102.302 288.914 104.146 288.306 106.029C288.581 106.363 289.325 106.892 289.247 107.206C288.091 111.679 289.345 116.506 287.268 120.782C286.426 122.528 287.307 124.059 287.307 125.667C287.307 127.315 285.955 128.708 286.484 130.533C286.778 131.553 286.68 132.75 286.465 133.809C286.073 135.634 285.426 137.399 284.897 139.204C286.896 140.95 284.525 142.677 284.76 144.56C284.956 146.188 283.428 148.052 282.566 150.034C284.016 152.623 282.076 155.193 281.861 157.92C281.547 162.021 280.901 166.121 279.274 169.947C277.609 173.812 278.295 178.049 277.217 182.032C275.63 187.819 274.749 193.783 273.377 199.63C271.437 207.889 267.401 215.109 261.426 221.406C258.232 221.877 254.941 222.368 251.003 222.956C249.69 222.014 248.123 220.896 246.751 219.915C247.692 215.482 248.279 211.872 250.121 208.301C252.609 203.514 254.843 198.511 255.313 192.802C255.626 189.055 257.468 185.406 258.8 181.777C259.858 178.912 260.72 176.107 260.603 172.929C260.525 171.085 261.289 169.162 261.876 167.357C262.954 163.943 264.169 160.569 265.462 156.724C265.912 156.351 266.755 155.684 267.872 154.781C267.499 153.918 267.108 152.957 266.539 151.623C266.539 151.603 266.579 151.093 266.716 150.622C267.127 149.327 267.793 148.072 268.009 146.757C268.381 144.482 269.87 142.775 270.673 140.754C271.34 139.087 271.202 137.085 271.614 133.691C271.555 133.083 268.009 132.161 270.477 128.453C270.36 128.551 271.183 127.865 272.025 127.158C271.673 126.727 271.32 126.276 270.928 125.785C271.653 123.843 272.064 121.822 273.122 119.841C275.297 115.76 277.531 111.464 276.159 106.363C276.982 105.029 277.864 103.616 278.765 102.125C278.549 99.9474 278.314 97.7501 278.099 95.6117C278.647 94.7877 279.118 94.0814 279.862 92.9631C281.057 92.7277 282.664 92.3746 284.388 92.0018Z" fill="#282828"/>
</svg>
