<?xml version="1.0" encoding="UTF-8"?>
<svg width="30.6mm" height="45.4mm" version="1.1" viewBox="0 0 30.6 45.4" xmlns="http://www.w3.org/2000/svg">
  <g transform="translate(-38.1 -51.5)" fill="#282828">
    <path d="m55.1 51.7c0.257-0.0859 0.454-0.15 0.618-0.203 0.277 0.071 0.372 0.292 0.442 0.53 0.0718 0.0156 0.146 0.03 0.218 0.0463 0.0765 0.232 0.151 0.468 0.222 0.709 0.0552 0.0143 0.178 0.0143 0.192 0.0532 0.199 0.557 0.68 0.999 0.715 1.61 0.0148 0.25 0.216 0.366 0.316 0.55 0.103 0.189 0.0249 0.43 0.197 0.612 0.0961 0.102 0.154 0.248 0.188 0.385 0.0566 0.238 0.0744 0.484 0.105 0.728 0.34 0.103 0.135 0.437 0.258 0.655 0.106 0.191 0.0025 0.493-0.0173 0.776 0.302 0.255 0.165 0.666 0.244 1.01 0.0226 0.0987 0.0431 0.198 0.0608 0.298 0.076 0.434 0.101 0.876 0.026 1.31-0.0961 0.541 0.114 1.06 0.0745 1.59-0.0609 0.776-0.0474 1.55-0.116 2.32-0.098 1.09-0.524 2.05-1.23 2.91 0.886-0.208-2.26 0.529-1.37 0.321-0.196-0.104-0.414-0.219-0.618-0.327 0.0546-0.564 0.0742-1.02 0.26-1.48 0.251-0.622 0.46-1.27 0.406-1.97-0.0349-0.459 0.13-0.934 0.218-1.4 0.0707-0.366 0.112-0.722 7e-3 -1.09-0.0621-0.216-0.0182-0.461 0.0032-0.689 0.0344-0.411 0.0831-0.876 0.107-1.34 0.0133-0.0174 0.03-0.0388 0.0499-0.0642 0.0469-0.0593 0.112-0.142 0.189-0.243-0.0744-0.0786-0.177-0.189-0.297-0.311-8.96e-4 -0.0025-0.0166-0.0611-0.0177-0.12-2.34e-4 -0.162 0.0317-0.33 0.0015-0.486-0.0523-0.27 0.0575-0.525 0.061-0.787 0.0033-0.212-0.113-0.436-0.239-0.821-0.0394-0.0628-0.519 0.0269-0.423-0.498-0.0089 0.0167 0.0537-0.1 0.116-0.222-0.0713-0.0272-0.14-0.0547-0.211-0.0818-0.0228-0.243-0.0921-0.476-0.0867-0.744 0.0105-0.548-0.0105-1.15-0.521-1.55 2e-3 -0.188 0.0026-0.388-0.0037-0.598-0.182-0.195-0.367-0.382-0.551-0.564-0.0012-0.105-0.0036-0.234-0.0082-0.382 0.113-0.119 0.255-0.276 0.412-0.453 4.8e-5 -7.9e-5 9.6e-5 -1.58e-4 1.44e-4 -2.37e-4z"/>
    <path d="m64.6 72.4c-0.319 0.226-0.531 0.385-0.735 0.461-0.611 0.23-1.25 0.363-1.88 0.484-0.218 0.042-0.424 0.183-0.642 0.192-0.221 0.0087-0.452-0.0816-0.755-0.161-0.135-0.13-0.312-0.307-0.525-0.533 0.124-0.345 0.321-0.667 0.22-1.03 0.224-0.36 0.439-0.73 0.642-1.1 0.299-0.035 0.593-0.0673 0.873-0.127 0.219-0.0475 0.429-0.0901 0.614-0.257 0.226-0.205 0.477-0.259 0.712-0.145 0.181-0.103 0.325-0.297 0.454-0.266 0.27 0.0667 0.492-0.0319 0.699-0.145 0.264-0.143 0.424-0.371 0.759-0.338 0.0185 0.0019 0.0357-0.0029 0.0519-0.0121 0.0424-0.0208 0.0745-0.0769 0.11-0.113 0.157-0.161 0.231-0.403 0.413-0.514 0.174-0.106 0.277-0.269 0.371-0.434 0.0505-0.0883 0.15-0.152 0.226-0.243-0.0416-0.148-0.0998-0.299-0.186-0.438 0.121-0.0661 0.232-0.145 0.333-0.234 0.011-0.0098 0.022-0.0197 0.0329-0.0297-0.256-0.141-0.35-0.321-0.274-0.471 0.11-0.218-0.0232-0.398-0.0863-0.598-0.0288-0.0878-0.0155-0.191-0.0356-0.322-0.0338-0.0138-0.12-0.0512-0.231-0.091 0.0034-0.233-0.0978-0.471-0.305-0.649-0.157-0.135-0.296-0.276-0.438-0.419-0.0255-0.0247-0.0512-0.0493-0.077-0.0737-0.189-0.179-0.447-0.276-0.508-0.598-0.0169-0.0877-0.194-0.105-0.486-0.0865-0.0734-0.399-0.514-0.355-0.797-0.593 0.0384-0.413-0.43-0.211-0.61-0.467-0.164-0.237-0.433-0.371-0.672-0.539-0.0321-0.2-0.0752-0.416-0.13-0.653 0.0609-0.096 0.138-0.221 0.226-0.355-0.018-0.0712-0.0405-0.166-0.0658-0.264 0.0326-0.0168 0.0724-0.0534 0.0936-0.0431 0.174 0.0833 0.336 0.187 0.505 0.276 0.0548 0.031 0.13 0.0505 0.194 0.0412 0.293-0.0388 0.606-0.0764 0.93-0.096 0.227 0.211 0.458 0.448 0.687 0.707 0.258-0.0648 0.511-0.117 0.761-0.155 0.152 0.0793 0.312 0.166 0.476 0.265 0.141 0.231 0.283 0.487 0.415 0.765 0.0721 0.0155 0.175 0.0306 0.268 0.0709 0.16 0.069 0.331 0.137 0.464 0.25 0.0405 0.0343 0.0807 0.0692 0.121 0.105 0.487 0.429 0.927 0.947 1.28 1.54 0.0128 0.161 0.0173 0.311 0.0177 0.45 0.296 0.661 0.586 1.37 0.602 2.19-0.0055 0.325-0.06 0.654-0.175 0.969 0 0 0.0375 0.117 0.0782 0.272-0.0781 0.117-0.193 0.281-0.352 0.463-0.0822 0.248-0.197 0.544-0.371 0.858-0.192 0.344-0.444 0.651-0.69 0.963-0.201 0.255-0.617 0.237-0.748 0.604-0.0014 0.0043-0.0028 0.0087-0.0042 0.0131-0.425 0.0066-0.67 0.313-1 0.455-0.289 0.119-0.571 0.365-0.858 0.201 1.5e-5 0 2.9e-5 -1e-6 4.3e-5 -2e-6z"/>
    <path d="m60.6 95.1c-0.14 0.073-0.235 0.121-0.327 0.169 0.0524 0.177 0.103 0.344 0.153 0.511-0.0998 0.0543-0.193 0.104-0.324 0.174-0.0056 0.282-0.0109 0.586-0.0163 0.889-0.176 2e-3 -0.358 2e-3 -0.574 5e-3 -0.13-0.165-0.276-0.355-0.37-0.473-0.0393-0.118-0.059-0.152-0.0595-0.185-0.0114-0.684 0.0028-1.36-0.197-2.04-0.125-0.421-0.0757-0.883-0.0951-1.33-0.0161-0.377 0.0148-0.756-0.132-1.12-0.0502-0.125-0.058-0.267-0.0624-0.401-0.0295-0.719-0.107-1.43-0.181-2.15-0.0695-0.68-0.126-1.36-0.194-2.05-0.0911-0.885-0.117-1.78-0.225-2.66-0.154-1.26-0.174-2.53-0.396-3.78-0.0897-0.505-0.206-1.01-0.264-1.52-0.0587-0.512-0.207-1.02-0.351-1.52-0.107-0.377-0.151-0.739 0.0136-1.11 0.511-0.13 1.01-0.19 1.56-0.166 0.246 0.199 0.522 0.419 0.922 0.742 0.162 0.364 0.395 0.873 0.379 1.44 0.189 0.266-0.0563 0.637 0.248 0.874 0.0143 0.307 0.0155 0.615 0.0483 0.919 0.0334 0.308 0.0979 0.609 0.15 0.914 0.0178 0.104 0.0634 0.205 0.0519 0.305-0.0961 0.858 0.113 1.71 0.111 2.56 3.15e-4 0.444 0.0338 0.883 0.147 1.32 0.108 0.413 0.0232 0.817-0.205 1.18 0.112 0.189 0.253 0.355 0.307 0.542 0.0556 0.194 0.0203 0.41 0.022 0.619-0.0567 0.0317-0.122 0.0667-0.191 0.105-0.0052 0.163-0.0119 0.329-0.0159 0.529 0.43 0.276 0.335 0.718 0.294 1.11-0.0284 0.262-0.265 0.486-0.192 0.793 0.0632 0.265 0.0608 0.543 0.0912 0.825-0.159 0.326-0.311 0.665-0.154 1.04 0.0772-4e-3 0.152-9e-3 0.239-0.0119 0.0543 0.297-0.207 0.491-0.266 0.745-0.169 0.746 0.144 1.48 0.0602 2.2z"/>
    <path d="m43.7 94.4c-0.248 0.0411-0.463 0.0806-0.664 0.115-0.252-0.219-0.291-0.51-0.153-0.988 0.179-0.206 0.412-0.466 0.693-0.775-0.0055-0.311-0.0088-0.617-0.0153-0.943 0.173-0.0639 0.347-0.128 0.523-0.191 0.204-0.218 0.121-0.527 0.237-0.849 0.328-0.306 0.698-0.645 1.12-1.02 0.129-0.0338 0.314-0.0785 0.497-0.124-0.0322-0.33-0.0605-0.59-0.0884-0.883 0.296-0.31 0.614-0.643 0.968-1.01 0.128-0.274 0.302-0.653 0.491-1.06 0.322-0.268 0.586-0.67 0.876-1.06 1.08-1.45 2.19-2.79 3.04-4.42 0.703-0.606 0.82-1.65 1.3-2.43 0.19-0.3 0.185-0.794 0.261-1.16 0.193-0.286 0.397-0.592 0.607-0.918 0.769-0.193 1.35 0.378 1.96 0.886 0.0408 0.217 0.0802 0.436 0.133 0.712-0.172 0.595-0.361 1.23-0.567 1.87-0.206 0.643-0.521 1.23-0.913 1.69-0.339 0.398-0.467 0.963-0.852 1.29-0.27 0.877-0.983 1.42-1.32 2.26-0.0467 0.117-0.161 0.217-0.264 0.289-0.709 0.495-1.02 1.46-1.75 1.94-0.108 0.665-0.796 0.798-1.01 1.37-0.198 0.529-0.829 0.66-0.922 1.28-0.423 0.385-0.845 0.761-1.26 1.15-0.281 0.265-0.622 0.452-0.743 0.9-0.0316 0.112-0.165 0.199-0.258 0.282-0.618 0.564-1.29 1.18-1.94 1.8z"/>
    <path d="m42.6 77.3c-0.134-0.0187-0.227-0.0336-0.329-0.0478-0.0766 0.0497-0.188 0.0788-0.237 0.159-0.36 0.585-0.84 0.697-1.4 0.538-0.0261-9e-3 -0.0593 0.0137-0.0891 0.0236-0.283 0.241-0.283 0.241-0.448 0.648-0.322 0.17-0.664 0.0751-0.99 0.112-0.325 0.0345-0.66 0.0418-0.975 0.149-0.0352-0.089-0.087-0.159-0.0777-0.215 0.0504-0.326 0.114-0.648 0.169-0.936 0.158-0.105 0.293-0.181 0.413-0.282 0.0994-0.0819 0.172-0.265 0.268-0.278 0.266-0.0358 0.408-0.297 0.626-0.406 0.076-0.0382 0.183 7e-3 0.279 0.0148 0.498-0.626 1.15-0.97 1.84-1.29 0.0914 0.0137 0.214 0.0305 0.335 0.046 0.294-0.504 0.757-0.732 1.19-1.01 0.188-0.12 0.411-0.176 0.583-0.322 0.716-0.593 1.55-0.89 2.32-1.37 0.501-0.092 0.876-0.536 1.36-0.671 0.465-0.131 0.837-0.473 1.24-0.736 0.0544-0.0349 0.105-0.0838 0.164-0.107 0.817-0.338 1.6-0.775 2.37-1.22 0.271-0.157 0.591-0.201 0.912-0.307 0.189 0.124 0.401 0.263 0.683 0.446 0.314 0.362 0.487 0.897 0.553 1.56-0.0956 0.174-0.213 0.383-0.357 0.64-0.0938-4e-3 -0.229-0.0522-0.33-4e-3 -0.452 0.226-0.949 0.3-1.39 0.57-0.164 0.101-0.328 0.229-0.506 0.27-0.431 0.103-0.825 0.291-1.12 0.582-0.191-6e-3 -0.314-0.0111-0.354-0.0148-0.386 0.187-0.699 0.343-1.01 0.489-0.627 0.293-1.2 0.758-1.88 0.878-0.396 0.365-0.928 0.403-1.31 0.789-0.755 0.308-1.42 0.874-2.2 1.12-0.117 0.0403-0.221 0.131-0.298 0.177z"/>
  </g>
</svg>
