<?xml version="1.0" encoding="utf-8"?>
<!-- Generator: Adobe Illustrator 23.0.6, SVG Export Plug-In . SVG Version: 6.00 Build 0)  -->
<svg version="1.1" id="Layer_1" xmlns="http://www.w3.org/2000/svg" xmlns:xlink="http://www.w3.org/1999/xlink" x="0px" y="0px"
	 viewBox="0 0 283.46 283.46" style="enable-background:new 0 0 283.46 283.46;" xml:space="preserve">
<style type="text/css">
	.st0{fill:#231F20;}
	.st1{fill:#FFAFF3;}
	.st2{fill:#282828;}
	.st3{fill:none;stroke:#FFAFF3;stroke-miterlimit:10;}
	.st4{fill:#DFF656;}
	.st5{fill:none;stroke:#DFF656;stroke-miterlimit:10;}
	.st6{fill:#00F0F2;}
	.st7{fill:none;stroke:#00F0F2;stroke-miterlimit:10;}
	.st8{fill:#FFFFFF;}
	.st9{fill:none;stroke:#FFFFFF;stroke-width:2;stroke-miterlimit:10;}
</style>
<g>
	<path class="st2" d="M125.8,106.12c1.14,0.89,1.88,1.32,2.43,1.93c1.53,1.7,2.95,3.5,4.47,5.21c0.53,0.59,1.36,0.93,1.82,1.56
		c0.47,0.65,0.66,1.51,1.1,2.58c-0.09,0.65-0.22,1.64-0.38,2.77c-1.32,0.41-2.79,0.55-3.61,1.69c-1.67,0.11-3.21,0.22-4.88,0.33
		c-0.84-0.99-1.64-1.99-2.49-2.93c-0.66-0.73-1.27-1.47-2.25-1.91c-1.2-0.55-1.98-1.57-2.07-2.75c-0.74-0.64-1.76-1.09-1.91-1.74
		c-0.3-1.34-1.05-2.31-1.83-3.31c-0.95-1.22-2.19-2.25-2.31-3.98c-0.03-0.37-0.45-0.71-0.71-1.05c-0.88-1.13-2.07-2.13-2.56-3.4
		c-0.47-1.22-1.15-2.24-1.81-3.32c-0.35-0.58-0.5-1.28-0.77-1.99c-0.72-0.51-1.51-1.06-2.35-1.66c-0.03-0.91-0.05-1.75-0.07-2.61
		c-1.29-0.14-2.28-1.1-2.46-2.09c-0.25-1.4-1.15-2.24-1.79-3.31c-0.28-0.47-0.42-1.03-0.69-1.73c-0.18-0.08-0.54-0.25-1.08-0.51
		c-0.31-1.24-0.94-2.47-1.93-3.52c-0.88-0.94-1.66-1.97-2.42-3.01c-0.83-1.13-1.95-2.09-2.04-3.67c-0.02-0.43-0.75-0.83-1.99-1.44
		c-0.01-1.94-1.81-2.83-2.61-4.57c0.72-1.54-1.4-2.08-1.61-3.55c-0.2-1.35-0.91-2.63-1.39-3.94c0.31-0.79,0.62-1.57,0.99-2.5
		c0.42-0.12,0.95-0.27,1.55-0.43c0.11-0.27,0.25-0.64,0.4-1c0.14,0.04,0.36,0.04,0.4,0.13c0.35,0.74,0.65,1.51,1,2.25
		c0.12,0.25,0.32,0.5,0.55,0.65c1.07,0.65,2.16,1.27,3.3,1.93c0.37,1.21,0.76,2.52,1.19,3.91c1.05,0.28,1.99,0.54,2.96,0.8
		c0.44,0.53,0.89,1.09,1.37,1.67c0.24,1.06,0.49,2.15,0.77,3.39c0.26,0.14,0.64,0.3,0.96,0.55c0.56,0.41,1.15,0.81,1.6,1.33
		c1.76,2.07,3.47,4.18,5.21,6.29c0.12,0.57,0.23,1.12,0.34,1.62c2.18,3,4.95,5.53,6.78,9.14c0,0,0.4,0.15,0.91,0.35
		c0.12,0.49,0.26,1.03,0.47,1.88c0.53,0.64,1.26,1.52,1.98,2.41c0.81,1,1.55,2.07,2.44,2.99c0.73,0.76,0.44,2.22,1.79,2.52
		c-0.01,1.45,1.21,2.2,1.89,3.25C125.06,104.24,126.13,104.95,125.8,106.12z"/>
	<path class="st2" d="M197.29,219.09c-0.4,0.46-0.67,0.77-0.93,1.07c0.43,0.62,0.84,1.2,1.24,1.78c-0.28,0.34-0.55,0.65-0.91,1.08
		c0.37,1.1,0.76,2.28,1.15,3.46c-0.62,0.23-1.27,0.47-2.04,0.75c-0.69-0.48-1.47-1.02-1.96-1.36c-0.3-0.41-0.42-0.51-0.47-0.64
		c-0.98-2.63-1.85-5.28-3.5-7.65c-1.02-1.47-1.48-3.33-2.15-5.02c-0.57-1.44-0.98-2.95-2.01-4.18c-0.35-0.42-0.57-0.96-0.77-1.48
		c-1.09-2.74-2.34-5.41-3.58-8.08c-1.18-2.55-2.32-5.12-3.49-7.66c-1.53-3.31-2.85-6.73-4.44-10.01c-2.27-4.68-4.07-9.57-6.59-14.15
		c-1.01-1.84-2.11-3.64-3.03-5.55c-0.91-1.9-2.13-3.67-3.32-5.43c-0.9-1.32-1.54-2.67-1.48-4.33c1.64-1.15,3.36-2.02,5.32-2.61
		c1.15,0.46,2.43,0.96,4.3,1.7c1.07,1.21,2.6,2.88,3.32,5.11c1.04,0.79,0.67,2.53,2.08,3.07c0.47,1.17,0.89,2.36,1.43,3.5
		c0.54,1.14,1.18,2.24,1.78,3.35c0.2,0.37,0.51,0.72,0.6,1.12c0.83,3.44,2.73,6.46,3.9,9.76c0.61,1.72,1.33,3.37,2.33,4.92
		c0.95,1.46,1.19,3.13,0.88,4.82c0.65,0.59,1.39,1.05,1.83,1.71c0.46,0.68,0.63,1.56,0.93,2.37c-0.16,0.19-0.34,0.41-0.54,0.65
		c0.2,0.64,0.41,1.29,0.66,2.07c1.91,0.52,2.18,2.36,2.57,3.95c0.26,1.04-0.28,2.22,0.4,3.31c0.59,0.95,0.96,2.02,1.45,3.08
		c-0.12,1.47-0.2,2.97,0.88,4.24c0.27-0.11,0.53-0.22,0.84-0.34c0.6,1.08-0.07,2.17,0.08,3.22
		C194.49,213.75,196.61,216.21,197.29,219.09z"/>
	<path class="st2" d="M141.87,194.95c-0.37,0.5-0.62,0.85-0.9,1.22c-0.01,0.4-0.16,0.9,0,1.25c1.16,2.54,0.46,4.67-1.34,6.6
		c-0.08,0.09-0.08,0.26-0.12,0.4c0.17,1.58,0.17,1.58,1.17,3.02c-0.15,1.61-1.24,2.78-1.85,4.16c-0.61,1.37-1.34,2.71-1.69,4.17
		c-0.38-0.03-0.73,0.04-0.9-0.1c-0.98-0.82-1.92-1.69-2.77-2.45c0-0.83,0.05-1.51-0.02-2.18c-0.06-0.55-0.51-1.19-0.33-1.6
		c0.48-1.13-0.08-2.19,0.04-3.26c0.04-0.38,0.44-0.72,0.67-1.09c-0.99-3.18-0.68-6.41-0.21-9.77c0.25-0.34,0.58-0.79,0.91-1.25
		c-1.03-2.13-0.76-4.4-0.73-6.65c0.01-0.98,0.32-1.97,0.23-2.94c-0.39-3.98,0.5-7.89,0.6-11.83c0.82-2.17,0.17-4.51,0.79-6.69
		c0.6-2.11,0.29-4.23,0.32-6.35c0-0.29-0.04-0.58,0.01-0.86c0.69-3.9,0.98-7.84,1.21-11.79c0.08-1.38,0.65-2.74,1.02-4.22
		c0.84-0.52,1.78-1.1,3.04-1.88c1.92-0.57,4.12-0.24,6.49,0.75c0.37,0.72,0.81,1.58,1.35,2.64c-0.22,0.37-0.69,0.81-0.75,1.31
		c-0.26,2.23-1.12,4.35-1.19,6.62c-0.03,0.85,0.03,1.74-0.22,2.52c-0.62,1.91-0.87,3.84-0.55,5.56c-0.45,0.75-0.75,1.23-0.84,1.39
		c-0.24,1.89-0.42,3.43-0.63,4.97c-0.42,3.06-0.13,6.21-1.27,9.17c0.34,2.26-0.73,4.47-0.3,6.74c-0.66,3.6-0.24,7.31-1.15,10.89
		C141.82,193.96,141.89,194.55,141.87,194.95z"/>
	<path class="st2" d="M188.87,66.3c0.93-0.13,1.76-0.25,2.54-0.36c1.02,0.68,1.21,1.58,0.73,3.06c-0.64,0.6-1.55,1.47-2.54,2.4
		c0.06,0.96,0.13,1.91,0.19,2.92c-0.64,0.2-1.29,0.4-1.93,0.6c-0.72,0.68-0.37,1.64-0.75,2.64c-1.15,0.95-2.46,2.03-3.91,3.23
		c-0.46,0.11-1.11,0.26-1.76,0.42c0.17,1.02,0.31,1.82,0.46,2.72c-1.04,1.01-2.04,2-3.27,3.19c-0.41,0.88-0.94,2.02-1.55,3.32
		c-1.09,0.85-1.95,2.12-2.9,3.34c-3.52,4.52-7.31,8.83-10.13,13.87c-2.49,1.9-2.8,5.14-4.56,7.52c-0.69,0.94-0.62,2.45-0.87,3.59
		c-0.75,0.92-1.46,1.78-2.31,2.81c-3.1,0.55-5.63-1.32-8.21-3.04c-0.16-0.68-0.32-1.37-0.53-2.24c0.76-1.78,1.59-3.72,2.43-5.66
		c0.84-1.95,2.1-3.73,3.59-5.1c1.29-1.19,1.75-2.93,3.15-3.93c0.96-2.7,3.49-4.36,4.61-6.96c0.15-0.36,0.55-0.67,0.91-0.89
		c2.46-1.54,3.43-4.53,5.88-6.07c0.28-2.06,2.65-2.52,3.3-4.29c0.6-1.65,2.77-2.1,3-4.01c1.41-1.22,2.82-2.42,4.21-3.65
		c0.94-0.84,2.13-1.45,2.48-2.84c0.09-0.35,0.55-0.63,0.88-0.9C184.22,70.12,186.43,68.31,188.87,66.3z"/>
	<path class="st2" d="M97.6,219.94c-0.93-0.52-1.54-0.86-2.15-1.21c-0.5-1-0.13-1.88,0.34-2.76c-0.15-0.24-0.3-0.49-0.45-0.73
		c0.43-0.88,0.86-1.76,1.31-2.67c-0.12-0.19-0.45-0.51-0.38-0.67c0.91-2.17,0.63-4.7,2-6.71c0.55-0.82,0.22-1.65,0.34-2.47
		c0.12-0.84,0.91-1.43,0.78-2.39c-0.07-0.53,0.06-1.14,0.25-1.65c0.33-0.89,0.79-1.74,1.19-2.6c-0.89-1.03,0.44-1.73,0.46-2.69
		c0.02-0.84,0.93-1.66,1.51-2.6c-0.54-1.42,0.63-2.57,0.93-3.92c0.46-2.05,1.08-4.06,2.19-5.87c1.12-1.83,1.09-4.02,1.93-5.95
		c1.23-2.8,2.11-5.75,3.24-8.59c1.58-4.02,4.16-7.37,7.64-10.1c1.65,0,3.35-0.01,5.37-0.01c0.59,0.57,1.3,1.25,1.93,1.85
		c-0.8,2.17-1.36,3.95-2.55,5.61c-1.6,2.23-3.1,4.59-3.76,7.43c-0.43,1.87-1.63,3.57-2.57,5.3c-0.74,1.37-1.39,2.72-1.56,4.33
		c-0.1,0.94-0.63,1.84-1.05,2.72c-0.79,1.65-1.65,3.26-2.59,5.1c-0.26,0.15-0.73,0.43-1.36,0.8c0.12,0.46,0.25,0.98,0.44,1.69
		c0,0.01-0.06,0.26-0.17,0.49c-0.31,0.62-0.73,1.21-0.94,1.86c-0.35,1.12-1.23,1.87-1.79,2.83c-0.46,0.79-0.54,1.81-1,3.5
		c-0.01,0.31,1.71,1.04,0.19,2.73c0.07-0.04-0.4,0.25-0.87,0.54c0.14,0.25,0.29,0.49,0.46,0.77c-0.51,0.93-0.87,1.92-1.54,2.84
		c-1.4,1.9-2.84,3.9-2.53,6.57c-0.52,0.62-1.06,1.26-1.63,1.94c-0.05,1.12-0.09,2.24-0.14,3.33c-0.34,0.38-0.63,0.69-1.09,1.21
		C99.33,219.82,98.5,219.88,97.6,219.94z"/>
</g>
</svg>
