<svg xmlns="http://www.w3.org/2000/svg" fill="none" viewBox="0 0 20 20" height="20" width="20"><path xmlns="http://www.w3.org/2000/svg" fill="#949AB6" d="M13 4.50001C13 3.91977 13.2018 3.3576 13.5709 2.90986C13.9399 2.46212 14.4533 2.15671 15.0228 2.04596C15.5924 1.93522 16.1828 2.02604 16.6927 2.30287C17.2027 2.5797 17.6004 3.02528 17.8179 3.56325C18.0353 4.10122 18.0588 4.69806 17.8844 5.25147C17.71 5.80487 17.3485 6.28038 16.8619 6.59647C16.3753 6.91257 15.7939 7.04957 15.2174 6.98398C14.6409 6.9184 14.1051 6.65432 13.702 6.23701L6.96999 9.60401C7.01177 9.86636 7.01177 10.1337 6.96999 10.396L13.703 13.763C14.1182 13.3336 14.6734 13.067 15.2681 13.0115C15.8629 12.956 16.4578 13.1153 16.9452 13.4606C17.4327 13.8058 17.7804 14.3142 17.9255 14.8936C18.0705 15.473 18.0033 16.0852 17.736 16.6194C17.4688 17.1536 17.019 17.5744 16.4683 17.8057C15.9176 18.037 15.3023 18.0634 14.7337 17.8803C14.1652 17.6971 13.681 17.3165 13.3689 16.8072C13.0567 16.298 12.9372 15.6938 13.032 15.104L6.29899 11.737C5.95283 12.0951 5.50759 12.3417 5.02037 12.4451C4.53315 12.5484 4.02615 12.5039 3.5644 12.3172C3.10264 12.1306 2.70717 11.8102 2.4287 11.3972C2.15024 10.9843 2.00146 10.4976 2.00146 9.99951C2.00146 9.50144 2.15024 9.01473 2.4287 8.60178C2.70717 8.18882 3.10264 7.86846 3.5644 7.68177C4.02615 7.49509 4.53315 7.45058 5.02037 7.55396C5.50759 7.65734 5.95283 7.9039 6.29899 8.26201L13.032 4.89601C13.0109 4.76506 13.0002 4.63265 13 4.50001Z"></path></svg>
