<svg width="16" height="16" viewBox="0 0 16 16" fill="none" xmlns="http://www.w3.org/2000/svg">
<path d="M8.14667 1.33331H7.85333C7.49971 1.33331 7.16057 1.47379 6.91053 1.72384C6.66048 1.97389 6.52 2.31302 6.52 2.66665V2.78665C6.51976 3.02046 6.45804 3.25011 6.34103 3.45254C6.22401 3.65497 6.05583 3.82307 5.85333 3.93998L5.56667 4.10665C5.36398 4.22367 5.13405 4.28528 4.9 4.28528C4.66595 4.28528 4.43603 4.22367 4.23333 4.10665L4.13333 4.05331C3.82738 3.87682 3.46389 3.82894 3.12267 3.92019C2.78145 4.01143 2.49037 4.23434 2.31333 4.53998L2.16667 4.79331C1.99018 5.09927 1.9423 5.46276 2.03354 5.80398C2.12478 6.1452 2.34769 6.43628 2.65333 6.61331L2.75333 6.67998C2.95485 6.79632 3.12241 6.96337 3.23937 7.16453C3.35632 7.3657 3.4186 7.59396 3.42 7.82665V8.16665C3.42093 8.40159 3.35977 8.63261 3.2427 8.83632C3.12563 9.04002 2.95681 9.20917 2.75333 9.32665L2.65333 9.38665C2.34769 9.56368 2.12478 9.85476 2.03354 10.196C1.9423 10.5372 1.99018 10.9007 2.16667 11.2066L2.31333 11.46C2.49037 11.7656 2.78145 11.9885 3.12267 12.0798C3.46389 12.171 3.82738 12.1231 4.13333 11.9466L4.23333 11.8933C4.43603 11.7763 4.66595 11.7147 4.9 11.7147C5.13405 11.7147 5.36398 11.7763 5.56667 11.8933L5.85333 12.06C6.05583 12.1769 6.22401 12.345 6.34103 12.5474C6.45804 12.7499 6.51976 12.9795 6.52 13.2133V13.3333C6.52 13.6869 6.66048 14.0261 6.91053 14.2761C7.16057 14.5262 7.49971 14.6666 7.85333 14.6666H8.14667C8.50029 14.6666 8.83943 14.5262 9.08948 14.2761C9.33953 14.0261 9.48 13.6869 9.48 13.3333V13.2133C9.48024 12.9795 9.54196 12.7499 9.65898 12.5474C9.77599 12.345 9.94418 12.1769 10.1467 12.06L10.4333 11.8933C10.636 11.7763 10.866 11.7147 11.1 11.7147C11.3341 11.7147 11.564 11.7763 11.7667 11.8933L11.8667 11.9466C12.1726 12.1231 12.5361 12.171 12.8773 12.0798C13.2186 11.9885 13.5096 11.7656 13.6867 11.46L13.8333 11.2C14.0098 10.894 14.0577 10.5305 13.9665 10.1893C13.8752 9.84809 13.6523 9.55701 13.3467 9.37998L13.2467 9.32665C13.0432 9.20917 12.8744 9.04002 12.7573 8.83632C12.6402 8.63261 12.5791 8.40159 12.58 8.16665V7.83331C12.5791 7.59837 12.6402 7.36734 12.7573 7.16364C12.8744 6.95994 13.0432 6.79079 13.2467 6.67331L13.3467 6.61331C13.6523 6.43628 13.8752 6.1452 13.9665 5.80398C14.0577 5.46276 14.0098 5.09927 13.8333 4.79331L13.6867 4.53998C13.5096 4.23434 13.2186 4.01143 12.8773 3.92019C12.5361 3.82894 12.1726 3.87682 11.8667 4.05331L11.7667 4.10665C11.564 4.22367 11.3341 4.28528 11.1 4.28528C10.866 4.28528 10.636 4.22367 10.4333 4.10665L10.1467 3.93998C9.94418 3.82307 9.77599 3.65497 9.65898 3.45254C9.54196 3.25011 9.48024 3.02046 9.48 2.78665V2.66665C9.48 2.31302 9.33953 1.97389 9.08948 1.72384C8.83943 1.47379 8.50029 1.33331 8.14667 1.33331Z" stroke="#FF5C80" stroke-linecap="round" stroke-linejoin="round"/>
<path d="M8 10C9.10457 10 10 9.10457 10 8C10 6.89543 9.10457 6 8 6C6.89543 6 6 6.89543 6 8C6 9.10457 6.89543 10 8 10Z" stroke="#FF5C80" stroke-linecap="round" stroke-linejoin="round"/>
</svg>
