<svg xmlns="http://www.w3.org/2000/svg" fill="none" viewBox="0 0 20 21" height="21" width="20" stroke="#949AB6"><path xmlns="http://www.w3.org/2000/svg" id="newsAuthorIcon" stroke-linejoin="round" stroke-linecap="round" stroke-width="1.5" d="M13.125 5.5C13.125 6.3288 12.7957 7.12366 12.2097 7.70971C11.6236 8.29576 10.8288 8.625 9.99999 8.625C9.17119 8.625 8.37633 8.29576 7.79028 7.70971C7.20423 7.12366 6.87499 6.3288 6.87499 5.5C6.87499 4.6712 7.20423 3.87634 7.79028 3.29029C8.37633 2.70424 9.17119 2.375 9.99999 2.375C10.8288 2.375 11.6236 2.70424 12.2097 3.29029C12.7957 3.87634 13.125 4.6712 13.125 5.5ZM3.75082 17.265C3.7776 15.6253 4.44777 14.0618 5.6168 12.9117C6.78584 11.7616 8.36006 11.1171 9.99999 11.1171C11.6399 11.1171 13.2141 11.7616 14.3832 12.9117C15.5522 14.0618 16.2224 15.6253 16.2492 17.265C14.2886 18.164 12.1568 18.6279 9.99999 18.625C7.76999 18.625 5.65332 18.1383 3.75082 17.265Z"></path></svg>
