<svg width="46" height="43" viewBox="0 0 46 43" fill="none" xmlns="http://www.w3.org/2000/svg">
<g clip-path="url(#clip0_476_363)">
<path d="M18.4006 2.75538C19.0144 1.0577 21.2962 0.664993 22.468 2.05536L28.609 9.3428C29.3688 10.2445 30.4934 10.7788 31.6896 10.8073L41.3625 11.037C43.2093 11.0808 44.2938 13.0739 43.3002 14.589L38.0865 22.5378C37.7677 23.0237 37.5599 23.571 37.4775 24.1424C37.3949 24.7136 37.4397 25.2957 37.6086 25.8485L40.3695 34.8886C40.8957 36.6109 39.2887 38.2375 37.5 37.7838L28.1366 35.4092C27.5642 35.264 26.9666 35.2407 26.3842 35.341C25.802 35.441 25.2485 35.6624 24.7616 35.99L16.7951 41.3473C15.2732 42.3705 13.1932 41.3787 13.0839 39.5844L12.5108 30.1679C12.4399 29.0025 11.8524 27.9254 10.9017 27.2166L3.21686 21.4875C1.75215 20.3956 2.073 18.1606 3.79296 17.5029L12.8021 14.0579C13.9162 13.6319 14.7856 12.7544 15.1836 11.6534L18.4006 2.75538Z" stroke="#616682" stroke-width="3"/>
</g>
<defs>
<clipPath id="clip0_476_363">
<rect width="46" height="43" fill="white"/>
</clipPath>
</defs>
</svg>
