<svg width="2105" height="2016" viewBox="0 0 2105 2016" fill="none" xmlns="http://www.w3.org/2000/svg">
<path d="M842.159 129.206C870.247 49.6119 974.664 31.2005 1028.29 96.3862L1309.31 438.048C1344.08 480.325 1395.54 505.375 1450.27 506.708L1892.92 517.479C1977.43 519.534 2027.06 612.976 1981.58 684.012L1743 1056.68C1728.41 1079.46 1718.91 1105.12 1715.13 1131.9C1711.36 1158.69 1713.4 1185.98 1721.13 1211.9L1847.48 1635.73C1871.56 1716.48 1798.01 1792.74 1716.16 1771.47L1287.68 1660.14C1261.49 1653.33 1234.14 1652.24 1207.5 1656.93C1180.85 1661.63 1155.52 1672.01 1133.24 1687.37L768.69 1938.54C699.049 1986.52 603.862 1940.01 598.859 1855.89L572.634 1414.41C569.39 1359.77 542.505 1309.26 498.999 1276.03L147.336 1007.44C80.3096 956.245 94.9916 851.459 173.699 820.623L585.965 659.109C636.945 639.136 676.731 597.996 694.945 546.377L842.159 129.206Z" fill="#FFAFF3"/>
<path d="M918.854 20.3846C868.914 29.1903 823.268 62.3473 804.37 115.899L657.155 533.071C642.802 573.743 611.494 606.125 571.303 621.871L159.037 783.384C53.2465 824.83 32.7944 970.346 122.984 1039.23L474.648 1307.83C491.581 1320.75 505.526 1337.17 515.533 1355.98C525.54 1374.78 531.372 1395.52 532.632 1416.78L558.857 1858.27C565.585 1971.53 697.705 2035.97 791.308 1971.48L1155.87 1720.31L1155.87 1720.31C1173.42 1708.21 1193.38 1700.03 1214.37 1696.32C1235.37 1692.62 1256.91 1693.48 1277.55 1698.85L1277.55 1698.85L1706.03 1810.19C1816.05 1838.78 1918.16 1733.04 1885.73 1624.3L1885.73 1624.3L1759.39 1200.47L1759.39 1200.47C1753.3 1180.06 1751.68 1158.58 1754.66 1137.48C1757.63 1116.39 1765.12 1096.19 1776.61 1078.26L1776.61 1078.25L2015.19 705.571L2015.19 705.569C2076.38 609.991 2007.4 480.248 1893.81 477.481L1451.16 466.712C1408.01 465.662 1367.51 445.941 1340.12 412.633L1059.1 70.961C1023.02 27.1045 968.784 11.5592 918.84 20.3656M932.287 96.615C954.981 92.6134 979.765 100.455 997.311 121.784L1278.33 463.446C1320.47 514.69 1382.9 545.072 1449.21 546.688L1891.86 557.457C1947.29 558.806 1977.57 615.95 1947.81 662.436L1709.23 1035.12C1673.45 1090.99 1663.76 1159.74 1682.71 1223.32L1809.06 1647.15C1824.8 1699.92 1779.82 1746.7 1726.14 1732.75L1726.14 1732.75L1297.66 1621.42C1233.45 1604.72 1165.09 1616.78 1110.45 1654.43L745.902 1905.6L745.9 1905.6C700.226 1937.07 641.964 1908.49 638.695 1853.52L612.472 1412.04C608.538 1345.8 575.913 1284.52 523.185 1244.24L171.521 975.647C127.66 942.146 136.575 878.093 188.196 857.862L600.472 696.344C662.239 672.145 710.506 622.246 732.577 559.678L732.577 559.676L879.792 142.505C888.983 116.463 909.587 100.619 932.281 96.617" fill="#151515"/>
<path d="M648.236 994.873C638.341 998.696 630.37 1006.29 626.076 1015.99C621.782 1025.69 621.517 1036.7 625.34 1046.6C630.274 1059.37 637.675 1071.05 647.12 1080.96L647.122 1080.96L647.123 1080.96C666.206 1100.98 692.454 1112.6 720.101 1113.28L720.114 1113.28L720.129 1113.28C733.806 1113.6 747.413 1111.23 760.175 1106.3L760.183 1106.3C772.963 1101.37 784.645 1093.97 794.562 1084.52L794.563 1084.52C814.581 1065.43 826.203 1039.18 826.874 1011.53C827.129 1000.93 823.161 990.653 815.842 982.974C808.523 975.295 798.454 970.837 787.849 970.582C782.598 970.456 777.373 971.365 772.473 973.257C767.573 975.15 763.093 977.99 759.291 981.614C755.488 985.238 752.436 989.575 750.31 994.378C748.184 999.182 747.024 1004.36 746.898 1009.61C746.824 1012.8 746.121 1015.94 744.83 1018.86C743.539 1021.77 741.685 1024.4 739.374 1026.6L739.372 1026.61L739.368 1026.61C737.066 1028.8 734.354 1030.52 731.387 1031.66L731.377 1031.67L731.366 1031.67C726.887 1033.41 721.994 1033.77 717.306 1032.72C712.619 1031.67 708.349 1029.26 705.038 1025.78L705.036 1025.77C702.836 1023.46 701.112 1020.74 699.963 1017.77C696.14 1007.87 688.542 999.902 678.842 995.608C669.141 991.315 658.132 991.05 648.236 994.873ZM1302.43 879.52C1292.54 883.342 1284.56 890.938 1280.27 900.638C1275.97 910.338 1275.71 921.347 1279.53 931.243C1284.46 944.02 1291.87 955.699 1301.32 965.611L1301.32 965.616L1301.33 965.621C1310.77 975.527 1322.07 983.479 1334.58 989.023L1334.59 989.026L1334.6 989.033C1347.12 994.57 1360.61 997.592 1374.29 997.926L1374.31 997.927L1374.32 997.928C1388.01 998.249 1401.62 995.876 1414.39 990.945L1414.39 990.944C1427.17 986.012 1438.84 978.612 1448.75 969.165C1458.67 959.723 1466.62 948.421 1472.16 935.905L1472.16 935.903C1477.72 923.371 1480.75 909.864 1481.07 896.159C1481.19 890.908 1480.28 885.683 1478.38 880.784C1476.49 875.884 1473.65 871.407 1470.02 867.606C1466.39 863.805 1462.05 860.756 1457.25 858.632C1452.44 856.508 1447.27 855.352 1442.02 855.229C1436.76 855.105 1431.54 856.017 1426.64 857.913C1421.74 859.809 1417.26 862.651 1413.46 866.277C1409.66 869.903 1406.61 874.242 1404.49 879.047C1402.37 883.852 1401.21 889.027 1401.09 894.279C1401.01 897.453 1400.31 900.581 1399.03 903.484L1399.02 903.496L1399.02 903.507C1397.73 906.418 1395.88 909.047 1393.57 911.242L1393.56 911.249L1393.56 911.259C1391.25 913.452 1388.54 915.169 1385.58 916.314L1385.57 916.318L1385.56 916.321C1382.59 917.47 1379.42 918.023 1376.23 917.949C1373.04 917.87 1369.9 917.166 1366.98 915.877C1364.07 914.584 1361.43 912.731 1359.23 910.422L1359.23 910.418L1359.22 910.413C1357.03 908.108 1355.3 905.393 1354.16 902.421C1350.33 892.526 1342.74 884.554 1333.04 880.259C1323.34 875.964 1312.33 875.698 1302.43 879.52ZM1012.33 1124.92C1002.43 1128.74 994.459 1136.33 990.163 1146.03C985.867 1155.73 985.599 1166.74 989.42 1176.64C994.354 1189.42 1001.76 1201.1 1011.21 1211.02L1011.21 1211.02L1011.21 1211.02C1020.66 1220.94 1031.97 1228.89 1044.5 1234.43L1044.5 1234.43C1057.02 1239.97 1070.5 1243 1084.18 1243.33L1084.19 1243.33L1084.21 1243.33C1097.89 1243.65 1111.49 1241.29 1124.25 1236.36C1137.04 1231.43 1148.73 1224.03 1158.65 1214.57L1158.66 1214.56C1168.56 1205.12 1176.52 1193.82 1182.06 1181.3L1182.07 1181.29L1182.07 1181.27C1187.61 1168.76 1190.63 1155.28 1190.96 1141.6C1191.22 1131 1187.26 1120.72 1179.94 1113.04C1172.63 1105.36 1162.56 1100.89 1151.96 1100.63C1141.35 1100.37 1131.08 1104.34 1123.39 1111.65C1115.71 1118.97 1111.25 1129.03 1110.99 1139.64C1110.91 1142.83 1110.2 1145.98 1108.91 1148.9C1107.62 1151.82 1105.76 1154.46 1103.45 1156.66C1101.15 1158.85 1098.44 1160.57 1095.47 1161.72L1095.46 1161.72L1095.45 1161.73C1092.48 1162.87 1089.31 1163.43 1086.12 1163.35C1082.93 1163.28 1079.79 1162.57 1076.88 1161.28L1076.87 1161.27L1076.85 1161.27C1073.95 1159.98 1071.32 1158.14 1069.13 1155.83L1069.12 1155.83L1069.12 1155.83C1066.92 1153.52 1065.2 1150.8 1064.05 1147.83C1060.23 1137.93 1052.63 1129.96 1042.93 1125.66C1033.24 1121.37 1022.23 1121.1 1012.33 1124.92Z" fill="#151515"/>
</svg>
