<svg xmlns="http://www.w3.org/2000/svg" fill="none" viewBox="0 0 2821 2320"><path fill="#ffaff3" d="M1391.62 307.436c26.29-80.203 130.27-100.947 185.33-36.978l288.6 335.285c35.71 41.487 87.72 65.38 142.47 65.486l442.78.856c84.53.163 136.25 92.473 92.38 164.505l-230.19 377.92a188.2 188.2 0 0 0-18.39 155.67l135.82 420.9c25.87 80.19-45.95 158.07-128.25 138.64l-430.87-101.71a188.63 188.63 0 0 0-153.79 30.68l-358.84 259.27c-68.55 49.53-164.76 5.17-171.64-78.81l-36.1-440.79c-4.47-54.56-32.48-104.45-76.72-136.7l-357.586-260.65c-68.156-49.68-55.824-154.77 22.173-187.36l408.553-170.706c50.52-21.109 89.37-63.13 106.43-115.144z" color="#000"/><path fill="#151515" d="M1494.256 193.922c-60.276.797-119.64 36.972-140.647 101.055l-137.838 420.359a148.4 148.4 0 0 1-83.843 90.701L723.375 976.742c-104.837 43.805-122.023 189.743-30.312 256.592l357.585 260.65c34.865 25.417 56.895 64.66 60.416 107.643l-.001-.002 36.101 440.791c9.264 113.083 142.791 174.542 234.932 107.967l358.838-259.268.002-.002a148.55 148.55 0 0 1 121.173-24.174l430.87 101.711c110.627 26.118 210.344-81.872 175.51-189.851v-.002l-135.82-420.895-.001-.006a148.12 148.12 0 0 1 14.482-122.576v-.002l230.192-377.922h.002c59.031-96.926-12.848-225.091-126.467-225.31l-442.78-.857c-43.161-.084-84.096-18.893-112.232-51.58l-288.6-335.286c-30.1-34.97-71.768-50.987-113.01-50.441m4.06 77.785c17.395 1.128 34.806 9.15 48.317 24.846l288.601 335.285c43.284 50.286 106.371 79.262 172.71 79.39l442.779.856c55.44.107 87.003 56.562 58.295 103.7l-230.19 377.917c-34.516 56.661-42.66 125.612-22.297 188.756v.004l135.823 420.902-.002-.002c16.905 52.401-27.018 100.172-80.99 87.43h-.003l-430.869-101.71h-.002c-64.563-15.24-132.629-1.662-186.402 37.185l-358.842 259.271c-44.959 32.485-103.852 5.225-108.348-49.652l-36.1-440.791c-5.417-66.136-39.409-126.675-93.023-165.758h-.002l-357.585-260.65c-44.602-32.511-37.124-96.752 14.033-118.127l408.552-170.707c61.213-25.577 108.34-76.547 129.016-139.586h.002l137.84-420.37.002-.001c10.751-32.8 39.694-50.067 68.685-48.188" color="#000"/><circle cx="1249.43" cy="1279.2" r="78.571" fill="#151515" transform="rotate(-11.283 1249.43 1279.2)"/><circle cx="1879.86" cy="1153.43" r="78.571" fill="#151515" transform="rotate(-11.283 1879.86 1153.43)"/><path fill="#151515" d="M1670.55 1350.984a40 40 0 0 0-15.607.008l-123.609 24.66a40 40 0 0 0-31.4 47.053 40 40 0 0 0 47.052 31.402l123.61-24.66a40 40 0 0 0 31.4-47.052 40 40 0 0 0-31.445-31.41" color="#000"/><path fill="#FFF2F8" fill-rule="evenodd" d="M1206.16 1532.78c-7.89-33.66-37.92-57.46-72.5-57.46H113.508c-49.069 0-84.724 46.63-71.863 93.99l177.984 655.3c8.809 32.43 38.253 54.94 71.862 54.94H1411.29l-132.43-436.86z" clip-rule="evenodd"/><path fill="#F8B8E6" d="m1411.29 2279.55 252.79-315.24c39.78-48.62 5.19-121.62-57.63-121.62h-327.59z"/><path fill="#151515" d="M1408.1 2279.55v40c11.99 0 23.36-5.38 30.96-14.67zm-102.48-436.86-38.75 9.93 7.71 30.07h31.04zm360.41 121.62-30.96-25.33zm-1444.457 260.3-38.602 10.48zM43.59 1569.31l38.601-10.49zm1182.61-36.53-38.94 9.14c.06.26.13.53.19.79zm-79.22-97.46H115.452v80H1146.98zM4.988 1579.79l177.983 655.3 77.203-20.97-177.983-655.3zm288.447 739.76H1408.1v-80H293.435zm1145.625-14.67 257.92-315.24-61.91-50.66-257.93 315.24zm-94.69-472.12-79.42-309.91-77.5 19.86 79.42 309.91zm264.02-30.07h-302.77v80h302.77zm88.59 186.95c61.15-74.74 7.98-186.95-88.59-186.95v80c29.08 0 45.09 33.78 26.68 56.29zM182.971 2235.09c13.542 49.86 58.802 84.46 110.464 84.46v-80c-15.556 0-29.183-10.42-33.261-25.43zm-67.519-799.77c-75.426 0-130.234 71.68-110.464 144.47l77.203-20.97c-5.953-21.92 10.55-43.5 33.261-43.5zm1031.528 80c20.16 0 37.51 14.78 40.28 26.6l77.88-18.27c-13.02-55.51-69.18-88.33-118.16-88.33z"/></svg>