<?xml version="1.0" encoding="UTF-8" standalone="no"?>
<!DOCTYPE svg PUBLIC "-//W3C//DTD SVG 1.1//EN" "http://www.w3.org/Graphics/SVG/1.1/DTD/svg11.dtd">
<svg height="100%" stroke-miterlimit="10" style="fill-rule:nonzero;clip-rule:evenodd;stroke-linecap:round;stroke-linejoin:round;" version="1.1" viewBox="0 0 2105 2016" width="100%" xml:space="preserve" xmlns="http://www.w3.org/2000/svg" xmlns:xlink="http://www.w3.org/1999/xlink">
<defs>
<path d="M431.098 1099.7L194.421 1094.75L141.337 1008L195.559 921.218L531.252 921.473L668.785 688.053L324.391 688.284L426.38 512.29L664.22 513.177L546.683 307.281L597.416 218.341L697.57 220.689L868.359 513.392L1131.95 509.2L967.178 222.747L1165.82 218.778L1285.79 426.175L1407.51 221.16L1507.95 220.034L1558.49 310.24L1385.39 600.255L1519.55 830.285L1690.35 539.919L1791.84 712.555L1674.06 922.022L1911.37 918.847L1959.97 1007.09L1911.72 1095.1L1572.74 1093.8L1438.49 1323.08L1778.89 1324.68L1678.12 1500.48L1439.16 1502.59L1560.17 1708.26L1508.92 1795.57L1404.65 1792.86L1237.79 1501.86L968.503 1499.06L1140.62 1796.23L936.604 1797.28L817.396 1591.88L699.621 1796.74L597.742 1796.43L548.334 1708.9L717.603 1414.92L586.457 1185.96L416.195 1476.94L309.809 1303.14L431.098 1099.7Z" id="Fill"/>
</defs>
<g id="Untitled">
<g opacity="1">
<use fill="#ffaff3" fill-rule="nonzero" stroke="none" xlink:href="#Fill"/>
<mask height="1738.94" id="StrokeMask" maskUnits="userSpaceOnUse" width="1978.64" x="61.3375" y="138.341">
<rect fill="#ffffff" height="1738.94" stroke="none" width="1978.64" x="61.3375" y="138.341"/>
<use fill="#000000" fill-rule="evenodd" stroke="none" xlink:href="#Fill"/>
</mask>
<use fill="none" mask="url(#StrokeMask)" stroke="#151515" stroke-linecap="butt" stroke-linejoin="round" stroke-width="160" xlink:href="#Fill"/>
</g>
<path d="M741.61 1115.97C784.346 1108.43 812.883 1067.68 805.349 1024.95C797.815 982.211 757.064 953.684 714.328 961.22C671.592 968.757 643.055 1009.51 650.589 1052.24C658.123 1094.97 698.875 1123.51 741.61 1115.97Z" fill="#151515" fill-rule="nonzero" opacity="1" stroke="none"/>
<path d="M1374.68 1004.34C1417.41 996.811 1445.95 956.055 1438.41 913.323C1430.88 870.59 1390.13 842.057 1347.39 849.594C1304.66 857.13 1276.12 897.882 1283.65 940.615C1291.19 983.351 1331.94 1011.88 1374.68 1004.34Z" fill="#151515" fill-rule="nonzero" opacity="1" stroke="none"/>
<path d="M993.069 1098.46C988.169 1100.35 983.689 1103.19 979.879 1106.81C976.079 1110.43 973.019 1114.77 970.899 1119.57C968.769 1124.38 967.609 1129.55 967.479 1134.8C967.349 1140.05 968.259 1145.28 970.149 1150.18C975.089 1162.95 982.489 1174.63 991.939 1184.55L991.939 1184.55C1001.39 1194.47 1012.7 1202.42 1025.23 1207.96L1025.24 1207.97C1037.75 1213.51 1051.23 1216.53 1064.92 1216.86L1064.93 1216.86L1064.95 1216.86C1078.63 1217.18 1092.24 1214.81 1105.01 1209.88L1105.02 1209.88C1117.79 1204.95 1129.47 1197.55 1139.38 1188.1L1139.39 1188.1L1139.39 1188.09C1149.3 1178.65 1157.25 1167.34 1162.79 1154.83C1168.35 1142.3 1171.37 1128.79 1171.69 1115.09C1171.94 1104.49 1167.97 1094.22 1160.65 1086.54C1153.32 1078.87 1143.25 1074.42 1132.64 1074.17C1127.39 1074.04 1122.17 1074.96 1117.27 1076.85C1112.37 1078.75 1107.89 1081.59 1104.09 1085.22C1100.29 1088.84 1097.24 1093.18 1095.12 1097.99C1093 1102.79 1091.84 1107.97 1091.72 1113.22C1091.64 1116.39 1090.94 1119.52 1089.65 1122.42L1089.65 1122.43L1089.64 1122.45C1088.35 1125.36 1086.5 1127.99 1084.2 1130.19C1081.89 1132.39 1079.18 1134.11 1076.21 1135.25L1076.19 1135.26C1073.21 1136.41 1070.04 1136.96 1066.85 1136.89C1063.67 1136.81 1060.53 1136.1 1057.62 1134.81L1057.6 1134.81L1057.59 1134.8C1054.68 1133.51 1052.06 1131.67 1049.86 1129.37L1049.86 1129.36L1049.86 1129.36C1047.66 1127.05 1045.94 1124.34 1044.79 1121.36C1042.9 1116.46 1040.06 1111.98 1036.44 1108.18C1032.81 1104.38 1028.48 1101.32 1023.67 1099.2C1018.87 1097.07 1013.69 1095.91 1008.44 1095.78C1003.19 1095.65 997.969 1096.56 993.069 1098.46Z" fill="#151515" fill-rule="nonzero" opacity="1" stroke="none"/>
</g>
</svg>
