<svg width="2105" height="2016" viewBox="0 0 2105 2016" fill="none" xmlns="http://www.w3.org/2000/svg">
<path d="M842.17 129.185C870.258 49.5912 974.67 31.1805 1028.29 96.3661L1309.31 438.028C1344.08 480.305 1395.54 505.355 1450.28 506.688L1892.92 517.458C1977.43 519.514 2027.06 612.96 1981.59 683.991L1743.01 1056.67C1728.42 1079.45 1718.91 1105.1 1715.14 1131.89C1711.36 1158.67 1713.41 1185.96 1721.14 1211.88L1847.48 1635.71C1871.56 1716.47 1798.02 1792.73 1716.17 1771.46L1287.69 1660.12C1261.5 1653.31 1234.15 1652.22 1207.5 1656.92C1180.85 1661.62 1155.53 1672 1133.25 1687.35L768.69 1938.52C699.049 1986.5 603.859 1940 598.861 1855.88L572.637 1414.39C569.392 1359.76 542.508 1309.25 499.002 1276.02L147.338 1007.42C80.3125 956.226 94.9945 851.439 173.702 820.604L585.971 659.09C636.951 639.117 676.737 597.977 694.952 546.358L842.17 129.185Z" fill="#FFAFF3"/>
<path d="M918.858 20.3654C868.918 29.1711 823.273 62.3281 804.375 115.88L657.157 533.053C642.805 573.725 611.496 606.107 571.306 621.853L159.037 783.367C53.2451 824.813 32.795 970.329 122.985 1039.21L474.647 1307.81C491.58 1320.74 505.526 1337.16 515.533 1355.96C525.54 1374.77 531.372 1395.51 532.632 1416.77L558.857 1858.26C565.586 1971.52 697.701 2035.96 791.31 1971.47L1155.87 1720.3L1155.87 1720.29C1173.42 1708.19 1193.38 1700.01 1214.37 1696.31C1235.37 1692.61 1256.92 1693.47 1277.55 1698.84L1277.55 1698.84L1706.04 1810.18C1816.05 1838.77 1918.16 1733.03 1885.74 1624.29L1885.74 1624.29L1759.4 1200.46L1759.4 1200.46C1753.31 1180.05 1751.69 1158.57 1754.67 1137.47C1757.64 1116.38 1765.13 1096.18 1776.62 1078.25L1776.62 1078.24L2015.2 705.565L2015.2 705.563C2076.39 609.986 2007.41 480.239 1893.82 477.476L1451.18 466.706C1408.03 465.656 1367.53 445.935 1340.13 412.627L1059.11 70.9605C1023.03 27.104 968.798 11.5597 918.858 20.3654ZM932.305 96.6138C954.999 92.6122 979.783 100.454 997.329 121.783L1278.34 463.441C1320.49 514.686 1382.91 545.068 1449.23 546.682L1891.87 557.451C1947.31 558.8 1977.59 615.944 1947.83 662.428L1709.24 1035.11C1673.46 1090.98 1663.78 1159.73 1682.73 1223.31L1809.08 1647.15C1824.81 1699.92 1779.83 1746.7 1726.16 1732.75L1726.16 1732.75L1297.67 1621.41C1233.46 1604.72 1165.1 1616.77 1110.47 1654.42L745.922 1905.59L745.92 1905.59C700.247 1937.06 641.981 1908.49 638.716 1853.51L612.492 1412.03C608.558 1345.8 575.934 1284.51 523.206 1244.24L171.544 975.638C127.682 942.136 136.596 878.079 188.219 857.856L600.49 696.339C662.257 672.14 710.522 622.241 732.6 559.676L732.599 559.674L879.817 142.502C889.007 116.461 909.612 100.616 932.306 96.6146" fill="#151515"/>
<path d="M1035.64 1124.95C1025.75 1128.77 1017.77 1136.37 1013.48 1146.07C1009.18 1155.77 1008.91 1166.78 1012.73 1176.67C1017.67 1189.45 1025.07 1201.13 1034.52 1211.05L1034.52 1211.05L1034.52 1211.05C1043.97 1220.97 1055.28 1228.92 1067.81 1234.46L1067.82 1234.47C1080.33 1240.01 1093.82 1243.03 1107.5 1243.36L1107.51 1243.37L1107.53 1243.37C1121.21 1243.69 1134.81 1241.32 1147.58 1236.39L1147.59 1236.39C1160.36 1231.46 1172.04 1224.06 1181.96 1214.61L1181.97 1214.6L1181.97 1214.6C1191.88 1205.15 1199.83 1193.85 1205.37 1181.33C1210.92 1168.8 1213.95 1155.3 1214.27 1141.6C1214.52 1130.99 1210.54 1120.72 1203.22 1113.04C1195.9 1105.37 1185.82 1100.92 1175.22 1100.67C1169.97 1100.55 1164.74 1101.46 1159.84 1103.35C1154.94 1105.25 1150.47 1108.09 1146.67 1111.72C1142.87 1115.34 1139.82 1119.68 1137.69 1124.49C1135.57 1129.29 1134.41 1134.47 1134.29 1139.72C1134.22 1142.89 1133.52 1146.02 1132.23 1148.92L1132.22 1148.93L1132.21 1148.95C1130.92 1151.86 1129.07 1154.5 1126.77 1156.69L1126.77 1156.7C1124.46 1158.89 1121.75 1160.61 1118.78 1161.75L1118.77 1161.76L1118.77 1161.76C1115.79 1162.91 1112.62 1163.46 1109.43 1163.39C1106.25 1163.31 1103.11 1162.6 1100.2 1161.31L1100.18 1161.31L1100.17 1161.3C1097.26 1160.02 1094.63 1158.17 1092.44 1155.87L1092.44 1155.86L1092.44 1155.86C1090.24 1153.55 1088.51 1150.83 1087.36 1147.86C1083.54 1137.96 1075.95 1129.99 1066.25 1125.69C1056.55 1121.4 1045.54 1121.13 1035.64 1124.95ZM687.713 969.904C679.808 970.214 672.172 972.861 665.772 977.51C659.371 982.16 654.493 988.603 651.754 996.024C649.935 1000.95 649.104 1006.19 649.31 1011.44C649.516 1016.69 650.753 1021.85 652.952 1026.62C655.15 1031.39 658.267 1035.68 662.124 1039.24C665.981 1042.81 670.503 1045.58 675.431 1047.4L704.194 1058.01L680.798 1077.82C672.702 1084.68 667.66 1094.47 666.782 1105.04C665.904 1115.61 669.262 1126.1 676.117 1134.2C682.972 1142.29 692.763 1147.33 703.335 1148.21C713.907 1149.09 724.395 1145.73 732.491 1138.88L808.222 1074.76C813.557 1070.24 817.615 1064.4 819.99 1057.83C822.366 1051.25 822.978 1044.17 821.764 1037.28C820.55 1030.4 817.553 1023.95 813.072 1018.59C808.59 1013.22 802.781 1009.12 796.223 1006.7L703.127 972.347C698.2 970.528 692.962 969.698 687.713 969.904ZM1443.83 836.581C1438.82 838.184 1434.18 840.756 1430.17 844.151L1354.45 908.274C1349.11 912.793 1345.06 918.63 1342.68 925.205C1340.31 931.779 1339.69 938.862 1340.91 945.746C1342.12 952.63 1345.12 959.076 1349.6 964.442C1354.08 969.808 1359.89 973.905 1366.45 976.327L1459.54 1010.68C1469.49 1014.35 1480.5 1013.92 1490.13 1009.48C1499.76 1005.04 1507.24 996.954 1510.91 987.002C1512.73 982.074 1513.56 976.835 1513.36 971.586C1513.15 966.338 1511.91 961.18 1509.71 956.41C1507.52 951.639 1504.4 947.348 1500.54 943.782C1496.69 940.216 1492.16 937.444 1487.24 935.626L1458.48 925.013L1481.87 905.203C1485.88 901.808 1489.18 897.657 1491.59 892.987C1493.99 888.317 1495.45 883.219 1495.89 877.984C1496.32 872.749 1495.72 867.479 1494.12 862.477C1492.52 857.474 1489.94 852.836 1486.55 848.827C1481.44 842.79 1474.65 838.404 1467.04 836.224C1459.44 834.044 1451.36 834.169 1443.82 836.581" fill="#151515"/>
</svg>
