<svg width="2105" height="2016" viewBox="0 0 2105 2016" fill="none" xmlns="http://www.w3.org/2000/svg">
<g clip-path="url(#clip0_1_40)">
<g filter="url(#filter0_d_1_40)">
<path d="M851.6 167.386C878.475 91.2094 978.382 73.5891 1029.69 135.977L1298.57 462.969C1331.84 503.431 1381.08 527.407 1433.45 528.68L1856.97 538.992C1937.84 540.961 1985.32 630.389 1941.81 698.375L1713.54 1055.04C1699.58 1076.84 1690.48 1101.4 1686.87 1127.03C1683.26 1152.67 1685.22 1178.78 1692.61 1203.59L1813.51 1609.22C1836.54 1686.51 1766.18 1759.49 1687.86 1739.14L1277.89 1632.58C1252.83 1626.06 1226.66 1625.02 1201.17 1629.51C1175.67 1634.01 1151.44 1643.94 1130.12 1658.64L781.315 1899.02C714.68 1944.93 623.607 1900.43 618.819 1819.93L593.725 1397.4C590.62 1345.11 564.896 1296.77 523.269 1264.97L186.794 1007.9C122.662 958.906 136.71 858.621 212.017 829.11L606.477 674.534C655.255 655.417 693.322 616.043 710.75 566.642L851.6 167.386Z" fill="#FFD3E6"/>
<path d="M925.015 63.2723C877.232 71.6996 833.557 103.434 815.477 154.685L674.623 553.942C667.855 573.16 657.013 590.7 642.837 605.366C628.661 620.033 611.484 631.48 592.477 638.929L198.017 793.505C96.7976 833.169 77.229 972.437 163.522 1038.36L499.998 1295.43C516.2 1307.8 529.544 1323.51 539.119 1341.51C548.694 1359.51 554.275 1379.36 555.481 1399.71L580.574 1822.23C587.012 1930.63 713.415 1992.3 802.987 1930.59L1151.8 1690.2L1151.8 1690.2C1168.6 1678.62 1187.69 1670.79 1207.78 1667.25C1227.87 1663.7 1248.48 1664.53 1268.22 1669.67L1268.22 1669.67L1678.2 1776.23C1783.47 1803.59 1881.16 1702.39 1850.14 1598.32L1850.14 1598.32L1729.25 1192.69C1723.42 1173.16 1721.88 1152.59 1724.72 1132.41C1727.57 1112.22 1734.73 1092.89 1745.72 1075.72L1745.73 1075.72L1974 719.044C2032.55 627.571 1966.54 503.389 1857.86 500.75L1434.33 490.441C1413.93 489.943 1393.87 485.062 1375.54 476.13C1357.2 467.198 1341.02 454.425 1328.08 438.682L1059.2 111.688C1024.68 69.7122 972.788 54.836 925.001 63.2641M937.868 136.239C959.582 132.409 983.295 139.915 1000.08 160.328L1268.97 487.32C1309.29 536.364 1369.02 565.442 1432.47 566.988L1855.99 577.297C1909.03 578.589 1938.01 633.281 1909.53 677.767L1681.26 1034.44C1647.02 1087.91 1637.76 1153.71 1655.89 1214.56L1776.78 1620.19C1791.84 1670.7 1748.8 1715.46 1697.44 1702.11L1287.46 1595.56C1257.1 1587.66 1225.38 1586.4 1194.47 1591.85C1163.56 1597.3 1134.18 1609.34 1108.35 1627.15L759.543 1867.53L759.546 1867.53C715.841 1897.64 660.089 1870.3 656.964 1817.69L631.872 1395.16C628.107 1331.77 596.891 1273.12 546.441 1234.57L209.964 977.509C167.997 945.447 176.525 884.134 225.919 864.783L620.379 710.209C679.48 687.047 725.661 639.29 746.779 579.413L746.778 579.41L887.632 180.153C896.427 155.229 916.141 140.065 937.854 136.235" fill="#FFA5E6"/>
</g>
<path d="M802.317 1138.71C843.206 1131.5 870.508 1092.5 863.299 1051.6C856.089 1010.7 817.097 983.393 776.208 990.604C735.319 997.816 708.017 1036.82 715.226 1077.71C722.436 1118.61 761.428 1145.92 802.317 1138.71Z" fill="#9F57A5"/>
<path d="M1408.04 1031.88C1448.93 1024.67 1476.24 985.668 1469.03 944.769C1461.82 903.871 1422.82 876.562 1381.94 883.774C1341.05 890.985 1313.74 929.986 1320.95 970.884C1328.16 1011.78 1367.16 1039.09 1408.04 1031.88Z" fill="#9F57A5"/>
<path d="M1042.91 1121.95C1038.22 1123.76 1033.94 1126.48 1030.3 1129.94C1026.66 1133.41 1023.74 1137.56 1021.7 1142.16C1019.67 1146.75 1018.56 1151.71 1018.44 1156.73C1018.31 1161.76 1019.18 1166.76 1020.99 1171.45C1025.71 1183.68 1032.8 1194.86 1041.84 1204.35L1041.84 1204.35C1050.88 1213.84 1061.7 1221.45 1073.69 1226.76L1073.7 1226.76C1085.67 1232.06 1098.57 1234.96 1111.67 1235.27L1111.68 1235.28L1111.69 1235.27C1124.79 1235.58 1137.81 1233.31 1150.03 1228.59L1150.03 1228.59C1162.25 1223.87 1173.43 1216.79 1182.91 1207.75L1182.92 1207.75L1182.92 1207.74C1192.4 1198.7 1200.01 1187.88 1205.31 1175.91C1210.63 1163.91 1213.52 1150.99 1213.83 1137.88C1213.95 1132.85 1213.07 1127.85 1211.26 1123.16C1209.44 1118.47 1206.72 1114.19 1203.25 1110.55C1199.79 1106.91 1195.63 1104 1191.04 1101.96C1186.44 1099.93 1181.49 1098.83 1176.46 1098.71C1171.44 1098.59 1166.44 1099.46 1161.75 1101.28C1157.06 1103.09 1152.78 1105.81 1149.14 1109.28C1145.51 1112.75 1142.59 1116.91 1140.56 1121.5C1138.53 1126.1 1137.42 1131.06 1137.3 1136.08C1137.23 1139.12 1136.56 1142.11 1135.33 1144.88L1135.32 1144.9L1135.31 1144.92C1134.08 1147.7 1132.31 1150.22 1130.11 1152.32C1127.91 1154.43 1125.31 1156.07 1122.46 1157.17L1122.45 1157.17L1122.45 1157.17C1119.6 1158.27 1116.57 1158.8 1113.51 1158.73C1110.47 1158.66 1107.47 1157.98 1104.68 1156.75L1104.66 1156.74L1104.65 1156.74C1101.87 1155.51 1099.36 1153.74 1097.26 1151.54L1097.26 1151.53L1097.25 1151.53C1095.15 1149.32 1093.5 1146.72 1092.4 1143.87C1090.59 1139.18 1087.88 1134.9 1084.41 1131.26C1080.94 1127.62 1076.79 1124.69 1072.2 1122.66C1067.6 1120.62 1062.65 1119.51 1057.63 1119.39C1052.6 1119.27 1047.6 1120.14 1042.91 1121.95Z" fill="#B773B3"/>
</g>
<defs>
<filter id="filter0_d_1_40" x="30.9726" y="-17.0274" width="2042.9" height="2050.16" filterUnits="userSpaceOnUse" color-interpolation-filters="sRGB">
<feFlood flood-opacity="0" result="BackgroundImageFix"/>
<feColorMatrix in="SourceAlpha" type="matrix" values="0 0 0 0 0 0 0 0 0 0 0 0 0 0 0 0 0 0 127 0" result="hardAlpha"/>
<feOffset/>
<feGaussianBlur stdDeviation="39.0137"/>
<feComposite in2="hardAlpha" operator="out"/>
<feColorMatrix type="matrix" values="0 0 0 0 1 0 0 0 0 0.433333 0 0 0 0 0.841334 0 0 0 1 0"/>
<feBlend mode="normal" in2="BackgroundImageFix" result="effect1_dropShadow_1_40"/>
<feBlend mode="normal" in="SourceGraphic" in2="effect1_dropShadow_1_40" result="shape"/>
</filter>
<clipPath id="clip0_1_40">
<rect width="2105" height="2016" fill="white"/>
</clipPath>
</defs>
</svg>
