<?xml version="1.0" encoding="UTF-8" standalone="no"?>
<!DOCTYPE svg PUBLIC "-//W3C//DTD SVG 1.1//EN" "http://www.w3.org/Graphics/SVG/1.1/DTD/svg11.dtd">
<svg height="100%" stroke-miterlimit="10" style="fill-rule:nonzero;clip-rule:evenodd;stroke-linecap:round;stroke-linejoin:round;" version="1.1" viewBox="0 0 2105 2016" width="100%" xml:space="preserve" xmlns="http://www.w3.org/2000/svg" xmlns:xlink="http://www.w3.org/1999/xlink">
<defs>
<path d="M1081.17 1637.97C954.439 1637.97 839.786 1617.45 737.217 1576.42C634.648 1535.38 546.524 1477.91 472.846 1404C399.168 1330.1 342.888 1243.11 304.004 1143.03C265.121 1042.94 245.68 934.282 245.68 817.043C245.68 699.616 266.417 591.232 307.893 491.891C349.368 392.55 408.518 306.094 485.342 232.522C562.166 158.95 652.728 101.803 757.03 61.0821C861.331 20.3607 975.99 1.13687e-13 1101.01 1.13687e-13C1187.87 1.13687e-13 1270.25 11.3115 1348.14 33.9345C1426.04 56.5575 1496.55 87.5757 1559.69 126.989C1622.82 166.403 1676.16 211.207 1719.71 261.402L1486.02 508.381C1449.42 473.292 1411.05 443.369 1370.91 418.614C1330.76 393.858 1287.97 374.587 1242.52 360.801C1197.08 347.015 1148.61 340.122 1097.12 340.122C1031.25 340.122 970.717 352.07 915.514 375.966C860.312 399.861 812.108 433.118 770.904 475.737C729.699 518.355 697.58 568.78 674.544 627.01C651.509 685.241 639.991 748.585 639.991 817.043C639.991 884.229 652.045 947.255 676.153 1006.12C700.26 1064.99 733.67 1116.06 776.383 1159.32C819.096 1202.59 869.243 1236.49 926.826 1261.02C984.408 1285.55 1046.34 1297.82 1112.63 1297.82C1160.21 1297.82 1204.55 1290.45 1245.65 1275.71C1286.75 1260.97 1322.68 1240.57 1353.45 1214.52C1384.21 1188.47 1408.31 1157.74 1425.73 1122.33C1443.16 1086.92 1451.87 1048.87 1451.87 1008.17L1451.87 951.226L1502.67 1027.08L1065.3 1027.08L1065.3 726.551L1810.77 726.551C1812.93 743.141 1814.98 765.635 1816.92 794.031C1818.85 822.428 1820.19 850.282 1820.95 877.595C1821.7 904.908 1822.08 925.351 1822.08 938.925C1822.08 1041.27 1803.55 1135.26 1766.49 1220.9C1729.44 1306.54 1677.56 1380.27 1610.85 1442.11C1544.15 1503.95 1465.81 1552.05 1375.84 1586.42C1285.87 1620.79 1187.64 1637.97 1081.17 1637.97Z" id="Fill"/>
</defs>
<g id="g8">
<g opacity="1">
<path d="M122.265 285.572L1982.73 285.572L1982.73 1893.84L122.265 1893.84L122.265 285.572Z" fill="#ffffff" fill-rule="nonzero" opacity="1" stroke="none"/>
<path d="M122.265 286.274L1982.73 286.274L1982.73 1351.7L122.265 1351.7L122.265 286.274Z" fill="#ffaff3" fill-rule="nonzero" opacity="1" stroke="none"/>
<use fill="#ffffff" fill-opacity="0" fill-rule="nonzero" opacity="1" stroke="none" xlink:href="#Fill"/>
<clipPath clip-rule="nonzero" id="ClipPath">
<use xlink:href="#Fill"/>
</clipPath>
<g clip-path="url(#ClipPath)">
<path d="M122.265 285.572L1982.73 285.572L1982.73 1893.84L122.265 1893.84L122.265 285.572Z" fill="#ffffff" fill-rule="nonzero" opacity="1" stroke="none"/>
</g>
</g>
<g opacity="1">
<path d="M370.68 1845.01C339.352 1845.01 311.012 1840 285.657 1829.98C260.303 1819.97 238.52 1805.94 220.308 1787.91C202.095 1769.87 188.183 1748.65 178.572 1724.22C168.96 1699.8 164.154 1673.28 164.154 1644.67C164.154 1616.01 169.28 1589.56 179.533 1565.32C189.785 1541.08 204.406 1519.98 223.396 1502.02C242.386 1484.07 264.773 1470.12 290.555 1460.19C316.337 1450.25 344.68 1445.28 375.582 1445.28C397.054 1445.28 417.417 1448.04 436.672 1453.56C455.928 1459.08 473.358 1466.65 488.964 1476.27C504.569 1485.89 517.755 1496.82 528.52 1509.07L470.754 1569.34C461.708 1560.78 452.223 1553.48 442.3 1547.44C432.376 1541.4 421.798 1536.69 410.564 1533.33C399.33 1529.96 387.349 1528.28 374.621 1528.28C358.34 1528.28 343.376 1531.2 329.731 1537.03C316.085 1542.86 304.17 1550.98 293.984 1561.38C283.799 1571.78 275.859 1584.08 270.165 1598.29C264.471 1612.5 261.624 1627.96 261.624 1644.67C261.624 1661.06 264.604 1676.45 270.563 1690.81C276.522 1705.18 284.781 1717.64 295.339 1728.2C305.897 1738.76 318.293 1747.03 332.527 1753.02C346.761 1759 362.071 1762 378.457 1762C390.218 1762 401.178 1760.2 411.337 1756.6C421.496 1753 430.378 1748.03 437.983 1741.67C445.588 1735.31 451.544 1727.81 455.852 1719.17C460.16 1710.53 462.313 1701.24 462.313 1691.31L462.313 1677.41L474.87 1695.93L366.757 1695.93L366.757 1622.59L551.028 1622.59C551.564 1626.63 552.071 1632.12 552.548 1639.05C553.026 1645.98 553.358 1652.78 553.545 1659.45C553.731 1666.11 553.824 1671.1 553.824 1674.41C553.824 1699.39 549.244 1722.33 540.084 1743.22C530.924 1764.12 518.1 1782.12 501.612 1797.21C485.123 1812.3 465.759 1824.04 443.518 1832.43C421.278 1840.81 396.999 1845.01 370.68 1845.01Z" fill="#151515" fill-rule="nonzero" opacity="1" stroke="none"/>
<path d="M617.007 1839.49L617.007 1430.94L706.709 1430.94L706.709 1839.49L617.007 1839.49Z" fill="#151515" fill-rule="nonzero" opacity="1" stroke="none"/>
<path d="M922.343 1845.01C889.576 1845.01 861.06 1838.5 836.796 1825.49C812.531 1812.47 793.729 1794.66 780.389 1772.05C767.049 1749.43 760.379 1723.46 760.379 1694.12C760.379 1671.72 764.107 1651.13 771.564 1632.36C779.02 1613.59 789.472 1597.3 802.919 1583.5C816.367 1569.7 832.317 1559.02 850.772 1551.48C869.226 1543.93 889.372 1540.16 911.211 1540.16C931.937 1540.16 950.982 1543.86 968.347 1551.25C985.712 1558.64 1000.72 1568.96 1013.37 1582.21C1026.03 1595.46 1035.72 1611.12 1042.46 1629.19C1049.2 1647.26 1052.28 1666.94 1051.69 1688.23L1051.13 1711.89L814.431 1711.89L801.569 1662.5L978.238 1662.5L968.566 1672.83L968.566 1661.49C968.094 1652.3 965.333 1644.14 960.282 1637C955.232 1629.86 948.585 1624.27 940.343 1620.23C932.1 1616.19 922.818 1614.17 912.495 1614.17C897.711 1614.17 885.242 1617.04 875.089 1622.79C864.936 1628.54 857.226 1636.83 851.96 1647.67C846.694 1658.51 844.061 1671.75 844.061 1687.4C844.061 1703.62 847.546 1717.77 854.516 1729.82C861.486 1741.87 871.569 1751.21 884.766 1757.83C897.963 1764.45 913.745 1767.76 932.112 1767.76C944.723 1767.76 955.989 1765.95 965.909 1762.32C975.83 1758.7 986.455 1752.43 997.785 1743.5L1040.02 1802.19C1028.3 1812.08 1015.9 1820.12 1002.82 1826.33C989.74 1832.53 976.453 1837.19 962.956 1840.32C949.459 1843.44 935.921 1845.01 922.343 1845.01Z" fill="#151515" fill-rule="nonzero" opacity="1" stroke="none"/>
<path d="M1217.97 1844.69C1193.31 1844.69 1171.17 1838.12 1151.54 1824.97C1131.92 1811.83 1116.36 1793.79 1104.85 1770.87C1093.35 1747.94 1087.6 1721.81 1087.6 1692.47C1087.6 1662.76 1093.34 1636.48 1104.81 1613.63C1116.29 1590.78 1132.05 1572.87 1152.1 1559.88C1172.15 1546.89 1195.03 1540.4 1220.76 1540.4C1234.97 1540.4 1247.99 1542.4 1259.81 1546.39C1271.63 1550.39 1282.03 1555.97 1291 1563.14C1299.97 1570.31 1307.58 1578.58 1313.84 1587.93C1320.1 1597.29 1324.83 1607.33 1328.03 1618.05L1309.39 1615.85L1309.39 1546.47L1398.05 1546.47L1398.05 1839.49L1307.78 1839.49L1307.78 1768.58L1327.95 1768.2C1324.86 1778.56 1319.97 1788.37 1313.29 1797.65C1306.61 1806.93 1298.43 1815.04 1288.77 1821.98C1279.11 1828.92 1268.33 1834.44 1256.43 1838.54C1244.53 1842.64 1231.71 1844.69 1217.97 1844.69ZM1243.02 1770.05C1256.69 1770.05 1268.58 1766.88 1278.68 1760.53C1288.79 1754.17 1296.59 1745.18 1302.09 1733.55C1307.59 1721.92 1310.34 1708.22 1310.34 1692.47C1310.34 1676.87 1307.59 1663.24 1302.09 1651.58C1296.59 1639.92 1288.79 1630.92 1278.68 1624.57C1268.58 1618.21 1256.69 1615.04 1243.02 1615.04C1229.51 1615.04 1217.8 1618.21 1207.88 1624.57C1197.96 1630.92 1190.25 1639.92 1184.75 1651.58C1179.25 1663.24 1176.5 1676.87 1176.5 1692.47C1176.5 1708.22 1179.25 1721.92 1184.75 1733.55C1190.25 1745.18 1197.96 1754.17 1207.88 1760.53C1217.8 1766.88 1229.51 1770.05 1243.02 1770.05Z" fill="#151515" fill-rule="nonzero" opacity="1" stroke="none"/>
<path d="M1476.82 1839.49L1476.82 1546.47L1561.94 1546.47L1564.51 1599.43L1552.6 1599.72C1557.09 1590.15 1562.8 1581.74 1569.75 1574.49C1576.7 1567.24 1584.56 1561.11 1593.31 1556.1C1602.07 1551.09 1611.26 1547.29 1620.86 1544.72C1630.47 1542.15 1639.98 1540.87 1649.4 1540.87C1664.04 1540.87 1677.37 1543.05 1689.4 1547.41C1701.44 1551.77 1711.87 1558.83 1720.72 1568.61C1729.56 1578.38 1736.6 1591.55 1741.83 1608.11L1728.06 1606.85L1732.3 1598.41C1737.26 1589.32 1743.53 1581.26 1751.12 1574.24C1758.71 1567.23 1767.17 1561.2 1776.49 1556.15C1785.81 1551.11 1795.47 1547.3 1805.48 1544.73C1815.5 1542.15 1825.21 1540.87 1834.64 1540.87C1858.13 1540.87 1877.75 1545.39 1893.49 1554.44C1909.23 1563.48 1921.06 1576.97 1928.98 1594.9C1936.89 1612.83 1940.85 1634.8 1940.85 1660.83L1940.85 1839.49L1850.9 1839.49L1850.9 1667.62C1850.9 1655.92 1849.24 1646.25 1845.91 1638.61C1842.59 1630.98 1837.66 1625.21 1831.12 1621.33C1824.58 1617.45 1816.41 1615.5 1806.63 1615.5C1798.97 1615.5 1791.86 1616.72 1785.3 1619.16C1778.73 1621.61 1773.11 1625.11 1768.43 1629.68C1763.75 1634.24 1760.09 1639.45 1757.43 1645.3C1754.77 1651.15 1753.45 1657.67 1753.45 1664.86L1753.45 1839.49L1663.5 1839.49L1663.5 1667.16C1663.5 1656.08 1661.8 1646.72 1658.4 1639.09C1655 1631.45 1650.02 1625.61 1643.48 1621.57C1636.94 1617.52 1629.01 1615.5 1619.71 1615.5C1612.05 1615.5 1604.98 1616.72 1598.5 1619.16C1592.01 1621.61 1586.43 1625.07 1581.75 1629.56C1577.07 1634.04 1573.4 1639.21 1570.74 1645.06C1568.08 1650.91 1566.76 1657.36 1566.76 1664.4L1566.76 1839.49L1476.82 1839.49Z" fill="#151515" fill-rule="nonzero" opacity="1" stroke="none"/>
</g>
<g opacity="1">
<path d="M921.591 590.387C964.327 582.847 992.864 542.097 985.33 499.367C977.796 456.627 937.045 428.1 894.309 435.636C851.573 443.173 823.036 483.927 830.57 526.657C838.104 569.387 878.856 597.927 921.591 590.387Z" fill="#151515" fill-rule="nonzero" opacity="1" stroke="none"/>
<path d="M1345.22 655.955C1387.95 648.425 1416.49 607.669 1408.95 564.937C1401.42 522.204 1360.67 493.671 1317.93 501.208C1275.2 508.744 1246.66 549.496 1254.19 592.229C1261.73 634.965 1302.48 663.495 1345.22 655.955Z" fill="#151515" fill-rule="nonzero" opacity="1" stroke="none"/>
<path d="M1009.49 600.013C1004.59 601.903 1000.11 604.743 996.297 608.363C992.497 611.983 989.437 616.323 987.317 621.123C985.187 625.933 984.027 631.103 983.897 636.353C983.767 641.603 984.677 646.833 986.567 651.733C991.507 664.503 998.907 676.183 1008.36 686.103L1008.36 686.103C1017.81 696.023 1029.12 703.973 1041.65 709.513L1041.66 709.523C1054.17 715.063 1067.65 718.083 1081.34 718.413L1081.35 718.413L1081.37 718.413C1095.05 718.733 1108.66 716.363 1121.43 711.433L1121.44 711.433C1134.21 706.503 1145.89 699.103 1155.8 689.653L1155.81 689.653L1155.81 689.643C1165.72 680.203 1173.67 668.893 1179.21 656.383C1184.77 643.853 1187.79 630.343 1188.11 616.643C1188.36 606.043 1184.39 595.773 1177.07 588.093C1169.74 580.423 1159.67 575.973 1149.06 575.723C1143.81 575.593 1138.59 576.513 1133.69 578.403C1128.79 580.303 1124.31 583.143 1120.51 586.773C1116.71 590.393 1113.66 594.733 1111.54 599.543C1109.42 604.343 1108.26 609.523 1108.14 614.773C1108.06 617.943 1107.36 621.073 1106.07 623.973L1106.07 623.983L1106.06 624.003C1104.77 626.913 1102.92 629.543 1100.62 631.743C1098.31 633.943 1095.6 635.663 1092.63 636.803L1092.61 636.813C1089.63 637.963 1086.46 638.513 1083.27 638.443C1080.09 638.363 1076.95 637.653 1074.04 636.363L1074.02 636.363L1074.01 636.353C1071.1 635.063 1068.48 633.223 1066.28 630.923L1066.28 630.913L1066.28 630.913C1064.08 628.603 1062.36 625.893 1061.21 622.913C1059.32 618.013 1056.48 613.533 1052.86 609.733C1049.23 605.933 1044.9 602.873 1040.09 600.753C1035.29 598.623 1030.11 597.463 1024.86 597.333C1019.61 597.203 1014.39 598.113 1009.49 600.013Z" fill="#151515" fill-rule="nonzero" opacity="1" stroke="none"/>
</g>
</g>
</svg>
