<?xml version="1.0" encoding="UTF-8" standalone="no"?>
<svg
   width="2135.4949"
   height="1979.056"
   viewBox="0 0 17083.959 15832.448"
   version="1.1"
   id="svg2"
   xml:space="preserve"
   xmlns="http://www.w3.org/2000/svg"
   xmlns:svg="http://www.w3.org/2000/svg"
   xmlns:rdf="http://www.w3.org/1999/02/22-rdf-syntax-ns#"
   xmlns:cc="http://creativecommons.org/ns#"
   xmlns:dc="http://purl.org/dc/elements/1.1/"><defs
     id="defs2" /><title
     id="title1">Flag of Canada</title><metadata
     id="metadata2"><rdf:RDF><cc:Work
         rdf:about=""><dc:title>Flag of Canada</dc:title></cc:Work></rdf:RDF></metadata><g
     id="layer2"
     style="display:inline"
     transform="translate(-17182.619,3289.8128)"><g
       id="g1"
       transform="matrix(4.3512452,0,0,4.3512452,-28865.835,-6101.3976)"><path
         style="display:inline;fill:#d52b1e;fill-opacity:1;stroke:#000000;stroke-width:152;stroke-linecap:round;stroke-linejoin:round;stroke-dasharray:none;stroke-dashoffset:0;stroke-opacity:1;paint-order:normal"
         d="m 11659.46,1740.9329 -91.481,-430.3849 469.705,-98.8831 182.206,-489.51476 365.557,373.08426 469.316,-100.7122 91.481,430.3849 273.882,-58.2152 237.212,154.0472 522.813,-233.8083 56.159,648.9868 196.738,156.0242 -607.872,987.9734 72.35,340.378 -1104.632,-2.3683 205.456,774.2016 -78.252,16.633 c -27.613,-129.9108 -127.204,-790.8346 -127.204,-790.8346 l -1008.167,451.4576 -72.35,-340.3781 -957.164,-655.3146 116.269,-222.556 -212.663,-615.7209 572.712,0.9471 154.048,-237.2118 z"
         id="path6-5-6-6-9-5-6" /><path
         d="m 12248.959,860.37352 -140.46,377.33958 a 76.0076,76.0076 0 0 1 -55.575,47.8663 l -395.185,83.1844 75.651,355.9082 a 76.0076,76.0076 0 0 1 -58.538,90.1405 l -239.157,50.8344 348.314,1638.6876 a 76.0076,76.0076 0 0 1 2.298,8.409 l 52.794,248.3731 922.314,-413.0198 a 76.0076,76.0076 0 0 1 4.334,-1.1769 76.0076,76.0076 0 0 1 11.201,-3.0677 76.0076,76.0076 0 0 1 11.297,-1.7143 76.0076,76.0076 0 0 1 4.392,-0.6781 l 1010.582,2.1701 -52.793,-248.3731 a 76.0076,76.0076 0 0 1 -1.077,-6.4164 76.0076,76.0076 0 0 1 -0.528,-6.469 l -347.433,-1634.5458 -239.754,50.9611 a 76.0076,76.0076 0 0 1 -90.14,-58.5379 l -75.651,-355.9082 -394.853,84.7433 a 76.0076,76.0076 0 0 1 -70.239,-21.1236 z"
         style="baseline-shift:baseline;display:inline;overflow:visible;vector-effect:none;fill:#ffaff3;fill-opacity:1;stroke-linecap:round;stroke-linejoin:round;enable-background:accumulate;stop-color:#000000"
         id="path67-0-2" /><g
         id="g20-2-3-6"
         transform="matrix(0.76766694,-0.16317265,0.16317265,0.76766694,13900.892,8822.3036)"
         style="display:inline"><path
           d="m -617.00497,-8238.2198 c 90.17398,-0.064 163.23044,-73.2006 163.17664,-163.3601 -0.0502,-90.18 -73.19251,-163.2164 -163.36505,-163.1606 -90.1729,0.058 -163.2308,73.2026 -163.177,163.3621 0.0538,90.1596 73.19347,163.2229 163.36541,163.1586 z"
           fill="#151515"
           id="path3-9-6-6-1"
           style="stroke-width:2.07793" /><path
           d="m 718.76288,-8239.0364 c 90.15811,-0.046 163.22286,-73.1935 163.1575,-163.3592 -0.0445,-90.1643 -73.18263,-163.2126 -163.36372,-163.1562 -90.16026,0.058 -163.22358,73.1975 -163.17904,163.3618 0.0639,90.174 73.2031,163.2161 163.38526,163.1536 z"
           fill="#151515"
           id="path4-1-1-1-8"
           style="stroke-width:2.07793" /><path
           d="m -96.077317,-8183.6341 c -10.707863,2.1061 -20.897783,6.3074 -29.996953,12.346 -9.07872,6.0422 -16.90186,13.824 -22.96663,22.8853 -6.08883,9.0782 -10.32193,19.2419 -12.47582,29.9397 -2.15388,10.6978 -2.17213,21.7286 -0.0661,32.4365 5.51819,27.9112 16.46291,54.4762 32.23601,78.1764 v 0 c 15.77309,23.7002 36.061208,44.0374 59.712761,59.8811 l 0.01687,0.024 c 23.610621,15.8364 50.112585,26.8643 78.011619,32.4625 h 0.020466 l 0.040932,0.01 c 27.882164,5.574 56.588356,5.6176 84.495962,0.1199 h 0.02047 c 27.9076,-5.4978 54.47261,-16.4425 78.15233,-32.2192 h 0.0205 l 0.004,-0.021 c 23.67612,-15.7562 44.01337,-36.0443 59.84986,-59.6549 15.88462,-23.6444 26.92331,-50.2077 32.50456,-78.1308 4.32326,-21.6039 -0.10871,-44.0498 -12.32806,-62.3998 -12.24341,-18.333 -31.25232,-31.0613 -52.87665,-35.3882 -10.69781,-2.1539 -21.71178,-2.1481 -32.41965,-0.042 -10.71146,2.1265 -20.90137,6.3279 -29.98368,12.3905 -9.07871,6.0422 -16.88139,13.8276 -22.94976,22.9094 -6.06477,9.0612 -10.30146,19.2454 -12.43488,29.9468 -1.303615,6.4589 -3.861728,12.613 -7.54462,18.0842 l -0.0036,0.02 -0.02766,0.037 c -3.686487,5.4917 -8.418376,10.209 -13.916604,13.8844 -5.518694,3.6718 -11.683418,6.2175 -18.171694,7.4826 l -0.04453,0.013 c -6.512337,1.282 -13.197773,1.2677 -19.701196,-0.023 -6.479362,-1.3073 -12.65032,-3.8894 -18.142005,-7.5759 l -0.04093,-0.01 -0.01687,-0.024 c -5.491685,-3.6865 -10.192088,-8.3943 -13.867518,-13.8925 l 0.0036,-0.02 v 0 c -3.6718333,-5.5187 -6.2174729,-11.6834 -7.4994726,-18.1957 -2.10606327,-10.7079 -6.3074052,-20.8978 -12.3495994,-29.9765 -6.06266,-9.0823 -13.824021,-16.9019 -22.905753,-22.9702 -9.057671,-6.0853 -19.241841,-10.322 -29.939647,-12.4759 -10.697805,-2.1539 -21.708184,-2.1685 -32.419647,-0.042 z"
           fill="#151515"
           id="path5-2-8-0-7"
           style="stroke-width:2.07793" /></g></g></g></svg>
