<svg width="2100" height="2100" viewBox="0 0 2100 2100" fill="none" xmlns="http://www.w3.org/2000/svg">
<path d="M1655.17 327.184C1663.35 243.173 1576.5 182.358 1500.35 218.778L1292.9 318.01L1379.89 472.164C1406.79 519.836 1453.12 553.442 1506.79 564.259L1629.67 589.023L1655.17 327.184Z" fill="#E162CE"/>
<path d="M1794.61 1053.45L1699.57 1156.71C1681.25 1176.61 1667.43 1200.23 1659.06 1225.95C1650.7 1251.67 1647.97 1278.9 1651.08 1305.77L1670.11 1470.22L1913.74 1416.78C1996.13 1398.7 2027.11 1297.54 1968.8 1236.33L1794.61 1053.45Z" fill="#E162CE"/>
<path d="M1286.07 1735.78L1146.38 1671.93C1121.77 1660.68 1095.03 1654.85 1067.97 1654.85C1040.91 1654.85 1014.17 1660.68 989.561 1671.93L812.945 1752.66L957.111 1998.05C999.945 2070.97 1105.87 2069.05 1145.95 1994.92L1286.07 1735.78Z" fill="#E162CE"/>
<path d="M462.365 1500.24L484.868 1305.77C491.16 1251.4 473.455 1196.99 436.38 1156.71L319.062 1029.25L107.363 1267.69C51.4195 1330.71 85.8461 1430.89 169.013 1446.22L462.365 1500.24Z" fill="#E162CE"/>
<path d="M422.512 605.902L629.153 564.259C682.827 553.442 729.153 519.836 756.053 472.164L820.424 358.097L538.776 235.011C461.317 201.161 376.84 264.874 388.035 348.468L422.512 605.902Z" fill="#E162CE"/>
<path d="M955.457 97.1303C996.94 23.6233 1102.97 23.6232 1144.46 97.1303L1361.88 482.4C1388.78 530.072 1435.11 563.678 1488.78 574.495L1922.83 661.966C2005.7 678.665 2038.35 779.306 1981.23 841.366L1681.56 1166.95C1663.23 1186.85 1649.42 1210.46 1641.05 1236.19C1632.68 1261.91 1629.96 1289.14 1633.07 1316.01L1683.9 1755.34C1693.59 1839.05 1607.92 1901.38 1531.01 1866.22L1128.37 1682.17C1103.76 1670.91 1077.02 1665.09 1049.96 1665.09C1022.9 1665.09 996.156 1670.91 971.547 1682.17L568.917 1866.22C492.001 1901.37 406.337 1839.05 416.017 1755.34L466.854 1316.01C473.146 1261.64 455.441 1207.23 418.366 1166.95L118.686 841.366C61.5681 779.311 94.2231 678.666 177.089 661.966L611.139 574.495C664.813 563.678 711.139 530.072 738.039 482.4L955.457 97.1303Z" fill="#FFAFF3"/>
<path d="M742.602 1085.37C785.997 1085.37 821.177 1050.19 821.178 1006.8C821.179 963.406 786.001 928.23 742.606 928.232C699.211 928.233 664.031 963.41 664.03 1006.8C664.029 1050.19 699.207 1085.37 742.602 1085.37Z" fill="#151515"/>
<path d="M1464.01 1006.8C1464.01 1050.19 1428.83 1085.37 1385.43 1085.37C1342.04 1085.37 1306.86 1050.19 1306.86 1006.8C1306.86 963.41 1342.04 928.233 1385.44 928.231C1428.83 928.23 1464.01 963.406 1464.01 1006.8Z" fill="#151515"/>
<path d="M993.278 1111.78C988.123 1112.8 983.218 1114.81 978.843 1117.72C974.468 1120.63 970.708 1124.37 967.779 1128.73C964.85 1133.09 962.808 1137.99 961.771 1143.14C960.733 1148.29 960.72 1153.59 961.733 1158.74C964.373 1172.18 969.635 1184.97 977.217 1196.37L977.22 1196.38C984.804 1207.79 994.561 1217.58 1005.94 1225.21L1005.94 1225.22C1017.31 1232.85 1030.06 1238.17 1043.48 1240.87L1043.49 1240.87L1043.51 1240.87C1056.93 1243.57 1070.74 1243.59 1084.17 1240.96L1084.18 1240.96C1097.61 1238.32 1110.4 1233.06 1121.8 1225.48L1121.81 1225.47L1121.82 1225.47C1133.21 1217.89 1143.01 1208.14 1150.64 1196.77C1158.28 1185.4 1163.61 1172.62 1166.3 1159.19C1168.39 1148.79 1166.26 1137.98 1160.38 1129.15C1154.5 1120.32 1145.35 1114.19 1134.95 1112.1C1129.8 1111.07 1124.5 1111.06 1119.35 1112.08C1114.19 1113.09 1109.29 1115.12 1104.92 1118.03C1100.54 1120.94 1096.79 1124.68 1093.86 1129.05C1090.94 1133.41 1088.9 1138.3 1087.87 1143.45C1087.24 1146.57 1086.01 1149.52 1084.24 1152.15L1084.23 1152.17L1084.22 1152.19C1082.44 1154.83 1080.17 1157.1 1077.52 1158.86C1074.86 1160.62 1071.89 1161.85 1068.77 1162.46L1068.75 1162.46C1065.62 1163.08 1062.4 1163.07 1059.27 1162.45C1056.15 1161.82 1053.18 1160.58 1050.54 1158.8L1050.52 1158.79L1050.51 1158.78C1047.87 1157.01 1045.61 1154.74 1043.84 1152.09L1043.84 1152.09L1043.84 1152.08C1042.08 1149.43 1040.85 1146.45 1040.24 1143.32C1039.22 1138.17 1037.21 1133.27 1034.3 1128.89C1031.39 1124.52 1027.65 1120.76 1023.29 1117.83C1018.93 1114.9 1014.04 1112.86 1008.89 1111.82C1003.74 1110.78 998.432 1110.77 993.278 1111.78Z" fill="#151515"/>
<path fill-rule="evenodd" clip-rule="evenodd" d="M1064.06 1.02299C1013.35 1.02431 962.634 25.7517 934.722 75.2075L799.39 314.992L550.794 206.354C446.678 160.854 329.319 249.282 344.387 361.761L373.899 582.066L183.242 620.489C71.8575 642.937 26.4423 782.687 103.301 866.182L261.165 1037.68L73.4639 1249.07C-1.86778 1333.91 45.9876 1472.89 157.786 1493.49L157.788 1493.49L414.354 1540.74L390.315 1748.42C377.27 1861.13 496.184 1947.52 599.579 1900.27L599.581 1900.27L792.778 1811.96L918.686 2026.25C976.265 2124.26 1123.24 2121.69 1177.21 2021.88L1299.55 1795.62L1528.45 1900.24C1631.83 1947.5 1750.76 1861.1 1737.71 1748.38L1710.08 1509.51L1918.4 1463.81C2029.25 1439.5 2072.22 1298.99 1993.85 1216.71L1845.45 1060.93L2024.77 866.116L2024.77 866.114C2101.63 782.616 2056.23 642.872 1944.84 620.426L1669.05 564.859L1691.04 339.057C1696.54 282.537 1669.18 233.196 1627.63 204.107L1627.63 204.132C1586.09 175.046 1530.36 166.214 1479.13 190.716L1305.47 273.773L1193.39 75.1758C1165.48 25.7234 1114.76 0.998689 1064.05 1L1064.06 1.02299ZM1791.16 1119.91L1725.08 1191.7L1725.08 1191.71C1710.64 1207.37 1699.76 1225.97 1693.17 1246.22C1686.58 1266.48 1684.44 1287.91 1686.89 1309.07L1686.89 1309.07L1700.84 1429.63L1901.25 1385.67C1955.17 1373.85 1974.16 1312.03 1935.92 1271.88L1791.16 1119.91ZM987.663 1985.71L865.926 1778.52L1002.24 1716.21L1002.24 1716.21C1021.63 1707.34 1042.7 1702.75 1064.02 1702.75C1085.34 1702.75 1106.41 1707.34 1125.8 1716.21L1125.8 1716.21L1226.62 1762.29L1106.83 1983.82C1080.64 2032.26 1015.76 2033.53 987.664 1985.71L987.663 1985.71ZM423.574 1461.08L441.164 1309.11C443.617 1287.95 441.475 1266.51 434.886 1246.26C428.296 1226 417.415 1207.41 402.983 1191.74L315.611 1096.83L133.28 1302.17C96.7205 1343.35 117.72 1404.75 172.267 1414.8L423.574 1461.08ZM518.753 279.632L759.876 385.003L717.284 460.468C696.086 498.03 659.627 524.483 617.31 533.011L452.49 566.228L423.674 351.123C416.346 296.421 467.943 257.435 518.753 279.632ZM1344.86 343.582L1410.81 460.436C1432 497.993 1468.47 524.445 1510.78 532.97L1590.21 548.975L1611.41 331.303C1614.08 303.815 1602.1 280.746 1583.22 267.529L1583.22 267.526C1564.34 254.309 1538.57 250.942 1513.65 262.857L1344.86 343.582ZM1064.05 78.4231C1087.09 78.4225 1110.14 90.4474 1123.72 114.498L1341.13 499.748C1373.74 557.529 1429.94 598.286 1494.97 611.39L1929.03 698.845C1983.39 709.797 2003.28 771.328 1965.9 811.94L1666.21 1137.53C1621.27 1186.33 1599.79 1252.36 1607.41 1318.26L1658.23 1757.57C1664.56 1812.28 1612.14 1850.53 1561.7 1827.48L1561.7 1827.48L1159.05 1643.44C1098.71 1615.86 1029.3 1615.86 968.955 1643.45L566.306 1827.5C515.857 1850.56 463.442 1812.31 469.769 1757.61L520.62 1318.29C528.249 1252.38 506.763 1186.37 461.83 1137.55L162.147 811.991C124.769 771.384 144.673 709.855 199.026 698.894L633.093 611.413C698.128 598.306 754.329 557.547 786.942 499.763L786.942 499.761L1004.38 114.5C1017.95 90.4508 1041 78.4247 1064.04 78.424L1064.05 78.4231Z" fill="#151515"/>
</svg>
