<?xml version="1.0" encoding="utf-8"?>
<!-- Generator: Adobe Illustrator 23.0.6, SVG Export Plug-In . SVG Version: 6.00 Build 0)  -->
<svg version="1.1" id="Layer_1" xmlns="http://www.w3.org/2000/svg" xmlns:xlink="http://www.w3.org/1999/xlink" x="0px" y="0px"
	 viewBox="0 0 283.46 283.46" style="enable-background:new 0 0 283.46 283.46;" xml:space="preserve">
<style type="text/css">
	.st0{fill:#231F20;}
	.st1{fill:#FFAFF3;}
	.st2{fill:#282828;}
	.st3{fill:none;stroke:#FFAFF3;stroke-miterlimit:10;}
	.st4{fill:#DFF656;}
	.st5{fill:none;stroke:#DFF656;stroke-miterlimit:10;}
	.st6{fill:#00F0F2;}
	.st7{fill:none;stroke:#00F0F2;stroke-miterlimit:10;}
	.st8{fill:#FFFFFF;}
	.st9{fill:none;stroke:#FFFFFF;stroke-width:2;stroke-miterlimit:10;}
</style>
<g>
	<path class="st1" d="M117.96,109.38c1.14,0.89,1.88,1.32,2.43,1.93c1.53,1.7,2.95,3.5,4.47,5.21c0.53,0.59,1.36,0.93,1.82,1.56
		c0.47,0.65,0.66,1.51,1.1,2.58c-0.09,0.65-0.22,1.64-0.38,2.77c-1.32,0.41-2.79,0.55-3.61,1.69c-1.67,0.11-3.21,0.22-4.88,0.33
		c-0.84-0.99-1.64-1.99-2.49-2.93c-0.66-0.73-1.27-1.47-2.25-1.91c-1.2-0.55-1.98-1.57-2.07-2.75c-0.74-0.64-1.76-1.09-1.91-1.74
		c-0.3-1.34-1.05-2.31-1.83-3.31c-0.95-1.22-2.19-2.25-2.31-3.98c-0.03-0.37-0.45-0.71-0.71-1.05c-0.88-1.13-2.07-2.13-2.56-3.4
		c-0.47-1.22-1.15-2.24-1.81-3.32c-0.35-0.58-0.5-1.28-0.77-1.99c-0.72-0.51-1.51-1.06-2.35-1.66c-0.03-0.91-0.05-1.75-0.07-2.61
		c-1.29-0.14-2.28-1.1-2.46-2.09c-0.25-1.4-1.15-2.24-1.79-3.31c-0.28-0.47-0.42-1.03-0.69-1.73c-0.18-0.08-0.54-0.25-1.08-0.51
		c-0.31-1.24-0.94-2.47-1.93-3.52c-0.88-0.94-1.66-1.97-2.42-3.01c-0.83-1.13-1.95-2.09-2.04-3.67c-0.02-0.43-0.75-0.83-1.99-1.44
		c-0.01-1.94-1.81-2.83-2.61-4.57c0.72-1.54-1.4-2.08-1.61-3.55c-0.2-1.35-0.91-2.63-1.39-3.94c0.31-0.79,0.62-1.57,0.99-2.5
		c0.42-0.12,0.95-0.27,1.55-0.43c0.11-0.27,0.25-0.64,0.4-1c0.14,0.04,0.36,0.04,0.4,0.13c0.35,0.74,0.65,1.51,1,2.25
		c0.12,0.25,0.32,0.5,0.55,0.65c1.07,0.65,2.16,1.27,3.3,1.93c0.37,1.21,0.76,2.52,1.19,3.91c1.05,0.28,1.99,0.54,2.96,0.8
		c0.44,0.53,0.89,1.09,1.37,1.67c0.24,1.06,0.49,2.15,0.77,3.39c0.26,0.14,0.64,0.3,0.96,0.55c0.56,0.41,1.15,0.81,1.6,1.33
		c1.76,2.07,3.47,4.18,5.21,6.29c0.12,0.57,0.23,1.12,0.34,1.62c2.18,3,4.95,5.53,6.78,9.14c0,0,0.4,0.15,0.91,0.35
		c0.12,0.49,0.26,1.03,0.47,1.88c0.53,0.64,1.26,1.52,1.98,2.41c0.81,1,1.55,2.07,2.44,2.99c0.73,0.76,0.44,2.22,1.79,2.52
		c-0.01,1.45,1.21,2.2,1.89,3.25C117.22,107.5,118.3,108.21,117.96,109.38z"/>
	<path class="st1" d="M225.65,163.22c0.06,0.61,0.1,1.01,0.14,1.41c0.75,0.11,1.45,0.21,2.15,0.31c0.05,0.44,0.1,0.85,0.16,1.41
		c1.05,0.49,2.18,1.01,3.31,1.53c-0.26,0.61-0.53,1.25-0.85,2c-0.82,0.17-1.75,0.37-2.34,0.49c-0.51-0.06-0.66-0.05-0.79-0.1
		c-2.59-1.09-5.11-2.27-7.97-2.69c-1.77-0.26-3.43-1.21-5.13-1.87c-1.44-0.57-2.82-1.3-4.42-1.4c-0.54-0.03-1.09-0.24-1.61-0.45
		c-2.74-1.09-5.54-2-8.33-2.93c-2.66-0.89-5.31-1.82-7.98-2.71c-3.46-1.15-6.86-2.54-10.33-3.62c-4.97-1.55-9.76-3.59-14.82-4.9
		c-2.03-0.52-4.1-0.96-6.12-1.6c-2.01-0.64-4.14-0.97-6.23-1.3c-1.58-0.25-3-0.7-4.17-1.89c0.29-1.98,0.83-3.83,1.74-5.66
		c1.12-0.53,2.37-1.11,4.19-1.97c1.61,0.05,3.88,0.08,6,1.08c1.29-0.21,2.3,1.25,3.66,0.59c1.17,0.46,2.33,0.96,3.52,1.36
		c1.2,0.39,2.44,0.67,3.66,1c0.41,0.11,0.87,0.12,1.23,0.33c3.08,1.75,6.58,2.44,9.78,3.85c1.67,0.74,3.37,1.34,5.18,1.67
		c1.71,0.32,3.1,1.27,4.11,2.66c0.88-0.07,1.72-0.29,2.5-0.16c0.81,0.14,1.57,0.61,2.36,0.94c0.03,0.25,0.07,0.53,0.11,0.84
		c0.6,0.29,1.22,0.58,1.96,0.94c1.69-1.03,3.21,0.03,4.64,0.83c0.94,0.53,1.42,1.72,2.68,1.98c1.09,0.22,2.13,0.68,3.24,1.05
		c0.98,1.09,2.02,2.18,3.69,2.26c0.1-0.27,0.21-0.54,0.32-0.84c1.19,0.3,1.53,1.53,2.4,2.15
		C219.84,161.6,223.09,161.75,225.65,163.22z"/>
	<path class="st1" d="M133.61,203.15c-0.37,0.5-0.62,0.85-0.9,1.22c-0.01,0.4-0.16,0.9,0,1.25c1.16,2.54,0.46,4.67-1.34,6.6
		c-0.08,0.09-0.08,0.26-0.12,0.4c0.17,1.58,0.17,1.58,1.17,3.02c-0.15,1.61-1.24,2.78-1.85,4.16c-0.61,1.37-1.34,2.71-1.69,4.17
		c-0.38-0.03-0.73,0.04-0.9-0.1c-0.98-0.82-1.92-1.69-2.77-2.45c0-0.83,0.05-1.51-0.02-2.18c-0.06-0.55-0.51-1.19-0.33-1.6
		c0.48-1.13-0.08-2.19,0.04-3.26c0.04-0.38,0.44-0.72,0.67-1.09c-0.99-3.18-0.68-6.41-0.21-9.77c0.25-0.34,0.58-0.79,0.91-1.25
		c-1.03-2.13-0.76-4.4-0.73-6.65c0.01-0.98,0.32-1.97,0.23-2.94c-0.39-3.98,0.5-7.89,0.6-11.83c0.82-2.17,0.17-4.51,0.79-6.69
		c0.6-2.11,0.29-4.23,0.32-6.35c0-0.29-0.04-0.58,0.01-0.86c0.69-3.9,0.98-7.84,1.21-11.79c0.08-1.38,0.65-2.74,1.02-4.22
		c0.84-0.52,1.78-1.1,3.04-1.88c1.92-0.57,4.12-0.24,6.49,0.75c0.37,0.72,0.81,1.58,1.35,2.64c-0.22,0.37-0.69,0.81-0.75,1.31
		c-0.26,2.23-1.12,4.35-1.19,6.62c-0.03,0.85,0.03,1.74-0.22,2.52c-0.62,1.91-0.87,3.84-0.55,5.56c-0.45,0.75-0.75,1.23-0.84,1.39
		c-0.24,1.89-0.42,3.43-0.63,4.97c-0.42,3.06-0.13,6.21-1.27,9.17c0.34,2.26-0.73,4.47-0.3,6.74c-0.66,3.6-0.24,7.31-1.15,10.89
		C133.55,202.16,133.62,202.75,133.61,203.15z"/>
	<path class="st1" d="M181.03,69.56c0.93-0.13,1.76-0.25,2.54-0.36c1.02,0.68,1.21,1.58,0.73,3.06c-0.64,0.6-1.55,1.47-2.54,2.4
		c0.06,0.96,0.13,1.91,0.19,2.92c-0.64,0.2-1.29,0.4-1.93,0.6c-0.72,0.68-0.37,1.64-0.75,2.64c-1.15,0.95-2.46,2.03-3.91,3.23
		c-0.46,0.11-1.11,0.26-1.76,0.42c0.17,1.02,0.31,1.82,0.46,2.72c-1.04,1.01-2.04,2-3.27,3.19c-0.41,0.88-0.94,2.02-1.55,3.32
		c-1.09,0.85-1.95,2.12-2.9,3.34c-3.52,4.52-7.31,8.83-10.13,13.87c-2.49,1.9-2.8,5.14-4.56,7.52c-0.69,0.94-0.62,2.45-0.87,3.59
		c-0.75,0.92-1.46,1.78-2.31,2.81c-3.1,0.55-5.63-1.32-8.21-3.04c-0.16-0.68-0.32-1.37-0.53-2.24c0.76-1.78,1.59-3.72,2.43-5.66
		c0.84-1.95,2.1-3.73,3.59-5.1c1.29-1.19,1.75-2.93,3.15-3.93c0.96-2.7,3.49-4.36,4.61-6.96c0.15-0.36,0.55-0.67,0.91-0.89
		c2.46-1.54,3.43-4.53,5.88-6.07c0.28-2.06,2.65-2.52,3.3-4.29c0.6-1.65,2.77-2.1,3-4.01c1.41-1.22,2.82-2.42,4.21-3.65
		c0.94-0.84,2.13-1.45,2.48-2.84c0.09-0.35,0.55-0.63,0.88-0.9C176.38,73.38,178.59,71.57,181.03,69.56z"/>
	<path class="st1" d="M52.06,150.14c0.02-1.07,0.04-1.77,0.06-2.47c0.64-0.91,1.6-1,2.59-0.99c0.14-0.25,0.29-0.49,0.43-0.74
		c0.98-0.03,1.96-0.06,2.98-0.1c0.11-0.19,0.24-0.64,0.41-0.65c2.34-0.22,4.45-1.65,6.86-1.39c0.98,0.11,1.56-0.58,2.34-0.86
		c0.8-0.28,1.69,0.13,2.47-0.44c0.44-0.31,1.03-0.48,1.58-0.55c0.94-0.12,1.9-0.12,2.85-0.17c0.5-1.27,1.73-0.42,2.59-0.85
		c0.75-0.38,1.9,0.04,3.01,0.11c1-1.14,2.56-0.65,3.9-1.02c2.02-0.55,4.1-0.95,6.21-0.82c2.14,0.13,4.06-0.93,6.16-1.09
		c3.05-0.23,6.07-0.83,9.11-1.18c4.3-0.49,8.46,0.21,12.51,2c0.78,1.45,1.58,2.95,2.53,4.74c-0.22,0.79-0.49,1.74-0.73,2.57
		c-2.29,0.31-4.12,0.65-6.15,0.38c-2.72-0.37-5.51-0.59-8.33,0.17c-1.85,0.5-3.92,0.23-5.89,0.22c-1.56-0.01-3.06,0.05-4.55,0.65
		c-0.87,0.35-1.92,0.31-2.9,0.35c-1.83,0.07-3.65,0.07-5.72,0.1c-0.25-0.16-0.72-0.44-1.35-0.83c-0.35,0.33-0.74,0.68-1.28,1.18
		c-0.01,0-0.26,0.07-0.51,0.08c-0.69,0.02-1.41-0.08-2.08,0.04c-1.16,0.21-2.23-0.21-3.34-0.25c-0.92-0.04-1.85,0.37-3.55,0.76
		c-0.28,0.14-0.11,2-2.32,1.45c0.07,0.04-0.41-0.24-0.88-0.52c-0.15,0.24-0.3,0.49-0.47,0.77c-1.06-0.01-2.1,0.14-3.23-0.03
		c-2.33-0.34-4.78-0.67-6.99,0.86c-0.79-0.17-1.61-0.34-2.48-0.53c-1.01,0.48-2.03,0.97-3.01,1.44c-0.5-0.12-0.91-0.23-1.58-0.4
		C52.97,151.61,52.53,150.9,52.06,150.14z"/>
</g>
</svg>
