<svg width="60" height="60" viewBox="0 0 60 60" fill="#5865F2" xmlns="http://www.w3.org/2000/svg"><title>Gleam's web chat on Discord</title><path d="M49.172 12.5438C49.1532 12.5157 49.1345 12.4876 49.097 12.4782C45.5251 10.8376 41.747 9.66572 37.8751 9.0001C37.8376 8.99072 37.8001 9.0001 37.772 9.00947C37.7438 9.01885 37.7157 9.04697 37.697 9.08447C37.1813 10.0126 36.7126 10.9782 36.3001 11.9532C32.1188 11.3157 27.872 11.3157 23.7001 11.9532C23.2782 10.9688 22.8095 10.0126 22.2845 9.08447C22.2657 9.05635 22.2376 9.02822 22.2095 9.00947C22.1813 8.99072 22.1438 8.99072 22.1063 8.99072C18.2345 9.65635 14.4563 10.8282 10.8845 12.4688C10.8563 12.4782 10.8282 12.5063 10.8095 12.5345C3.66571 23.2032 1.70634 33.6188 2.66259 43.8938C2.66259 43.922 2.67196 43.9407 2.68134 43.9688C2.69071 43.997 2.70946 44.0063 2.72821 44.0251C6.89071 47.1095 11.5407 49.4626 16.4907 50.9813C16.5282 50.9907 16.5657 50.9907 16.5938 50.9813C16.622 50.972 16.6595 50.9438 16.6782 50.9157C17.7376 49.472 18.6845 47.9345 19.4907 46.3407C19.5001 46.322 19.5095 46.2938 19.5095 46.2657C19.5095 46.2376 19.5095 46.2188 19.5001 46.1907C19.4907 46.1626 19.4813 46.1438 19.4626 46.1345C19.4438 46.1251 19.4251 46.1063 19.397 46.097C17.9157 45.5251 16.472 44.8407 15.0938 44.0438C15.0657 44.0251 15.047 44.0063 15.0282 43.9876C15.0095 43.9688 15.0001 43.9313 15.0001 43.9032C15.0001 43.8751 15.0001 43.847 15.0188 43.8188C15.0376 43.7907 15.047 43.772 15.0751 43.7532C15.3657 43.5376 15.6563 43.3126 15.9282 43.0876C15.9563 43.0688 15.9845 43.0501 16.0126 43.0501C16.0407 43.0501 16.0782 43.0501 16.1063 43.0595C25.1251 47.1751 34.8938 47.1751 43.8095 43.0595C43.8376 43.0501 43.8751 43.0407 43.9032 43.0407C43.9313 43.0407 43.9688 43.0595 43.9876 43.0782C44.2595 43.3032 44.5501 43.5376 44.8407 43.7532C44.8595 43.772 44.8782 43.7907 44.897 43.8188C44.9157 43.847 44.9157 43.8751 44.9157 43.9032C44.9157 43.9313 44.9063 43.9595 44.8876 43.9876C44.8688 44.0157 44.8501 44.0345 44.8313 44.0438C43.4532 44.8501 42.0188 45.5345 40.5282 46.0876C40.5095 46.097 40.4813 46.1063 40.4626 46.1251C40.4438 46.1438 40.4345 46.1626 40.4251 46.1907C40.4157 46.2188 40.4157 46.2376 40.4157 46.2657C40.4157 46.2938 40.4251 46.3126 40.4345 46.3407C41.2595 47.9345 42.197 49.4626 43.247 50.9157C43.2657 50.9438 43.3032 50.972 43.3313 50.9813C43.3595 50.9907 43.4063 50.9907 43.4345 50.9813C48.3938 49.4626 53.0532 47.1095 57.2251 44.0251C57.2438 44.0063 57.2626 43.9876 57.272 43.9688C57.2813 43.9501 57.2907 43.922 57.2907 43.8938C58.4438 32.0063 55.3688 21.6845 49.1438 12.5345L49.172 12.5438ZM20.8595 37.6407C18.1407 37.6407 15.9095 35.147 15.9095 32.0907C15.9095 29.0345 18.1032 26.5407 20.8595 26.5407C23.6438 26.5407 25.8563 29.0532 25.8095 32.0907C25.8095 35.1563 23.6157 37.6407 20.8595 37.6407ZM39.1782 37.6407C36.4595 37.6407 34.2282 35.147 34.2282 32.0907C34.2282 29.0345 36.422 26.5407 39.1782 26.5407C41.9626 26.5407 44.1751 29.0532 44.1282 32.0907C44.1282 35.1563 41.9532 37.6407 39.1782 37.6407Z"/></svg>
