<svg width="60" height="60" viewBox="0 0 60 60" fill="white" xmlns="http://www.w3.org/2000/svg"><title>Gleam discussions on GitHub</title><path d="M30 2.5C14.8075 2.5 2.5 14.8075 2.5 30C2.5 42.1675 10.3725 52.4475 21.3025 56.09C22.6775 56.33 23.1925 55.5075 23.1925 54.785C23.1925 54.13 23.16 51.965 23.16 49.6625C16.25 50.935 14.4625 47.9775 13.9125 46.4325C13.6025 45.64 12.2625 43.2 11.095 42.5475C10.1325 42.03 8.755 40.76 11.06 40.725C13.225 40.69 14.7725 42.7175 15.2875 43.545C17.7625 47.7025 21.715 46.535 23.2975 45.8125C23.5375 44.025 24.26 42.8225 25.05 42.135C18.93 41.4475 12.5375 39.075 12.5375 28.555C12.5375 25.565 13.6025 23.09 15.3575 21.165C15.08 20.4775 14.1175 17.66 15.6325 13.8775C15.6325 13.8775 17.935 13.1575 23.1925 16.6975C25.4312 16.0764 27.7443 15.7643 30.0675 15.77C32.4075 15.77 34.745 16.0775 36.9425 16.6975C42.2025 13.1225 44.505 13.8775 44.505 13.8775C46.0175 17.66 45.0575 20.4775 44.7825 21.165C46.535 23.09 47.6 25.5325 47.6 28.555C47.6 39.11 41.1725 41.4475 35.0525 42.135C36.05 42.995 36.91 44.645 36.91 47.2225C36.91 50.9 36.875 53.8575 36.875 54.785C36.875 55.5075 37.39 56.365 38.765 56.09C49.6275 52.4475 57.5 42.135 57.5 30C57.5 14.8075 45.195 2.5 30 2.5Z" /></svg>
