<?xml version="1.0" encoding="utf-8"?>
<!-- Generator: Adobe Illustrator 23.0.6, SVG Export Plug-In . SVG Version: 6.00 Build 0)  -->
<svg version="1.1" id="Layer_1" xmlns="http://www.w3.org/2000/svg" xmlns:xlink="http://www.w3.org/1999/xlink" x="0px" y="0px"
	 viewBox="0 0 283.46 283.46" style="enable-background:new 0 0 283.46 283.46;" xml:space="preserve">
<style type="text/css">
	.st0{fill:#231F20;}
	.st1{fill:#FFAFF3;}
	.st2{fill:#282828;}
	.st3{fill:none;stroke:#FFAFF3;stroke-miterlimit:10;}
	.st4{fill:#DFF656;}
	.st5{fill:none;stroke:#DFF656;stroke-miterlimit:10;}
	.st6{fill:#00F0F2;}
	.st7{fill:none;stroke:#00F0F2;stroke-miterlimit:10;}
	.st8{fill:#FFFFFF;}
	.st9{fill:none;stroke:#FFFFFF;stroke-width:2;stroke-miterlimit:10;}
</style>
<g>
	<path class="st2" d="M143.89,143.4c0.32,1.41,0.63,2.21,0.67,3.03c0.11,2.29,0.08,4.58,0.18,6.86c0.04,0.79,0.47,1.58,0.43,2.36
		c-0.04,0.8-0.44,1.59-0.78,2.69c-0.48,0.45-1.21,1.13-2.04,1.91c-1.28-0.51-2.51-1.34-3.87-0.97c-1.37-0.97-2.63-1.86-3.99-2.83
		c-0.02-1.3-0.01-2.57-0.08-3.84c-0.05-0.98-0.06-1.94-0.54-2.9c-0.58-1.18-0.54-2.47,0.13-3.44c-0.17-0.97-0.68-1.96-0.38-2.55
		c0.62-1.23,0.64-2.45,0.67-3.73c0.04-1.55-0.27-3.13,0.72-4.55c0.21-0.3,0.1-0.84,0.11-1.27c0.03-1.43-0.26-2.96,0.16-4.26
		c0.4-1.25,0.52-2.47,0.7-3.72c0.09-0.67,0.42-1.31,0.66-2.03c-0.24-0.85-0.5-1.78-0.78-2.77c0.56-0.72,1.07-1.39,1.59-2.07
		c-0.91-0.92-1.08-2.29-0.58-3.18c0.69-1.24,0.53-2.46,0.7-3.7c0.08-0.54,0.33-1.06,0.56-1.77c-0.08-0.18-0.26-0.54-0.51-1.07
		c0.55-1.16,0.83-2.5,0.73-3.95c-0.09-1.28-0.04-2.58,0.03-3.86c0.07-1.4-0.19-2.85,0.74-4.13c0.26-0.35-0.06-1.12-0.64-2.37
		c1.22-1.51,0.38-3.34,0.86-5.19c1.53-0.75,0.23-2.5,0.99-3.77c0.7-1.18,0.96-2.61,1.41-3.94c0.74-0.41,1.47-0.82,2.35-1.32
		c0.4,0.17,0.91,0.4,1.47,0.64c0.25-0.14,0.6-0.33,0.94-0.53c0.08,0.12,0.25,0.26,0.23,0.35c-0.2,0.8-0.45,1.58-0.65,2.38
		c-0.06,0.27-0.07,0.59,0.02,0.85c0.41,1.18,0.87,2.35,1.34,3.58c-0.48,1.17-1,2.44-1.55,3.78c0.63,0.88,1.2,1.67,1.79,2.48
		c0,0.69,0.01,1.41,0.01,2.16c-0.48,0.97-0.98,1.98-1.55,3.12c0.11,0.27,0.3,0.64,0.4,1.03c0.17,0.67,0.38,1.36,0.4,2.04
		c0.06,2.72,0.05,5.43,0.07,8.16c-0.27,0.51-0.52,1.01-0.76,1.47c-0.2,3.7,0.34,7.41-0.52,11.37c0,0,0.21,0.37,0.48,0.85
		c-0.22,0.46-0.45,0.96-0.83,1.75c0.01,0.84,0.02,1.98,0.02,3.12c0,1.29-0.1,2.58,0,3.86c0.08,1.05-1.07,2-0.2,3.08
		c-0.92,1.12-0.46,2.47-0.59,3.72C144.51,141.48,144.89,142.7,143.89,143.4z"/>
	<path class="st2" d="M78.26,111.37c0.29-0.54,0.49-0.89,0.67-1.24c-0.56-0.51-1.08-0.99-1.6-1.47c0.2-0.39,0.4-0.75,0.66-1.25
		c-0.6-1-1.24-2.06-1.88-3.13c0.56-0.36,1.14-0.73,1.83-1.17c0.78,0.32,1.65,0.68,2.21,0.91c0.38,0.34,0.52,0.41,0.59,0.53
		c1.53,2.36,2.95,4.75,5.07,6.71c1.31,1.21,2.16,2.93,3.19,4.44c0.87,1.28,1.6,2.66,2.87,3.64c0.43,0.33,0.76,0.82,1.08,1.28
		c1.66,2.44,3.46,4.77,5.24,7.11c1.7,2.23,3.37,4.49,5.07,6.72c2.21,2.9,4.24,5.95,6.51,8.81c3.24,4.07,6.05,8.46,9.5,12.38
		c1.38,1.57,2.85,3.1,4.16,4.76c1.3,1.66,2.88,3.12,4.42,4.58c1.16,1.1,2.09,2.27,2.38,3.91c-1.35,1.48-2.84,2.7-4.62,3.7
		c-1.22-0.19-2.58-0.41-4.57-0.73c-1.31-0.95-3.17-2.24-4.35-4.27c-1.18-0.55-1.2-2.33-2.7-2.54c-0.71-1.04-1.38-2.11-2.15-3.1
		c-0.77-1-1.64-1.93-2.47-2.88c-0.28-0.32-0.65-0.59-0.83-0.96c-1.56-3.18-4.07-5.71-5.93-8.69c-0.97-1.55-2.03-3-3.34-4.3
		c-1.24-1.22-1.85-2.79-1.9-4.51c-0.77-0.43-1.59-0.73-2.16-1.27c-0.59-0.57-0.95-1.38-1.42-2.11c0.11-0.22,0.24-0.48,0.39-0.75
		c-0.34-0.58-0.68-1.17-1.1-1.88c-1.98-0.09-2.64-1.83-3.37-3.29c-0.48-0.96-0.2-2.22-1.11-3.15c-0.78-0.8-1.38-1.77-2.08-2.69
		c-0.2-1.46-0.45-2.94-1.78-3.94c-0.24,0.17-0.47,0.33-0.74,0.52c-0.82-0.92-0.4-2.13-0.77-3.13
		C82.15,115.98,79.55,114.03,78.26,111.37z"/>
	<path class="st2" d="M184.8,129.43c0.59-0.21,0.99-0.35,1.43-0.51c0.23-0.33,0.63-0.65,0.7-1.04c0.47-2.76,2.25-4.12,4.82-4.71
		c0.12-0.03,0.22-0.17,0.32-0.26c0.75-1.41,0.75-1.41,0.73-3.16c1.03-1.24,2.59-1.61,3.87-2.4c1.27-0.79,2.63-1.49,3.74-2.5
		c0.29,0.24,0.63,0.37,0.69,0.58c0.35,1.23,0.64,2.48,0.92,3.58c-0.47,0.69-0.89,1.22-1.21,1.81c-0.26,0.48-0.25,1.27-0.62,1.51
		c-1.03,0.67-1.16,1.86-1.87,2.68c-0.25,0.29-0.76,0.35-1.17,0.52c-0.97,3.19-3.04,5.69-5.32,8.2c-0.4,0.14-0.92,0.33-1.45,0.52
		c-0.34,2.34-1.85,4.07-3.13,5.91c-0.56,0.8-1.38,1.45-1.84,2.3c-1.91,3.51-4.84,6.24-7.15,9.45c-1.89,1.33-2.67,3.64-4.41,5.09
		c-1.68,1.4-2.62,3.34-3.84,5.07c-0.16,0.23-0.29,0.5-0.49,0.71c-2.77,2.83-5.22,5.93-7.63,9.07c-0.84,1.1-2.07,1.9-3.21,2.91
		c-0.99-0.04-2.09-0.09-3.57-0.15c-1.91-0.61-3.54-2.12-4.94-4.27c0.1-0.8,0.22-1.76,0.36-2.94c0.39-0.18,1.03-0.28,1.35-0.66
		c1.47-1.7,3.38-2.97,4.71-4.8c0.5-0.69,0.95-1.46,1.61-1.96c1.59-1.23,2.88-2.68,3.58-4.29c0.8-0.36,1.31-0.6,1.48-0.67
		c1.26-1.43,2.28-2.61,3.31-3.76c2.07-2.29,3.6-5.06,6.2-6.87c0.99-2.06,3.11-3.28,4.03-5.41c2.57-2.61,4.31-5.91,7.08-8.36
		C184.29,130.27,184.56,129.75,184.8,129.43z"/>
	<path class="st2" d="M66.09,200.43c-0.72-0.6-1.37-1.14-1.97-1.64c-0.18-1.21,0.36-1.96,1.78-2.59c0.88,0.07,2.13,0.17,3.48,0.28
		c0.67-0.69,1.33-1.38,2.03-2.1c0.58,0.34,1.16,0.69,1.73,1.03c0.99,0.07,1.46-0.82,2.46-1.21c1.47,0.22,3.16,0.47,5.02,0.74
		c0.39,0.27,0.94,0.65,1.49,1.02c0.64-0.81,1.14-1.45,1.71-2.17c1.45,0.09,2.85,0.18,4.56,0.28c0.93-0.29,2.13-0.66,3.5-1.08
		c1.36,0.24,2.88,0.02,4.42-0.09c5.71-0.42,11.46-0.5,17.08-1.79c3.08,0.57,5.69-1.37,8.63-1.66c1.16-0.11,2.23-1.18,3.25-1.76
		c1.18-0.06,2.3-0.11,3.63-0.17c2.49,1.93,2.79,5.06,3.25,8.13c-0.4,0.58-0.8,1.16-1.3,1.89c-1.83,0.63-3.83,1.31-5.83,1.99
		c-2.01,0.68-4.17,0.94-6.19,0.76c-1.75-0.16-3.34,0.67-5.03,0.3c-2.65,1.1-5.58,0.33-8.25,1.25c-0.37,0.13-0.87,0.04-1.27-0.07
		c-2.8-0.79-5.66,0.49-8.45-0.29c-1.72,1.17-3.65-0.27-5.39,0.43c-1.63,0.66-3.42-0.65-4.99,0.47c-1.84-0.23-3.69-0.47-5.54-0.67
		c-1.25-0.14-2.5-0.61-3.77,0.07c-0.32,0.17-0.83,0.01-1.25-0.05C72.05,201.31,69.22,200.89,66.09,200.43z"/>
	<path class="st2" d="M219.38,195.96c-0.19,1.05-0.31,1.74-0.43,2.43c-0.77,0.8-1.73,0.74-2.72,0.58c-0.18,0.22-0.36,0.44-0.54,0.67
		c-0.97-0.12-1.95-0.24-2.96-0.36c-0.14,0.17-0.34,0.59-0.5,0.58c-2.35-0.14-4.65,0.95-6.99,0.32c-0.95-0.25-1.63,0.34-2.44,0.49
		c-0.83,0.16-1.65-0.38-2.51,0.05c-0.48,0.24-1.09,0.32-1.64,0.3c-0.95-0.02-1.9-0.17-2.85-0.27c-0.68,1.18-1.78,0.15-2.69,0.45
		c-0.8,0.26-1.88-0.33-2.95-0.57c-1.16,0.98-2.63,0.25-4.01,0.41c-2.09,0.24-4.19,0.31-6.27-0.14c-2.1-0.46-4.15,0.3-6.25,0.14
		c-3.05-0.24-6.12-0.11-9.18-0.23c-4.32-0.17-8.33-1.5-12.06-3.89c-0.55-1.56-1.11-3.16-1.78-5.07c0.34-0.75,0.75-1.64,1.11-2.43
		c2.31,0.04,4.18-0.02,6.13,0.56c2.64,0.78,5.36,1.42,8.26,1.11c1.9-0.21,3.91,0.37,5.85,0.68c1.54,0.25,3.03,0.42,4.6,0.05
		c0.92-0.22,1.95-0.02,2.92,0.09c1.81,0.21,3.62,0.49,5.67,0.77c0.23,0.19,0.65,0.55,1.2,1.02c0.4-0.27,0.84-0.56,1.45-0.97
		c0.01,0,0.27-0.03,0.52,0c0.69,0.08,1.38,0.29,2.06,0.27c1.18-0.03,2.17,0.55,3.26,0.76c0.9,0.18,1.89-0.09,3.63-0.21
		c0.3-0.09,0.42-1.96,2.51-1.08c-0.06-0.05,0.37,0.3,0.79,0.65c0.19-0.22,0.37-0.44,0.58-0.69c1.05,0.17,2.1,0.19,3.19,0.52
		c2.25,0.69,4.62,1.4,7.04,0.22c0.75,0.29,1.54,0.59,2.37,0.9c1.07-0.32,2.15-0.65,3.19-0.97c0.47,0.2,0.86,0.36,1.5,0.63
		C218.7,194.37,219.02,195.14,219.38,195.96z"/>
</g>
</svg>
