<svg xmlns="http://www.w3.org/2000/svg" width="316" height="215" viewBox="0 0 316 215"><path d="M167.006 191c5.627 0 9.722 3.809 9.722 10.079 0 8.528-6.392 13.921-13.484 13.921-5.627 0-9.756-3.809-9.756-10.079 0-8.528 6.393-13.921 13.518-13.921m-117.896.337-2.131 13.517c-.267 1.786-.466 3.37.2 4.55.599 1.08 1.698 1.753 3.329 1.753s2.93-.674 3.862-1.753c.968-1.106 1.32-2.567 1.58-4.218l.052-.332 2.13-13.517h4.262l-2.13 13.652c-.5 3.1-1.266 5.36-3.097 7.213-1.731 1.787-4.195 2.798-7.258 2.798s-5.194-1.011-6.393-2.798c-1.216-1.782-1.325-3.939-.887-6.86l.055-.353 2.13-13.652zM30.165 191c5.627 0 9.722 3.809 9.722 10.079 0 8.528-6.393 13.921-13.484 13.921-5.627 0-9.756-3.809-9.756-10.079 0-8.528 6.393-13.921 13.518-13.921m156.119.337 7.99 16.955.004-.031c.037-.3.336-2.704.722-5.204l.04-.26 1.798-11.46H201l-3.63 23.259h-4.294l-8.157-17.158s-.33 2.452-.716 4.974l-.117.757-1.798 11.427h-4.161l3.629-23.259zm-34.36 0-3.63 23.259h-4.261l3.629-23.259zm-6.726 0-.566 3.54h-5.96l-3.096 19.719h-4.195l3.096-19.72h-5.993l.566-3.539zm-22.44-.034 4.894 23.293h-4.628l-1.032-5.36h-8.457l-2.697 5.36h-4.395l12.153-23.293zm-25.238.034c6.193 0 10.155 3.37 10.155 9.742 0 7.877-5.957 13.362-13.466 13.513l-.318.004h-7.058l3.629-23.259zm-26.336 0 7.99 16.955s.293-2.4.687-4.977l.08-.517 1.797-11.46H85.9l-3.629 23.258h-4.295l-8.157-17.158s-.33 2.452-.715 4.974l-.117.757-1.798 11.427h-4.162l3.629-23.259zm-54.57 0-.566 3.674H7.325l-1.032 6.54h8.223l-.566 3.606H5.727l-1.465 9.439H0l3.63-23.259zm149.793 3.472c-4.528 0-8.457 3.775-8.457 9.573 0 4.18 2.43 6.775 5.893 6.775 4.562 0 8.457-3.842 8.457-9.64 0-4.146-2.397-6.708-5.893-6.708m-136.841 0c-4.528 0-8.457 3.775-8.457 9.573 0 4.18 2.43 6.775 5.893 6.775 4.561 0 8.457-3.842 8.457-9.64 0-4.146-2.397-6.708-5.893-6.708m67.555.202h-2.964l-2.497 15.877h2.963c5.194 0 8.624-4.248 8.624-9.371 0-4.079-1.931-6.506-6.126-6.506m22.707 1.315-4.695 9.404h6.393zm83.34-51.259c3.31 0 5.349 1.289 6.504 2.652l.12.146L207.33 151c-1.231-1.348-2.763-2.326-4.46-2.326-2.064 0-3.729 1.079-3.729 2.966 0 1.416 1.001 2.003 1.932 2.463l.132.066 3.33 1.584c2.43 1.045 3.461 2.73 3.461 4.989 0 4.82-3.628 8.258-9.054 8.258-3.347 0-5.636-1.732-6.867-3.431l-.124-.176 2.497-3.168c1.464 1.988 3.328 3.067 5.292 3.067 2.297 0 3.895-1.28 3.895-3.573 0-1.416-.865-2.022-2.463-2.73-1.065-.472-2.097-.978-3.196-1.45-.965-.404-3.162-1.55-3.162-4.887 0-4.349 3.994-7.585 8.355-7.585M162.39 145c4.172 0 6.333 1.813 7.094 2.782l.064.083-2.031 3.573c-.466-.876-2.663-2.663-5.792-2.663-4.195 0-8.29 3.304-8.29 9.674 0 4.113 2.264 6.776 6.026 6.776 2.78 0 4.916-1.243 6.438-2.654l.187-.178.965 3.304c-1.465 1.415-4.095 3.303-8.422 3.303-5.693 0-9.654-3.876-9.654-10.079 0-8.393 6.292-13.921 13.415-13.921m75.067.067c3.31 0 5.348 1.289 6.504 2.652l.12.146-2.463 3.135c-1.232-1.348-2.763-2.326-4.46-2.326-2.065 0-3.73 1.079-3.73 2.966 0 1.416 1.002 2.003 1.932 2.463l.133.066 3.329 1.584c2.43 1.045 3.462 2.73 3.462 4.989 0 4.82-3.629 8.258-9.055 8.258-3.347 0-5.636-1.732-6.867-3.431l-.124-.176 2.497-3.168c1.465 1.988 3.329 3.067 5.293 3.067 2.297 0 3.895-1.28 3.895-3.573 0-1.416-.866-2.022-2.464-2.73-1.065-.472-2.097-.978-3.195-1.45-.966-.404-3.163-1.55-3.163-4.887 0-4.349 3.995-7.585 8.356-7.585m-55.36-.067c5.626 0 9.72 3.809 9.72 10.079 0 8.528-6.39 13.921-13.481 13.921-5.626 0-9.754-3.809-9.754-10.079 0-8.528 6.392-13.921 13.515-13.921m-67.41 0c5.507 0 7.6 3.067 8.25 3.988l.04.057-3.23 2.595c-.865-1.348-2.463-2.932-5.625-2.932-4.494 0-8.323 3.775-8.323 9.775 0 4.247 2.397 6.742 5.86 6.742 3.52 0 5.174-1.385 5.498-1.693l.06-.06.666-4.281h-5.16l.533-3.404h9.288l-1.465 9.337c-.965.775-4.26 3.876-10.053 3.876-5.526 0-9.687-3.506-9.687-9.978 0-8.662 6.524-14.022 13.349-14.022m173.535.337 2.497 16.55h.033l7.856-16.55H304l-1.631 23.259h-4.195l1.399-17.562h-.067l-8.389 17.663h-3.295l-2.797-17.663h-.1l-4.227 17.562h-4.061l5.725-23.259zm-239.613 0-3.062 19.618h7.59l-.566 3.64H40.752l3.629-23.258zm99.634 0-.566 3.64h-9.288l-.899 5.765h8.755l-.566 3.606h-8.754l-1.032 6.607h9.553l-.565 3.64h-13.815l3.628-23.258zm-115.113 0c4.161 0 6.957 2.056 6.957 5.764 0 4.447-2.32 6.383-5.564 7.444l-.228.073 4.294 9.978h-4.96L30 159.157h-1.898l-1.464 9.439h-4.261l3.628-23.259zm-10.952 0-.566 3.64h-9.287l-.9 5.765h8.756l-.566 3.606h-8.755l-1.032 6.607h9.554l-.566 3.64H5l3.628-23.258zm255.525 0-.566 3.64h-9.288l-.898 5.765h8.755l-.566 3.606h-8.755l-1.032 6.607h9.554l-.566 3.64h-13.815l3.628-23.258zm-16.012 0-.566 3.54h-5.959l-3.096 19.719h-4.194l3.096-19.72h-5.992l.566-3.539zm-191.843-.034 4.893 23.293h-4.627l-1.032-5.36h-8.455l-2.697 5.36h-4.394l12.15-23.293zm145.205.034 3.462 9.978 6.525-9.978h4.727l-9.72 13.685-1.498 9.574h-4.261l1.498-9.574-5.426-13.685zm-129.893 0 7.99 16.955s.292-2.4.685-4.977l.08-.517 1.798-11.46h4.161l-3.628 23.258H91.95l-8.155-17.158s-.33 2.452-.716 4.974l-.117.757-1.797 11.427h-4.161l3.628-23.259zm96.338 3.472c-4.527 0-8.455 3.775-8.455 9.573 0 4.18 2.43 6.775 5.892 6.775 4.56 0 8.455-3.842 8.455-9.64 0-4.146-2.396-6.708-5.892-6.708m-114.58 1.517-4.694 9.404h6.392zm-35.086-1.55H29.7l-1.066 6.943h2.13c2.93 0 4.894-1.18 4.894-4.079 0-2.022-1.498-2.865-3.828-2.865m212.945-57.237a2.5 2.5 0 0 1 2.479 2.827l-3.223 24.46a2.5 2.5 0 0 1-2.478 2.174h-25.138a2.5 2.5 0 0 1-2.479-2.827l3.223-24.46a2.5 2.5 0 0 1 2.478-2.174zm-146.827 0a2.5 2.5 0 0 1 2.479 2.826l-3.215 24.46A2.5 2.5 0 0 1 94.735 121H13.309a2.5 2.5 0 0 1-2.478-2.826l3.214-24.46a2.5 2.5 0 0 1 2.479-2.175zm101.553 0a2.5 2.5 0 0 1 2.478 2.826l-3.214 24.46a2.5 2.5 0 0 1-2.479 2.175h-81.425a2.5 2.5 0 0 1-2.479-2.826l3.215-24.46a2.5 2.5 0 0 1 2.478-2.175zm107.9-46.296a2.5 2.5 0 0 1 2.478 2.826l-3.214 24.461a2.5 2.5 0 0 1-2.479 2.174h-81.425a2.5 2.5 0 0 1-2.479-2.825l3.215-24.461a2.5 2.5 0 0 1 2.478-2.175zm-203.106 0a2.5 2.5 0 0 1 2.479 2.826L103.56 72.53a2.5 2.5 0 0 1-2.478 2.174H19.656a2.5 2.5 0 0 1-2.478-2.825l3.214-24.461a2.5 2.5 0 0 1 2.479-2.175zm101.553 0a2.5 2.5 0 0 1 2.478 2.826l-3.214 24.461a2.5 2.5 0 0 1-2.479 2.174H121.21a2.5 2.5 0 0 1-2.479-2.825l3.215-24.461a2.5 2.5 0 0 1 2.479-2.175zM312.69 0a2.5 2.5 0 0 1 2.478 2.826l-3.214 24.46a2.5 2.5 0 0 1-2.479 2.175h-81.425a2.5 2.5 0 0 1-2.479-2.826l3.215-24.46A2.5 2.5 0 0 1 231.265 0zM109.585 0a2.5 2.5 0 0 1 2.479 2.826l-3.214 24.46a2.5 2.5 0 0 1-2.48 2.175H24.947a2.5 2.5 0 0 1-2.479-2.826l3.214-24.46A2.5 2.5 0 0 1 28.16 0zm101.553 0a2.5 2.5 0 0 1 2.479 2.826l-3.215 24.46a2.5 2.5 0 0 1-2.478 2.175h-81.426a2.5 2.5 0 0 1-2.478-2.826l3.214-24.46A2.5 2.5 0 0 1 129.713 0z"/></svg>