<svg xmlns="http://www.w3.org/2000/svg" xml:space="preserve" style="fill-rule:evenodd;clip-rule:evenodd;stroke-linejoin:round;stroke-miterlimit:2" viewBox="0 0 273 84"><path d="M57.413 10.134h9.454c8.409 0 15.236 6.827 15.236 15.236v33.243c0 8.409-6.827 15.236-15.236 15.236h-.745c-4.328-.677-6.205-1.975-7.655-3.072l-12.02-9.883a1.69 1.69 0 0 0-2.128 0l-3.905 3.211-10.998-9.043a1.69 1.69 0 0 0-2.127 0L12.01 68.503c-3.075 2.501-5.109 2.039-6.428 1.894C2.175 67.601 0 63.359 0 58.613V25.37c0-8.409 6.827-15.236 15.237-15.236h9.433l-.017.038-.318.927-.099.318-.428 1.899-.059.333-.188 1.902-.025.522-.004.183.018.872.043.511.106.8.135.72.16.663.208.718.54 1.52.178.456.94 1.986.332.61 1.087 1.866.416.673 1.517 2.234.219.296 1.974 2.569.638.791 2.254 2.635.463.507 1.858 1.999.736.762 1.216 1.208-.244.204-.152.137q-.62.578-1.172 1.224a10 10 0 0 0-.504.644 8 8 0 0 0-.651 1.064 6 6 0 0 0-.261.591 5.5 5.5 0 0 0-.353 1.606l-.007.475a5.6 5.6 0 0 0 .403 1.953 5.4 5.4 0 0 0 1.086 1.703c.338.36.723.674 1.145.932.359.22.742.401 1.14.539a6.4 6.4 0 0 0 2.692.306h.005a6.1 6.1 0 0 0 2.22-.659q.448-.237.848-.549a5.44 5.44 0 0 0 1.71-2.274c.28-.699.417-1.446.405-2.198l-.022-.393a5.5 5.5 0 0 0-.368-1.513 6 6 0 0 0-.285-.618 8.5 8.5 0 0 0-.67-1.061 11 11 0 0 0-.354-.453 15 15 0 0 0-1.308-1.37l-.329-.28.557-.55 2.394-2.5.828-.909 1.287-1.448.837-.979 1.194-1.454.808-1.016 1.187-1.587.599-.821.85-1.271.708-1.083 1.334-2.323.763-1.524.022-.047.584-1.414.02-.056.629-1.962.066-.286.273-1.562.053-.423.016-.259.019-.978-.005-.182-.05-.876-.062-.68-.31-1.961a1 1 0 0 0-.018-.078l-.398-1.45-.137-.403zm4.494 41.455a3.66 3.66 0 0 0-3.61 3.61 3.663 3.663 0 0 0 3.61 3.609 3.665 3.665 0 0 0 3.611-3.609 3.663 3.663 0 0 0-3.611-3.61" style="fill:url(#a)"/><path d="m188.849 65.24-11.341-24.279c-.947-2.023-1.511-2.762-2.458-3.62l-.923-.832c-.734-.713-1.217-1.372-1.217-2.157 0-1.123.888-2.067 2.508-2.067h9.846c1.546 0 2.508.804 2.508 2.004 0 .67-.308 1.172-.697 1.664-.462.586-1.063 1.157-1.063 2.197 0 .652.189 1.302.556 2.132l6.768 15.85 6.071-15.451c.373-1.028.629-1.933.629-2.658 0-1.127-.613-1.587-1.086-2.091-.411-.438-.74-.901-.74-1.643 0-1.212.986-2.004 2.313-2.004h6.064c1.7 0 2.508.879 2.508 2.004 0 .72-.414 1.386-1.23 2.105l-.858.705c-1.194.976-1.747 2.387-2.373 3.847l-9.195 22.152c-1.087 2.59-2.704 6.185-5.175 9.134-2.509 2.996-5.893 5.326-10.477 5.326-3.838 0-6.16-1.832-6.16-4.473 0-2.419 1.788-4.346 4.138-4.346 1.288 0 1.957.608 2.637 1.233.561.516 1.131 1.045 2.254 1.045 1.042 0 2.014-.441 2.893-1.152 1.343-1.087 2.47-2.798 3.3-4.625M32.915 73.849H15.237a15.17 15.17 0 0 1-9.655-3.452c1.319.145 3.353.607 6.428-1.894l15.279-13.441a1.69 1.69 0 0 1 2.127 0l10.998 9.043 3.905-3.211a1.69 1.69 0 0 1 2.128 0l12.02 9.883c1.45 1.097 3.327 2.395 7.655 3.072h-7.996a3.4 3.4 0 0 1-1.963-.654l-.14-.108-10.578-8.784-10.439 8.784a3.34 3.34 0 0 1-2.091.762m222.578-8.696q7.657-.002 12.551-5.239 4.889-5.229 4.889-12.588c0-4.787-1.549-8.721-4.637-11.805-3.086-3.081-7.092-4.629-12.021-4.629-5.19 0-9.436 1.685-12.74 5.043q-4.961 5.041-4.962 12.214.001 7.109 4.73 12.052c3.153 3.298 7.215 4.952 12.19 4.952m-43.168-.38c2.952 0 5.052-1.987 5.052-4.852 0-2.798-2.169-4.789-5.052-4.789-3.02 0-5.182 1.994-5.182 4.789 0 2.862 2.163 4.852 5.182 4.852m10.511-4.541.718-.759c.856-.831 1.13-1.67 1.13-3.982V41.82c0-1.999-.272-2.891-1.119-3.655l-.846-.758c-.827-.73-1.099-1.185-1.099-1.915 0-1.038.804-1.889 2.098-2.185l5.739-1.392c.549-.133 1.167-.263 1.648-.263.66 0 1.2.217 1.579.594s.603.921.603 1.6v21.645c0 2.183.265 3.198 1.176 3.964l.042.041.641.748c.806.784 1.141 1.304 1.141 2.019 0 1.275-.963 2.004-2.509 2.004h-9.715c-1.474 0-2.443-.725-2.443-2.004 0-.718.334-1.243 1.216-2.031m-64.946 0 .718-.759c.855-.831 1.13-1.67 1.13-3.982V26.948c0-1.936-.205-2.886-1.111-3.649l-.867-.84c-.749-.726-1.022-1.177-1.022-1.904 0-1.039.81-1.887 2.033-2.184l5.674-1.392c.549-.133 1.168-.263 1.648-.263.655 0 1.21.198 1.606.572.396.375.642.934.642 1.685v36.518c0 2.188.271 3.145 1.186 3.973l.732.774c.811.789 1.081 1.306 1.081 2.025 0 .529-.161.957-.449 1.282-.406.46-1.087.722-1.994.722h-9.716c-.907 0-1.587-.262-1.994-.722-.287-.325-.449-.753-.449-1.282 0-.72.267-1.241 1.152-2.031m-26.457-14.698v9.83c0 1.482.293 2.85 1.515 3.976l.789.765c.883.858 1.152 1.372 1.152 2.158 0 1.2-.963 2.004-2.508 2.004h-10.955c-1.545 0-2.508-.804-2.508-2.004 0-.933.274-1.375 1.157-2.162l.787-.763c.915-.83 1.512-1.96 1.512-3.974V29.099c0-1.6-.354-2.908-1.514-3.975l-.79-.766c-.812-.788-1.152-1.306-1.152-2.094 0-1.272.965-2.067 2.508-2.067h29.343c1.122 0 2.108.249 2.737.867.438.429.718 1.034.749 1.875l.457 6.774c.046.847-.204 1.553-.693 1.988-.336.299-.789.479-1.359.479-.718 0-1.269-.271-1.76-.739-.442-.421-.836-1.012-1.28-1.707-1.071-1.713-1.571-2.329-2.713-3.13-1.59-1.173-4.012-1.576-8.592-1.576-2.643 0-4.311.115-5.361.386-.68.175-1.072.403-1.282.737-.215.342-.239.775-.239 1.303v13.311h6.882c1.647 0 2.805-.297 4.147-2.132l.007-.01c.538-.685.927-1.189 1.297-1.524.432-.39.846-.574 1.396-.574 1.032 0 1.986.848 1.986 2.004v9.177c0 1.23-.957 2.068-1.986 2.068-.511 0-.928-.182-1.36-.564-.372-.328-.762-.817-1.269-1.473-1.468-1.9-2.505-2.203-4.218-2.203zm116.265-.233c0-3.292.717-5.658 2.204-7.081 1.468-1.405 3.047-2.116 4.743-2.116 2.334 0 4.436 1.305 6.332 3.874 1.939 2.625 2.897 6.174 2.897 10.639 0 3.296-.72 5.684-2.208 7.148-1.467 1.445-3.044 2.177-4.739 2.177-2.334 0-4.435-1.316-6.332-3.905-1.939-2.647-2.897-6.228-2.897-10.736M61.907 51.589a3.66 3.66 0 0 0-3.61 3.61 3.663 3.663 0 0 0 3.61 3.609 3.665 3.665 0 0 0 3.611-3.609 3.663 3.663 0 0 0-3.611-3.61M38.57 40.652l-1.216-1.208-.736-.762-1.858-1.999-.463-.507-2.254-2.635-.638-.791-1.974-2.569-.219-.296-1.517-2.234-.416-.673-1.087-1.866-.332-.61-.94-1.986-.178-.456-.54-1.52-.208-.718-.16-.663-.135-.72-.106-.8-.043-.511-.018-.872.004-.183.025-.522.188-1.902.059-.333.428-1.899.099-.318.318-.927.102-.24.506-1.112.351-.662.489-.806.487-.718.347-.456.4-.482.44-.484.377-.379.918-.808.671-.549q.024-.02.05-.038l.794-.537.631-.402 1.198-.631q.028-.016.058-.029l1.699-.705.157-.059 1.51-.442.638-.143.862-.173.572-.087.877-.109.598-.053 1.187-.063.465-.005.881.018.229.013 1.276.106 1.688.238.195.041 1.668.415.49.146.544.188.663.251.524.222.77.363.485.249.872.512.325.2 1.189.868.341.296.829.755.041.041.703.754.242.273.825 1.096.168.262.655 1.106.197.379.369.825.386.963.137.403.398 1.45a1 1 0 0 1 .018.078l.31 1.961.062.68.05.876.005.182-.019.978-.016.259-.053.423-.273 1.562-.066.286-.629 1.962-.02.056-.584 1.414-.022.047-.763 1.524-1.334 2.323-.708 1.083-.85 1.271-.599.821-1.187 1.587-.808 1.016-1.194 1.454-.837.979-1.287 1.448-.828.909-2.394 2.5-.557.55.329.28q.698.642 1.308 1.37.183.222.354.453a8.5 8.5 0 0 1 .67 1.061q.159.3.285.618c.191.484.32.996.368 1.513l.022.393a5.7 5.7 0 0 1-.405 2.198 5.44 5.44 0 0 1-1.71 2.274q-.4.312-.848.549a6.1 6.1 0 0 1-2.22.659h-.005A6.4 6.4 0 0 1 39 51.724a6 6 0 0 1-1.14-.539 5.5 5.5 0 0 1-1.145-.932 5.4 5.4 0 0 1-1.086-1.703 5.6 5.6 0 0 1-.403-1.953l.007-.475a5.5 5.5 0 0 1 .353-1.606q.115-.303.261-.591.286-.557.651-1.064.24-.332.504-.644.551-.646 1.172-1.224l.152-.137zm189.927-13.156c2.958 0 5.051-1.664 5.051-4.536 0-2.804-2.091-4.472-5.051-4.472-3.029 0-5.117 1.67-5.117 4.472s2.089 4.536 5.117 4.536" style="fill:#24165b"/><path d="m45.445 64.303 10.578 8.784a3.4 3.4 0 0 0 2.139.762H32.879c.776 0 1.528-.269 2.127-.762zm-4.341-20.731.096.028c.031.015.057.037.085.056l.08.071q.297.274.575.569.196.208.379.43.233.28.432.587.085.134.16.276.065.124.116.253c.06.15.105.308.119.469l-.003.302a1.72 1.72 0 0 1-.817 1.343 2.34 2.34 0 0 1-.994.327l-.373.011-.315-.028a2.4 2.4 0 0 1-.433-.105 2 2 0 0 1-.41-.192l-.246-.18a1.7 1.7 0 0 1-.56-.96 2 2 0 0 1-.029-.19l-.009-.288q.008-.117.034-.232.065-.253.183-.486a4.5 4.5 0 0 1 .344-.559q.32-.432.691-.821.238-.252.492-.488l.121-.109c.084-.056.085-.056.181-.084zM40.485 3.42l.039-.003v33.669l-.084-.155a94 94 0 0 1-3.093-6.268 67 67 0 0 1-2.099-5.255 41 41 0 0 1-1.265-4.327c-.266-1.163-.47-2.343-.554-3.535a17 17 0 0 1-.029-1.528q.012-.666.054-1.33.065-1.046.217-2.082.12-.816.305-1.619.147-.639.342-1.262.282-.9.675-1.758.144-.31.307-.612c.65-1.204 1.532-2.313 2.687-3.055a5.6 5.6 0 0 1 2.498-.88m4.366.085 2.265.646c1.049.387 2.059.892 2.987 1.522a12 12 0 0 1 3.212 3.204c.503.748.919 1.555 1.244 2.398.471 1.247.763 2.554.866 3.883q.044.522.054 1.046c.008.324.006.649-.02.973a11 11 0 0 1-.407 2.14 17 17 0 0 1-.587 1.684q-.42 1.028-.932 2.013c-.755 1.458-1.624 2.853-2.554 4.202a66 66 0 0 1-3.683 4.806 91 91 0 0 1-4.418 4.897 94 94 0 0 0 2.908-5.95q.75-1.686 1.414-3.407a53 53 0 0 0 1.317-3.831c.29-.969.546-1.948.757-2.938.181-.849.323-1.707.411-2.57q.11-1.081.083-2.166a31 31 0 0 0-.049-1.325c-.106-1.776-.376-3.546-.894-5.249a15 15 0 0 0-.714-1.892c-.663-1.444-1.588-2.794-2.84-3.779z" style="fill:#fff"/><defs><radialGradient id="a" cx="0" cy="0" r="1" gradientTransform="matrix(56.0085 0 0 59.9637 41.051 41.991)" gradientUnits="userSpaceOnUse"><stop offset="0" style="stop-color:#ba7bf0;stop-opacity:1"/><stop offset=".43" style="stop-color:#996bec;stop-opacity:1"/><stop offset="1" style="stop-color:#5046e4;stop-opacity:1"/></radialGradient></defs></svg>