<svg xmlns="http://www.w3.org/2000/svg" width="135" height="26" fill="none" viewBox="0 0 135 26"><g clip-path="url(#a)"><path fill="#2d5270" d="M88.848 0h-3.14v7.471h3.14zM85.69 22.395H74.743v-.373h-.04V0h-7.124v3.196h3.29v19.2h-3.29v3.188h21.27v-7.859H85.69z"/><path fill="#aad2f0" d="M84.46 0h-8.593v3.196h8.593zM84.46 10.815h-8.593v3.192h8.593z"/><path fill="#2d5270" d="M93.959 5.887v2.275l1.968-1.14zM93.959 14.639v7.756H90.73v3.19h10.357v-3.19h-3.26v-8.42h8.269v-3.192h-5.461zM95.127 0l5.354 3.196h6.938V7.47h3.157V0z"/><path fill="#aad2f0" d="m103.254 6.208-1.016-.592v-.004L92.689 0l-1.598 2.818 7.178 4.216-7.086 4.162 1.598 2.815 8.906-5.231v.003l1.542-.843 1.541-.843z"/><path fill="#2d5270" d="M19.7 3.25H16.1V.077h10.353v3.175h-3.704v22.533H18.83L6.716 4.043v18.296h3.62v3.175H0V22.34h3.601V3.25H0V.08h8.61L19.7 19.845zM34.861 3.25v19.09h2.748v3.174h-9.298V22.34h2.73V3.25h-2.73V.08h9.298v3.174h-2.748zM59.182 3.25h-3.601V.077h10.353v3.175H62.23v22.533h-3.919L46.201 4.043v18.296h3.62v3.175H39.486V22.34h3.601V3.25h-3.602V.08h8.61l11.091 19.767V3.249zM118.735 3.368l4.438 6.667 4.388-6.667h-2.914V.193h9.7v3.175h-3.15l-6.247 9.333 6.801 9.757H135v3.175h-10.353v-3.175h2.949l-4.674-6.952-4.624 6.952h3.083v3.175h-10.05v-3.175h3.334l6.483-9.654-6.448-9.436h-3.235V.193h10.152v3.175z"/></g><defs><clipPath id="a"><path fill="#fff" d="M0 0h135v25.785H0z"/></clipPath></defs></svg>