<svg xmlns="http://www.w3.org/2000/svg" width="128" height="128" fill="none"><rect width="128" height="128" fill="#1A2327" rx="20"/><rect width="118" height="118" x="5" y="5" fill="#1A2327" stroke="#fff" stroke-width="2" rx="16"/><path fill="#fff" d="M75.133 44.98q.793.028 2.297.11 4.21.219 5.714.219 1.887 0 6.782-.246l1.668-.083v2.461h-.63q-2.35 0-3.198 1.149-.82 1.148-.82 6.125v7.218999999999999q2.296.082 4.538.136a364 364 0 0 0 9.051 0q2.57-.055 5.66-.136v-7.22q0-4.975-.82-6.124t-3.199-1.149h-.629v-2.46q2.625.163 4.73.246 2.106.081 3.746.082 1.505 0 5.715-.22 1.477-.081 2.297-.108v2.433h-.383a4 4 0 0 0-.519-.027q-2.16 0-2.926 1.422-.766 1.394-.766 6.234 0 .82.028 2.953.027 2.133.027 3.5v5.77q0 1.64-.027 4.128-.028 2.461-.028 3.31 0 4.292.793 5.605.794 1.284 3.008 1.285h.602a10 10 0 0 0 .383-.055V84q-.93-.055-2.625-.137-4.24-.19-5.633-.191-1.559 0-3.746.082-2.189.083-5.004.246v-2.46q.219 0 .547.026.327.028.464.028 2.352 0 3.145-1.23.82-1.231.82-6.345v-7.874a637 637 0 0 0-5.086-.082q-2.324-.028-4.593-.028-3.883 0-5.88.028-1.968.027-3.69.081v7.875q0 5.114.792 6.344.82 1.23 3.172 1.23.136 0 .465-.027a8 8 0 0 1 .547-.027V84q-2.844-.164-5.031-.246a101 101 0 0 0-3.692-.082q-1.421 0-5.633.191-1.695.082-2.652.137v-2.46l.41.054h.657q2.187 0 2.953-1.422.793-1.449.793-6.207 0-.82-.028-3.035-.027-2.215-.027-3.61v-5.824q0-1.53.027-3.883.028-2.351.028-3.172 0-4.374-.793-5.714-.794-1.34-2.899-1.34-.356 0-.547.027h-.355zM31.11 75.195 38.683 56l-1.586-4.922q-.71-2.27-1.477-2.98-.765-.711-2.27-.711-.191 0-.546.027t-.52.027v-2.46q.465 0 1.395.054 4.868.274 6.726.274 1.258 0 3.172-.082a250 250 0 0 0 4.621-.246v2.46q-.219 0-.574-.027a7 7 0 0 0-.492-.027q-1.587 0-2.242.492-.63.492-.63 1.75 0 .6.301 1.75.3 1.149.93 3.117l6.617 20.645 1.504-4.32q6.672-19.087 6.672-21.137 0-1.23-.71-1.723-.685-.52-2.49-.52h-.765v-2.46q.602.027 1.668.081 3.828.247 5.223.247 1.313 0 5.113-.246 1.094-.055 1.695-.083v2.461a1.3 1.3 0 0 0-.3-.027 4 4 0 0 0-.52-.027q-2.925 0-6.125 9.187a417 417 0 0 1-1.996 5.578l-2.351 6.18q-.411 1.012-1.176 3.008-3.528 9.187-4.594 13.043h-5.168a44 44 0 0 0-.629-2.434 42 42 0 0 0-.875-2.816l-5.77-17.363-6.726 16.953a63 63 0 0 0-1.23 3.28 36 36 0 0 0-.657 2.38h-5.168q-.327-1.831-4.32-12.88l-.93-2.57-2.761-7.601q-.63-1.832-1.668-4.922-3.063-9.078-5.824-9.078-.247 0-.766.082-.082 0-.137.027v-2.46q2.762.163 4.703.246 1.942.081 3.145.082 1.394 0 5.469-.22 1.503-.081 2.324-.108v2.46h-.63q-1.394 0-2.077.52-.657.492-.657 1.531 0 .93 1.122 4.102l.054.164z"/><mask id="a" width="32" height="30" x="54" y="53" fill="#000" maskUnits="userSpaceOnUse"><path fill="#fff" d="M54 53h32v30H54z"/><path d="M66.937 65.723q1.194-.896 1.826-2.109.647-1.228.647-2.623 0-1.345-.83-2.224-.813-.897-2.092-.897-1.095 0-1.826.764-.714.747-.714 1.926 0 1.046.747 2.357.747 1.295 2.242 2.806m3.569 10.027-6.392-7.554q-1.626.681-2.424 1.71-.78 1.013-.78 2.44 0 2.142 1.544 3.736 1.544 1.578 3.636 1.577 1.062 0 2.175-.481t2.24-1.428m1.162 1.328q-1.91 1.727-3.835 2.64-1.925.896-3.686.896-3.187 0-5.229-1.925-2.042-1.942-2.042-4.915 0-2.457 1.544-4.167 1.56-1.71 4.632-2.623-1.329-1.228-2.009-2.523a5.8 5.8 0 0 1-.664-2.69q0-2.457 1.91-4.15 1.925-1.693 4.78-1.693 2.39 0 3.868 1.278 1.478 1.261 1.478 3.27 0 1.977-1.129 3.553-1.129 1.578-3.37 2.74l5.412 6.192q1.578-1.743 2.557-3.652.98-1.926.98-3.005 0-.35-.134-.598a.9.9 0 0 0-.381-.398q-.2-.1-.581-.15a8 8 0 0 0-.947-.05v-1.494q.415.017 1.196.067 2.025.133 2.722.133.63 0 1.594-.05a74 74 0 0 0 2.208-.15v1.494h-.548q-.896 0-1.394.316-.482.315-1.046 1.494-1.179 2.424-2.407 4.217a20.4 20.4 0 0 1-2.59 3.12l.713.814q1.328 1.494 2.175 2.042.863.548 1.727.548.698 0 1.527-.448.831-.465 1.644-1.295l.946.93q-1.294 1.875-2.806 2.822-1.51.945-3.22.946-1.345 0-2.59-.763-1.245-.765-3.005-2.773"/></mask><path fill="#fff" d="M66.937 65.723q1.194-.896 1.826-2.109.647-1.228.647-2.623 0-1.345-.83-2.224-.813-.897-2.092-.897-1.095 0-1.826.764-.714.747-.714 1.926 0 1.046.747 2.357.747 1.295 2.242 2.806m3.569 10.027-6.392-7.554q-1.626.681-2.424 1.71-.78 1.013-.78 2.44 0 2.142 1.544 3.736 1.544 1.578 3.636 1.577 1.062 0 2.175-.481t2.24-1.428m1.162 1.328q-1.91 1.727-3.835 2.64-1.925.896-3.686.896-3.187 0-5.229-1.925-2.042-1.942-2.042-4.915 0-2.457 1.544-4.167 1.56-1.71 4.632-2.623-1.329-1.228-2.009-2.523a5.8 5.8 0 0 1-.664-2.69q0-2.457 1.91-4.15 1.925-1.693 4.78-1.693 2.39 0 3.868 1.278 1.478 1.261 1.478 3.27 0 1.977-1.129 3.553-1.129 1.578-3.37 2.74l5.412 6.192q1.578-1.743 2.557-3.652.98-1.926.98-3.005 0-.35-.134-.598a.9.9 0 0 0-.381-.398q-.2-.1-.581-.15a8 8 0 0 0-.947-.05v-1.494q.415.017 1.196.067 2.025.133 2.722.133.63 0 1.594-.05a74 74 0 0 0 2.208-.15v1.494h-.548q-.896 0-1.394.316-.482.315-1.046 1.494-1.179 2.424-2.407 4.217a20.4 20.4 0 0 1-2.59 3.12l.713.814q1.328 1.494 2.175 2.042.863.548 1.727.548.698 0 1.527-.448.831-.465 1.644-1.295l.946.93q-1.294 1.875-2.806 2.822-1.51.945-3.22.946-1.345 0-2.59-.763-1.245-.765-3.005-2.773"/><path fill="#1A2327" d="m66.937 65.723-1.422 1.406 1.226 1.24 1.395-1.046zm1.826-2.109-1.77-.932-.004.009zm-.183-4.847L67.1 60.11l.013.014.013.014zm-3.918-.133-1.445-1.383v.001zm.033 4.283-1.738.99.006.01zm5.81 12.833 1.286 1.533 1.54-1.291-1.298-1.534zm-6.39-7.554 1.526-1.292-.947-1.118-1.352.565zm-2.425 1.71-1.581-1.224-.003.004zm.764 6.176-1.436 1.392.007.007zm9.214.996 1.504-1.318-1.338-1.528-1.508 1.363zm-3.835 2.64.844 1.813.013-.006zm-8.915-1.03-1.379 1.45.007.005zm-.498-9.08-1.477-1.349-.008.008zm4.632-2.624.57 1.917 3.366-1-2.578-2.385zm-2.009-2.523-1.78.913.005.009.005.008zm1.245-6.84-1.32-1.502-.007.006zm8.65-.415-1.31 1.513.01.008zm-3.022 9.563-.92-1.776-2.263 1.173 1.677 1.919zm5.412 6.192-1.506 1.316 1.48 1.694 1.51-1.668zm2.557-3.652 1.78.913.002-.007zm.846-3.603-1.788.894.011.024.013.023zm-.381-.398.94-1.765-.022-.012-.024-.012zm-1.528-.2h-2v2h2zm0-1.494.08-1.998-2.08-.083v2.081zm1.196.067.13-1.996h-.003zm4.316.083-.102-1.998h-.001zm2.208-.15h2v-2.168l-2.162.175zm0 1.494v2h2v-2zm-1.942.316-1.07-1.69-.014.008-.012.009zm-1.046 1.494 1.798.875.005-.011zm-2.407 4.217-1.65-1.13-.003.003zm-2.59 3.12-1.397-1.43-1.358 1.324 1.251 1.426zm.713.814-1.503 1.32.009.01zm2.175 2.042-1.086 1.68.007.004.008.005zm3.254.1.95 1.76.014-.008.013-.007zm1.644-1.295 1.401-1.427-1.428-1.403-1.402 1.43zm.946.93 1.646 1.136.955-1.384-1.2-1.179zm-15.153-9.523c1.014-.76 1.83-1.688 2.4-2.785L66.99 62.69c-.27.518-.672.997-1.252 1.432zm2.396-2.776a7.54 7.54 0 0 0 .878-3.556h-4c0 .606-.137 1.16-.417 1.69zm.878-3.556c0-1.345-.431-2.596-1.375-3.597l-2.91 2.745c.163.173.285.404.285.852zm-1.349-3.568c-.945-1.041-2.192-1.553-3.573-1.553v4c.324 0 .471.086.611.24zm-3.573-1.553c-1.253 0-2.391.462-3.271 1.381l2.89 2.765c.095-.098.174-.146.381-.146zm-3.272 1.382c-.882.923-1.268 2.085-1.268 3.308h4c0-.35.09-.471.16-.544zm-1.268 3.308c0 1.164.411 2.296 1.01 3.347l3.475-1.98c-.398-.698-.485-1.138-.485-1.367zm1.015 3.356c.611 1.06 1.481 2.13 2.551 3.213l2.845-2.813c-.922-.932-1.546-1.731-1.931-2.399zm9.07 10.542-6.392-7.554-3.054 2.584 6.392 7.554zm-8.69-8.107c-1.296.542-2.43 1.291-3.234 2.33l3.163 2.45c.258-.333.74-.724 1.614-1.09zm-3.237 2.335c-.821 1.065-1.196 2.322-1.196 3.66h4c0-.564.146-.934.365-1.22zm-1.196 3.66c0 1.968.731 3.707 2.108 5.128l2.873-2.784c-.683-.704-.98-1.456-.98-2.343zm2.115 5.135c1.382 1.412 3.1 2.178 5.065 2.178v-4c-.825 0-1.53-.285-2.207-.976zm5.065 2.178c1.017 0 2.012-.232 2.97-.646l-1.59-3.67c-.526.227-.981.316-1.38.316zm2.97-.646c.951-.412 1.86-1.001 2.73-1.73l-2.569-3.066c-.635.533-1.22.895-1.75 1.125zm1.266-3.418c-1.156 1.046-2.275 1.806-3.35 2.316l1.714 3.614c1.492-.708 2.93-1.708 4.32-2.964zm-3.337 2.31c-1.073.5-2.014.71-2.842.71v4c1.52 0 3.036-.388 4.53-1.084zm-2.842.71c-1.689 0-2.918-.496-3.857-1.381l-2.744 2.91c1.783 1.681 4.04 2.47 6.601 2.47zm-3.85-1.376c-.941-.895-1.421-1.998-1.421-3.465h-4c0 2.496.882 4.669 2.663 6.364zm-1.421-3.465c0-1.178.354-2.08 1.028-2.826l-2.969-2.68c-1.384 1.532-2.059 3.41-2.059 5.506zm1.021-2.818c.719-.788 1.898-1.511 3.725-2.055l-1.14-3.834c-2.268.675-4.177 1.7-5.54 3.192zm4.513-5.44c-.757-.7-1.27-1.365-1.597-1.986l-3.54 1.861c.58 1.106 1.406 2.123 2.42 3.062zm-1.587-1.968a3.8 3.8 0 0 1-.444-1.776h-4c0 1.26.303 2.469.884 3.602zm-.444-1.776c0-1.042.373-1.889 1.236-2.655l-2.654-2.992c-1.682 1.492-2.582 3.412-2.582 5.647zm1.23-2.649c.876-.77 1.984-1.195 3.46-1.195v-4c-2.33 0-4.41.704-6.102 2.191zm3.46-1.195c1.225 0 2.015.319 2.56.79l2.617-3.024c-1.425-1.233-3.214-1.766-5.177-1.766zm2.57.799c.523.447.776.973.776 1.75h4c0-1.902-.732-3.556-2.179-4.792zm.776 1.75c0 .907-.25 1.683-.755 2.388l3.252 2.328c1-1.397 1.503-2.99 1.503-4.716zm-.755 2.388c-.522.73-1.37 1.456-2.665 2.128l1.842 3.551c1.692-.878 3.092-1.977 4.075-3.35zm-3.25 5.22 5.412 6.192 3.012-2.632-5.412-6.193zm8.401 6.218c1.158-1.28 2.113-2.64 2.853-4.081l-3.559-1.826c-.566 1.103-1.315 2.178-2.26 3.223zm2.856-4.088c.68-1.337 1.197-2.695 1.197-3.911h-4c0 .222-.136.867-.762 2.098zm1.197-3.911c0-.485-.093-1.023-.368-1.54l-3.53 1.883a.8.8 0 0 1-.102-.343zm-.344-1.492a2.9 2.9 0 0 0-1.23-1.27l-1.882 3.53a1.13 1.13 0 0 1-.465-.472zm-1.276-1.293c-.427-.214-.878-.3-1.217-.344l-.517 3.966.074.012.023.004-.04-.012a1 1 0 0 1-.112-.048zm-1.217-.344a9.5 9.5 0 0 0-1.205-.067v4c.326 0 .549.015.688.033zm.795 1.933v-1.494h-4v1.494zm-2.08.505c.253.01.633.03 1.148.064l.255-3.992a56 56 0 0 0-1.243-.07zm1.145.063c1.34.088 2.313.138 2.853.138v-4c-.389 0-1.232-.04-2.592-.129zm2.853.138c.468 0 1.037-.019 1.697-.053l-.206-3.995a30 30 0 0 1-1.49.047zm1.696-.053a76 76 0 0 0 2.268-.153l-.324-3.987a72 72 0 0 1-2.148.145zm.106-2.147v1.494h4v-1.494zm2-.506h-.548v4h.548zm-.548 0c-.793 0-1.687.134-2.465.626l2.14 3.38c-.063.04-.086.036-.03.024.056-.013.17-.03.355-.03zm-2.49.643c-.461.302-.8.708-1.045 1.057a9 9 0 0 0-.71 1.246l3.609 1.728c.159-.333.287-.55.378-.68a1 1 0 0 1 .071-.093c.004-.004-.032.036-.111.088zm-1.749 2.292c-.752 1.547-1.507 2.864-2.258 3.961l3.3 2.261c.886-1.293 1.736-2.788 2.555-4.472zm-2.26 3.965a18.4 18.4 0 0 1-2.335 2.817l2.794 2.862a22.4 22.4 0 0 0 2.845-3.425zm-2.442 5.567.714.813 3.007-2.638-.714-.813zm.723.823c.912 1.026 1.783 1.875 2.583 2.392l2.173-3.358c-.33-.213-.908-.725-1.767-1.691zm2.598 2.402c.836.53 1.778.86 2.798.86v-4c-.13 0-.34-.037-.655-.237zm2.798.86c.893 0 1.73-.286 2.478-.69l-1.901-3.519c-.36.195-.54.208-.577.208zm2.504-.704c.752-.42 1.448-.98 2.095-1.64l-2.857-2.8c-.437.447-.837.75-1.192.95zm-.735-1.613.946.93 2.804-2.854-.947-.93zm.702-1.633c-.75 1.086-1.5 1.811-2.221 2.263l2.123 3.39c1.293-.81 2.413-1.966 3.39-3.381zm-2.221 2.263c-.703.44-1.411.641-2.16.641v4c1.533 0 2.972-.43 4.283-1.251zm-2.16.641c-.495 0-1-.135-1.543-.468l-2.092 3.41c1.117.684 2.339 1.058 3.636 1.058zm-1.543-.468c-.572-.35-1.416-1.095-2.547-2.386l-3.008 2.636c1.215 1.387 2.374 2.492 3.463 3.16z" mask="url(#a)"/><script/></svg>