<svg width="128" height="128" viewBox="0 0 128 128" fill="none" xmlns="http://www.w3.org/2000/svg">
<rect width="128" height="128" rx="20" fill="#1A2327"/>
<rect x="5" y="5" width="118" height="118" rx="16" fill="#1A2327" stroke="white" stroke-width="2"/>
<path d="M75.1328 44.9805C75.6615 44.9987 76.4271 45.0352 77.4297 45.0898C80.237 45.2357 82.1419 45.3086 83.1445 45.3086C84.4023 45.3086 86.6628 45.2266 89.9258 45.0625C90.6549 45.026 91.2109 44.9987 91.5938 44.9805V47.4414H90.9648C89.3971 47.4414 88.3307 47.8242 87.7656 48.5898C87.2188 49.3555 86.9453 51.3971 86.9453 54.7148V55.9453V61.9336C88.4766 61.9883 89.9896 62.0339 91.4844 62.0703C92.9792 62.0885 94.4557 62.0977 95.9141 62.0977C97.2812 62.0977 98.8216 62.0885 100.535 62.0703C102.249 62.0339 104.135 61.9883 106.195 61.9336V54.7148C106.195 51.3971 105.922 49.3555 105.375 48.5898C104.828 47.8242 103.762 47.4414 102.176 47.4414H101.547V44.9805C103.297 45.0898 104.874 45.1719 106.277 45.2266C107.681 45.2812 108.93 45.3086 110.023 45.3086C111.026 45.3086 112.931 45.2357 115.738 45.0898C116.723 45.0352 117.488 44.9987 118.035 44.9805V47.4141C117.926 47.4141 117.798 47.4141 117.652 47.4141C117.525 47.3958 117.352 47.3867 117.133 47.3867C115.693 47.3867 114.717 47.8607 114.207 48.8086C113.697 49.7383 113.441 51.8164 113.441 55.043C113.441 55.5898 113.451 56.5742 113.469 57.9961C113.487 59.418 113.496 60.5846 113.496 61.4961V67.2656C113.496 68.3594 113.487 69.7357 113.469 71.3945C113.451 73.0352 113.441 74.138 113.441 74.7031C113.441 77.5651 113.706 79.4336 114.234 80.3086C114.763 81.1654 115.766 81.5938 117.242 81.5938C117.516 81.5938 117.716 81.5938 117.844 81.5938C117.99 81.5755 118.117 81.5573 118.227 81.5391V84C117.607 83.9635 116.732 83.918 115.602 83.8633C112.776 83.7357 110.898 83.6719 109.969 83.6719C108.93 83.6719 107.681 83.6992 106.223 83.7539C104.764 83.8086 103.096 83.8906 101.219 84V81.5391C101.365 81.5391 101.547 81.5482 101.766 81.5664C101.984 81.5846 102.139 81.5938 102.23 81.5938C103.798 81.5938 104.846 81.1836 105.375 80.3633C105.922 79.543 106.195 77.4284 106.195 74.0195V71.9688V66.1445C104.354 66.1081 102.659 66.0807 101.109 66.0625C99.5599 66.0443 98.0286 66.0352 96.5156 66.0352C93.9271 66.0352 91.9674 66.0443 90.6367 66.0625C89.3242 66.0807 88.0938 66.1081 86.9453 66.1445V74.0195C86.9453 77.4284 87.2096 79.543 87.7383 80.3633C88.2852 81.1836 89.3424 81.5938 90.9102 81.5938C91.0013 81.5938 91.1562 81.5846 91.375 81.5664C91.612 81.5482 91.7943 81.5391 91.9219 81.5391V84C90.026 83.8906 88.349 83.8086 86.8906 83.7539C85.4323 83.6992 84.2018 83.6719 83.1992 83.6719C82.2513 83.6719 80.3737 83.7357 77.5664 83.8633C76.4362 83.918 75.5521 83.9635 74.9141 84V81.5391C75.0417 81.5573 75.1784 81.5755 75.3242 81.5938C75.4701 81.5938 75.6888 81.5938 75.9805 81.5938C77.4388 81.5938 78.4232 81.1198 78.9336 80.1719C79.4622 79.2057 79.7266 77.1367 79.7266 73.9648C79.7266 73.418 79.7174 72.4062 79.6992 70.9297C79.681 69.4531 79.6719 68.25 79.6719 67.3203V61.4961C79.6719 60.4753 79.681 59.181 79.6992 57.6133C79.7174 56.0456 79.7266 54.9883 79.7266 54.4414C79.7266 51.5247 79.4622 49.6198 78.9336 48.7266C78.4049 47.8333 77.4388 47.3867 76.0352 47.3867C75.7982 47.3867 75.6159 47.3958 75.4883 47.4141C75.3607 47.4141 75.2422 47.4141 75.1328 47.4141V44.9805Z" fill="white"/>
<path d="M31.1094 75.1953L38.6836 56L37.0977 51.0781C36.6237 49.5651 36.1315 48.5716 35.6211 48.0977C35.1107 47.6237 34.3542 47.3867 33.3516 47.3867C33.224 47.3867 33.0417 47.3958 32.8047 47.4141C32.5677 47.4323 32.3945 47.4414 32.2852 47.4414V44.9805C32.5951 44.9805 33.0599 44.9987 33.6797 45.0352C36.9245 45.2174 39.1667 45.3086 40.4062 45.3086C41.2448 45.3086 42.3021 45.2812 43.5781 45.2266C44.8724 45.1719 46.4128 45.0898 48.1992 44.9805V47.4414C48.0534 47.4414 47.862 47.4323 47.625 47.4141C47.4062 47.3958 47.2422 47.3867 47.1328 47.3867C46.0755 47.3867 45.3281 47.5508 44.8906 47.8789C44.4714 48.207 44.2617 48.7904 44.2617 49.6289C44.2617 50.0299 44.362 50.6133 44.5625 51.3789C44.763 52.1445 45.0729 53.1836 45.4922 54.4961L52.1094 75.1406L53.6133 70.8203C58.0612 58.0964 60.2852 51.0508 60.2852 49.6836C60.2852 48.8633 60.0482 48.2891 59.5742 47.9609C59.1185 47.6146 58.2891 47.4414 57.0859 47.4414H56.3203V44.9805C56.7214 44.9987 57.2773 45.026 57.9883 45.0625C60.5404 45.2266 62.2812 45.3086 63.2109 45.3086C64.0859 45.3086 65.7904 45.2266 68.3242 45.0625C69.0534 45.026 69.6185 44.9987 70.0195 44.9805V47.4414C69.9466 47.4232 69.8464 47.4141 69.7188 47.4141C69.5911 47.3958 69.418 47.3867 69.1992 47.3867C67.2487 47.3867 65.207 50.4492 63.0742 56.5742C62.2539 58.9076 61.5885 60.7669 61.0781 62.1523L58.7266 68.332C58.4531 69.0065 58.0612 70.0091 57.5508 71.3398C55.1992 77.4648 53.668 81.8125 52.957 84.3828H47.7891C47.6068 83.5807 47.3971 82.7695 47.1602 81.9492C46.9414 81.1289 46.6497 80.1901 46.2852 79.1328L40.5156 61.7695L33.7891 78.7227C33.2422 80.0898 32.832 81.1836 32.5586 82.0039C32.3034 82.8242 32.0846 83.6172 31.9023 84.3828H26.7344C26.5156 83.1615 25.0755 78.8685 22.4141 71.5039L21.4844 68.9336L18.7227 61.332C18.3034 60.1107 17.7474 58.4701 17.0547 56.4102C15.013 50.3581 13.0716 47.332 11.2305 47.332C11.0664 47.332 10.8112 47.3594 10.4648 47.4141C10.4102 47.4141 10.3646 47.4232 10.3281 47.4414V44.9805C12.1693 45.0898 13.737 45.1719 15.0312 45.2266C16.3255 45.2812 17.3737 45.3086 18.1758 45.3086C19.1055 45.3086 20.9284 45.2357 23.6445 45.0898C24.6471 45.0352 25.4219 44.9987 25.9688 44.9805V47.4414H25.3398C24.4102 47.4414 23.7174 47.6146 23.2617 47.9609C22.8242 48.2891 22.6055 48.7995 22.6055 49.4922C22.6055 50.112 22.9792 51.4792 23.7266 53.5938L23.7812 53.7578L31.1094 75.1953Z" fill="white"/>
<mask id="path-5-outside-1_27_82" maskUnits="userSpaceOnUse" x="54" y="53" width="32" height="30" fill="black">
<rect fill="white" x="54" y="53" width="32" height="30"/>
<path d="M66.9365 65.7227C67.7334 65.125 68.3421 64.4222 68.7627 63.6143C69.1943 62.7952 69.4102 61.9209 69.4102 60.9912C69.4102 60.0947 69.1335 59.3532 68.5801 58.7666C68.0378 58.1689 67.3405 57.8701 66.4883 57.8701C65.7578 57.8701 65.1491 58.1247 64.6621 58.6338C64.1862 59.1318 63.9482 59.7738 63.9482 60.5596C63.9482 61.2568 64.1973 62.0426 64.6953 62.917C65.1934 63.7803 65.9404 64.7155 66.9365 65.7227ZM70.5059 75.75L64.1143 68.1963C63.0296 68.6501 62.2217 69.2201 61.6904 69.9062C61.1702 70.5814 60.9102 71.3949 60.9102 72.3467C60.9102 73.7744 61.4248 75.0195 62.4541 76.082C63.4834 77.1335 64.6953 77.6592 66.0898 77.6592C66.7982 77.6592 67.5231 77.4987 68.2646 77.1777C69.0062 76.8568 69.7533 76.3809 70.5059 75.75ZM71.668 77.0781C70.3952 78.2292 69.1169 79.109 67.833 79.7178C66.5492 80.3154 65.3206 80.6143 64.1475 80.6143C62.0225 80.6143 60.2793 79.9723 58.918 78.6885C57.5566 77.3936 56.876 75.7555 56.876 73.7744C56.876 72.1364 57.3906 70.7474 58.4199 69.6074C59.4603 68.4674 61.0042 67.5931 63.0518 66.9844C62.1663 66.1654 61.4967 65.3242 61.043 64.4609C60.6003 63.5977 60.3789 62.7012 60.3789 61.7715C60.3789 60.1335 61.0153 58.75 62.2881 57.6211C63.5719 56.4922 65.1657 55.9277 67.0693 55.9277C68.6631 55.9277 69.9525 56.3538 70.9375 57.2061C71.9225 58.0472 72.415 59.1374 72.415 60.4766C72.415 61.7936 72.0387 62.9779 71.2861 64.0293C70.5335 65.0807 69.4102 65.9938 67.916 66.7686L73.3281 72.9609C74.3796 71.7988 75.2318 70.5814 75.8848 69.3086C76.5378 68.0247 76.8643 67.0231 76.8643 66.3037C76.8643 66.0713 76.82 65.8721 76.7314 65.7061C76.6429 65.529 76.5156 65.3962 76.3496 65.3076C76.2168 65.2412 76.0231 65.1914 75.7686 65.1582C75.514 65.125 75.1986 65.1084 74.8223 65.1084V63.6143C75.099 63.6253 75.4974 63.6475 76.0176 63.6807C77.3678 63.7692 78.2754 63.8135 78.7402 63.8135C79.1608 63.8135 79.6921 63.7969 80.334 63.7637C80.987 63.7305 81.723 63.6807 82.542 63.6143V65.1084H81.9941C81.3965 65.1084 80.9316 65.2135 80.5996 65.4238C80.2786 65.6341 79.93 66.1322 79.5537 66.918C78.7679 68.5339 77.9655 69.9395 77.1465 71.1348C76.3385 72.319 75.4753 73.3594 74.5566 74.2559L75.2705 75.0693C76.1559 76.0654 76.8809 76.7461 77.4453 77.1113C78.0208 77.4766 78.5964 77.6592 79.1719 77.6592C79.6367 77.6592 80.1458 77.5098 80.6992 77.2109C81.2526 76.901 81.8005 76.4694 82.3428 75.916L83.2891 76.8457C82.4258 78.0964 81.4906 79.0371 80.4834 79.668C79.4762 80.2988 78.4027 80.6143 77.2627 80.6143C76.3662 80.6143 75.5029 80.3597 74.6729 79.8506C73.8428 79.3415 72.8411 78.4173 71.668 77.0781Z"/>
</mask>
<path d="M66.9365 65.7227C67.7334 65.125 68.3421 64.4222 68.7627 63.6143C69.1943 62.7952 69.4102 61.9209 69.4102 60.9912C69.4102 60.0947 69.1335 59.3532 68.5801 58.7666C68.0378 58.1689 67.3405 57.8701 66.4883 57.8701C65.7578 57.8701 65.1491 58.1247 64.6621 58.6338C64.1862 59.1318 63.9482 59.7738 63.9482 60.5596C63.9482 61.2568 64.1973 62.0426 64.6953 62.917C65.1934 63.7803 65.9404 64.7155 66.9365 65.7227ZM70.5059 75.75L64.1143 68.1963C63.0296 68.6501 62.2217 69.2201 61.6904 69.9062C61.1702 70.5814 60.9102 71.3949 60.9102 72.3467C60.9102 73.7744 61.4248 75.0195 62.4541 76.082C63.4834 77.1335 64.6953 77.6592 66.0898 77.6592C66.7982 77.6592 67.5231 77.4987 68.2646 77.1777C69.0062 76.8568 69.7533 76.3809 70.5059 75.75ZM71.668 77.0781C70.3952 78.2292 69.1169 79.109 67.833 79.7178C66.5492 80.3154 65.3206 80.6143 64.1475 80.6143C62.0225 80.6143 60.2793 79.9723 58.918 78.6885C57.5566 77.3936 56.876 75.7555 56.876 73.7744C56.876 72.1364 57.3906 70.7474 58.4199 69.6074C59.4603 68.4674 61.0042 67.5931 63.0518 66.9844C62.1663 66.1654 61.4967 65.3242 61.043 64.4609C60.6003 63.5977 60.3789 62.7012 60.3789 61.7715C60.3789 60.1335 61.0153 58.75 62.2881 57.6211C63.5719 56.4922 65.1657 55.9277 67.0693 55.9277C68.6631 55.9277 69.9525 56.3538 70.9375 57.2061C71.9225 58.0472 72.415 59.1374 72.415 60.4766C72.415 61.7936 72.0387 62.9779 71.2861 64.0293C70.5335 65.0807 69.4102 65.9938 67.916 66.7686L73.3281 72.9609C74.3796 71.7988 75.2318 70.5814 75.8848 69.3086C76.5378 68.0247 76.8643 67.0231 76.8643 66.3037C76.8643 66.0713 76.82 65.8721 76.7314 65.7061C76.6429 65.529 76.5156 65.3962 76.3496 65.3076C76.2168 65.2412 76.0231 65.1914 75.7686 65.1582C75.514 65.125 75.1986 65.1084 74.8223 65.1084V63.6143C75.099 63.6253 75.4974 63.6475 76.0176 63.6807C77.3678 63.7692 78.2754 63.8135 78.7402 63.8135C79.1608 63.8135 79.6921 63.7969 80.334 63.7637C80.987 63.7305 81.723 63.6807 82.542 63.6143V65.1084H81.9941C81.3965 65.1084 80.9316 65.2135 80.5996 65.4238C80.2786 65.6341 79.93 66.1322 79.5537 66.918C78.7679 68.5339 77.9655 69.9395 77.1465 71.1348C76.3385 72.319 75.4753 73.3594 74.5566 74.2559L75.2705 75.0693C76.1559 76.0654 76.8809 76.7461 77.4453 77.1113C78.0208 77.4766 78.5964 77.6592 79.1719 77.6592C79.6367 77.6592 80.1458 77.5098 80.6992 77.2109C81.2526 76.901 81.8005 76.4694 82.3428 75.916L83.2891 76.8457C82.4258 78.0964 81.4906 79.0371 80.4834 79.668C79.4762 80.2988 78.4027 80.6143 77.2627 80.6143C76.3662 80.6143 75.5029 80.3597 74.6729 79.8506C73.8428 79.3415 72.8411 78.4173 71.668 77.0781Z" fill="white"/>
<path d="M66.9365 65.7227L65.5145 67.129L66.7411 68.3692L68.1365 67.3227L66.9365 65.7227ZM68.7627 63.6143L66.9934 62.6818L66.9887 62.6908L68.7627 63.6143ZM68.5801 58.7666L67.099 60.1106L67.112 60.1249L67.1253 60.139L68.5801 58.7666ZM64.6621 58.6338L63.2168 57.2513L63.2161 57.2521L64.6621 58.6338ZM64.6953 62.917L62.9574 63.9069L62.9629 63.9164L64.6953 62.917ZM70.5059 75.75L71.7907 77.2827L73.3305 75.992L72.0326 74.4581L70.5059 75.75ZM64.1143 68.1963L65.641 66.9044L64.6944 65.7856L63.3424 66.3513L64.1143 68.1963ZM61.6904 69.9062L60.109 68.6819L60.1061 68.6856L61.6904 69.9062ZM62.4541 76.082L61.0176 77.4736L61.0249 77.4811L62.4541 76.082ZM71.668 77.0781L73.1724 75.7602L71.8335 74.2319L70.3265 75.5947L71.668 77.0781ZM67.833 79.7178L68.6771 81.531L68.6899 81.5249L67.833 79.7178ZM58.918 78.6885L57.5395 80.1376L57.5458 80.1435L58.918 78.6885ZM58.4199 69.6074L56.9426 68.2592L56.9355 68.2671L58.4199 69.6074ZM63.0518 66.9844L63.6217 68.9014L66.9877 67.9007L64.4098 65.5162L63.0518 66.9844ZM61.043 64.4609L59.2633 65.3736L59.2679 65.3826L59.2726 65.3915L61.043 64.4609ZM62.2881 57.6211L60.9674 56.1191L60.961 56.1248L62.2881 57.6211ZM70.9375 57.2061L69.6289 58.7186L69.6387 58.727L70.9375 57.2061ZM67.916 66.7686L66.9954 64.993L64.7332 66.166L66.4101 68.0847L67.916 66.7686ZM73.3281 72.9609L71.8222 74.2771L73.3023 75.9705L74.8112 74.3028L73.3281 72.9609ZM75.8848 69.3086L77.6643 70.2215L77.6674 70.2153L75.8848 69.3086ZM76.7314 65.7061L74.9426 66.6005L74.9544 66.624L74.9667 66.6472L76.7314 65.7061ZM76.3496 65.3076L77.2908 63.5429L77.2676 63.5305L77.244 63.5188L76.3496 65.3076ZM74.8223 65.1084H72.8223V67.1084H74.8223V65.1084ZM74.8223 63.6143L74.9022 61.6159L72.8223 61.5327V63.6143H74.8223ZM76.0176 63.6807L76.1484 61.6849L76.145 61.6847L76.0176 63.6807ZM80.334 63.7637L80.2324 61.7663L80.2307 61.7663L80.334 63.7637ZM82.542 63.6143H84.542V61.4455L82.3804 61.6208L82.542 63.6143ZM82.542 65.1084V67.1084H84.542V65.1084H82.542ZM80.5996 65.4238L79.5295 63.7342L79.5165 63.7424L79.5036 63.7509L80.5996 65.4238ZM79.5537 66.918L81.3523 67.7926L81.3575 67.7818L79.5537 66.918ZM77.1465 71.1348L75.4966 70.0043L75.4944 70.0076L77.1465 71.1348ZM74.5566 74.2559L73.1598 72.8245L71.8022 74.1493L73.0534 75.575L74.5566 74.2559ZM75.2705 75.0693L73.7672 76.3885L73.7757 76.3981L75.2705 75.0693ZM77.4453 77.1113L76.3588 78.7905L76.3662 78.7953L76.3737 78.8L77.4453 77.1113ZM80.6992 77.2109L81.6495 78.9707L81.663 78.9635L81.6764 78.9559L80.6992 77.2109ZM82.3428 75.916L83.7444 74.4893L82.316 73.0859L80.9143 74.5162L82.3428 75.916ZM83.2891 76.8457L84.935 77.9818L85.8904 76.5977L84.6907 75.419L83.2891 76.8457ZM68.1365 67.3227C69.1502 66.5624 69.9653 65.6354 70.5367 64.5377L66.9887 62.6908C66.7189 63.209 66.3166 63.6876 65.7365 64.1227L68.1365 67.3227ZM70.532 64.5467C71.1158 63.439 71.4102 62.2444 71.4102 60.9912H67.4102C67.4102 61.5974 67.2728 62.1515 66.9934 62.6818L70.532 64.5467ZM71.4102 60.9912C71.4102 59.6463 70.9787 58.3946 70.0349 57.3942L67.1253 60.139C67.2882 60.3118 67.4102 60.5431 67.4102 60.9912H71.4102ZM70.0612 57.4226C69.1165 56.3815 67.869 55.8701 66.4883 55.8701V59.8701C66.812 59.8701 66.959 59.9564 67.099 60.1106L70.0612 57.4226ZM66.4883 55.8701C65.2346 55.8701 64.0965 56.3317 63.2168 57.2513L66.1074 60.0162C66.2017 59.9176 66.2811 59.8701 66.4883 59.8701V55.8701ZM63.2161 57.2521C62.3341 58.1752 61.9482 59.3372 61.9482 60.5596H65.9482C65.9482 60.2103 66.0383 60.0885 66.1081 60.0155L63.2161 57.2521ZM61.9482 60.5596C61.9482 61.7243 62.3591 62.8564 62.9575 63.9069L66.4332 61.9271C66.0355 61.2289 65.9482 60.7893 65.9482 60.5596H61.9482ZM62.9629 63.9164C63.5741 64.9758 64.4441 66.0467 65.5145 67.129L68.3585 64.3163C67.4368 63.3843 66.8126 62.5847 66.4277 61.9175L62.9629 63.9164ZM72.0326 74.4581L65.641 66.9044L62.5875 69.4882L68.9791 77.0419L72.0326 74.4581ZM63.3424 66.3513C62.0474 66.893 60.9139 67.6422 60.109 68.6819L63.2719 71.1306C63.5295 70.7979 64.0119 70.4071 64.8862 70.0413L63.3424 66.3513ZM60.1061 68.6856C59.285 69.7513 58.9102 71.0076 58.9102 72.3467H62.9102C62.9102 71.7821 63.0555 71.4115 63.2747 71.1269L60.1061 68.6856ZM58.9102 72.3467C58.9102 74.3143 59.6414 76.053 61.0176 77.4736L63.8906 74.6904C63.2082 73.986 62.9102 73.2345 62.9102 72.3467H58.9102ZM61.0249 77.4811C62.4073 78.8932 64.1253 79.6592 66.0898 79.6592V75.6592C65.2653 75.6592 64.5595 75.3737 63.8833 74.6829L61.0249 77.4811ZM66.0898 79.6592C67.1073 79.6592 68.1019 79.4275 69.0591 79.0132L67.4702 75.3423C66.9443 75.5699 66.489 75.6592 66.0898 75.6592V79.6592ZM69.0591 79.0132C70.0111 78.6011 70.9207 78.012 71.7907 77.2827L69.2211 74.2173C68.5858 74.7498 68.0012 75.1124 67.4702 75.3423L69.0591 79.0132ZM70.3265 75.5947C69.1696 76.641 68.0514 77.4008 66.9762 77.9106L68.6899 81.5249C70.1824 80.8173 71.6208 79.8173 73.0095 78.5615L70.3265 75.5947ZM66.9889 77.9046C65.9156 78.4043 64.975 78.6143 64.1475 78.6143V82.6143C65.6663 82.6143 67.1827 82.2266 68.6771 81.5309L66.9889 77.9046ZM64.1475 78.6143C62.458 78.6143 61.2294 78.1192 60.2902 77.2335L57.5458 80.1435C59.3292 81.8254 61.5869 82.6143 64.1475 82.6143V78.6143ZM60.2964 77.2394C59.3555 76.3444 58.876 75.2412 58.876 73.7744H54.876C54.876 76.2699 55.7577 78.4427 57.5395 80.1376L60.2964 77.2394ZM58.876 73.7744C58.876 72.5957 59.2302 71.6944 59.9044 70.9477L56.9355 68.2671C55.551 69.8004 54.876 71.6771 54.876 73.7744H58.876ZM59.8972 70.9556C60.6157 70.1683 61.7945 69.4447 63.6217 68.9014L62.4818 65.0673C60.2139 65.7415 58.3048 66.7666 56.9426 68.2592L59.8972 70.9556ZM64.4098 65.5162C63.6534 64.8165 63.1396 64.1511 62.8133 63.5304L59.2726 65.3915C59.8539 66.4974 60.6793 67.5143 61.6937 68.4526L64.4098 65.5162ZM62.8226 63.5483C62.5182 62.9547 62.3789 62.3698 62.3789 61.7715H58.3789C58.3789 63.0325 58.6823 64.2406 59.2633 65.3736L62.8226 63.5483ZM62.3789 61.7715C62.3789 60.7302 62.7515 59.8834 63.6152 59.1173L60.961 56.1248C59.2791 57.6166 58.3789 59.5368 58.3789 61.7715H62.3789ZM63.6088 59.123C64.4854 58.3522 65.5926 57.9277 67.0693 57.9277V53.9277C64.7388 53.9277 62.6585 54.6322 60.9674 56.1192L63.6088 59.123ZM67.0693 57.9277C68.2944 57.9277 69.0839 58.247 69.6289 58.7186L72.2461 55.6936C70.8211 54.4607 69.0318 53.9277 67.0693 53.9277V57.9277ZM69.6387 58.727C70.1618 59.1736 70.415 59.6998 70.415 60.4766H74.415C74.415 58.575 73.6833 56.9208 72.2363 55.6851L69.6387 58.727ZM70.415 60.4766C70.415 61.3844 70.1646 62.16 69.6598 62.8652L72.9124 65.1934C73.9129 63.7957 74.415 62.2028 74.415 60.4766H70.415ZM69.6598 62.8652C69.1378 63.5945 68.2909 64.3213 66.9954 64.993L68.8366 68.5441C70.5294 67.6663 71.9292 66.567 72.9124 65.1934L69.6598 62.8652ZM66.4101 68.0847L71.8222 74.2771L74.834 71.6448L69.4219 65.4524L66.4101 68.0847ZM74.8112 74.3028C75.9687 73.0235 76.9244 71.6636 77.6642 70.2215L74.1053 68.3956C73.5392 69.4991 72.7905 70.5742 71.8451 71.6191L74.8112 74.3028ZM77.6674 70.2153C78.3476 68.878 78.8643 67.5205 78.8643 66.3037H74.8643C74.8643 66.5257 74.7279 67.1715 74.1021 68.4019L77.6674 70.2153ZM78.8643 66.3037C78.8643 65.8191 78.7714 65.281 78.4962 64.7649L74.9667 66.6472C74.8686 66.4631 74.8643 66.3235 74.8643 66.3037H78.8643ZM78.5203 64.8116C78.2566 64.2842 77.8426 63.8372 77.2908 63.5429L75.4084 67.0723C75.3091 67.0193 75.2117 66.9473 75.1256 66.8574C75.0402 66.7683 74.9812 66.6778 74.9426 66.6005L78.5203 64.8116ZM77.244 63.5188C76.8174 63.3054 76.3664 63.2192 76.0272 63.175L75.5099 67.1414C75.5425 67.1457 75.5669 67.1496 75.5839 67.1528C75.601 67.156 75.6081 67.1578 75.6067 67.1574C75.6054 67.1571 75.5917 67.1536 75.5679 67.1451C75.5446 67.1368 75.5054 67.1216 75.4552 67.0965L77.244 63.5188ZM76.0272 63.175C75.6575 63.1268 75.2492 63.1084 74.8223 63.1084V67.1084C75.1479 67.1084 75.3705 67.1232 75.5099 67.1414L76.0272 63.175ZM76.8223 65.1084V63.6143H72.8223V65.1084H76.8223ZM74.7423 65.6127C74.995 65.6228 75.3746 65.6437 75.8902 65.6766L76.145 61.6847C75.6201 61.6512 75.2029 61.6279 74.9022 61.6159L74.7423 65.6127ZM75.8867 65.6764C77.2275 65.7643 78.1995 65.8135 78.7402 65.8135V61.8135C78.3513 61.8135 77.5081 61.7741 76.1484 61.685L75.8867 65.6764ZM78.7402 65.8135C79.2082 65.8135 79.7769 65.7952 80.4373 65.761L80.2307 61.7663C79.6073 61.7986 79.1135 61.8135 78.7402 61.8135V65.8135ZM80.4355 65.7611C81.1129 65.7267 81.8694 65.6754 82.7036 65.6077L82.3804 61.6208C81.5765 61.686 80.8611 61.7343 80.2324 61.7663L80.4355 65.7611ZM80.542 63.6143V65.1084H84.542V63.6143H80.542ZM82.542 63.1084H81.9941V67.1084H82.542V63.1084ZM81.9941 63.1084C81.2008 63.1084 80.3074 63.2415 79.5295 63.7342L81.6697 67.1135C81.6064 67.1535 81.5832 67.1505 81.6385 67.138C81.695 67.1252 81.8081 67.1084 81.9941 67.1084V63.1084ZM79.5036 63.7509C79.0429 64.0527 78.7037 64.4585 78.4589 64.8082C78.2014 65.1761 77.9669 65.601 77.7499 66.0542L81.3575 67.7818C81.5168 67.4491 81.6448 67.2321 81.7359 67.102C81.78 67.0389 81.8046 67.0121 81.8071 67.0094C81.811 67.0053 81.7753 67.0446 81.6957 67.0968L79.5036 63.7509ZM77.7551 66.0433C77.0027 67.5905 76.2484 68.9071 75.4966 70.0043L78.7963 72.2652C79.6826 70.9718 80.5331 69.4772 81.3523 67.7926L77.7551 66.0433ZM75.4944 70.0076C74.7526 71.0948 73.9732 72.0307 73.1598 72.8245L75.9535 75.6872C76.9774 74.688 77.9244 73.5432 78.7986 72.2619L75.4944 70.0076ZM73.0534 75.575L73.7673 76.3885L76.7738 73.7502L76.0599 72.9367L73.0534 75.575ZM73.7757 76.3981C74.6878 77.4242 75.5588 78.2728 76.3588 78.7905L78.5318 75.4322C78.2029 75.2194 77.6241 74.7067 76.7653 73.7406L73.7757 76.3981ZM76.3737 78.8C77.2097 79.3306 78.1516 79.6592 79.1719 79.6592V75.6592C79.0411 75.6592 78.8319 75.6226 78.517 75.4227L76.3737 78.8ZM79.1719 79.6592C80.0649 79.6592 80.9028 79.374 81.6495 78.9707L79.7489 75.4511C79.3889 75.6455 79.2085 75.6592 79.1719 75.6592V79.6592ZM81.6764 78.9559C82.4278 78.5352 83.124 77.9763 83.7712 77.3159L80.9143 74.5162C80.4769 74.9625 80.0774 75.2669 79.722 75.4659L81.6764 78.9559ZM80.9411 77.3427L81.8874 78.2724L84.6907 75.419L83.7444 74.4893L80.9411 77.3427ZM81.6431 75.7096C80.8931 76.7961 80.1434 77.521 79.4217 77.973L81.5451 81.3629C82.8377 80.5533 83.9585 79.3966 84.935 77.9818L81.6431 75.7096ZM79.4217 77.973C78.7186 78.4134 78.0107 78.6143 77.2627 78.6143V82.6143C78.7946 82.6143 80.2339 82.1842 81.5451 81.3629L79.4217 77.973ZM77.2627 78.6143C76.767 78.6143 76.2621 78.4791 75.7185 78.1457L73.6272 81.5555C74.7438 82.2403 75.9655 82.6143 77.2627 82.6143V78.6143ZM75.7185 78.1457C75.1471 77.7952 74.3034 77.0514 73.1724 75.7602L70.1636 78.396C71.3789 79.7833 72.5385 80.8877 73.6272 81.5555L75.7185 78.1457Z" fill="#1A2327" mask="url(#path-5-outside-1_27_82)"/>
<script xmlns=""/></svg>
