<svg version="1.1" id="Layer_1" xmlns="http://www.w3.org/2000/svg" xmlns:xlink="http://www.w3.org/1999/xlink" x="0px" y="0px" viewBox="0.05859375 86.63671875 283.421875 110.15234375" style="enable-background:new 0 0 283.46 283.46;" xml:space="preserve"><style type="text/css">	.st0{fill:#231F20;}	.st1{fill:#FFAFF3;}	.st2{fill:#282828;}	.st3{fill:none;stroke:#FFAFF3;stroke-miterlimit:10;}	.st4{fill:#DFF656;}	.st5{fill:none;stroke:#DFF656;stroke-miterlimit:10;}	.st6{fill:#00F0F2;}	.st7{fill:none;stroke:#00F0F2;stroke-miterlimit:10;}	.st8{fill:#FFFFFF;}	.st9{fill:none;stroke:#FFFFFF;stroke-width:2;stroke-miterlimit:10;}</style><g>	<path class="st2" d="M103.73,147.92c-0.47,0.13-0.77,0.22-1.08,0.31c0.02,0.6,0.04,1.16,0.06,1.72c-0.33,0.1-0.64,0.19-1.07,0.32		c-0.23,0.89-0.48,1.84-0.73,2.8c-0.51-0.12-1.05-0.24-1.68-0.38c-0.25-0.61-0.53-1.31-0.71-1.75c-0.02-0.4-0.06-0.52-0.03-0.63		c0.49-2.17,1.05-4.3,0.97-6.59c-0.05-1.41,0.45-2.85,0.74-4.26c0.24-1.2,0.62-2.38,0.47-3.64c-0.05-0.43,0.04-0.88,0.12-1.32		c0.46-2.29,0.78-4.6,1.11-6.91c0.31-2.2,0.67-4.4,0.98-6.6c0.41-2.86,1.01-5.7,1.36-8.56c0.51-4.09,1.42-8.11,1.72-12.24		c0.12-1.66,0.17-3.33,0.38-4.99c0.21-1.66,0.17-3.36,0.13-5.04c-0.03-1.27,0.12-2.44,0.88-3.51c1.59-0.06,3.1,0.1,4.66,0.56		c0.57,0.8,1.2,1.69,2.12,2.98c0.19,1.26,0.49,3.03,0,4.83c0.35,0.97-0.65,1.97,0.06,2.93c-0.19,0.98-0.42,1.95-0.56,2.94		c-0.14,0.99-0.18,2-0.26,2.99c-0.03,0.33,0.03,0.7-0.08,1c-0.93,2.65-0.97,5.47-1.62,8.17c-0.34,1.41-0.57,2.81-0.57,4.27		c0,1.38-0.55,2.59-1.5,3.58c0.18,0.67,0.47,1.3,0.48,1.93c0.01,0.65-0.25,1.31-0.4,1.97c-0.19,0.06-0.41,0.13-0.64,0.2		c-0.14,0.51-0.28,1.03-0.45,1.66c1.04,1.17,0.43,2.5,0.01,3.73c-0.28,0.81-1.14,1.35-1.16,2.37c-0.02,0.88-0.23,1.76-0.36,2.67		c-0.71,0.92-1.41,1.89-1.24,3.19c0.23,0.04,0.45,0.08,0.7,0.13c-0.07,0.97-0.98,1.41-1.34,2.17		C104.17,143.17,104.52,145.72,103.73,147.92z"></path>	<path class="st2" d="M36.82,184.59c1.34-1.04,2.43-2.04,4.02-2.03c0.63-0.54,1.54-0.42,2.18-0.8c3.26-1.95,7.16-2.46,10.35-4.57		c0.25-0.16,0.66-0.06,1.19-0.1c0.78-0.74,1.68-1.59,2.3-2.18c3.11-1.81,6.03-3.17,8.37-5.54c1.25-1.27,2.82-2.2,4.1-3.48		c1.36-1.37,2.53-2.86,3.64-4.41c0.72-1,1.42-2.01,2.3-3.27c0.02-0.13,0.08-0.57,0.14-1.02c1.56-1.8,1.89-4.25,3.21-6.18		c0.06-2.12,1.23-3.99,1.56-5.86c-0.63-0.74-1.21-0.82-1.72-0.54c-1.65,0.93-3.36,1.72-5.16,2.33c-0.42,0.14-0.84,0.33-1.2,0.57		c-0.92,0.62-1.92,1.18-2.7,1.96c-0.78,0.79-2.16,0.02-2.54,1.23c-0.95-0.05-1.74-0.08-2.64-0.13c-0.27-0.24-0.58-0.58-0.94-0.83		c-0.8-0.55-1.1-1.46-1.41-2.26c-0.76-2-1.04-4.12-0.72-6.58c0.29-0.38,0.93-0.94,1.19-1.64c1.11-2.98,3.23-5.32,4.93-7.92		c0.31-0.47,0.67-0.95,1.12-1.26c1.82-1.28,3.31-3.02,5.55-3.92c0.42,0,0.99,0,1.52,0c0.22,0.14,0.44,0.23,0.6,0.38		c0.74,0.7,1.47,1.41,2.19,2.14c0.63,0.65,1.48,1.23,1.77,2.01c0.36,0.99,1.41,1.42,1.61,2.53c0.1,0.56,0.94,0.94,1.31,1.5		c0.52,0.77,1.53,0.84,2.04,1.69c0.37,0.62,1.15,0.99,1.88,1.57c0.04,1.72,0.09,3.51,0.11,5.31c0.02,1.81,0,3.63,0,5.31		c-1.61,2.47-2.3,5.18-3.39,7.71c-0.44,1.02-0.96,1.99-1.35,3.02c-0.35,0.94-1.12,1.34-1.91,1.75c-0.24,0.49-0.49,0.99-0.74,1.5		c0.1,0.15,0.22,0.34,0.35,0.54c-0.84,1.39-1.58,2.88-3.16,3.63c-0.26,1.65-2.04,1.89-2.86,3.07c-0.76,1.1-1.82,1.99-2.76,2.96		c-0.06,0.07-0.18,0.08-0.28,0.12c-0.19-0.12-0.39-0.23-0.87-0.52c-0.61,0.71-1.54,1.38-1.85,2.27c-0.36,1.05-1.74,1.06-1.84,2.24		c-0.83,0.56-2.08-0.12-2.79,0.85c-1.17,0.1-2.26,0.31-2.54,1.71c-0.8,0.58-1.61,1.16-2.46,1.77c-0.6,0.04-1.26,0.07-1.92,0.11		c-0.18,0.35-0.34,0.65-0.48,0.93c-1.01,0.41-2.07,0.73-3.02,1.25c-0.96,0.54-2.13,0.45-3,1.39c-0.71,0.76-1.93,1.05-2.95,1.56		c-0.36-0.14-0.76-0.3-1.23-0.49c-0.53,0.44-1.05,0.87-1.64,1.36c-0.59,0-1.25,0-1.85,0c-0.59,0.49-1.11,0.92-1.61,1.34		c-0.6,0.03-1.17,0.07-1.79,0.1c-0.4,0.32-0.83,0.69-1.29,1.02c-0.17,0.12-0.41,0.16-0.61,0.23c-1.47,0.46-2.92,1.16-4.42,1.31		c-1.46,0.14-2.65,1.55-4.02,0.64c-1.14,0.55-2.03,0.99-3.12,1.52c-0.82,0-1.84,0-2.82,0c-0.49,0.4-0.93,0.75-1.48,1.21		c-1.28,0.25-2.84-0.28-4.11,0.72c-1.01,0.01-2.03,0.06-3.04,0.01c-0.63-0.03-1.25-0.31-1.87-0.3c-0.53,0.01-1.06,0.28-1.88,0.52		c-0.28,0.22-0.81,0.64-1.44,1.14c-1.36,0-2.82,0-4.35,0c-1.03-0.51-2.12-1.05-3.17-1.56c0.17-0.44,0.33-0.85,0.55-1.4		c-0.7-0.24-1.29-0.44-1.9-0.65c3.26-1.27,3.26-1.27,5.18-0.49c0.76-0.04,1.11-0.71,1.75-1.14c1.3-0.26,2.72-0.77,4.12-0.75		c1.5,0.02,2.78-0.9,4.25-0.74c1.3-0.86,2.79-0.64,4.23-0.78c0.86-0.09,1.82-0.32,2.49-0.81c0.92-0.67,2.06-0.05,2.88-0.76		c0.76-0.66,1.76-0.15,2.58-0.57c0.99-0.5,1.9-1.2,3.1-1.17c1.13,0.03,2.09-0.65,3.23-0.79C34.76,185.1,35.68,184.53,36.82,184.59z		 M77.52,137.41c-0.59-1.47-1.07-2.57-1.46-3.7c-0.17-0.48-0.37-0.78-0.94-0.74c-2.2,1.74-3.82,3.99-5.09,6.49		c-0.11,0.22,0.09,0.59,0.18,1.07C72.65,139.48,74.97,138.5,77.52,137.41z"></path>	<path class="st2" d="M217.84,132.78c1.2,0.69,2.6,1.42,3.66,2.9c-0.03,1.07,0.78,2.08,0.86,3.35c0.07,1.19,0.54,2.36,0.87,3.65		c1.54-0.36,2.95-1.22,4.28-2.06c1.51-0.96,3.2-1.63,4.61-2.67c1.37-1.02,3.2-1.13,4.22-2.47c0.45,0,0.79,0,1.24,0		c0.67,0.67,1.44,1.34,2.09,2.11c0.42,0.5,0.67,1.16,1.07,1.89c0,0.99-0.11,2.13,0.03,3.25c0.14,1.08,0.53,2.13,0.85,3.34		c2.63-1.69,5.65-2.63,8.48-4.02c2.08-1.02,4.34-1.64,6.5-2.49c1.14-0.45,2.21-1.04,3.33-1.5c1.23-0.51,2.31-1.36,3.76-1.29		c0.39,0.02,0.79-0.36,1.2-0.53c2.26-0.9,4.49-1.81,6.91-2.24c1.25-0.22,2.58-0.56,3.6-1.57c0.45-0.45,1.17-0.63,2.08-1.1		c0.35,0,1.03,0.08,1.69-0.02c0.63-0.09,1.24-0.37,1.95-0.59c0.2,0.34,0.41,0.7,0.62,1.05c0.45,0.58,1.76-0.2,1.74,1.27		c-0.7,0.35-1.47,0.73-2.17,1.09c-0.82-0.26-1.52-0.48-2.41-0.77c0.26,0.71,0.44,1.17,0.61,1.64c-0.25,0.29-0.41,0.69-0.69,0.79		c-2.13,0.79-3.16,3.22-5.59,3.63c-0.25-0.12-0.55-0.27-0.87-0.43c-0.4,0.35-0.81,0.72-1.33,1.17c-0.56,0.03-1.23,0.06-1.9,0.09		c-0.45,0.61-0.89,1.22-1.39,1.9c-0.92,0-1.81,0-2.48,0c-2.15,1.46-4.07,2.76-6.12,4.15c-1.83-0.08-3.4,1.05-5.06,1.92		c-0.58,0.3-1.21,0.62-1.66,1.08c-0.74,0.78-1.64,1.07-2.64,1.32c-2.1,0.52-3.82,1.72-5.36,3.19c-1.46,1.41-3.2,2.39-4.91,3.36		c-2.28-1.69-2.43-1.91-4.32-6.24c0-1.66,0-3.68,0-5.73c-0.45-0.12-0.75-0.21-1.23-0.34c-0.38,0.3-0.79,0.66-1.24,0.97		c-0.46,0.31-0.95,0.56-1.42,0.83c-0.08,0.47-0.16,0.9-0.23,1.34c-1.04,0.69-2.09,1.34-3.33,1c-1.75,1.41-3.4,2.75-5.04,4.07		c-0.7,0-1.37,0-2.22,0c-0.63-0.7-1.31-1.45-2-2.21c-0.51-1.59-0.93-3.16-0.92-4.88c0-1.01-0.67-2.03-1.02-3		c-1.27-0.09-0.71,0.95-0.69,0.92c-0.94,1.58-2.18,2.17-2.52,3.46c-0.08,0.29-0.38,0.67-0.66,0.75c-1.8,0.51-2.12,2.16-2.82,3.52		c-0.25,0.49-0.5,1-0.8,1.61c-0.69,0.38-1.47,0.8-2.18,1.19c-0.31-0.09-0.56-0.1-0.72-0.22c-1.3-0.96-2.13-2.28-2.85-3.73		c0-1.67,0-3.37,0-4.99c0.23-0.36,0.42-0.65,0.66-1.03c0-0.92,0-1.93,0-2.86c0.48-1,1.15-1.86,1.3-2.8		c0.23-1.39,1.24-2.37,1.58-3.66c1.2-1.01,1.36-2.53,1.86-3.86c0.46-1.23,0.38-1.26,1.62-2.43c1.97,0.98,1.97,0.98,3.33,3.24		c0,0.92,0,2.04,0,3.3c0.78-0.52,1.36-1.02,2.03-1.33C216.34,133.72,216.23,132.44,217.84,132.78z"></path>	<path class="st2" d="M191.15,154.02c-0.17,0.32-0.32,0.62-0.44,0.85c-0.75-0.17-1.49-0.3-2.21-0.51c-1.9-0.55-2.94-2.35-4.64-3.26		c-0.93-0.49-1.58-1.53-2.04-2.61c-0.34-0.8-0.95-1.49-1.47-2.27c-2.41,1.04-4.27,2.68-5.79,4.59c-0.77,0.97-1.73,1.64-2.58,2.48		c-0.4,0.4-0.84,0.76-1.3,1.17c-2.25,0-4.52,0-6.97,0c-3.16-0.88-4.24-3.75-5.44-6.68c0-0.97-0.01-2.09,0-3.22		c0.01-0.51,0.83-3.34,1.06-3.79c1.1-2.22,2.78-4.04,4.18-6.05c0.42-0.6,1.25-0.9,1.85-1.39c0.52-0.42,0.99-0.91,1.43-1.32		c0.45-0.03,0.79-0.04,1.03-0.06c1.23-0.9,2.41-1.75,3.54-2.57c1.23,0,2.35,0,3.54,0c2.2,1.89,4.1,4.11,5.84,6.49		c0.47,0.1,0.9,0.19,1.35,0.29c1.24,1.05,2.25,2.32,3.31,3.8c-0.01,1.75,0.13,3.63,1.21,5.75c0.7,0.92,1.83,1.98,3.8,2.62		c0.58,0,1.6,0,2.72,0c0.49,0.39,1.01,0.81,1.65,1.31c0.53,0.06,1.19,0.14,1.94,0.23c0.08,0.27,0.24,0.58,0.23,0.88		c-0.01,0.32-0.07,0.77-0.28,0.92c-0.94,0.65-0.82,1.8-1.35,2.71C193.92,154.57,192.51,154.59,191.15,154.02z M165.11,146.05		c1.8,0.73,3-0.13,4.17-0.95c1.27-0.89,2.42-1.99,3.75-2.76c1.11-0.64,1.89-1.53,2.8-2.38c0-0.93,0-1.81,0-2.73		c-0.72-1.12-1.76-1.87-3.15-2.25c-1.23,1.66-2.38,3.43-3.76,5c-1.37,1.56-2.06,3.64-3.82,4.89		C165.11,145.2,165.11,145.53,165.11,146.05z"></path>	<path class="st2" d="M148.92,147.94c0.03,0.5,0.82,0.85,0.28,1.46c-1.57,0.56-3.11,1.25-4.74,0.99c-0.63,0.5-1.16,0.92-1.74,1.37		c-0.43,0-0.88-0.01-1.34,0c-1.02,0.02-2.19-0.26-3.02,0.15c-0.98,0.49-2.08,0.23-2.89,0.69c-1.21,0.7-2.42,0.37-3.33,0.47		c-2.33-0.22-3.78-1.86-5.77-2.24c-0.64-0.12-1.25-0.42-2.08-0.7c-1.08-1.02-2.32-2.18-3.38-3.18c-0.1-0.99-0.17-1.66-0.23-2.28		c-0.38-0.48-0.73-0.92-1.1-1.39c0-0.88-0.02-1.78,0.02-2.67c0.01-0.2,0.21-0.39,0.33-0.59c-0.15-0.82-0.91-1.59-0.21-2.47		c0.55-0.68,0.4-1.5,0.48-2.27c1.19-2.1,3.12-3.79,3.46-6.17c1.6-1.44,3.12-2.76,4.58-4.14c1.09-1.03,2.24-1.78,3.83-1.8		c0.62-0.01,1.25-0.41,1.91-0.64c1.73,0.33,3.36,0.97,5.19,2.71c0.16,0.23,0.73,1.05,1.35,1.92c-0.32,1.53,1.23,2.86,0.52,4.65		c-0.25,0.3-0.62,0.72-1.04,1.21c0.71,0.83,0.43,1.83,0.49,2.66c-2.06,2.68-4.6,4.47-7.44,5.91c-1.36,0.69-2.6,1.6-3.92,2.43		c0.22,0.23,0.45,0.47,0.8,0.85c1.68,0.17,3.48,0.13,5.29,0.14c1.25,0,2.5,0.02,3.74-0.08c0.64-0.05,1.32-0.58,1.88-0.45		c0.56,0.13,0.96,0.3,1.48-0.07c0.59-0.42,1.06,0.64,1.82,0.18c0.52-0.32,1.3-0.22,1.85-0.3c1.27,0.69,2.67,0.99,3.05,2.55		c0.05,0.2,0.56,0.29,0.97,0.48C149.6,147.54,149.26,147.74,148.92,147.94z M135.03,131.8c-0.26-1.36,1.32-2.29,0.5-3.65		c-0.48-0.29-0.99-0.26-1.54-0.03c-1.48,0.63-2.69,1.55-3.35,3.07c-0.48,0.27-1.15-0.02-1.59,0.61c-0.03,0.58-0.06,1.25-0.09,1.89		c-0.53,0.64-0.96,1.27-0.38,2.33c1.2-1.2,2.67-1.84,4.31-2.2C133.54,133.22,134.19,132.6,135.03,131.8z"></path></g></svg>
