<svg preserveAspectRatio="none" width="1920" height="122" fill="none" xmlns="http://www.w3.org/2000/svg">
<path d="M463.5 21.1304C180 -26.413 0 21.1304 0 21.1304V121.13H1920V71.087C1730 21.1304 1646.5 0.0869865 1422 21.1304C1197.5 42.1738 1140.79 65.7905 882 71.087C709.171 74.6241 574.355 39.721 463.5 21.1304Z" fill="#292d3e"/>
<path d="M1458 33.087C1741.5 -14.4564 1920 33.087 1920 33.087V121.131H0V71.0871C190 21.1305 310 53.674 498 21.1305C686 -11.413 840 8.58702 1038 71.0871C1210.37 74.6149 1346.43 51.7985 1457.12 33.2342L1458 33.087Z" fill="#292d3e" fill-opacity="0.28"/>
</svg>
