<svg xmlns="http://www.w3.org/2000/svg" xml:space="preserve" width="187" height="162"><g style="fill:#0d597f;fill-opacity:1"><path d="M0 0v15.687L-11.296 4.379A32 32 0 0 1-7.853 2.27 23 23 0 0 1-4.823.932a17 17 0 0 1 2.617-.71A13 13 0 0 1 0 0m57.751 1.304c.02-.017.13-.11.333-.239a6 6 0 0 1 .898-.462 8 8 0 0 1 1.485-.448 10.5 10.5 0 0 1 2.098-.202c.671 0 1.411.059 2.222.2.812.142 1.693.367 2.645.699.953.333 1.976.773 3.07 1.344a33 33 0 0 1 3.495 2.136l-8.572 8.397-28.41 28.516-12.466-12.469L7.733 46.117-34.471 4.39a33 33 0 0 1 3.491-2.136A23 23 0 0 1-27.913.91 17 17 0 0 1-25.27.212a13 13 0 0 1 2.22-.201c.804 0 1.502.08 2.097.202a8 8 0 0 1 1.485.449c.396.164.693.331.897.461s.314.223.334.24L.815 20.415l6.813 6.533L26.494 8.082l6.591-6.778c.02-.017.13-.11.334-.239a6 6 0 0 1 .897-.462c.396-.164.89-.327 1.485-.448A10.5 10.5 0 0 1 37.9-.047c.67 0 1.411.059 2.222.2a17 17 0 0 1 2.645.699c.952.333 1.975.773 3.069 1.344a33 33 0 0 1 3.495 2.136L34.192 19.157l2.818 2.818L50.111 8.874zm-.163 79.016 37.219-64.482-37.219-64.482h-74.463l-37.219 64.482 37.219 64.482z" style="fill:#0d597f;fill-opacity:1;fill-rule:nonzero;stroke:none" transform="matrix(1.25 0 0 -1.25 68.054 100.797)"/></g><g style="fill:#0d597f;fill-opacity:1"><path d="m0 0-9.913 9.895.705.709L.775.73Z" style="fill:#0d597f;fill-opacity:1;fill-rule:nonzero;stroke:none" transform="matrix(1.25 0 0 -1.25 110.369 76.465)"/></g><path d="M35.016 100.031c-1.11-.302-2.666-.83-3.458-1.17-1.621-.699-5.831-3.11-6.052-3.466-.156-.253 52.005-51.945 52.283-51.813.093.044 6.476 6.565 14.184 14.49s15.424 15.77 17.148 17.433A3191 3191 0 0 1 120.85 86.95l8.596 8.422-1.536.98c-4.261 2.72-7.708 3.948-11.655 4.151-5.265.271-3.569 1.587-22.337-17.332L77.596 66.718 61.342 82.917c-13.227 13.182-16.52 16.318-17.687 16.842-2.012.902-5.882 1.024-8.639.272" style="fill:#fff;stroke-width:23.0559"/><path d="M63.836 100.007c-1.95-.522-7.681-3.231-9.007-4.258l-.649-.503 6.918-6.913 6.917-6.912v19.16l-1.08-.017c-.595-.01-1.99-.26-3.099-.557M142.229 100.01c-1.225-.493-3.394-2.533-14.622-13.759l-13.182-13.18-1.374 1.34-1.374 1.34-5.908-5.878-5.908-5.877 7.205-7.203 7.205-7.203 22.967 22.916 22.967 22.916-1.496.955c-4.4 2.809-7.695 3.946-11.872 4.098-2.684.097-3.39.026-4.608-.464" style="fill:#fff;stroke-width:23.0559"/></svg>