<svg xmlns="http://www.w3.org/2000/svg" width="1500" height="1500" viewBox="0 0 170.7 170.685"><path d="M77.305 168.616c-37-1.99-68.43-28.944-75.69-64.85-3.88-19.395-.597-39.784 9.25-55.997.795-1.293 1.491-2.586 1.491-2.884s-.597-1.293-1.293-2.387C6.985 36.43 1.813 23.5.421 16.04-.773 9.675.62 4.603 4 2.812c2.388-1.193 7.062-1.193 11.24.1C21.905 5 31.254 9.675 38.614 14.748l3.88 2.685 3.58-1.591c17.605-8.156 37.895-9.747 56.892-4.476 6.167 1.69 14.124 4.973 18.7 7.758l2.088 1.293 3.879-2.586c7.559-4.973 16.71-8.952 24.965-10.841 9.25-2.089 14.72-.796 17.107 3.978.896 1.79.995 2.586.995 6.963 0 2.884-.298 6.166-.796 8.056-1.89 8.355-6.166 18.102-11.338 25.86l-2.885 4.277.796 1.492c1.492 2.884 3.88 10.443 4.873 15.615 5.471 26.855-2.884 53.61-22.478 72.409-14.322 13.726-31.828 21.384-52.019 22.777-3.381.199-6.266.397-6.564.298-.199.098-1.591 0-2.984-.098zm14.72-3.481c4.775-.597 13.229-2.686 17.903-4.476 18.998-7.261 34.215-21.086 42.67-38.79 4.177-8.753 6.266-16.213 7.26-26.259.995-9.846-.795-23.174-4.276-32.623l-.995-2.487-1.094 1.293c-1.69 1.99-3.68 2.785-7.56 2.984-2.585.1-4.375 0-7.06-.696-11.738-2.984-21.386-11.438-24.966-21.981-1.492-4.377-1.69-10.344-.497-13.527.895-2.188 3.083-4.476 4.873-4.874 1.99-.398 3.183-.994 2.885-1.492-.398-.696-7.758-4.276-12.532-6.067C79.294 5.2 45.378 12.66 24.192 34.84 14.445 45.083 7.88 57.317 4.897 70.843 1.813 84.87 2.41 97.5 6.787 111.424c8.056 25.264 28.843 44.958 54.803 51.721 2.387.597 6.067 1.393 8.056 1.691 4.576.696 17.406.895 22.38.299m-16.013-8.554c-27.85-2.288-49.433-18.7-60.075-45.654-2.089-5.37-4.178-13.128-4.973-18.698-1.492-10.543 2.387-26.557 9.548-38.99 4.476-7.857 12.135-16.51 19.097-21.782 7.857-5.868 17.903-10.543 28.744-13.328 7.062-1.79 8.753-1.89 4.576-.199-12.632 5.173-22.08 11.439-30.237 19.793-11.04 11.538-16.411 25.264-15.317 39.189.398 4.674.497 4.774 2.884 3.78 4.277-1.791 11.24-2.487 15.815-1.393 9.648 2.287 19.395 10.344 28.148 23.473 6.067 8.951 12.432 12.93 20.986 12.93 18.5 0 39.387-20.987 44.56-44.858.198-1.094.497-2.188.696-3.282.198-.895.397-.895 2.884-.696 1.492.1 2.984.398 3.382.597.696.398 1.989 4.277 3.182 9.747.498 2.387.696 5.37.696 12.134 0 7.758-.097 9.549-.895 13.229-1.392 6.365-2.784 10.443-5.868 16.61-6.564 13.427-17.605 24.17-31.53 30.734-8.056 3.78-15.416 5.769-24.566 6.565-5.371.596-6.068.596-11.737.097zm73.403-97.473c2.586-1.293 4.277-3.083 7.957-8.454 10.046-15.02 14.223-35.508 8.156-40.78-4.476-3.879-14.92-2.486-27.65 3.78-8.256 4.078-16.312 9.946-18.898 13.825-5.869 8.852 1.293 24.07 14.422 30.535 5.57 2.884 11.736 3.282 16.013 1.094m-9.747-1.691c-5.272-1.293-11.439-5.172-13.328-8.554-3.083-5.37 0-8.951 14.323-16.809 19.196-10.543 21.483-12.134 22.677-15.615.398-1.194.994-2.09 1.293-2.09.795 0 1.69 3.88 1.392 6.168-.696 5.57-4.476 17.107-7.758 23.672-2.288 4.575-4.973 8.454-7.559 10.84-3.382 3.084-5.967 3.582-11.04 2.388M15.24 41.105c.497-.696.895-1.392.895-1.492 0-.199-.597-1.193-1.293-2.188-1.99-2.884-5.272-10.046-6.963-15.118-2.586-7.758-2.983-12.83-1.094-13.428 1.592-.497 10.543 4.874 20.49 12.135l4.575 3.382 3.282-2.189c1.79-1.193 3.282-2.287 3.183-2.486-.1-.497-4.675-4.078-9.548-7.36C20.015 6.492 14.942 4.503 9.67 4.9c-7.162.497-8.355 7.46-3.68 21.384 1.193 3.581 5.47 12.632 7.061 15.119.796 1.193 1.095 1.193 2.189-.299" style="fill:red;stroke-width:.994626"/><path d="M629.557 1448.895c-26.007-2.702-96.263-18.7-127.056-28.933-251.258-83.493-429.755-296.788-468.023-559.264-6.715-46.06-6.776-130.783-.127-177.562C52.423 555.985 98.889 448.01 177.82 349.75 360.839 121.911 685.328 38.43 962.347 147.914c48.813 19.292 98.03 44.27 97.258 49.359-.287 1.887-7.028 5.314-14.981 7.617-20.791 6.02-35.67 18.752-45.898 39.277-7.932 15.916-8.932 21.992-8.932 54.268 0 71.976 25.692 129.005 82.813 183.82 28.663 27.505 46.45 40.3 78.436 56.419 42.553 21.444 66.94 28.09 109.787 29.917 47.34 2.02 63.926-1.716 82.625-18.609 7.49-6.767 14.41-11.513 15.377-10.546 4.925 4.925 23.248 67.003 30.551 103.504 33.53 167.584 11.234 317.502-68.668 461.738-88.383 159.545-244.505 279.957-421.838 325.348-75.814 19.406-91.783 21.261-177.924 20.665-43.664-.302-84.792-1.11-91.396-1.796m192.126-78.144c153.72-25.826 294.904-109.002 384.58-226.57 63.402-83.12 107.347-190.903 116.802-286.474 5.255-53.124 1.58-153.408-7.042-192.126-7.182-32.255-19.006-68.11-24.161-73.265-1.834-1.834-15.508-4.038-30.389-4.9l-27.054-1.566-7.803 33.861c-44.63 193.687-194.386 361.323-349.257 390.954-32.06 6.134-51.145 6.058-81.407-.323-56.904-12-93.77-41.873-153.305-124.218C522.694 720.21 405.68 662.09 275.806 703.918c-18.916 6.093-24.514 6.76-27.937 3.333-3.12-3.123-4.204-20.748-3.999-65.006.251-54.178 1.252-64.346 9.292-94.387C285.651 426.47 368.004 319.955 494.04 236.312c30.078-19.962 101.76-57.544 144.953-75.998 20.83-8.9 29.311-18.002 13.723-14.729-134.442 28.234-247.547 79.552-330.954 150.16-68.023 57.586-125.424 132.531-165.573 216.18-56.028 116.73-76.083 238.65-55.184 335.49 56.246 260.644 215.923 444.508 440.726 507.488 29.383 8.231 62.88 14.785 113.558 22.217 21.87 3.207 135.22-1.131 166.395-6.37" style="fill:#fff;stroke-width:274.466" transform="translate(0 -.008)scale(.1138)"/><path d="M1217.944 525.065c-34.589-8.673-80.738-35.25-112.162-64.594-63.132-58.952-92.222-145.657-67.203-200.306 10.978-23.98 24.837-39.524 59.039-66.22 91.598-71.495 211.57-122.42 290.152-123.161 27.63-.261 35.109.92 49.116 7.755 19.045 9.294 30.904 25.215 36.95 49.61 5.892 23.77 1.832 82.224-8.673 124.854-29.39 119.269-110.07 250.993-165.248 269.794-17.023 5.8-62.83 7.067-81.97 2.268m79.868-20.686c31.722-14.398 69.654-62.937 100.232-128.26 32.799-70.066 61.774-166.988 61.774-206.635 0-22.702-6.954-45.974-13.737-45.974-2.088 0-7.433 8.225-11.878 18.277-14.24 32.198-36.942 48.363-176.804 125.893-102.253 56.683-134.648 79.353-149.43 104.576-22.87 39.026 3.772 81.295 73.313 116.315 44.358 22.34 88.845 28.374 116.53 15.808M113.052 356.625c-5.325-8.392-19.367-36.393-31.204-62.224C34.461 190.985 18.941 110.78 38.882 72.357c13.16-25.359 50.084-34.144 94.683-22.528 38.743 10.091 113.661 53.79 176.37 102.872 28.497 22.306 28.989 19.023-6.579 43.955l-22.572 15.822-30.606-22.692C176.618 135.245 78.817 75.478 63.128 75.478c-14.402 0-18.506 20.347-11.824 58.618 8.99 51.493 42.028 136.57 72.735 187.304 8.2 13.549 14.902 25.9 14.893 27.447-.01 1.547-3.658 7.363-8.108 12.924l-8.09 10.11z" style="fill:#fff;stroke-width:274.466" transform="translate(0 -.008)scale(.1138)"/></svg>