<svg xmlns="http://www.w3.org/2000/svg" xml:space="preserve" style="fill-rule:evenodd;clip-rule:evenodd;stroke-linejoin:round;stroke-miterlimit:1.41421" viewBox="0 0 400 400"><path d="M13.83 315.949c.043-16.447 14.024-39.408 33.889-60.268 13.276-13.941 26.759-26.178 56.15-51.238-20.33-11.156-51.95-24.615-67.815-42.242-5.87-6.522-16.511-21.298-14.447-41.039C25.813 80.926 75.476 19.864 146.067 6.955c23.488-4.296 50.455-1.195 72.65 8.783 69.629 31.304 154.782 109.073 165.259 147.046 3.688 13.366 2.979 34.671-3.379 46.545-7.879 14.716-35.156 44.606-72.475 75.449-58.556 48.394-140.612 100.359-201.881 109.103-19.798 2.826-40.024-.121-54.218-8.13-22.209-12.532-29.581-29.262-32.172-34.277-6.891-13.334-6.036-30.228-6.021-35.525m164.8-184.776c.756-9.325 37.321-.042 35.011 7.343-2.437 7.791-35.879 3.354-35.011-7.343" style="fill:url(#a)"/><path d="M123.659 189.035c-19.242 16.246-32.036 27.2-48.075 41.86-38.626 35.304-64.871 62.176-51.34 98.909 15.609 42.374 49.824 40.226 89.947 32.35 103.421-20.398 273.426-151.095 264.761-199.37C371.94 123.723 276.96 46.063 220.725 18.428c-17.569-8.634-37.816-13.099-58.124-12.143-77.327 3.65-137.715 74.052-134.63 112.197 3.001 37.11 96.795 69.446 95.688 70.553M112.052 59.482c-23.268 25.888-8.392 75.974 30.195 103.274 45.152 31.945 118.269 37.729 132.819 13.093 27.14-45.952-2.493-94.54-46.727-116.214-43.711-21.418-101.783-16.29-116.287-.153" style="fill:url(#b)"/><path d="M191.403 161.67c32.666 4.541 60.822-8.541 65.225-40.798 3.354-24.571-34.25-51.417-56.859-57.608-18.88-5.171-59.869 1.478-62.633 37.186-2.872 37.121 35.22 58.573 54.267 61.22m-15.996-61.739c-21.468 33.258 31.169 43.483 39.228 37.418 34.744-26.149-29.77-52.07-39.228-37.418" style="fill:url(#c)"/><path d="M156.368 15.122c-37.974 4.001-45.246 8.889-79.647 34.916-11.53 8.723-32.75 29.948-38.187 55.128-2.071 9.59.377 17.87 7.283 23.676 22.116 18.593 59.131 33.677 89.498 48.259 8.894 4.271 3.005 12.015-11.338 24.432-36.194 31.334-85.128 69.476-88.544 98.54-1.61 13.695 3.079 32.305 19.702 41.828 19.419 11.125 59.729 3.864 86.646-6.159 39.334-14.647 91.003-46.973 132.023-78.748 42.655-33.043 82.316-75.011 84.277-81.856 2.409-8.406 2.169-16.169-2.48-25.096-7.301-14.017-17.062-24.432-27.542-36.091-28.122-29.647-57.876-55.697-93.475-75.66-25.707-14.416-48.325-26.319-78.216-23.169m55.781 66.466c27.434 13.263 55.606 48.102-.245 68.154-15.187 5.453-63.352-13.391-61.878-39.107 2.15-37.987 28.625-45.242 62.123-29.047" style="fill:url(#d)"/><defs><radialGradient id="c" cx="0" cy="0" r="1" gradientTransform="matrix(65.7758 0 0 50.4149 169.619 91.661)" gradientUnits="userSpaceOnUse"><stop offset="0%" style="stop-color:#fff;stop-opacity:1"/><stop offset="34%" style="stop-color:#fff;stop-opacity:1"/><stop offset="51%" style="stop-color:#bebbdb;stop-opacity:1"/><stop offset="75%" style="stop-color:#928bbe;stop-opacity:1"/><stop offset="87%" style="stop-color:#9f99c7;stop-opacity:1"/><stop offset="100%" style="stop-color:#524c76;stop-opacity:1"/></radialGradient><radialGradient id="d" cx="0" cy="0" r="1" gradientTransform="rotate(90.903 -43.07 63.726)scale(572.21605 488.02548)" gradientUnits="userSpaceOnUse"><stop offset="0%" style="stop-color:#fff;stop-opacity:1"/><stop offset="34%" style="stop-color:#fff;stop-opacity:1"/><stop offset="51%" style="stop-color:#bebbdb;stop-opacity:1"/><stop offset="75%" style="stop-color:#928bbe;stop-opacity:1"/><stop offset="87%" style="stop-color:#9f99c7;stop-opacity:1"/><stop offset="100%" style="stop-color:#524c76;stop-opacity:1"/></radialGradient><linearGradient id="a" x1="0" x2="1" y1="0" y2="0" gradientTransform="rotate(79.19 513.615 -470.327)scale(1304.701)" gradientUnits="userSpaceOnUse"><stop offset="0%" style="stop-color:#fff;stop-opacity:1"/><stop offset="34%" style="stop-color:#fff;stop-opacity:1"/><stop offset="51%" style="stop-color:#bebdf3;stop-opacity:1"/><stop offset="75%" style="stop-color:#867fb7;stop-opacity:1"/><stop offset="87%" style="stop-color:#9f99c7;stop-opacity:1"/><stop offset="100%" style="stop-color:#524c76;stop-opacity:1"/></linearGradient><linearGradient id="b" x1="0" x2="1" y1="0" y2="0" gradientTransform="rotate(257.427 245.638 43.837)scale(339.536)" gradientUnits="userSpaceOnUse"><stop offset="0%" style="stop-color:#fff;stop-opacity:1"/><stop offset="34%" style="stop-color:#fff;stop-opacity:1"/><stop offset="51%" style="stop-color:#bebbdb;stop-opacity:1"/><stop offset="75%" style="stop-color:#928bbe;stop-opacity:1"/><stop offset="87%" style="stop-color:#9f99c7;stop-opacity:1"/><stop offset="100%" style="stop-color:#524c76;stop-opacity:1"/></linearGradient></defs></svg>