<svg xmlns="http://www.w3.org/2000/svg" xml:space="preserve" style="fill-rule:evenodd;clip-rule:evenodd;stroke-linecap:round;stroke-linejoin:round;stroke-miterlimit:1.5" viewBox="0 0 472 399"><path d="M1030.25 1535.72c-75.077-17.34-104.108-68.12-97.609-111.65 5.565-37.27 7.921-36.8 6.909-74.24-.946-34.97 25.564-41.75 21.874-51.34-4.532-11.79-23.768-36.03 4.221-78.94 4.361-6.68 23.5-21.32 19.33-24.83-22.846-19.2-1.51-54.46 40.725-51.51 8.33.59 27.76 17.38 29.92 19.24 16 13.84 54.19-6.97 97.92 7.27 27.27 8.88 28.65 5.09 39.94-4.47 58.16-49.27 54.38 17.68 67.06 29.28 16.4 15 24.36 9.32 36.61 27.46 8.51 12.6 42.04 7.9 52.35 40.25 13.55 42.53 42.26 59.33 43.07 91.26.42 16.55 24.95 71.41-11.03 108.72-19.1 19.8-28.58 8.77-47.59 37.08-4.35 6.49-23.83 19.63-27.38 6.2-8.2-30.97-47.36 54.2-52.08 21.57-.71-4.89 19.79-32.15-4.98-14.61-9.87 6.99-45.72 25.85-47.97 25.04-11.35-4.08 29.49-40.59 20.85-41.58-7.25-.83-7.95-1.1-39.32 19.94-10.79-15.15 32.15-39.08 14.98-36.9-23.84 3.03-25.41 1.01-52.45-1.93-43.37-4.73-41.98-1.39-52.72 2.74 21.28 17.82 33.72 24.73 28.84 33.03-3.11 5.3-11.79 1.95-58.74-11.47 6.78 7.05 43.63 36.21 30.37 37.57-21.06 2.16-35.94-14.63-72.97-27.27 4.22 9.42 4.8 8.56 10.89 17.16 2.88 4.06 3.58 5.51-1.2 7.08" style="stroke:#000;stroke-width:2.5px" transform="translate(-930.508 -1141.79)"/><path d="M1227.91 1460.15c10.86-4.59 31.09-29.62 35.14-46.93 14-59.82 19.82-80.62-12.45-146.68-20.75-42.45-82-43.24-96.26-47.22-23.23-6.49-75.75-25.38-142.25-9.48-27.072 6.48-53.798 17.07-55.694 57.56-.68 14.54 14.685 27.16 21.392 46.33 16.083 45.98 26.272 39.4 47.332 83.26.4.83 29.6 56.74 85.45 66.06 101.11 16.86 87.67 9.02 106.49 3.87 3.54-.96 7.1-5.18 10.85-6.77M1040.86 1175.66c-27.89 27.48-66.644 7.4-43.248-11.12 25.908-20.5 40.488-3.77 43.008 10.8M1197.49 1184.12c5.6-11.16 30.16-29.37 44 5 6.46 16.02-51.77 15.12-44.03-4.18" style="fill:#fff;stroke:#fff;stroke-width:2.5px" transform="translate(-930.508 -1141.79)"/><path d="M1012.9 1166.16c15.84 14.02 4.07 16.24 2.86 15.81-1.05-.37-12.41-7.94-3.92-15.24zM1225.51 1188.13c-1.24-19.18-10.34-7.81-10.41-6.82-1.37 18.6 9.62 7.99 10.37 7.57 0 0 .06-.5.04-.75" style="stroke:#000;stroke-width:2.5px" transform="translate(-930.508 -1141.79)"/><path d="M973.061 1256.56c19.912-18.21 38.359-23.24 54.009-26.73 47.86-10.68 133.88 6.44 161.85 15.86 19.89 6.69 22.81 8.29 34.64 19.34 8.68 8.1 11.24 11.46 16.13 21.14" style="fill:none;stroke:#000;stroke-width:12.5px" transform="translate(-930.508 -1141.79)"/></svg>