<svg xmlns="http://www.w3.org/2000/svg" xml:space="preserve" style="fill-rule:evenodd;clip-rule:evenodd;stroke-linejoin:round;stroke-miterlimit:2" viewBox="663.38 37.57 575.35 903.75"><path d="m1083.58 1875.72 551.48 318.4a47.66 47.66 0 0 1 23.82 41.27v105.94c0 8.51-2.27 16.7-6.38 23.83 0 0-437.8-252.76-545.3-314.83a47.25 47.25 0 0 1-23.62-40.92z" style="fill:#706bc8" transform="translate(-420.173 -1838.145)"/><path d="M1635.26 2604.84a47.23 47.23 0 0 1 23.62 40.91v133.69l-551.47-318.39a47.66 47.66 0 0 1-23.83-41.27v-105.94c0-8.52 2.27-16.71 6.38-23.83 0 0 437.8 252.76 545.3 314.83" style="fill:#55c5e4" transform="translate(-420.173 -1838.145)"/><path d="M790.407 1432.56a35.03 35.03 0 0 0-12.898 12.9c-9.647 16.7-4.036 38.3 12.495 48.13h-.006l-28.825-16.64a47.64 47.64 0 0 1-23.829-41.27v-105.94c0-17.03 9.083-32.76 23.829-41.27l498.417-287.73.24-.14a34.96 34.96 0 0 0 12.65-12.756c9.65-16.708 4.04-38.3-12.49-48.137h.01l28.82 16.642a47.65 47.65 0 0 1 23.83 41.273v105.938c0 17.03-9.08 32.76-23.83 41.27l-29.63 17.11.4-.26z" style="fill:#84ddea" transform="translate(-73.938 -854.05)"/><path d="M790.407 1686.24a35.1 35.1 0 0 0-12.898 12.89c-9.647 16.71-4.036 38.3 12.495 48.14h-.006l-28.825-16.64a47.66 47.66 0 0 1-23.829-41.27v-105.94c0-17.03 9.083-32.76 23.829-41.27l498.417-287.73.24-.14c5.09-2.99 9.5-7.29 12.65-12.76 9.65-16.71 4.04-38.3-12.49-48.14h.01l28.82 16.65a47.64 47.64 0 0 1 23.83 41.27v105.94c0 17.02-9.08 32.76-23.83 41.27l-29.63 17.1.4-.25z" style="fill:#997bc8" transform="translate(-73.938 -854.05)"/></svg>