<svg xmlns="http://www.w3.org/2000/svg" width="240" height="240"><linearGradient id="d" x1="0%" x2="100%" y1="0%" y2="100%"><stop offset="0" stop-color="#ffa"/><stop offset=".75" stop-color="#cc8"/><stop offset="1" stop-color="#8b6"/></linearGradient><linearGradient id="a" x1="0%" x2="100%" y1="0%" y2="100%"><stop offset="0" stop-color="#ac7"/><stop offset=".6" stop-color="#896"/><stop offset="1" stop-color="#685"/></linearGradient><linearGradient id="f" x1="0%" x2="100%" y1="0%" y2="100%"><stop offset="0" stop-color="#8a7"/><stop offset=".5" stop-color="#ba5"/><stop offset="1" stop-color="#226a3a"/></linearGradient><linearGradient id="e" x1="0%" x2="100%" y1="0%" y2="100%"><stop offset="0" stop-color="#798"/><stop offset=".15" stop-color="#586"/><stop offset="1" stop-color="#232"/></linearGradient><linearGradient id="g" x1="20%" x2="80%" y1="0" y2="100%"><stop offset="0" stop-color="#3c5082"/><stop offset=".4" stop-color="#145082"/><stop offset=".8" stop-color="#14738c"/><stop offset="1" stop-color="#327896"/></linearGradient><linearGradient id="k" x1="0%" x2="100%" y1="100%" y2="0%"><stop offset="0" stop-color="#c84b41"/><stop offset=".5" stop-color="#fa644d"/><stop offset="1" stop-color="#fa9661"/></linearGradient><linearGradient id="l" x1="45%" x2="55%" y1="0%" y2="100%"><stop offset="0" stop-color="#ff8264"/><stop offset=".2" stop-color="#eb5a41"/><stop offset=".5" stop-color="#dc5f46"/><stop offset=".8" stop-color="#c84b37"/><stop offset="1" stop-color="#dc5f4b"/></linearGradient><filter id="c"><feOffset dx="2" dy="3" in="SourceGraphic" result="offOut"/><feColorMatrix in="offOut" result="matrixOut" values="0.3 0 0 0 0 0 0.3 0 0 0 0 0 0.3 0 0 0 0 0 0.1 0"/><feGaussianBlur in="matrixOut" result="blurOut" stdDeviation="4"/><feBlend in="SourceGraphic" in2="blurOut"/></filter><filter id="i"><feOffset dx="2" dy="3" in="SourceGraphic" result="offOut"/><feColorMatrix in="offOut" result="matrixOut" values="0.0 0 0 0 0 0 0.0 0 0 0 0 0 0.0 0 0 0 0 0 0.3 0"/><feGaussianBlur in="matrixOut" result="blurOut" stdDeviation="4"/><feBlend in="SourceGraphic" in2="blurOut"/></filter><filter id="j"><feOffset dx="4" dy="4" in="SourceGraphic" result="offOut"/><feColorMatrix in="offOut" result="matrixOut" values="0.1 0 0 0 0 0 0.1 0 0 0 0 0 0.1 0 0 0 0 0 0.25 0"/><feGaussianBlur in="matrixOut" result="blurOut" stdDeviation="6"/><feBlend in="SourceGraphic" in2="blurOut"/></filter><path fill="url(#a)" d="M0-100 100 0H0z" filter="url(#c)" transform="translate(120 120)"/><path fill="url(#d)" d="M0-100-100 0H0z" filter="url(#c)" transform="translate(120 120)"/><path fill="url(#e)" d="M0 100 100 0H0z" filter="url(#c)" transform="translate(120 120)"/><path fill="url(#f)" d="M0 100-100 0H0z" filter="url(#c)" transform="translate(120 120)"/><path fill="url(#g)" d="M63 69H19l-38-35L9 3z" filter="url(#i)" transform="translate(126 120)"/><g filter="url(#j)" transform="translate(126 120)"><path fill="url(#k)" d="M69-68H30l-56 58-3 58z"/><path fill="url(#l)" d="M-68-68V71h38l8-139z"/></g></svg>