<svg xmlns="http://www.w3.org/2000/svg" width="256" height="256" viewBox="0 0 256 256"><title>neovim-mark@2x</title><defs><linearGradient id="a" x1="167.958" x2="167.958" y1="-.461" y2="335.455" gradientTransform="scale(.46142 2.1672)" gradientUnits="userSpaceOnUse"><stop offset="0%" stop-color="#16b0ed" stop-opacity=".8"/><stop offset="100%" stop-color="#0f59b2" stop-opacity=".837"/></linearGradient><linearGradient id="b" x1="1118.343" x2="1118.343" y1="-.466" y2="338.686" gradientTransform="scale(.46587 2.14653)" gradientUnits="userSpaceOnUse"><stop offset="0%" stop-color="#7db643"/><stop offset="100%" stop-color="#367533"/></linearGradient><linearGradient id="c" x1="356.338" x2="356.338" y1="0" y2="612.901" gradientTransform="scale(.8419 1.1878)" gradientUnits="userSpaceOnUse"><stop offset="0%" stop-color="#88c649" stop-opacity=".8"/><stop offset="100%" stop-color="#439240" stop-opacity=".84"/></linearGradient></defs><g style="fill:none;fill-rule:evenodd;stroke:none;stroke-width:1"><path d="M0 155.57 155-1v728L0 572.238Z" style="fill:url(#a)" transform="translate(26 2.805)scale(.34367)"/><path d="M443.06 156.982 600-1l-3.181 728L442 572.22Z" style="fill:url(#b)" transform="matrix(-.34367 0 0 .34367 384.11 2.805)"/><path d="M154.986 0 558 615.19 445.225 728 42 114.172Z" style="fill:url(#c)" transform="translate(26 2.805)scale(.34367)"/><path d="M155 283.832 154.787 308 31 124.71 42.462 113Z" style="fill:#000;fill-opacity:.12999998" transform="translate(26 2.805)scale(.34367)"/></g></svg>