<svg xmlns="http://www.w3.org/2000/svg" width="224" height="224" viewBox="0 0 224 224"><circle cx="112" cy="112" r="112" style="opacity:1;fill:#fff;fill-opacity:1;stroke:none;stroke-width:2.24192;stroke-linecap:round;stroke-linejoin:round;stroke-miterlimit:4;stroke-dasharray:none;stroke-opacity:1"/><path d="M112 0A112 112 0 0 0 0 112a112 112 0 0 0 112 112 112 112 0 0 0 112-112A112 112 0 0 0 112 0m0 14a97.999 98 0 0 1 98 98 97.999 98 0 0 1-98 98 97.999 98 0 0 1-73.763-33.665c7.06-5.107 18.64-3.803 32.872-2.196 6.935.81 14.833 1.716 23.008 1.898 22.824.145 47.407-4.07 62.56-10.698 9.802-4.26 16.058-7.096 19.977-10.66 1.41-1.169 2.142-3.065 2.904-5.105l.535-1.349c.634-1.654 1.564-5.14 1.974-7.05.164-.84.357-1.664-.339-2.202-.636-.492-2.098.39-2.098.39-6.654 4.004-23.286 11.589-38.837 11.913-19.307.39-58.426-19.544-62.479-21.65-2.712-6.459-5.424-12.921-8.176-19.364 27.987 18.44 51.202 28.634 68.972 30.206 19.782 1.762 35.2-9.032 41.894-13.523a42 42 0 0 0 2.555-1.861h.004c.143-.112.479-.408.435-.68-1.11-6.934-11.44-40.558-19.258-48.645-2.155-2.202-3.88-4.375-7.373-6.419-28.285-16.482-95.39-26.43-98.533-26.885 0 0-.317-.065-.535.148-.17.166-.204.486-.204.486s-.257 13.903-.297 15.457c-2.534-.85-10.995-3.594-22.948-6.788A97.999 98 0 0 1 112 14m20.426 56.851q.714-.011 1.434.012c15.817.566 28.247 13.918 27.704 29.718-.298 7.665-3.506 14.78-9.097 19.981-5.608 5.267-12.907 7.975-20.612 7.716-15.8-.582-28.215-13.907-27.686-29.72.285-7.666 3.492-14.78 9.097-19.998 5.257-4.908 12.015-7.594 19.16-7.709m.19 8.458c-4.995.062-9.694 1.94-13.34 5.36-3.887 3.646-6.18 8.587-6.341 13.936-.372 11.054 8.281 20.35 19.31 20.757 5.363.162 10.475-1.735 14.386-5.381 3.905-3.664 6.152-8.603 6.323-13.932.372-11.05-8.282-20.338-19.335-20.73q-.504-.017-1.004-.01m4.279 10.06c4.911 0 8.89 2.644 8.89 5.933 0 3.257-3.982 5.914-8.89 5.914-4.912 0-8.878-2.657-8.878-5.914 0-3.289 3.966-5.932 8.878-5.932" style="opacity:1;fill:#73ba25;fill-opacity:1;stroke:none;stroke-width:13.8446;stroke-miterlimit:4;stroke-dasharray:none;stroke-opacity:1"/></svg>