<svg xmlns="http://www.w3.org/2000/svg" width="100" height="100" fill="none" viewBox="0 0 100 100"><path fill="#4d4d4e" d="M96.128 99.977H3.872A3.89 3.89 0 0 1 0 96.105V3.872A3.89 3.89 0 0 1 3.872 0h92.256A3.89 3.89 0 0 1 100 3.872v92.256c-.022 2.126-1.746 3.85-3.872 3.85"/><path fill="#f89820" d="M23.053 30.192 75.38 13.585s3.715-1.947 2.82 1.656l.134 16.003s.649 2.35-2.574 2.932l-21.262 6.647z"/><path fill="#f89820" d="M23.053 30.192s-2.06.492-1.455 4.006l-.112 15.421s-.179 1.947 3.514 2.73l51.858 16.697s1.745.694 1.544-1.455l.022-17.188s.493-1.769-2.73-2.932l-21.195-6.648z"/><path fill="url(#a)" d="m45.904 59.064-22.068 6.737s-2.663.09-2.35 5.08c.313 4.992-.022 15.04-.022 15.04s.224 1.858 2.775.784L76.567 70.01s1.857-.47.29-.985c-1.566-.493-30.953-9.96-30.953-9.96"/><defs><linearGradient id="a" x1="24.525" x2="77.458" y1="76.776" y2="58.462" gradientUnits="userSpaceOnUse"><stop offset=".233" stop-color="#f89822"/><stop offset="1" stop-color="#c27818"/></linearGradient></defs></svg>