<svg xmlns="http://www.w3.org/2000/svg" width="150" height="150"><path d="M95 50c0 24.852-20.148 45-45 45C25.145 95 5 74.852 5 50 5 25.147 25.146 5 50 5c24.852 0 45 20.147 45 45" style="fill:#f47421;fill-opacity:1;fill-rule:nonzero;stroke:none" transform="translate(-8.333 -8.333)scale(1.66666)"/><path d="M62.296 28.701a6.006 6.006 0 1 0-2.198-8.204 6.005 6.005 0 0 0 2.198 8.204M50 67.55a17.5 17.5 0 0 1-7.393-1.633l-4.174 7.48A26 26 0 0 0 50 76.1c2.416 0 4.752-.335 6.973-.95a8.42 8.42 0 0 1 4.11-5.956 8.42 8.42 0 0 1 7.203-.583c4.442-4.368 7.333-10.311 7.754-16.93l-8.562-.125C66.69 60.522 59.168 67.55 50 67.55m0-35.1c9.169 0 16.69 7.03 17.478 15.994l8.562-.125c-.422-6.618-3.312-12.561-7.755-16.93a8.42 8.42 0 0 1-7.203-.584 8.42 8.42 0 0 1-4.11-5.955 26.1 26.1 0 0 0-18.539 1.753l4.174 7.48A17.5 17.5 0 0 1 50 32.45M32.45 50c0-5.938 2.951-11.182 7.463-14.357l-4.392-7.358c-5.258 3.513-9.17 8.882-10.794 15.172A8.42 8.42 0 0 1 27.837 50a8.42 8.42 0 0 1-3.11 6.543c1.624 6.29 5.535 11.66 10.793 15.173l4.393-7.358C35.4 61.182 32.45 55.938 32.45 50m29.847 21.298a6.005 6.005 0 0 0-2.199 8.205 6.006 6.006 0 1 0 10.403-6.006 6.006 6.006 0 0 0-8.204-2.199M19.4 43.993a6.007 6.007 0 1 0 0 12.015 6.007 6.007 0 1 0 0-12.015" style="fill:#fff;fill-opacity:1;fill-rule:nonzero;stroke:none" transform="translate(-8.333 -8.333)scale(1.66666)"/></svg>