<svg xmlns="http://www.w3.org/2000/svg" width="1918" height="1536" viewBox="-10 0 1918 1536"><path fill="#ff0" d="M1467 668c-14.148 0-28.724.782-43.772 2.287L1371 675.51V1226h98c91.867 0 173.38 11.416 244.94 33.436l75.057 23.094V740.05l-34.775-15.195c-87.254-38.128-183.62-56.854-287.22-56.854z" color="#000"/><path fill="green" d="M1465 117a384 384 0 0 0-42.404 2.356L1371 125.088v543.38l98.418-2.461c82.417.044 163.34 13.003 243.63 39.143l75.955 24.73V195.3l-31.875-16.082c-83.693-42.223-181.81-62.217-292.12-62.217z" color="#000"/><g fill="#00f"><path d="m1371 672.12-65.344 8.342c-94.314 12.04-193.75 43.088-298.66 91.559v547.35l21.34-8.444c87.961-34.805 185.51-60.087 292.91-75.52l49.75-7.151zM779 1152v119l-142 57v-119zM779 964v120l-142 55v-118zM582 1160v99l-125 50v-98zM582 973v99l-125 50v-99zM396 1164v74l-100 40v-72zM396 977v72l-100 41v-72zM225 1128v62l-74 30v-63zM225 933v62l-74 30v-64zM51 1086v52l-55 25v-51zM51 892v51l-55 25v-52z"/></g><g fill="red"><path d="m1371 119.91-68.852 13.113c-95.5 18.19-193.89 48.168-295.15 89.34v548.52l24.305-11.217c90.148-41.607 186.64-70.041 290.14-85.281l49.551-7.295zM779 570v119l-142 56V627zM779 386v118l-142 57V442zM582 586v98l-125 51v-99zM582 393v99l-125 51v-99zM396 591v72l-100 40v-72zM396 398v73l-100 39v-71zM225 547v62l-74 29v-64zM225 354v63l-74 29v-63zM51 504v52l-55 25v-52zM51 312v53l-55 25v-52z"/></g><path d="M988 1264v180c-69.333 26.667-128.33 52.333-177 77v-181zM988 1075v168l-177 77v-170zM988 882v172l-177 76V957zM988 694v167l-177 75V768zM988 504v169l-177 75V579zM988 316v167l-177 75V390zM988 103v193l-177 74V190c61.333-35.333 120.33-64.333 177-87M787 1328v141l-166 67v-141zM787 753v141l-166 67V820zM787 174v141l-166 68V242zM590 1346v108l-149 60v-107zM590 772v108l-149 59V831zM590 192v108l-149 60V253zM402 1351v82l-119 48v-82zM402 776v82l-119 47v-81zM402 197v82l-119 47v-81zM230 1315v68l-92 38v-68zM230 733v68l-92 36v-68zM230 154v69l-92 35v-68zM58 1273v60l-68 28v-57zM58 693v59l-68 28v-57zM58 121v59l-68 28v-58zM1464 0c-149.33 0-301.67 31.667-457 95v190q159-67 306-95v427q-163.005 24-306 90v129q165-80 306-98v440q-166.995 24-306 79v180q262.005-88 474-88c170.67 0 313 37.334 427 112V110Q1705.005 0 1464 0m1 175c103.33 0 192 18.667 266 56v419c-86-28-173.33-42-262-42l-40 1V177q18-2 36-2m2 551c96.667 0 184.67 17.333 264 52v426c-78-24-165.33-36-262-36h-40V728q20-2 38-2"/></svg>