<svg xmlns="http://www.w3.org/2000/svg" width="90" fill="none" viewBox="0 0 90 90"><path fill="#fff" fill-rule="evenodd" d="M8.438 5.625a2.813 2.813 0 0 0-2.813 2.813v61.875H0V8.438A8.44 8.44 0 0 1 8.438 0h75.355c3.758 0 5.64 4.544 2.983 7.202L40.364 53.613h13.074v-5.8h5.624v7.206a4.22 4.22 0 0 1-4.218 4.22H34.739l-9.668 9.667h43.835V33.75h5.625v35.156a5.625 5.625 0 0 1-5.625 5.625h-49.46l-9.844 9.844h71.96a2.813 2.813 0 0 0 2.813-2.812V19.688H90v61.875A8.44 8.44 0 0 1 81.563 90H6.207c-3.758 0-5.64-4.544-2.983-7.202L49.46 36.563H36.563v5.624h-5.626v-7.03a4.22 4.22 0 0 1 4.22-4.22h19.928l9.844-9.843H21.094V56.25h-5.625V21.094a5.625 5.625 0 0 1 5.625-5.625h49.46l9.843-9.844z" clip-rule="evenodd"/></svg>