<svg xmlns="http://www.w3.org/2000/svg" fill="none" viewBox="0 0 2200 2106.5"><defs><filter id="a" width="1407" height="1351" x="0" y="0" color-interpolation-filters="sRGB" filterUnits="userSpaceOnUse"><feFlood flood-opacity="0" result="BackgroundImageFix"/><feColorMatrix in="SourceAlpha" result="hardAlpha" values="0 0 0 0 0 0 0 0 0 0 0 0 0 0 0 0 0 0 127 0"/><feOffset/><feGaussianBlur stdDeviation="25"/><feComposite in2="hardAlpha" operator="out"/><feColorMatrix values="0 0 0 0 1 0 0 0 0 0.433333 0 0 0 0 0.841334 0 0 0 1 0"/><feBlend in2="BackgroundImageFix" result="effect1_dropShadow_88_323"/><feBlend in="SourceGraphic" in2="effect1_dropShadow_88_323" result="shape"/></filter></defs><g filter="url(#a)" transform="matrix(1.5628 0 0 1.5583 1.088 1.286)"><path fill="#ffd3e6" d="M642.693 121.644c26.544-47.173 94.388-47.173 120.936 0l139.12 247.243c17.213 30.593 46.858 52.16 81.2 59.1l277.735 56.135c53.026 10.717 73.918 75.301 37.369 115.128l-191.75 208.937a120.392 120.743 0 0 0-31.027 95.658l32.524 281.936c6.2 53.72-48.617 93.72-97.83 71.156l-257.637-118.112a120.647 121 0 0 0-100.344 0l-257.631 118.112c-49.216 22.557-104.03-17.436-97.836-71.156l32.529-281.936c4.026-34.891-7.303-69.808-31.026-95.658L107.269 599.25c-36.548-39.824-15.653-104.411 37.37-115.128l277.736-56.133c34.345-6.943 63.987-28.51 81.2-59.102z"/><path fill="#ffa5e6" d="M703.161 61.419c-32.448 0-64.896 15.869-82.754 47.607l-139.12 247.243a94.96 94.96 0 0 1-63.968 46.554l-277.736 56.133C68.315 473.36 39.258 563.046 88.436 616.63l191.756 208.94a94.752 95.029 0 0 1 24.434 75.32l-32.53 281.937c-8.345 72.33 67.743 127.776 133.9 97.454v-.001l257.638-118.112.001-.002a95.008 95.286 0 0 1 79.056 0l.001.002 257.637 118.112c66.15 30.33 142.244-25.12 133.893-97.455l.002.002-32.525-281.936v-.001a94.752 95.029 0 0 1 24.43-75.321l.002-.002 191.75-208.944c49.18-53.585 20.127-143.275-51.145-157.675l-277.735-56.133a94.96 94.96 0 0 1-63.966-46.553l-139.12-247.244c-17.862-31.739-50.311-47.606-82.762-47.606m.002 49.687c14.745 0 29.491 7.718 38.178 23.153l139.12 247.243c20.864 37.082 56.824 63.24 98.432 71.65l277.735 56.133c34.781 7.03 47.513 46.52 23.594 72.58l-191.75 208.939c-28.755 31.323-42.497 73.697-37.62 115.988l32.525 281.935c4.052 35.108-29.49 59.657-61.763 44.86l-257.638-118.112a145.9 145.9 0 0 0-121.633.002l-257.63 118.112h.002c-32.28 14.794-65.824-9.752-61.773-44.86l32.53-281.935c4.88-42.297-8.869-84.665-37.62-115.994L126.088 581.854c-23.917-26.06-11.182-65.554 23.595-72.58l277.736-56.132c41.613-8.412 77.572-34.57 98.432-71.65v-.002l139.12-247.243c8.686-15.434 23.43-23.152 38.175-23.152"/></g><circle cx="778.57" cy="1102.8" r="78.571" fill="#9f57a5"/><circle cx="1421.4" cy="1102.8" r="78.571" fill="#9f57a5"/><path fill="#b773b3" d="M1029.246 1207.787a40 40 0 0 0-31.543 46.96 104.3 104.3 0 0 0 15.485 37.634l.001.002.002.004a104.2 104.2 0 0 0 28.715 28.834l.008.006a104.3 104.3 0 0 0 37.533 15.652l.014.004.016.002a104.4 104.4 0 0 0 40.666.082h.003a104.3 104.3 0 0 0 37.625-15.477l.006-.004.008-.004a104.3 104.3 0 0 0 28.819-28.699 104.1 104.1 0 0 0 15.666-37.588 40 40 0 0 0-31.352-47.086 40 40 0 0 0-47.086 31.352 24.1 24.1 0 0 1-3.627 8.7l-.012.015-.01.015a24.3 24.3 0 0 1-6.7 6.678 24.2 24.2 0 0 1-8.75 3.596l-.01.002-.01.002c-3.13.615-6.348.61-9.475-.016a24.3 24.3 0 0 1-8.734-3.646l-.014-.01-.011-.008a24.2 24.2 0 0 1-6.667-6.693l-.001-.004-.002-.002a24.3 24.3 0 0 1-3.604-8.76 40 40 0 0 0-46.959-31.543"/></svg>