<svg width="500" height="500" viewBox="0 0 500 500" fill="none" xmlns="http://www.w3.org/2000/svg">
<path d="M226.842 24.0111C237.202 5.61685 263.663 5.60392 274.01 23.9878L328.234 120.344C334.943 132.267 346.502 140.668 359.897 143.368L468.213 165.197C488.893 169.365 497.032 194.538 482.772 210.071L407.953 291.556C403.378 296.537 399.926 302.447 397.836 308.885C395.744 315.319 395.063 322.132 395.837 328.853L408.478 438.754C410.889 459.693 389.504 475.297 370.312 466.51L269.844 420.518C263.703 417.705 257.029 416.252 250.275 416.255C243.524 416.257 236.848 417.717 230.706 420.536L130.204 466.629C111.004 475.431 89.6315 459.851 92.0555 438.908L104.785 328.996C106.36 315.392 101.947 301.785 92.6976 291.713L17.9382 210.298C3.68918 194.781 11.8485 169.599 32.531 165.411L140.865 143.475C154.261 140.763 165.826 132.35 172.544 120.42L226.842 24.0111Z" fill="#FFAFF3"/>
<path d="M250.462 0.537188C237.806 0.543719 225.147 6.7359 218.177 19.1116L163.874 115.519C158.58 124.918 149.478 131.54 138.916 133.679L30.5778 155.616C2.77753 161.245 -8.57015 196.212 10.6031 217.091L85.3638 298.499C88.9639 302.416 91.6782 307.065 93.3203 312.133C94.9629 317.199 95.4954 322.562 94.8814 327.855L82.1491 437.764C78.8825 465.961 108.551 487.559 134.36 475.727L134.361 475.725L234.869 429.633L234.87 429.631C239.709 427.41 244.969 426.259 250.288 426.257C255.61 426.255 260.869 427.4 265.706 429.617L366.178 475.605C391.975 487.416 421.662 465.786 418.417 437.589L418.417 437.592L405.777 327.694C405.167 322.402 405.704 317.039 407.35 311.969C408.996 306.902 411.714 302.249 415.319 298.329L415.319 298.327L490.144 216.84L490.142 216.839C509.333 195.94 498.016 160.987 470.219 155.385L361.898 133.559C351.339 131.432 342.242 124.818 336.957 115.426L282.732 19.0719C275.772 6.70417 263.117 0.524875 250.46 0.531407M250.452 19.9003C256.204 19.8973 261.954 22.9026 265.34 28.9177L319.564 125.269C327.695 139.72 341.719 149.909 357.945 153.179L466.267 175.005C479.831 177.738 484.791 193.129 475.456 203.293L400.633 284.781C389.411 296.996 384.046 313.519 385.939 330.002L398.582 439.898C400.156 453.584 387.07 463.159 374.483 457.399L274.011 411.408C258.956 404.514 241.632 404.524 226.571 411.434L126.063 457.526C113.47 463.301 100.393 453.738 101.977 440.052L114.71 330.143C116.62 313.654 111.264 297.142 100.055 284.934L25.2949 203.526C15.9703 193.372 20.9438 177.977 34.5095 175.228L142.848 153.291C159.08 150.003 173.11 139.8 181.254 125.34L181.254 125.34L235.557 28.933C238.947 22.9149 244.7 19.9036 250.451 19.9005" fill="#151515"/>
<path d="M354.572 249.028C353.972 247.678 339.582 216.059 310.002 216.059C280.432 216.059 266.032 247.678 265.432 249.028C265.008 250.036 264.924 251.155 265.193 252.215C265.463 253.275 266.07 254.218 266.923 254.902C267.777 255.586 268.83 255.973 269.923 256.005C271.017 256.036 272.09 255.711 272.982 255.077C273.102 254.987 285.602 246.058 310.002 246.058C334.262 246.058 346.742 254.867 347.022 255.067C347.906 255.744 348.99 256.105 350.103 256.093C351.216 256.082 352.292 255.698 353.161 255.002C354.03 254.307 354.641 253.341 354.897 252.258C355.153 251.175 355.038 250.038 354.572 249.028ZM234.572 249.028C233.972 247.678 219.582 216.059 190.002 216.059C160.432 216.059 146.032 247.678 145.432 249.028C144.975 250.037 144.867 251.169 145.124 252.246C145.382 253.323 145.991 254.284 146.855 254.977C147.718 255.671 148.789 256.057 149.896 256.075C151.004 256.093 152.086 255.742 152.972 255.077C153.102 254.987 165.592 246.058 190.002 246.058C214.262 246.058 226.742 254.867 227.022 255.067C227.905 255.744 228.99 256.105 230.103 256.093C231.215 256.082 232.292 255.698 233.161 255.002C234.03 254.307 234.641 253.341 234.897 252.258C235.152 251.175 235.038 250.038 234.572 249.028ZM380.002 231.058C376.042 231.058 372.282 228.678 370.712 224.769C352.932 180.321 308.482 170.961 308.032 170.861C306.741 170.606 305.514 170.099 304.42 169.369C303.325 168.639 302.386 167.7 301.655 166.606C300.924 165.512 300.417 164.285 300.161 162.994C299.905 161.704 299.907 160.376 300.165 159.086C300.424 157.796 300.934 156.57 301.667 155.478C302.4 154.386 303.342 153.449 304.438 152.721C305.534 151.993 306.762 151.489 308.054 151.237C309.345 150.985 310.673 150.99 311.962 151.252C314.222 151.702 367.522 162.931 389.282 217.329C389.892 218.847 390.121 220.491 389.948 222.117C389.775 223.744 389.205 225.303 388.289 226.658C387.373 228.014 386.138 229.123 384.694 229.89C383.249 230.658 381.638 231.059 380.002 231.058ZM120.002 231.058C118.367 231.058 116.757 230.657 115.314 229.89C113.87 229.124 112.637 228.015 111.721 226.661C110.805 225.307 110.235 223.75 110.061 222.124C109.887 220.499 110.114 218.856 110.722 217.339C132.482 162.941 185.782 151.712 188.042 151.262C190.617 150.795 193.274 151.356 195.44 152.825C197.606 154.295 199.11 156.555 199.629 159.12C200.147 161.686 199.639 164.353 198.213 166.548C196.787 168.743 194.557 170.292 192.002 170.861C190.152 171.241 146.942 180.661 129.292 224.769C128.547 226.624 127.265 228.215 125.609 229.335C123.954 230.456 122.001 231.056 120.002 231.058ZM250.002 291.056C213.772 291.056 189.732 286.836 160.002 281.056C153.212 279.746 140.002 281.056 140.002 301.055C140.002 341.054 185.952 391.051 250.002 391.051C314.042 391.051 360.002 341.054 360.002 301.055C360.002 281.056 346.792 279.736 340.002 281.056C310.272 286.836 286.232 291.056 250.002 291.056Z" fill="#151515"/>
<path d="M152.004 295.051C152.004 295.051 184.504 306.051 249.504 306.051C314.504 306.051 347.004 295.051 347.004 295.051C347.004 295.051 325.337 339.051 249.504 339.051C173.671 339.051 152.004 295.051 152.004 295.051Z" fill="white"/>
<path d="M181.486 367.738C177.758 382.165 168.35 394.547 155.331 402.158C142.312 409.77 126.75 411.988 112.067 408.325C97.3838 404.662 84.7831 395.418 77.0366 382.626C69.2902 369.834 67.0327 354.542 70.7606 340.114C78.5169 310.067 143.149 242.372 154.23 245.133C165.31 247.906 189.242 337.701 181.486 367.738Z" fill="#5DADEC"/>
<path d="M345.436 402.162C332.532 394.552 323.205 382.172 319.508 367.745C311.82 337.707 335.553 247.906 346.513 245.133C357.496 242.372 421.561 310.071 429.26 340.12C431.091 347.264 431.485 354.695 430.418 361.989C429.352 369.284 426.846 376.299 423.043 382.632C419.241 388.966 414.217 394.495 408.259 398.904C402.3 403.312 395.524 406.513 388.317 408.324C373.764 411.988 358.34 409.772 345.436 402.162Z" fill="#5DADEC"/>
</svg>
