<svg width="750" height="753" viewBox="0 0 750 753" fill="none" xmlns="http://www.w3.org/2000/svg">
<path d="M336.661 80.6966C342.058 79.7438 347.875 81.4335 352.348 86.874L445.835 200.622C461.016 219.094 483.505 230.046 507.392 230.625L654.669 234.192C661.76 234.364 666.656 237.894 669.208 242.697C671.76 247.5 671.939 253.525 668.14 259.462L588.747 383.557C575.854 403.701 572.363 428.492 579.187 451.411L621.208 592.521L621.208 592.523C623.211 599.248 621.373 605.003 617.576 608.935C613.78 612.867 608.085 614.922 601.226 613.139L458.664 576.083C435.535 570.069 410.907 574.419 391.227 587.992L391.227 587.989L269.921 671.633L269.921 671.63C264.083 675.655 258.027 675.676 253.117 673.281C248.206 670.887 244.513 666.108 244.097 659.103L235.389 512.11C233.974 488.232 222.221 466.137 203.228 451.62L86.2301 362.202L86.2301 362.205C80.6332 357.927 78.7437 352.204 79.5019 346.817C80.26 341.43 83.6543 336.437 90.2564 333.846L227.435 280.053C249.685 271.328 267.076 253.335 275.033 230.778L324.031 91.8734C326.374 85.2304 331.265 81.6494 336.661 80.6966Z" fill="#FFAFF3"/>
<path fill-rule="evenodd" d="M179.412 687.154C182.551 740.131 243.045 770.643 287.443 742.863L287.572 742.863L421.341 650.627L421.316 650.565C421.751 650.319 422.176 650.054 422.589 649.769C431.383 643.701 442.339 641.712 452.688 644.29L608.759 684.854C661.174 698.48 709.789 648.12 694.336 596.243L648.318 441.704C645.427 431.557 646.991 420.664 652.626 411.737C652.669 411.668 652.713 411.6 652.756 411.531L652.761 411.525L739.538 275.894L739.606 275.782C739.817 275.43 740.015 275.073 740.2 274.709L740.211 274.689C767.934 229.238 735.319 168.585 681.668 167.284L520.83 163.386C510.008 163.123 499.879 158.186 493.018 149.837L390.923 25.6105L390.923 25.6096C375.84 7.26141 353.963 -0.723065 333.031 0.347902L333.027 0.348205L332.855 0.356904L332.845 0.357757C329.915 0.515202 326.996 0.849395 324.11 1.3589C300.634 5.50467 278.66 21.4102 269.622 47.033L216.113 198.727C212.515 208.927 204.684 217.035 194.602 220.988L44.7941 279.731C-5.61828 299.5 -15.3763 368.823 27.6242 401.687L155.394 499.342C163.971 505.891 169.266 515.845 169.903 526.625L179.412 687.154ZM352.348 86.874C347.875 81.4335 342.058 79.7438 336.661 80.6966C331.265 81.6494 326.374 85.2304 324.031 91.8734L275.033 230.778C267.076 253.335 249.685 271.328 227.435 280.053L90.2564 333.846C83.6543 336.437 80.26 341.43 79.5019 346.817C78.7437 352.204 80.6332 357.927 86.2301 362.205L86.2301 362.202L203.228 451.62C222.221 466.137 233.974 488.232 235.389 512.11L244.097 659.103C244.513 666.108 248.206 670.887 253.117 673.281C258.027 675.676 264.083 675.655 269.921 671.63L269.921 671.633L391.227 587.989L391.227 587.992C410.907 574.419 435.535 570.069 458.664 576.083L601.226 613.139C608.085 614.922 613.78 612.867 617.576 608.935C621.373 605.003 623.211 599.248 621.208 592.523L621.208 592.521L579.187 451.411C572.363 428.492 575.854 403.701 588.747 383.557L668.14 259.462C671.939 253.525 671.76 247.5 669.208 242.697C666.656 237.894 661.76 234.364 654.669 234.192L507.392 230.625C483.505 230.046 461.016 219.094 445.835 200.622L352.348 86.874Z" fill="#151515"/>
<path d="M268.004 341.489C265.947 341.172 263.843 341.008 261.701 341.008C238.855 341.008 220.155 359.701 220.146 382.547C220.137 405.392 238.822 424.085 261.668 424.085C284.513 424.085 303.214 405.392 303.223 382.546C303.231 361.842 287.885 344.549 268.004 341.489Z" fill="#151515"/>
<path d="M516.581 374.213C514.524 374.529 512.419 374.693 510.277 374.693C487.431 374.693 468.731 356 468.722 333.155C468.713 310.309 487.399 291.616 510.245 291.616C533.09 291.616 551.79 310.308 551.799 333.154C551.807 353.858 536.462 371.152 516.581 374.213Z" fill="#151515"/>
<path fill-rule="evenodd" d="M340.845 427.852C353.099 422.974 366.986 428.953 371.865 441.206C380.935 463.991 398.704 470.457 412.433 468.144C425.713 465.907 439.592 454.731 439.592 429.974C439.592 416.785 450.283 406.094 463.472 406.094C476.66 406.094 487.352 416.785 487.352 429.974C487.352 477.231 457.434 508.996 420.368 515.241C383.75 521.411 344.622 501.902 327.491 458.872C322.613 446.618 328.592 432.731 340.845 427.852Z" fill="#151515"/>
</svg>
