<svg viewBox="0 0 169 261" fill="none" xmlns="http://www.w3.org/2000/svg">
<path fill-rule="evenodd" clip-rule="evenodd" d="M89.996 22.3907C90.4177 41.1543 90.1388 68.9796 110.926 94.3264C131.713 119.673 158 132.432 158 171.739C158 222.967 119.715 249.078 86.1933 249.078C52.6717 249.078 11.095 227.342 11.095 166.743C11.095 132.941 27.4105 90.4407 57.2667 52.8476C63.4992 45 80 30 89.996 22.3907ZM43.4396 224.402C53.0416 232.337 64.9047 237.807 79.0288 240.812C100.215 245.319 92.4907 234.571 79.0288 229.898C70.0542 226.783 58.1911 224.951 43.4396 224.402Z" fill="#FFAFF3"/>
<path fill-rule="evenodd" clip-rule="evenodd" d="M100.508 0.563782L100.993 22.1435C101.007 22.7568 101.02 23.375 101.034 23.9981C101.438 42.8216 101.936 66.0175 119.432 87.3509C124.232 93.2045 129.398 98.3918 134.82 103.8C134.983 103.963 135.147 104.126 135.311 104.29C140.463 109.429 145.933 114.885 150.791 120.856C161.23 133.686 169 149.082 169 171.739C169 229.676 125.135 260.078 86.1933 260.078C67.2308 260.078 45.6947 253.957 28.7514 238.844C11.5395 223.491 0.0949707 199.77 0.0949707 166.743C0.0949707 129.809 17.7089 84.9692 48.6527 46.0065C55.6933 37.1415 72.9986 21.5052 83.3332 13.6381L100.508 0.563782ZM91.5205 237.821C90.3991 236.11 87.9204 234.113 84.6574 232.359C83.5765 231.778 82.4095 231.223 81.1772 230.714C80.4807 230.426 79.7633 230.153 79.0288 229.898C70.5513 226.956 59.4966 225.158 45.8645 224.505C45.065 224.467 44.2567 224.433 43.4396 224.402C52.236 231.671 62.9299 236.871 75.5213 240.003C76.6746 240.29 77.8437 240.56 79.0288 240.812C79.8399 240.984 80.6087 241.135 81.3364 241.264C83.2243 241.598 84.8357 241.791 86.1933 241.862C91.9331 242.161 93.1368 240.287 91.5205 237.821ZM100.395 247.554C95.6462 248.569 90.8733 249.078 86.1933 249.078C83.3033 249.078 80.3534 248.917 77.3755 248.582C63.5873 247.036 49.1975 241.79 37.3628 231.756C31.3431 226.653 25.9845 220.311 21.7024 212.586C15.1312 200.732 11.095 185.624 11.095 166.743C11.095 132.941 27.4105 90.4407 57.2667 52.8476C61.5452 47.4603 70.6627 38.7025 79.193 31.2788C83.0888 27.8884 86.8621 24.7763 89.996 22.3907C90.013 23.147 90.0288 23.9181 90.045 24.7032C90.1181 28.2585 90.1971 32.1003 90.4145 36.1583C91.3397 53.4337 94.7715 74.6284 110.926 94.3264C116.229 100.793 121.891 106.44 127.382 111.918C143.415 127.911 158 142.46 158 171.739C158 215.815 129.659 241.298 100.395 247.554Z" fill="black"/>
<path d="M43.6813 193.604C49.2673 192.619 52.9972 187.292 52.0122 181.706C51.0273 176.12 45.7004 172.39 40.1144 173.375C34.5284 174.36 30.7985 179.687 31.7834 185.273C32.7684 190.859 38.0953 194.588 43.6813 193.604Z" fill="#151515"/>
<path d="M126.433 179.012C132.019 178.027 135.748 172.7 134.763 167.114C133.779 161.528 128.452 157.798 122.866 158.783C117.28 159.768 113.55 165.095 114.535 170.681C115.52 176.267 120.846 179.997 126.433 179.012Z" fill="#151515"/>
<path d="M76.5498 191.313C75.9092 191.56 75.3236 191.932 74.8265 192.405C74.3293 192.879 73.9303 193.446 73.6522 194.073C73.3741 194.701 73.2224 195.378 73.2058 196.064C73.1891 196.751 73.3079 197.434 73.5552 198.074C74.2002 199.744 75.1678 201.271 76.4028 202.567L76.403 202.568L76.4034 202.568C77.6385 203.864 79.117 204.904 80.7543 205.628L80.7555 205.629C82.3914 206.353 84.1538 206.748 85.9424 206.792L85.9442 206.792L85.9463 206.792C87.7349 206.834 89.5142 206.524 91.1831 205.879L91.1836 205.879C92.8533 205.234 94.3798 204.267 95.6758 203.033L95.6763 203.032L95.6773 203.031C96.9722 201.797 98.0115 200.319 98.7357 198.683C99.4616 197.045 99.8569 195.28 99.8989 193.489C99.9314 192.102 99.4119 190.76 98.4547 189.757C97.4974 188.753 96.1808 188.171 94.7945 188.139C94.108 188.123 93.4251 188.242 92.7848 188.49C92.1444 188.738 91.5592 189.109 91.0624 189.583C90.5656 190.057 90.1671 190.625 89.8895 191.253C89.612 191.881 89.4609 192.557 89.4448 193.244C89.435 193.658 89.3434 194.067 89.1753 194.446L89.1741 194.448L89.1732 194.45C89.0051 194.831 88.7635 195.175 88.4623 195.462C88.1609 195.749 87.8059 195.974 87.4175 196.123L87.4163 196.124L87.415 196.124C87.0261 196.275 86.6117 196.347 86.195 196.337C85.7787 196.327 85.3686 196.235 84.9879 196.066L84.9859 196.065L84.9843 196.065C84.6042 195.896 84.261 195.655 83.9742 195.354L83.9739 195.354L83.9736 195.354C83.6862 195.052 83.461 194.697 83.3108 194.308C83.0635 193.667 82.6925 193.082 82.2188 192.584C81.7452 192.087 81.1783 191.688 80.5505 191.41C79.9227 191.132 79.2463 190.98 78.5598 190.964C77.8734 190.947 77.1904 191.066 76.5498 191.313Z" fill="#151515"/>
</svg>
