<svg width="483" height="485" viewBox="0 0 483 485" fill="none" xmlns="http://www.w3.org/2000/svg">
<path d="M189.858 27.2428C196.73 7.73922 222.276 3.22769 235.394 19.2007L304.147 102.922C312.654 113.281 325.244 119.419 338.637 119.746L446.931 122.385C467.607 122.889 479.749 145.786 468.624 163.192L410.255 254.511C406.685 260.093 404.358 266.38 403.436 272.945C402.511 279.507 403.013 286.194 404.904 292.546L435.814 396.401C441.705 416.188 423.713 434.874 403.688 429.662L298.858 402.382C292.45 400.713 285.759 400.446 279.239 401.598C272.721 402.747 266.524 405.291 261.073 409.055L171.883 470.601C154.845 482.356 131.557 470.961 130.333 450.349L123.917 342.169C123.124 328.78 116.546 316.405 105.902 308.262L19.8657 242.445C3.46736 229.9 7.05941 204.223 26.3156 196.667L127.179 157.09C139.652 152.196 149.385 142.115 153.842 129.466L189.858 27.2428Z" fill="#FFAFF3"/>
<path d="M208.668 0.585073C196.45 2.74321 185.282 10.8682 180.658 23.9904L144.636 126.213C141.124 136.179 133.464 144.114 123.63 147.972L22.7628 187.552C-3.12036 197.709 -8.12553 233.365 13.9398 250.244L99.9761 316.055C104.119 319.221 107.531 323.244 109.979 327.853C112.427 332.46 113.853 337.542 114.161 342.752L120.574 450.929C122.219 478.683 154.54 494.47 177.445 478.67L177.445 478.668L266.642 417.121V417.119C270.936 414.154 275.819 412.149 280.954 411.243C286.092 410.336 291.364 410.547 296.412 411.863L401.244 439.138C428.161 446.144 453.143 420.233 445.211 393.588V393.59L414.304 289.737C412.814 284.736 412.42 279.473 413.146 274.302C413.873 269.134 415.706 264.185 418.519 259.791V259.789L476.894 168.468L476.891 168.468C491.864 145.047 474.988 113.257 447.198 112.58L338.898 109.945C328.342 109.688 318.433 104.856 311.732 96.6947L242.979 12.9762C234.154 2.23024 220.884 -1.57838 208.665 0.579927M211.954 19.2634C217.506 18.2827 223.57 20.2038 227.863 25.43L296.615 109.146C306.924 121.702 322.198 129.146 338.421 129.541L446.721 132.176C460.282 132.506 467.69 146.508 460.407 157.899L402.034 249.22C393.278 262.91 390.91 279.759 395.543 295.337L426.453 399.187C430.302 412.12 419.297 423.581 406.164 420.165L301.332 392.887C285.622 388.797 268.898 391.752 255.532 400.978L166.336 462.525C155.161 470.236 140.907 463.235 140.107 449.765L133.696 341.588C132.734 325.359 124.752 310.343 111.852 300.473L25.8161 234.662C15.085 226.454 17.2668 210.759 29.8967 205.801L130.764 166.22C145.876 160.29 157.686 148.063 163.088 132.731V132.73L199.11 30.5085C201.359 24.1274 206.4 20.2447 211.953 19.2639" fill="#151515"/>
<path d="M358.442 323.546C379.971 319.75 394.347 299.22 390.55 277.691C386.754 256.162 366.224 241.786 344.695 245.582C323.166 249.379 308.79 269.909 312.586 291.438C316.383 312.967 336.913 327.343 358.442 323.546Z" fill="#FF7892"/>
<path d="M179.043 355.179C200.572 351.383 214.948 330.853 211.151 309.324C207.355 287.795 186.825 273.419 165.296 277.215C143.767 281.011 129.391 301.542 133.188 323.071C136.984 344.6 157.514 358.975 179.043 355.179Z" fill="#FF7892"/>
<path d="M318.065 282.433C341.747 278.258 357.56 255.674 353.384 231.992C349.208 208.31 326.625 192.497 302.943 196.673C279.261 200.849 263.448 223.432 267.623 247.114C271.799 270.796 294.382 286.609 318.065 282.433Z" fill="#F5F8FA"/>
<path d="M202.924 302.736C226.606 298.56 242.419 275.977 238.243 252.294C234.067 228.612 211.484 212.799 187.802 216.975C164.12 221.151 148.307 243.734 152.483 267.416C156.659 291.098 179.242 306.911 202.924 302.736Z" fill="#F5F8FA"/>
<path d="M198.8 279.346C209.565 277.448 216.752 267.183 214.854 256.419C212.956 245.654 202.691 238.466 191.927 240.364C181.162 242.263 173.974 252.528 175.872 263.292C177.77 274.057 188.036 281.245 198.8 279.346Z" fill="#151515"/>
<path d="M313.94 259.044C324.705 257.146 331.893 246.881 329.994 236.116C328.096 225.352 317.831 218.164 307.067 220.062C296.302 221.96 289.114 232.225 291.012 242.99C292.911 253.754 303.176 260.942 313.94 259.044Z" fill="#151515"/>
<path d="M346.989 189.922C345.778 190.138 344.532 190.068 343.353 189.718C342.173 189.368 341.092 188.747 340.194 187.904C314.772 164.082 287.994 168.185 286.861 168.369C284.796 168.71 282.68 168.22 280.974 167.008C279.268 165.796 278.11 163.958 277.753 161.896C277.394 159.836 277.867 157.718 279.068 156.007C280.269 154.296 282.099 153.131 284.158 152.768C285.593 152.515 319.599 146.921 351.019 176.349C352.091 177.354 352.863 178.637 353.248 180.056C353.632 181.474 353.614 182.971 353.196 184.38C352.778 185.789 351.975 187.053 350.879 188.032C349.783 189.011 348.436 189.665 346.989 189.922Z" fill="#151515"/>
<path d="M139.801 225.251C141.166 225.796 142.656 225.95 144.103 225.696C145.316 225.485 146.462 224.993 147.451 224.261C148.439 223.528 149.243 222.575 149.798 221.476C165.519 190.456 192.012 185.109 193.218 184.881C194.242 184.698 195.219 184.316 196.095 183.755C196.971 183.195 197.727 182.468 198.322 181.615C198.917 180.762 199.337 179.8 199.56 178.785C199.783 177.77 199.804 176.72 199.622 175.697C199.439 174.673 199.057 173.696 198.496 172.82C197.936 171.944 197.209 171.187 196.356 170.593C195.503 169.998 194.541 169.577 193.526 169.354C192.51 169.132 191.461 169.111 190.438 169.293C189.003 169.546 155.126 175.922 135.674 214.32C135.01 215.631 134.724 217.101 134.848 218.565C134.972 220.03 135.501 221.431 136.376 222.611C137.25 223.792 138.437 224.706 139.801 225.251Z" fill="#151515"/>
<path d="M250.584 325.641L282.098 320.084" stroke="#151515" stroke-width="17" stroke-linecap="round"/>
</svg>
