<svg width="560" height="562" viewBox="0 0 560 562" fill="none" xmlns="http://www.w3.org/2000/svg">
<path d="M266.454 59.7976C276.608 41.7836 302.55 41.7767 312.695 59.785L365.866 154.173C372.444 165.852 383.777 174.083 396.909 176.731L503.1 198.135C523.375 202.221 531.356 226.879 517.378 242.089L444.038 321.884C439.553 326.761 436.17 332.55 434.122 338.854C432.071 345.156 431.404 351.829 432.164 358.412L444.57 466.057C446.936 486.566 425.972 501.845 407.156 493.235L308.656 448.165C302.636 445.409 296.092 443.984 289.471 443.986C282.853 443.986 276.308 445.415 270.287 448.175L171.764 493.299C152.943 501.916 131.988 486.651 134.362 466.139L146.829 358.488C148.372 345.165 144.044 331.836 134.975 321.969L61.6751 242.211C47.7042 227.01 55.7004 202.347 75.9761 198.249L182.18 176.788C195.313 174.134 206.649 165.897 213.234 154.214L266.454 59.7976Z" fill="#FFAFF3"/>
<path d="M289.607 36.8112C277.2 36.8148 264.79 42.877 257.958 54.9969L204.733 149.411C199.544 158.616 190.622 165.1 180.268 167.193L74.0598 188.656C46.8062 194.163 35.6854 228.409 54.4844 248.863L127.786 328.614C131.316 332.451 133.977 337.006 135.588 341.97C137.198 346.932 137.721 352.185 137.12 357.369L124.65 465.016C121.451 492.634 150.539 513.794 175.839 502.211L175.84 502.209L274.369 457.086L274.37 457.084C279.113 454.91 284.27 453.784 289.485 453.782C294.702 453.782 299.858 454.905 304.6 457.077L403.104 502.142C428.395 513.715 457.497 492.537 454.312 464.918L454.312 464.921L441.908 357.279C441.309 352.095 441.835 346.843 443.449 341.877C445.062 336.914 447.726 332.358 451.26 328.52L451.26 328.517L524.606 248.721L524.603 248.72C543.416 228.255 532.316 194.017 505.065 188.524L398.869 167.124C388.517 165.038 379.598 158.558 374.416 149.357L321.245 54.972C314.42 42.8569 302.013 36.8019 289.605 36.8055M289.6 55.7763C295.238 55.7747 300.876 58.7195 304.196 64.6118L357.366 158.995C365.339 173.15 379.088 183.134 394.996 186.34L501.193 207.741C514.491 210.42 519.355 225.496 510.204 235.449L436.861 315.247C425.86 327.208 420.602 343.39 422.461 359.535L434.867 467.175C436.412 480.58 423.584 489.956 411.244 484.311L312.74 439.244C297.98 432.488 280.996 432.494 266.232 439.259L167.704 484.382C155.359 490.036 142.537 480.666 144.089 467.262L156.559 359.614C158.43 343.465 153.178 327.291 142.187 315.331L68.8861 235.58C59.7435 225.633 64.6176 210.555 77.9165 207.866L184.124 186.402C200.037 183.186 213.79 173.195 221.773 159.035L221.773 159.034L274.998 64.6202C278.321 58.7266 283.96 55.7783 289.598 55.7766" fill="#151515"/>
<path d="M222.208 333.311C236.096 333.306 247.357 322.03 247.361 308.124C247.365 294.215 236.096 312.996 222.208 313C208.321 313.004 197.075 294.232 197.071 308.138C197.067 322.044 208.321 333.317 222.208 333.311Z" fill="#151515"/>
<path d="M357.502 333.39C371.511 333.388 382.874 322.009 382.876 307.978C382.881 293.948 371.515 312.996 357.502 313C343.493 313.004 332.143 293.962 332.137 307.993C332.135 322.025 343.49 333.395 357.502 333.39Z" fill="#151515"/>
<path d="M268.443 365.207L310.443 365.207" stroke="#151515" stroke-width="16" stroke-linecap="round"/>
<path d="M228.943 226.207C221.443 246.707 201.943 259.707 179.443 259.707" stroke="#151515" stroke-width="14" stroke-linecap="round"/>
<path d="M348.443 226.207C356.474 246.401 377.352 259.207 401.443 259.207" stroke="#151515" stroke-width="14" stroke-linecap="round"/>
</svg>
