<svg width="2000" height="1915" viewBox="0 0 2000 1915" fill="none" xmlns="http://www.w3.org/2000/svg">
<path d="M905.504 95.13C946.987 21.6234 1053.01 21.6233 1094.5 95.1299L1311.92 480.401C1338.82 528.073 1385.15 561.679 1438.82 572.496L1872.87 659.967C1955.74 676.666 1988.39 777.311 1931.27 839.366L1631.6 1164.95C1594.52 1205.23 1576.82 1259.64 1583.11 1314.01L1633.94 1753.34C1643.63 1837.05 1557.96 1899.38 1481.05 1864.22L1078.41 1680.17C1028.62 1657.4 971.38 1657.4 921.587 1680.17L518.953 1864.22C442.038 1899.38 356.369 1837.05 366.055 1753.34L416.892 1314.01C423.184 1259.64 405.479 1205.23 368.404 1164.95L68.7254 839.366C11.607 777.311 44.2619 676.666 127.128 659.967L561.181 572.496C614.854 561.679 661.18 528.073 688.082 480.401L905.504 95.13Z" fill="#ffaff3" stroke="#151515" stroke-width="80"/>
<path d="M1076.35 1148.73C1074.69 1157.01 1071.41 1164.87 1066.7 1171.88C1062 1178.89 1055.96 1184.9 1048.93 1189.58C1041.9 1194.25 1034.01 1197.5 1025.73 1199.12C1017.45 1200.75 1008.92 1200.73 1000.65 1199.07C992.371 1197.4 984.504 1194.12 977.496 1189.41C970.487 1184.71 964.474 1178.67 959.8 1171.64C955.126 1164.61 951.882 1156.73 950.254 1148.44" stroke="#151515" stroke-width="80" stroke-linecap="round"/>
<path d="M1400 935.714L1314.29 985.714L1400 1035.71" stroke="#151515" stroke-width="80" stroke-linecap="round" stroke-linejoin="round"/>
<path d="M621.428 1035.71L707.143 985.714L621.428 935.714" stroke="#151515" stroke-width="80" stroke-linecap="round" stroke-linejoin="round"/>
</svg>
