<svg xmlns="http://www.w3.org/2000/svg" width="2000" height="1915" fill="none"><path fill="#ffaff3" stroke="#151515" stroke-width="80" d="M905.504 95.13c41.483-73.507 147.506-73.507 188.996 0l217.42 385.27c26.9 47.672 73.23 81.278 126.9 92.095l434.05 87.471c82.87 16.699 115.52 117.344 58.4 179.399L1631.6 1164.95a188.151 188.151 0 0 0-48.49 149.06l50.83 439.33c9.69 83.71-75.98 146.04-152.89 110.88l-402.64-184.05a188.552 188.552 0 0 0-156.823 0l-402.634 184.05c-76.915 35.16-162.584-27.17-152.898-110.88l50.837-439.33c6.292-54.37-11.413-108.78-48.488-149.06L68.725 839.366c-57.118-62.055-24.463-162.7 58.403-179.399l434.053-87.471c53.673-10.817 99.999-44.423 126.901-92.095L905.504 95.13Z"/><path stroke="#151515" stroke-linecap="round" stroke-width="80" d="M718.958 957.43a64.28 64.28 0 0 1-27.428 40.848 64.18 64.18 0 0 1-23.196 9.542 64.361 64.361 0 0 1-25.083-.05 64.305 64.305 0 0 1-40.848-27.432 64.307 64.307 0 0 1-9.546-23.195m462.073 191.587a64.439 64.439 0 0 1-9.65 23.15 64.425 64.425 0 0 1-17.78 17.7 64.18 64.18 0 0 1-23.2 9.54 64.346 64.346 0 0 1-25.08-.05 64.312 64.312 0 0 1-23.152-9.66 64.172 64.172 0 0 1-17.696-17.77 64.262 64.262 0 0 1-9.546-23.2m454.414-191.01a64.117 64.117 0 0 1-9.65 23.152 64.208 64.208 0 0 1-17.78 17.696 64.174 64.174 0 0 1-23.19 9.542 64.346 64.346 0 0 1-25.08-.05 64.407 64.407 0 0 1-23.16-9.655 64.324 64.324 0 0 1-17.69-17.777 64.226 64.226 0 0 1-9.55-23.195"/></svg>