<?xml version="1.0" encoding="UTF-8" standalone="no"?>
<!DOCTYPE svg PUBLIC "-//W3C//DTD SVG 1.1//EN" "http://www.w3.org/Graphics/SVG/1.1/DTD/svg11.dtd">
<!-- Created with Vectornator (http://vectornator.io/) -->
<svg height="100%" stroke-miterlimit="10" style="fill-rule:nonzero;clip-rule:evenodd;stroke-linecap:round;stroke-linejoin:round;" version="1.1" viewBox="0 0 2105 2016" width="100%" xml:space="preserve" xmlns="http://www.w3.org/2000/svg" xmlns:vectornator="http://vectornator.io" xmlns:xlink="http://www.w3.org/1999/xlink">
<defs/>
<g id="Untitled" vectornator:layerName="Untitled">
<path d="M1791.69 824.988C1777.1 847.768 1797.7 1472.6 1797.7 1472.6C1787.98 1555.35 1607.12 1807.14 1050.43 1809.44C515.578 1811.65 309.148 1547.52 311.25 1464.45L313.542 832.671C303.035 824.646 205.538 681.725 205.538 681.725L340.912 515.806L491.524 595.191L678.719 461.631L671.727 270.834L859.396 212.549L950.506 359.684L1156.25 363.346L1245.58 206.544L1435.28 267.673L1435.28 458.571L1612.28 590.537L1759.43 509.946L1899.46 682.172L1791.69 824.988Z" fill="#ffaff3" fill-rule="nonzero" opacity="1" stroke="none" vectornator:layerName="path"/>
<path d="M1791.69 824.988C1777.1 847.768 1797.7 1472.6 1797.7 1472.6C1797.38 1639.75 1607.12 1807.14 1050.43 1809.44C515.578 1811.65 311.396 1616.52 311.25 1464.45L313.542 832.671C303.035 824.646 205.538 681.725 205.538 681.725L340.912 515.806L491.524 595.191L678.719 461.631L671.727 270.834L859.396 212.549L950.506 359.684L1156.25 363.346L1245.58 206.544L1435.28 267.673L1435.28 458.571L1612.28 590.537L1759.43 509.946L1899.46 682.172L1791.69 824.988Z" fill="none" opacity="1" stroke="#000000" stroke-linecap="butt" stroke-linejoin="round" stroke-width="60" vectornator:layerName="path 2"/>
<path d="M677.819 1265.75C724.106 1257.58 755.014 1213.45 746.854 1167.17C738.694 1120.88 694.557 1089.98 648.27 1098.14C601.983 1106.31 571.075 1150.45 579.235 1196.73C587.395 1243.01 631.533 1273.92 677.819 1265.75Z" fill="#151515" fill-rule="nonzero" opacity="1" stroke="none" vectornator:layerName="path"/>
<path d="M1450.05 1265.75C1496.34 1257.58 1527.25 1213.45 1519.09 1167.17C1510.93 1120.88 1466.79 1089.98 1420.5 1098.14C1374.22 1106.31 1343.31 1150.45 1351.47 1196.73C1359.63 1243.01 1403.77 1273.92 1450.05 1265.75Z" fill="#151515" fill-rule="nonzero" opacity="1" stroke="none" vectornator:layerName="path 1"/>
<path d="M966.406 1307.96C960.265 1309.14 954.415 1311.51 949.184 1314.95C943.965 1318.38 939.46 1322.82 935.959 1327.99C932.444 1333.18 929.989 1338.99 928.724 1345.11C927.459 1351.23 927.417 1357.56 928.593 1363.7C931.674 1379.7 937.868 1394.96 946.837 1408.58L946.837 1408.58C955.806 1422.21 967.371 1433.92 980.877 1443.06L980.886 1443.08C994.368 1452.22 1009.52 1458.61 1025.49 1461.9L1025.5 1461.9L1025.52 1461.91C1041.48 1465.18 1057.93 1465.29 1073.94 1462.22L1073.95 1462.22C1089.95 1459.15 1105.21 1452.96 1118.82 1443.99L1118.83 1443.99L1118.83 1443.98C1132.44 1435.02 1144.16 1423.45 1153.3 1409.97C1162.47 1396.47 1168.87 1381.28 1172.15 1365.3C1174.69 1352.93 1172.21 1340.06 1165.26 1329.51C1158.3 1318.97 1147.45 1311.63 1135.07 1309.08C1128.95 1307.82 1122.64 1307.79 1116.49 1308.97C1110.35 1310.15 1104.5 1312.53 1099.28 1315.98C1094.06 1319.41 1089.57 1323.85 1086.06 1329.04C1082.56 1334.21 1080.11 1340.04 1078.85 1346.16C1078.09 1349.86 1076.6 1353.38 1074.48 1356.5L1074.48 1356.51L1074.46 1356.53C1072.33 1359.67 1069.61 1362.36 1066.45 1364.45C1063.27 1366.54 1059.73 1367.98 1056.01 1368.68L1055.99 1368.69C1052.25 1369.41 1048.42 1369.38 1044.7 1368.62C1040.99 1367.85 1037.46 1366.36 1034.33 1364.23L1034.3 1364.22L1034.29 1364.21C1031.16 1362.08 1028.48 1359.37 1026.39 1356.21L1026.39 1356.2L1026.39 1356.2C1024.3 1353.03 1022.86 1349.49 1022.15 1345.75C1020.97 1339.61 1018.59 1333.76 1015.16 1328.54C1011.71 1323.32 1007.29 1318.82 1002.1 1315.31C996.927 1311.8 991.104 1309.34 984.981 1308.08C978.858 1306.81 972.55 1306.77 966.406 1307.96Z" fill="#151515" fill-rule="nonzero" opacity="1" stroke="none" vectornator:layerName="path"/>
</g>
</svg>
