<?xml version="1.0" encoding="UTF-8" standalone="no"?>
<!DOCTYPE svg PUBLIC "-//W3C//DTD SVG 1.1//EN" "http://www.w3.org/Graphics/SVG/1.1/DTD/svg11.dtd">
<svg height="100%" stroke-miterlimit="10" style="fill-rule:nonzero;clip-rule:evenodd;stroke-linecap:round;stroke-linejoin:round;" version="1.1" viewBox="0 0 2105 2016" width="100%" xml:space="preserve" xmlns="http://www.w3.org/2000/svg" xmlns:xlink="http://www.w3.org/1999/xlink">
<defs/>
<g id="Untitled">
<g opacity="1">
<path d="M898.693 1371.69L1836.38 1365.69L1731.62 1553.97L1480.09 1554.89L1606.4 1771.76L1553.44 1864.79L1443.99 1865.61L1264.36 1556.83L1008.49 1557.96L898.693 1371.69Z" fill="#ffaff3" fill-rule="evenodd" opacity="1" stroke="#151515" stroke-linecap="round" stroke-linejoin="round" stroke-width="40"/>
<path d="M664.008 1063.83L1138.04 1872.9L922.61 1876.31L796.046 1658.94L671.391 1876.76L564.344 1877.41L508.908 1783.04L686.506 1473.08L557.593 1252.06L664.008 1063.83Z" fill="#ffaff3" fill-rule="evenodd" opacity="1" stroke="#151515" stroke-linecap="round" stroke-linejoin="round" stroke-width="40"/>
<path d="M816.394 695.417L352.741 1510.47L242.073 1325.61L367.039 1107.32L116.072 1108.27L61.9884 1015.89L115.995 920.699L473.222 919.527L600.179 697.373L816.394 695.417Z" fill="#ffaff3" fill-rule="evenodd" opacity="1" stroke="#151515" stroke-linecap="round" stroke-linejoin="round" stroke-width="40"/>
<path d="M1442.15 949.128L968.116 140.064L1183.55 136.655L1310.11 354.025L1434.77 136.203L1541.81 135.556L1597.25 229.923L1419.65 539.877L1548.56 760.902L1442.15 949.128Z" fill="#ffaff3" fill-rule="evenodd" opacity="1" stroke="#151515" stroke-linecap="round" stroke-linejoin="round" stroke-width="40"/>
<path d="M1198.89 641.883L261.203 647.876L365.966 459.603L617.497 458.68L491.184 241.814L544.147 148.785L653.59 147.96L833.219 456.741L1089.09 455.612L1198.89 641.883Z" fill="#ffaff3" fill-rule="evenodd" opacity="1" stroke="#151515" stroke-linecap="round" stroke-linejoin="round" stroke-width="40"/>
<path d="M1288.61 1320.46L1752.26 505.406L1862.93 690.271L1737.96 908.564L1988.93 907.607L2043.01 999.989L1989.01 1095.18L1631.78 1096.35L1504.82 1318.51L1288.61 1320.46Z" fill="#ffaff3" fill-rule="evenodd" opacity="1" stroke="#151515" stroke-linecap="round" stroke-linejoin="round" stroke-width="40"/>
</g>
<path d="M692.016 1007.4L871.785 696.037L1231.32 696.037L1411.09 1007.4L1231.32 1318.77L871.785 1318.77L692.016 1007.4Z" fill="#ffaff3" fill-rule="nonzero" opacity="1" stroke="#151515" stroke-linecap="round" stroke-linejoin="round" stroke-width="40"/>
<path d="M1015.77 1030.87C1013.16 1031.38 1010.68 1032.4 1008.47 1033.87C1006.26 1035.34 1004.35 1037.23 1002.87 1039.43C1001.39 1041.64 1000.36 1044.12 999.834 1046.72C999.308 1049.32 999.302 1052.01 999.813 1054.61C1001.15 1061.41 1003.81 1067.88 1007.65 1073.65L1007.65 1073.65C1011.48 1079.42 1016.42 1084.37 1022.17 1088.23L1022.18 1088.24C1027.92 1092.09 1034.37 1094.78 1041.16 1096.15L1041.16 1096.15L1041.17 1096.15C1047.96 1097.51 1054.95 1097.53 1061.74 1096.19L1061.74 1096.19C1068.54 1094.86 1075.01 1092.2 1080.77 1088.36L1080.78 1088.36L1080.78 1088.36C1086.54 1084.53 1091.49 1079.59 1095.35 1073.85C1099.22 1068.1 1101.91 1061.63 1103.28 1054.84C1104.33 1049.58 1103.26 1044.12 1100.28 1039.65C1097.31 1035.18 1092.68 1032.08 1087.42 1031.03C1084.82 1030.5 1082.14 1030.5 1079.53 1031.01C1076.92 1031.53 1074.44 1032.55 1072.23 1034.02C1070.02 1035.49 1068.12 1037.39 1066.64 1039.6C1065.16 1041.8 1064.13 1044.28 1063.61 1046.88C1063.29 1048.45 1062.67 1049.95 1061.77 1051.28L1061.77 1051.29L1061.76 1051.3C1060.86 1052.63 1059.71 1053.78 1058.37 1054.67C1057.03 1055.57 1055.53 1056.19 1053.95 1056.49L1053.94 1056.5C1052.35 1056.81 1050.73 1056.8 1049.14 1056.49C1047.57 1056.17 1046.07 1055.54 1044.73 1054.64L1044.72 1054.64L1044.71 1054.63C1043.38 1053.74 1042.24 1052.59 1041.34 1051.25L1041.34 1051.24L1041.34 1051.24C1040.45 1049.9 1039.83 1048.4 1039.52 1046.82C1039.01 1044.21 1037.99 1041.73 1036.52 1039.52C1035.04 1037.31 1033.16 1035.4 1030.95 1033.92C1028.74 1032.44 1026.27 1031.41 1023.66 1030.88C1021.06 1030.36 1018.38 1030.35 1015.77 1030.87Z" fill="#151515" fill-rule="nonzero" opacity="1" stroke="none"/>
<path d="M1234.46 1051.52C1255.27 1047.85 1269.16 1028.02 1265.49 1007.21C1261.82 986.408 1241.98 972.521 1221.18 976.189C1200.37 979.858 1186.48 999.698 1190.15 1020.5C1193.82 1041.3 1213.66 1055.19 1234.46 1051.52Z" fill="#151515" fill-rule="nonzero" opacity="1" stroke="none"/>
<path d="M880.036 1051.52C900.841 1047.85 914.734 1028.02 911.066 1007.21C907.398 986.408 887.559 972.521 866.754 976.189C845.949 979.858 832.057 999.698 835.724 1020.5C839.392 1041.3 859.231 1055.19 880.036 1051.52Z" fill="#151515" fill-rule="nonzero" opacity="1" stroke="none"/>
</g>
</svg>
