<svg width="2796" height="2254" viewBox="0 0 2796 2254" fill="none" xmlns="http://www.w3.org/2000/svg">
<path d="M1152.07 221.385C1203.46 154.434 1308.44 169.328 1339.18 247.933L1500.33 659.926C1520.27 710.903 1561.41 750.684 1613.04 768.933L2030.5 916.509C2110.2 944.683 2128.39 1048.92 2063.12 1102.33L1720.68 1382.59C1678.31 1417.26 1653.14 1468.65 1651.73 1523.36L1640.35 1965.48C1638.18 2049.71 1544.61 2099.39 1473.4 2053.78L1100.61 1814.99C1054.51 1785.46 997.833 1777.42 945.336 1792.96L520.841 1918.63C439.749 1942.64 363.686 1868.89 385.033 1787.38L497.08 1359.54C510.948 1306.59 501.061 1250.24 470.012 1205.15L219.04 840.698C171.205 771.234 217.674 676.174 302.064 671.281L744.1 645.649C798.761 642.48 849.348 615.714 882.68 572.294L1152.07 221.385Z" fill="#ffaff3" stroke="#151515" stroke-width="80"/>
<ellipse cx="799.271" cy="1092.48" rx="78.5714" ry="78.5714" transform="rotate(8.07516 799.271 1092.48)" fill="#151515"/>
<ellipse cx="1435.75" cy="1182.78" rx="78.5714" ry="78.5714" transform="rotate(8.07516 1435.75 1182.78)" fill="#151515"/>
<path d="M1159.08 1286.53C1156.27 1294.49 1151.91 1301.82 1146.27 1308.1C1140.63 1314.38 1133.8 1319.48 1126.18 1323.12C1118.57 1326.76 1110.31 1328.87 1101.88 1329.31C1093.45 1329.76 1085.01 1328.55 1077.05 1325.73C1069.09 1322.92 1061.76 1318.57 1055.48 1312.93C1049.21 1307.28 1044.1 1300.46 1040.46 1292.84C1036.82 1285.22 1034.72 1276.96 1034.27 1268.53" stroke="#151515" stroke-width="80" stroke-linecap="round"/>
<path d="M2646.23 1059.81L1866.52 651.839L2029.56 1045.69L2091.39 1195.07L2248.02 1156.89L2646.23 1059.81Z" fill="#F2FFFE"/>
<path d="M2401.03 1530.68L2646.23 1059.81L2248.02 1156.89L2091.39 1195.07L2029.56 1045.69L1866.52 651.839L1594.08 1124.51L2401.03 1530.68Z" fill="#BDF3FF"/>
<path d="M1882.17 652.127L2637.07 1047.12C2641.97 1049.68 2643.86 1055.72 2641.3 1060.61L2400.23 1521.35C2397.67 1526.25 2391.62 1528.14 2386.73 1525.58L1631.82 1130.59C1626.93 1128.03 1625.04 1121.99 1627.6 1117.09L1868.67 656.351C1871.23 651.458 1877.27 649.566 1882.17 652.127Z" stroke="#151515" stroke-width="80" stroke-linejoin="round"/>
</svg>
