<svg width="2821" height="2320" viewBox="0 0 2821 2320" fill="none" xmlns="http://www.w3.org/2000/svg">
<path d="M1391.62 307.436C1417.91 227.233 1521.89 206.489 1576.95 270.458L1865.55 605.743C1901.26 647.23 1953.27 671.123 2008.02 671.229L2450.8 672.085C2535.33 672.248 2587.05 764.558 2543.18 836.59L2312.99 1214.51C2284.51 1261.27 2277.8 1318.09 2294.6 1370.18L2430.42 1791.08C2456.29 1871.27 2384.47 1949.15 2302.17 1929.72L1871.3 1828.01C1818.02 1815.43 1761.89 1826.63 1717.51 1858.69L1358.67 2117.96C1290.12 2167.49 1193.91 2123.13 1187.03 2039.15L1150.93 1598.36C1146.46 1543.8 1118.45 1493.91 1074.21 1461.66L716.624 1201.01C648.468 1151.33 660.8 1046.24 738.797 1013.65L1147.35 842.944C1197.87 821.835 1236.72 779.814 1253.78 727.8L1391.62 307.436Z" fill="#ffaff3" stroke="#151515" stroke-width="80"/>
<ellipse cx="1249.43" cy="1279.2" rx="78.5714" ry="78.5714" transform="rotate(-11.283 1249.43 1279.2)" fill="#151515"/>
<ellipse cx="1879.86" cy="1153.43" rx="78.5714" ry="78.5714" transform="rotate(-11.283 1879.86 1153.43)" fill="#151515"/>
<path d="M1539.16 1414.88L1662.77 1390.22" stroke="#151515" stroke-width="80" stroke-linecap="round"/>
<path fill-rule="evenodd" clip-rule="evenodd" d="M1206.16 1532.78C1198.27 1499.12 1168.24 1475.32 1133.66 1475.32H113.508C64.4393 1475.32 28.784 1521.95 41.6453 1569.31L219.629 2224.61C228.438 2257.04 257.882 2279.55 291.491 2279.55L1411.29 2279.55L1278.86 1842.69L1206.16 1532.78Z" fill="#FFF2F8"/>
<path d="M1411.29 2279.55L1664.08 1964.31C1703.86 1915.69 1669.27 1842.69 1606.45 1842.69H1278.86L1411.29 2279.55Z" fill="#F8B8E6"/>
<path d="M1408.1 2279.55V2319.55C1420.09 2319.55 1431.46 2314.17 1439.06 2304.88L1408.1 2279.55ZM1305.62 1842.69L1266.87 1852.62L1274.58 1882.69H1305.62V1842.69ZM1666.03 1964.31L1635.07 1938.98H1635.07L1666.03 1964.31ZM221.573 2224.61L182.971 2235.09L221.573 2224.61ZM43.5897 1569.31L82.1912 1558.82L43.5897 1569.31ZM1226.2 1532.78L1187.26 1541.92C1187.32 1542.18 1187.39 1542.45 1187.45 1542.71L1226.2 1532.78ZM1146.98 1435.32H115.452V1515.32H1146.98V1435.32ZM4.98814 1579.79L182.971 2235.09L260.174 2214.12L82.1912 1558.82L4.98814 1579.79ZM293.435 2319.55H1408.1V2239.55H293.435V2319.55ZM1439.06 2304.88L1696.98 1989.64L1635.07 1938.98L1377.14 2254.22L1439.06 2304.88ZM1344.37 1832.76L1264.95 1522.85L1187.45 1542.71L1266.87 1852.62L1344.37 1832.76ZM1608.39 1802.69H1305.62V1882.69H1608.39V1802.69ZM1696.98 1989.64C1758.13 1914.9 1704.96 1802.69 1608.39 1802.69V1882.69C1637.47 1882.69 1653.48 1916.47 1635.07 1938.98L1696.98 1989.64ZM182.971 2235.09C196.513 2284.95 241.773 2319.55 293.435 2319.55V2239.55C277.879 2239.55 264.252 2229.13 260.174 2214.12L182.971 2235.09ZM115.452 1435.32C40.026 1435.32 -14.7818 1507 4.98814 1579.79L82.1912 1558.82C76.2384 1536.9 92.7412 1515.32 115.452 1515.32V1435.32ZM1146.98 1515.32C1167.14 1515.32 1184.49 1530.1 1187.26 1541.92L1265.14 1523.65C1252.12 1468.14 1195.96 1435.32 1146.98 1435.32V1515.32Z" fill="#151515"/>
</svg>
