<svg version="1.2" xmlns="http://www.w3.org/2000/svg" viewBox="0 0 2105 2016" width="2105" height="2016"><style>.a{fill:#fbf1ff}.b{fill:#fd8ba8}.c{fill:#151515}</style><path class="a" d="m213 549l58-2 1696 354 28 30-138 160-248 210-88 74-14 126-1130-218-4-124-64-174-112-144-28-112-38-90 14-76z"/><path class="b" d="m207 553l1764 354-48-102-448-182-233-553-81-12-159 123-144 204-183 117-390-6zm189 717l1102 216 8 364-90 100-176-90-342-204-512 114-108-48-4-96z"/><path fill-rule="evenodd" class="c" d="m1186.1 20.4c50 8.8 95.6 41.9 114.5 95.5l147.2 417.2c14.4 40.6 45.7 73 85.9 88.8l412.3 161.5c105.8 41.4 126.2 186.9 36 255.8l-351.6 268.6c-17 12.9-30.9 29.4-40.9 48.2-10 18.8-15.9 39.5-17.1 60.8l-26.3 441.5c-6.7 113.2-138.8 177.7-232.4 113.2l-364.6-251.2c-17.5-12.1-37.5-20.3-58.5-24-21-3.7-42.5-2.8-63.1 2.5l-428.5 111.4c-110 28.6-212.2-77.2-179.7-185.9l126.3-423.8c6.1-20.5 7.7-41.9 4.7-63-2.9-21.1-10.4-41.3-21.9-59.3l-238.6-372.6c-61.2-95.6 7.8-225.4 121.4-228.1l442.6-10.8c43.2-1 83.7-20.8 111.1-54.1l281-341.6c36.1-43.9 90.3-59.4 140.2-50.6zm-13.4 76.2c-22.7-4-47.5 3.9-65 25.2l-281 341.6c-42.2 51.3-104.6 81.7-170.9 83.3l-442.7 10.8c-55.4 1.3-85.7 58.4-55.9 104.9l238.6 372.7c35.7 55.9 45.4 124.6 26.5 188.2l-126.4 423.9c-15.7 52.7 29.3 99.5 82.9 85.6l428.5-111.4c64.2-16.7 132.6-4.6 187.2 33l364.6 251.2c45.7 31.5 103.9 2.9 107.2-52.1l26.2-441.5c3.9-66.2 36.6-127.5 89.3-167.8l351.7-268.6c43.8-33.5 34.9-97.5-16.7-117.7l-412.3-161.6c-61.8-24.2-110-74.1-132.1-136.6l-147.2-417.2c-9.2-26-29.8-41.9-52.5-45.9z"/><path class="c" d="m1069.4 1125c9.8 3.8 17.8 11.4 22.1 21.1 4.3 9.7 4.6 20.7 0.8 30.6-5 12.8-12.4 24.4-21.8 34.3-9.5 10-20.8 17.9-33.3 23.5-12.5 5.5-26 8.5-39.7 8.9-13.7 0.3-27.3-2.1-40.1-7-12.8-4.9-24.4-12.3-34.4-21.8-9.9-9.4-17.8-20.8-23.4-33.3-5.5-12.5-8.6-26-8.9-39.7-0.2-10.6 3.8-20.9 11.1-28.6 7.3-7.6 17.4-12.1 28-12.3 5.2-0.2 10.5 0.8 15.4 2.6 4.9 2 9.3 4.8 13.1 8.4 3.8 3.6 6.9 8 9 12.8 2.1 4.8 3.3 10 3.4 15.2 0.1 3.2 0.8 6.3 2.1 9.2v0.1c1.3 2.9 3.1 5.5 5.4 7.7 2.3 2.2 5 3.9 8 5.1 3 1.1 6.2 1.7 9.4 1.6 3.1-0.1 6.3-0.8 9.2-2.1 2.9-1.3 5.6-3.1 7.8-5.4 2.2-2.4 3.9-5.1 5-8 3.9-9.9 11.4-17.9 21.1-22.2 9.7-4.3 20.8-4.6 30.7-0.7zm347.9-155.1c7.9 0.3 15.5 3 21.9 7.6 6.4 4.7 11.3 11.1 14 18.5 1.9 5 2.7 10.2 2.5 15.4-0.2 5.3-1.5 10.5-3.7 15.2-2.2 4.8-5.3 9.1-9.1 12.6-3.9 3.6-8.4 6.4-13.3 8.2l-28.8 10.6 23.4 19.8c8.1 6.9 13.1 16.7 14 27.2 0.9 10.6-2.5 21.1-9.3 29.2-6.9 8.1-16.7 13.1-27.2 14-10.6 0.9-21.1-2.5-29.2-9.3l-75.7-64.1c-5.4-4.6-9.4-10.4-11.8-17-2.4-6.6-3-13.6-1.8-20.5 1.2-6.9 4.2-13.3 8.7-18.7 4.5-5.4 10.3-9.5 16.9-11.9l93.1-34.4c4.9-1.8 10.1-2.6 15.4-2.4zm-756.1-133.3c5 1.6 9.6 4.2 13.6 7.6l75.7 64.1c5.4 4.5 9.4 10.3 11.8 16.9 2.4 6.6 3 13.7 1.8 20.5-1.2 6.9-4.2 13.4-8.7 18.7-4.5 5.4-10.3 9.5-16.9 11.9l-93 34.4c-10 3.7-21 3.2-30.6-1.2-9.7-4.5-17.1-12.5-20.8-22.5-1.8-4.9-2.7-10.2-2.5-15.4 0.2-5.3 1.5-10.4 3.7-15.2 2.2-4.8 5.3-9.1 9.2-12.6 3.8-3.6 8.3-6.4 13.3-8.2l28.7-10.6-23.4-19.8c-4-3.4-7.3-7.5-9.7-12.2-2.4-4.7-3.9-9.8-4.3-15-0.4-5.3 0.2-10.5 1.8-15.5 1.6-5 4.2-9.7 7.6-13.7 5.1-6 11.8-10.4 19.5-12.6 7.6-2.2 15.6-2 23.2 0.4z"/></svg>