<svg xmlns="http://www.w3.org/2000/svg" viewBox="0 0 2000 1915"><path fill="#ffaff3" d="M905.5 95.13c41.483-73.507 147.51-73.507 189 0l217.42 385.27c26.9 47.672 73.23 81.278 126.9 92.095l434.05 87.471c82.87 16.699 115.52 117.34 58.4 179.4l-299.67 325.58a188.15 188.15 0 0 0-48.49 149.06l50.83 439.33c9.69 83.71-75.98 146.04-152.89 110.88l-402.64-184.05a188.55 188.55 0 0 0-156.82 0l-402.63 184.05c-76.915 35.16-162.58-27.17-152.9-110.88l50.837-439.33c6.292-54.37-11.413-108.78-48.488-149.06l-299.68-325.58c-57.118-62.055-24.463-162.7 58.403-179.4l434.05-87.471c53.673-10.817 99.999-44.423 126.9-92.095z"/><path fill="#151515" d="M1000 1.287c-50.71 0-101.42 24.727-129.33 74.184l-217.42 385.27c-21.197 37.562-57.653 64.015-99.967 72.543l-434.05 87.47c-111.38 22.446-156.79 162.2-79.932 245.7l299.68 325.58a148.08 148.08 0 0 1 38.183 117.37l-50.836 439.33c-13.042 112.71 105.88 199.12 209.26 151.86l402.64-184.05.002-.002a148.48 148.48 0 0 1 123.55 0l.002.002 402.64 184.05c103.38 47.263 222.3-39.144 209.25-151.86l.002.002-50.83-439.33v-.002a148.07 148.07 0 0 1 38.181-117.37l.002-.004 299.67-325.59v-.002c76.858-83.5 31.455-223.25-79.93-245.7l-434.05-87.47c-42.311-8.527-78.773-34.981-99.967-72.54l-217.42-385.28c-27.914-49.455-78.626-74.182-129.34-74.182m.002 77.426c23.044 0 46.09 12.026 59.666 36.078l217.42 385.27c32.606 57.784 88.805 98.544 153.83 111.65l434.05 87.47c54.356 10.954 74.253 72.488 36.872 113.1l-299.67 325.59c-44.938 48.81-66.415 114.84-58.793 180.74l50.83 439.33v.001c6.333 54.706-46.086 92.96-96.523 69.903h-.002l-402.64-184.05c-60.336-27.588-129.75-27.588-190.09.002l-402.63 184.05h-.002c-50.444 23.06-102.86-15.196-96.533-69.902l50.838-439.33c7.627-65.91-13.86-131.93-58.793-180.75l-299.68-325.58c-37.378-40.609-17.476-102.14 36.874-113.1l434.06-87.473c65.031-13.106 121.23-53.865 153.83-111.65v-.002l217.42-385.27c13.573-24.05 36.616-36.076 59.66-36.076"/><path fill="#151515" d="M585.14 917.895a40 40 0 0 0-31.53 46.964 104.3 104.3 0 0 0 15.482 37.623l.002.002v.002a104.36 104.36 0 0 0 66.258 44.496l.013.002.014.004a104.4 104.4 0 0 0 40.65.084l.008-.002a104.2 104.2 0 0 0 37.639-15.482l.002-.002a104.34 104.34 0 0 0 44.494-66.266 40 40 0 0 0-31.322-47.103 40 40 0 0 0-47.106 31.322 24.23 24.23 0 0 1-10.36 15.43l-.003.002-.004.002a24.2 24.2 0 0 1-8.738 3.593l-.01.002-.012.004a24.25 24.25 0 0 1-24.904-10.379l-.002-.004a24.3 24.3 0 0 1-3.606-8.763 40 40 0 0 0-46.964-31.531m664.288 0a40 40 0 0 0-31.537 46.96 104.2 104.2 0 0 0 15.49 37.63l.004.005.004.006a104.3 104.3 0 0 0 28.681 28.82l.012.006.01.008a104.4 104.4 0 0 0 37.543 15.65l.015.004.016.004a104.4 104.4 0 0 0 40.668.08h.004a104.2 104.2 0 0 0 37.621-15.482 104.2 104.2 0 0 0 28.828-28.69l.002-.001a104.1 104.1 0 0 0 15.67-37.594 40 40 0 0 0-31.35-47.09 40 40 0 0 0-47.088 31.35 24.1 24.1 0 0 1-3.628 8.707l-.008.011-.006.01a24.2 24.2 0 0 1-6.705 6.672l-.01.006-.008.008a24.2 24.2 0 0 1-8.736 3.593l-.008.002-.01.002a24.3 24.3 0 0 1-9.47-.017 24.4 24.4 0 0 1-8.75-3.647 24.3 24.3 0 0 1-6.682-6.717l-.004-.005-.004-.006a24.2 24.2 0 0 1-3.603-8.75 40 40 0 0 0-46.961-31.535M921.12 1109.189a40 40 0 0 0-31.543 46.957 104.3 104.3 0 0 0 15.485 37.637l.001.002.002.004a104.2 104.2 0 0 0 28.721 28.838l.002.002a104.3 104.3 0 0 0 37.525 15.652l.018.002.016.004a104.4 104.4 0 0 0 40.644.086 104.2 104.2 0 0 0 37.658-15.484l.006-.004.006-.004a104.4 104.4 0 0 0 28.82-28.69l.01-.015.01-.016a104.4 104.4 0 0 0 15.64-37.52 40 40 0 0 0-31.298-47.12 40 40 0 0 0-47.121 31.298 24.4 24.4 0 0 1-3.649 8.76 24.4 24.4 0 0 1-6.726 6.697 24.2 24.2 0 0 1-8.735 3.59l-.013.004-.016.002a24.3 24.3 0 0 1-9.467-.016 24.3 24.3 0 0 1-8.74-3.648l-.014-.008-.011-.008a24.2 24.2 0 0 1-6.666-6.693l-.002-.004-.002-.002a24.3 24.3 0 0 1-3.604-8.76 40 40 0 0 0-46.957-31.543"/></svg>