<svg width="492" height="471" viewBox="0 0 492 471" fill="none" xmlns="http://www.w3.org/2000/svg">
<path d="M222.454 23.7976C232.608 5.78362 258.55 5.77669 268.695 23.785L321.866 118.173C328.444 129.852 339.777 138.083 352.909 140.731L459.1 162.135C479.375 166.221 487.356 190.879 473.378 206.089L400.038 285.884C395.553 290.761 392.17 296.55 390.122 302.854C388.071 309.156 387.404 315.829 388.164 322.412L400.57 430.057C402.936 450.566 381.972 465.845 363.156 457.235L264.656 412.165C258.636 409.409 252.092 407.984 245.471 407.986C238.853 407.986 232.308 409.415 226.287 412.175L127.764 457.299C108.943 465.916 87.9883 450.651 90.3623 430.139L102.829 322.488C104.372 309.165 100.044 295.836 90.9752 285.969L17.6751 206.211C3.70417 191.01 11.7004 166.347 31.9761 162.249L138.18 140.788C151.313 138.134 162.649 129.897 169.234 118.214L222.454 23.7976Z" fill="#FFAFF3"/>
<path d="M245.607 0.811182C233.2 0.814838 220.79 6.87703 213.958 18.9969L160.733 113.411C155.544 122.616 146.622 129.1 136.268 131.193L30.0598 152.656C2.80623 158.163 -8.31457 192.409 10.4844 212.863L83.7858 292.614C87.3156 296.451 89.9771 301.006 91.5876 305.97C93.1984 310.932 93.7211 316.185 93.1198 321.369L80.6499 429.016C77.4507 456.634 106.539 477.794 131.839 466.211L131.84 466.209L230.369 421.086L230.37 421.084C235.113 418.91 240.27 417.784 245.485 417.782C250.702 417.782 255.858 418.905 260.6 421.077L359.104 466.142C384.395 477.715 413.497 456.537 410.312 428.918L410.312 428.921L397.908 321.279C397.309 316.095 397.835 310.843 399.449 305.877C401.062 300.914 403.726 296.358 407.26 292.52L407.26 292.517L480.606 212.721L480.603 212.72C499.416 192.255 488.316 158.017 461.065 152.524L354.869 131.124C344.517 129.038 335.598 122.558 330.416 113.357L277.245 18.972C270.42 6.85692 258.013 0.801862 245.605 0.805518M245.6 19.7763C251.238 19.7747 256.876 22.7195 260.196 28.6118L313.366 122.995C321.339 137.15 335.088 147.134 350.996 150.34L457.193 171.741C470.491 174.42 475.355 189.496 466.204 199.449L392.861 279.247C381.86 291.208 376.602 307.39 378.461 323.535L390.867 431.175C392.412 444.58 379.584 453.956 367.244 448.311L268.74 403.244C253.98 396.488 236.996 396.494 222.232 403.259L123.704 448.382C111.359 454.036 98.5375 444.666 100.089 431.262L112.559 323.614C114.43 307.465 109.178 291.291 98.1873 279.331L24.8861 199.58C15.7435 189.633 20.6176 174.555 33.9165 171.866L140.124 150.402C156.037 147.186 169.79 137.195 177.773 123.035L177.773 123.034L230.998 28.6202C234.321 22.7266 239.96 19.7783 245.598 19.7766" fill="#151515"/>
<path d="M178.208 297.311C192.096 297.306 203.357 286.03 203.361 272.124C203.365 258.215 192.096 276.996 178.208 277C164.321 277.004 153.075 258.232 153.071 272.138C153.067 286.044 164.321 297.317 178.208 297.311Z" fill="#151515"/>
<path d="M313.502 297.39C327.511 297.388 338.874 286.009 338.876 271.978C338.881 257.948 327.515 276.996 313.502 277C299.493 277.004 288.143 257.962 288.137 271.993C288.135 286.025 299.49 297.395 313.502 297.39Z" fill="#151515"/>
<path d="M224.443 329.207L266.443 329.207" stroke="#151515" stroke-width="16" stroke-linecap="round"/>
<path d="M184.943 190.207C177.443 210.707 157.943 223.707 135.443 223.707" stroke="#151515" stroke-width="14" stroke-linecap="round"/>
<path d="M304.443 190.207C312.474 210.401 333.352 223.207 357.443 223.207" stroke="#151515" stroke-width="14" stroke-linecap="round"/>
</svg>
