<svg width="495" height="458" viewBox="0 0 495 458" fill="none" xmlns="http://www.w3.org/2000/svg">
<path d="M207.606 29.3468C213.997 11.2645 237.758 7.08171 249.959 21.8907L313.906 99.5105C321.818 109.115 333.528 114.806 345.984 115.109L446.709 117.556C465.939 118.022 477.233 139.251 466.886 155.389L412.596 240.052C409.276 245.228 407.112 251.057 406.254 257.143C405.394 263.227 405.86 269.427 407.619 275.316L436.369 371.602C441.848 389.947 425.114 407.272 406.488 402.44L308.986 377.148C303.027 375.601 296.803 375.353 290.739 376.421C284.677 377.487 278.913 379.845 273.843 383.334L190.888 440.396C175.04 451.294 153.381 440.73 152.242 421.619L146.275 321.322C145.536 308.909 139.419 297.436 129.519 289.887L49.4965 228.866C34.2444 217.236 37.5854 193.43 55.4955 186.425L149.308 149.731C160.909 145.194 169.962 135.848 174.107 124.121L207.606 29.3468Z" fill="#FFAFF3"/>
<path d="M225.101 4.63167C213.737 6.63254 203.349 14.1654 199.049 26.3314L165.545 121.104C162.278 130.344 155.154 137.701 146.007 141.278L52.1911 177.974C28.1172 187.39 23.4619 220.448 43.9848 236.097L124.007 297.112C127.86 300.047 131.033 303.777 133.31 308.05C135.587 312.321 136.914 317.033 137.201 321.863L143.165 422.157C144.695 447.888 174.757 462.525 196.06 447.877L196.061 447.874L279.022 390.813V390.811C283.016 388.062 287.558 386.203 292.334 385.363C297.113 384.522 302.017 384.718 306.711 385.938L404.215 411.225C429.251 417.721 452.486 393.698 445.109 368.994V368.997L416.362 272.712C414.976 268.075 414.61 263.196 415.286 258.402C415.962 253.611 417.666 249.022 420.283 244.948V244.946L474.577 160.28L474.575 160.28C488.501 138.566 472.804 109.092 446.957 108.465L346.228 106.022C336.409 105.784 327.193 101.304 320.96 93.7373L257.013 16.1198C248.805 6.15695 236.463 2.62588 225.098 4.6269M228.157 21.9489C233.322 21.0396 238.961 22.8207 242.954 27.666L306.9 105.281C316.489 116.922 330.695 123.824 345.784 124.19L446.513 126.633C459.126 126.939 466.017 139.921 459.242 150.482L404.95 235.148C396.806 247.84 394.603 263.461 398.913 277.903L427.662 374.186C431.242 386.176 421.007 396.802 408.791 393.635L311.287 368.345C296.676 364.553 281.12 367.293 268.689 375.846L185.729 432.908C175.334 440.057 162.077 433.567 161.333 421.078L155.369 320.784C154.475 305.738 147.051 291.816 135.053 282.665L55.0309 221.651C45.05 214.04 47.0793 199.489 58.8263 194.892L152.642 158.197C166.699 152.698 177.682 141.362 182.708 127.147V127.147L216.211 32.3744C218.303 26.4583 222.992 22.8586 228.156 21.9493" fill="#151515"/>
<path d="M172.987 263.79C182.711 262.078 189.205 252.82 187.491 243.112C185.776 233.403 176.503 226.922 166.779 228.634C157.054 230.346 150.56 239.605 152.275 249.312C153.989 259.02 163.262 265.503 172.987 263.79Z" fill="#151515"/>
<path d="M295.988 239.43C305.712 237.719 312.206 228.46 310.49 218.752C308.777 209.044 299.504 202.562 289.778 204.274C280.055 205.986 273.561 215.245 275.274 224.953C276.99 234.662 286.263 241.143 295.988 239.43Z" fill="#151515"/>
<path d="M256.693 283.109C256.211 284.2 254.905 286 251.905 287C248.905 288 242.269 287.008 235 288.5C228.215 289.892 225.5 292.933 222 293.5C218.5 294.067 215.183 292.355 213.515 290.613C211.849 288.868 210.946 286.535 211.003 284.127C211.075 281.014 211.763 277.945 213.028 275.099C214.289 272.257 216.098 269.687 218.353 267.543L218.353 267.54L218.355 267.54C220.61 265.393 223.268 263.712 226.174 262.592L226.176 262.592C229.082 261.472 232.179 260.934 235.292 261.006L235.296 261.006L235.299 261.006C238.414 261.081 241.481 261.768 244.328 263.026L244.33 263.028C247.181 264.287 249.755 266.093 251.905 268.347C254.056 270.6 255.74 273.254 256.864 276.155C257.294 277.268 257.501 278.456 257.471 279.649C257.442 280.842 257.178 282.016 256.693 283.109Z" fill="#151515"/>
<path d="M293.031 315.201C292.348 301.543 303.274 283.473 308.823 276.146C314.585 284.185 326.11 300.902 326.11 315.201C326.11 332.488 312.878 333.982 308.823 333.982C304.768 333.982 293.884 332.274 293.031 315.201Z" fill="white"/>
<path d="M321.628 176.055C320.945 162.396 331.872 144.327 337.421 137C343.183 145.039 354.707 161.756 354.707 176.055C354.707 193.341 341.476 194.835 337.421 194.835C333.366 194.835 322.482 193.128 321.628 176.055Z" fill="white"/>
<path d="M354.921 260.994C354.238 247.335 365.165 229.266 370.713 221.939C376.476 229.978 388 246.695 388 260.994C388 278.28 374.768 279.774 370.713 279.774C366.659 279.774 355.774 278.067 354.921 260.994Z" fill="white"/>
<path d="M136.209 88.3548C91.5352 108.171 6.07153 209.078 7.00763 223.777C8.1628 241.917 26.6688 246.921 37.5914 249.423C38.84 256.304 45.7057 267.563 45.7057 267.563C51.9473 276.007 68.7997 299.777 86.2763 294.147C97.5113 290.528 119.981 245.67 136.834 220.024C149.054 201.427 177.092 174.362 189.887 168.733C202.631 163.126 219.535 162.478 229.522 155.91C239.508 149.342 244.502 130.889 240.757 118.066C237.761 107.808 222.864 103.158 214.854 101.178C215.166 97.5289 211.858 87.4165 203.619 79.9104C193.32 70.5277 155.247 79.9103 136.209 88.3548Z" fill="#F69175"/>
<path fill-rule="evenodd" clip-rule="evenodd" d="M174.386 84.1274C161.74 86.2645 147.998 90.5626 139.004 94.552C128.799 99.0779 115.7 108.546 101.53 120.925C87.4808 133.198 72.8125 147.946 59.5116 162.588C46.2069 177.234 34.3723 191.661 25.9669 203.258C21.7533 209.071 18.4898 214.052 16.3408 217.922C15.2628 219.863 14.5406 221.391 14.1162 222.516C13.8749 223.155 13.7887 223.512 13.759 223.643C14.2355 229.794 17.442 233.725 22.1567 236.668C25.9066 239.009 30.3542 240.539 34.6249 241.683C37.6514 237.671 42.304 231.882 47.7456 225.258C55.6444 215.643 65.5685 203.837 75.5709 192.12C85.5733 180.403 95.6754 168.75 103.932 159.441C112.032 150.307 118.712 143.02 121.658 140.396C126.33 136.235 131.323 132.957 135.578 130.694C137.706 129.562 139.731 128.642 141.516 127.985C143.06 127.416 145.161 126.76 147.156 126.76C150.952 126.76 154.03 129.844 154.03 133.648C154.03 137.344 151.124 140.36 147.477 140.527C147.437 140.542 147.06 140.619 146.256 140.915C145.17 141.314 143.719 141.959 142.021 142.862C138.621 144.669 134.554 147.339 130.791 150.691C128.596 152.646 122.544 159.191 114.207 168.591C106.024 177.817 95.9815 189.401 86.0168 201.074C76.0521 212.747 66.1868 224.483 58.3587 234.012C52.2101 241.497 47.5243 247.374 44.9724 250.809C45.7069 252.925 46.862 255.483 48.1489 258.009C49.0253 259.728 49.8693 261.255 50.4946 262.351C50.8061 262.897 51.0606 263.332 51.2341 263.625C51.2735 263.692 51.3086 263.751 51.3392 263.802C51.4505 263.953 51.5642 264.107 51.6802 264.265C54.9431 268.689 60.0595 275.626 66.236 281.041C73.0265 286.995 79.0373 289.331 84.1316 287.69C84.1266 287.691 84.1294 287.69 84.1399 287.685C84.2319 287.639 84.9195 287.297 86.2387 286.054C87.5986 284.773 89.2183 282.931 91.0797 280.521C94.7994 275.704 99.0362 269.207 103.578 261.809C107.011 256.217 110.644 250.056 114.299 243.858C120.081 234.055 125.918 224.158 131.106 216.264C137.606 206.374 148.069 194.552 158.416 184.555C163.619 179.528 168.891 174.867 173.742 171.066C178.494 167.343 183.191 164.165 187.195 162.404C193.439 159.657 200.538 157.994 206.75 156.539C207.598 156.341 208.431 156.146 209.242 155.953C216.474 154.23 222.026 152.64 225.864 150.117C228.983 148.065 232.032 143.538 233.81 137.371C235.558 131.308 235.72 124.842 234.285 119.929C233.575 117.497 231.145 114.93 226.596 112.528C222.234 110.226 217.143 108.725 213.305 107.776C210.021 106.964 207.815 103.878 208.103 100.501C208.1 100.545 208.1 100.545 208.096 100.498C208.086 100.365 208.047 99.8661 207.819 98.9542C207.539 97.8348 207.049 96.402 206.304 94.7945C204.808 91.566 202.426 87.9452 199.081 84.8976C198.306 84.1919 196.005 83.1315 191.094 82.8471C186.48 82.5799 180.711 83.0587 174.386 84.1274ZM45.6204 267.637C39.7556 271.228 39.7552 271.228 39.7549 271.227L39.7517 271.222L39.7452 271.211L39.7249 271.178C39.7141 271.16 39.7006 271.137 39.6846 271.111L39.6558 271.063C39.5974 270.966 39.5148 270.828 39.4111 270.653C39.2039 270.303 38.9117 269.803 38.5593 269.185C37.8568 267.953 36.9044 266.232 35.9063 264.273C34.6278 261.764 33.0757 258.491 31.955 255.225C26.8422 253.904 20.51 251.869 14.8877 248.359C7.38595 243.676 0.775955 236.097 0.0212861 224.247C-0.132934 221.826 0.578613 219.445 1.25851 217.643C2.00619 215.662 3.06972 213.492 4.32877 211.224C6.85393 206.677 10.4702 201.198 14.8445 195.163C23.6148 183.063 35.7886 168.24 49.3461 153.316C62.9073 138.387 77.9548 123.246 92.4964 110.542C106.917 97.9437 121.283 87.3478 133.44 81.9561C143.503 77.4928 158.348 72.8686 172.101 70.5446C178.976 69.3828 185.86 68.7464 191.887 69.0955C197.619 69.4274 203.947 70.7149 208.328 74.7052C213.23 79.171 216.628 84.368 218.772 88.992C219.779 91.1657 220.617 93.4494 221.162 95.6414C224.778 96.72 229.013 98.2353 233.002 100.341C238.663 103.33 245.189 108.223 247.478 116.06C249.793 123.983 249.33 133.17 247.016 141.194C244.733 149.115 240.284 157.11 233.406 161.633C227.246 165.683 219.339 167.705 212.421 169.354C211.553 169.561 210.695 169.763 209.847 169.962C203.475 171.463 197.717 172.818 192.721 175.016C190.32 176.073 186.705 178.394 182.209 181.917C177.813 185.363 172.901 189.695 167.957 194.472C158.009 204.083 148.321 215.114 142.587 223.84C137.521 231.548 132.062 240.812 126.462 250.315C122.774 256.574 119.025 262.936 115.286 269.026C110.69 276.514 106.139 283.527 101.951 288.951C99.8584 291.66 97.7437 294.121 95.6548 296.089C93.6756 297.954 91.1981 299.883 88.3381 300.804C75.9369 304.798 64.7647 298.055 57.1839 291.408C49.8365 284.966 43.9174 276.925 40.7109 272.569C40.4938 272.274 40.2892 271.996 40.0974 271.736C39.976 271.572 39.8619 271.403 39.7556 271.228L45.6204 267.637Z" fill="#151515"/>
</svg>
