<?xml version="1.0" encoding="UTF-8" standalone="no"?>
<!-- Created using Krita: https://krita.org -->

<svg
   width="328.28845pt"
   height="327.37982pt"
   viewBox="0 0 328.28845 327.37982"
   version="1.1"
   id="svg1"
   xml:space="preserve"
   xmlns="http://www.w3.org/2000/svg"
   xmlns:svg="http://www.w3.org/2000/svg"><defs
     id="defs1" /><path
     id="path15"
     d="m 182.31089,11.397284 c -1.67883,-0.2184 -3.28414,0.77056 -4.24608,2.61836 l -9.50423,18.28141 c -1.37551,-0.0193 -2.74852,-0.0202 -4.12334,0.0132 l -10.61397,-18.23731 c -1.07554,-1.84736 -2.74428,-2.83023 -4.41142,-2.59778 -1.66301,0.23188 -3.09182,1.64647 -3.76136,3.73714 l -6.68101,20.64838 c -1.34323,0.34556 -2.68375,0.72515 -4.01437,1.12173 l -12.89107,-15.15881 c -1.30492,-1.53171 -3.0689,-2.05073 -4.65191,-1.37753 -1.59272,0.683 -2.77785,2.4649 -3.1376,4.72214 l -3.57724,22.15823 c -1.27441,0.71757 -2.53449,1.46237 -3.78891,2.22141 L 92.262508,38.080624 c -1.48972,-1.17084 -3.27953,-1.21258 -4.72831,-0.10439 -1.44412,1.09915 -2.35235,3.19101 -2.38733,5.51016 l -0.35947,22.89183 c -1.13139,1.05129 -2.24798,2.12494 -3.3593,3.21818 l -15.87711,-7.38755 c -1.61248,-0.75275 -3.36121,-0.30678 -4.61057,1.1776 -1.25621,1.47644 -1.84432,3.78891 -1.54689,6.09381 l 2.88584,22.77569 c -0.94224,1.33044 -1.8705,2.68343 -2.78814,4.05028 l -16.52216,-3.01823 c -1.67805,-0.29979 -3.3134,0.6105 -4.32375,2.41106 -1.01728,1.80698 -1.25626,4.23966 -0.64756,6.448116 l 6.01967,21.73776 c -0.7278,1.56468 -1.44504,3.14378 -2.14307,4.73978 l -16.50089,1.49369 c -1.66377,0.16593 -3.13319,1.48993 -3.86406,3.54896 -0.73287,2.04895 -0.62415,4.52847 0.27932,6.54956 l 8.90551,19.82214 c -0.49196,1.76048 -0.97922,3.53272 -1.43791,5.32785 l -15.80948,5.92032 c -1.60603,0.59888 -2.83527,2.32255 -3.25784,4.55309 -0.4189596,2.23493 0.0364,4.65186 1.19367,6.3996 l 11.44691,17.16557 c -0.0418,0.33657 -0.0772,0.67676 -0.11899,1.01441 2.63416,15.75672 5.23324,25.9296 7.79826,30.54253 0.7434,2.19847 1.75611,4.11533 2.6441,5.77772 1.91821,3.59108 3.28009,4.37992 4.9901,5.92768 1.71,1.54776 3.66662,3.13326 5.85434,4.85005 4.37541,3.43361 9.6552,7.34576 14.7373,11.3114 5.0821,3.96565 9.9795,8.02598 13.21548,11.27023 1.55547,1.55945 2.65083,2.89989 3.16515,3.64747 1.09495,25.21371 21.57592,43.63283 44.781822,43.63283 2.11734,0 4.45876,-0.035 7.46135,-2.21113 3.00258,-2.17614 5.25852,-7.90079 5.08277,-11.50104 -0.35149,-7.20048 -2.75333,-8.98059 -4.58928,-11.77744 -3.06183,-4.66437 -6.47382,-9.29391 -8.59989,-12.79773 5.42542,-0.51944 25.78963,1.49304 34.78285,3.24758 8.99323,1.75453 10.74799,-10.69246 10.74799,-10.69246 0,-3.44513 -0.36974,-6.76866 -1.05088,-9.95003 -0.40961,-2.9612 -1.09319,-5.81007 -2.01782,-8.52839 6.5728,-0.48568 13.2799,-1.26478 20.07309,-2.31991 -0.40329,2.80916 -0.56678,5.66568 -0.46469,8.54456 -0.14172,4.68816 0.40055,9.45898 1.72724,14.18703 0,0 4.98744,11.17758 13.06017,6.20995 8.07273,-4.96764 26.87737,-14.35462 32.17007,-15.85419 -1.08574,4.10856 -3.09232,9.75652 -4.75713,15.31023 -0.99839,3.33061 -2.80391,5.90306 -1.21871,12.87124 0.7926,3.48405 4.45911,8.09319 7.89096,9.05764 3.43187,0.96445 5.66571,0.13644 7.67677,-0.64099 22.04148,-8.52074 36.5867,-33.53398 30.90626,-57.88453 0.2893,-0.89894 0.97238,-2.57439 2.03412,-4.6266 2.20891,-4.26959 5.77792,-9.92313 9.54806,-15.55574 3.77013,-5.63261 7.74277,-11.28774 10.98346,-16.15557 1.62036,-2.43392 3.0557,-4.65745 4.26739,-6.75537 0.15633,-0.27068 0.30408,-0.50968 0.45592,-0.76008 0.23211,-0.19536 0.46825,-0.3635 0.70016,-0.56013 l 14.42041,-35.16913 c -0.40373,-1.23718 -0.80547,-2.47526 -1.2162,-3.69891 l 7.69682,-19.83391 c 0.78564,-2.01865 0.73656,-4.4918 -0.11524,-6.54956 -0.85116,-2.04694 -2.39533,-3.38594 -4.077,-3.53131 l -16.55097,-1.40841 c -0.7991,-1.61977 -1.62678,-3.20896 -2.45497,-4.78537 l 4.6945,-21.71865 c 0.48541,-2.214736 0.0889,-4.653236 -1.03208,-6.443706 -1.11876,-1.80114 -2.80039,-2.70975 -4.46278,-2.389 l -16.34055,3.08586 c -1.0001,-1.35923 -2.01196,-2.70243 -3.03865,-4.01648 l 1.52058,-22.79038 c 0.15307,-2.31467 -0.56841,-4.61333 -1.91387,-6.09087 -1.33851,-1.47305 -3.11286,-1.91266 -4.67947,-1.15555 l -15.46377,7.47723 c -1.15942,-1.07723 -2.33438,-2.13587 -3.51962,-3.16967 l -1.73602,-22.93593 c -0.17227,-2.32234 -1.20352,-4.4088 -2.72175,-5.49839 -1.51729,-1.09862 -3.29746,-1.0482 -4.71704,0.12349 l -13.96199,11.5481 c -1.2953,-0.75223 -2.59647,-1.49587 -3.90665,-2.20671 l -4.91494,-22.15529 c -0.49828,-2.24481 -1.79549,-4.02962 -3.42568,-4.7001 -1.62557,-0.67533 -3.35709,-0.14317 -4.56798,1.3996 l -11.95418,15.17791 c -1.36873,-0.39793 -2.74033,-0.77227 -4.1271,-1.11879 l -7.89597,-20.55869 c -0.80304,-2.09513 -2.30967,-3.5059 -3.99433,-3.72686 z"
     style="fill:none;stroke:#000000;stroke-width:20;stroke-dasharray:none" /><path
     id="shape0"
     fill="#ffaff3"
     stroke-opacity="0"
     stroke="#000000"
     stroke-width="0"
     stroke-linecap="square"
     stroke-linejoin="bevel"
     d="m 311.18837,163.06711 c -0.40374,-1.23718 -0.80558,-2.47409 -1.21631,-3.69774 l 7.69622,-19.83501 c 0.78565,-2.01865 0.73623,-4.49174 -0.11557,-6.5495 -0.85116,-2.04694 -2.39546,-3.38487 -4.07713,-3.53025 l -16.55082,-1.40898 c -0.7991,-1.61977 -1.62676,-3.20935 -2.45495,-4.78576 l 4.69532,-21.71811 c 0.48541,-2.214736 0.0884,-4.653546 -1.03254,-6.444016 -1.11876,-1.80114 -2.80092,-2.70943 -4.46331,-2.38868 l -16.34001,3.08604 c -1.0001,-1.35923 -2.01168,-2.70323 -3.03836,-4.01728 l 1.52033,-22.78938 c 0.15307,-2.31467 -0.56877,-4.61377 -1.91424,-6.09131 -1.3385,-1.47305 -3.11228,-1.91286 -4.67889,-1.15575 l -15.46356,7.47791 c -1.15942,-1.07724 -2.33421,-2.13651 -3.51946,-3.17031 l -1.73682,-22.93618 c -0.17227,-2.32234 -1.2027,-4.40857 -2.72094,-5.49816 -1.51729,-1.09862 -3.29772,-1.04832 -4.71729,0.12337 l -13.96265,11.54807 c -1.2953,-0.75223 -2.59573,-1.49528 -3.90591,-2.20613 l -4.91597,-22.15589 c -0.49828,-2.24481 -1.79483,-4.02929 -3.42503,-4.69978 -1.62556,-0.67534 -3.35672,-0.14274 -4.56762,1.40002 l -11.95496,15.17666 c -1.36872,-0.39793 -2.74051,-0.77099 -4.12727,-1.1175 l -7.8953,-20.55906 c -0.80304,-2.09513 -2.30968,-3.5067 -3.99435,-3.72766 -1.67883,-0.2184 -3.28378,0.77105 -4.24573,2.61885 l -9.50512,18.281 c -1.3755,-0.0193 -2.74868,-0.0203 -4.1235,0.0131 l -10.61341,-18.23719 c -1.07554,-1.84735 -2.74387,-2.83035 -4.41101,-2.5979 -1.66301,0.23188 -3.09193,1.64673 -3.76146,3.7374 l -6.68069,20.64854 c -1.34323,0.34555 -2.68489,0.72506 -4.01551,1.12164 l -12.89034,-15.15838 c -1.30492,-1.53172 -3.06911,-2.05141 -4.65213,-1.37821 -1.59271,0.683 -2.77803,2.46485 -3.13777,4.7221 l -3.57708,22.15867 c -1.27442,0.71757 -2.53403,1.46216 -3.78845,2.2212 L 92.261898,38.080044 c -1.48972,-1.17084 -3.27897,-1.21215 -4.72774,-0.10396 -1.44413,1.09915 -2.35254,3.19108 -2.38752,5.51023 l -0.35918,22.89142 c -1.13139,1.05128 -2.24785,2.12587 -3.35918,3.21911 l -15.87765,-7.38739 c -1.61248,-0.75276 -3.36081,-0.30722 -4.61018,1.17716 -1.25621,1.47644 -1.84385,3.78827 -1.54642,6.09318 l 2.8854,22.77603 c -0.94225,1.33044 -1.87063,2.68295 -2.78827,4.0498 l -16.52228,-3.01808 c -1.67805,-0.29979 -3.31264,0.61034 -4.32299,2.4109 -1.01729,1.80698 -1.2568,4.24012 -0.6481,6.448576 l 6.02004,21.73802 c -0.7278,1.56468 -1.44494,3.14371 -2.14298,4.73972 l -16.50105,1.49303 c -1.66378,0.16594 -3.13369,1.49082 -3.86456,3.54985 -0.73287,2.04895 -0.62426,4.52797 0.2792,6.54906 l 8.90539,19.82174 c -0.49196,1.76048 -0.97825,3.53327 -1.43694,5.3284 l -15.81004,5.92112 c -1.60603,0.59887 -2.83573,2.32249 -3.2583,4.55303 -0.4189596,2.23494 0.0375,4.65129 1.19474,6.39903 l 11.44618,17.16596 c -0.0418,0.33657 -0.077,0.67658 -0.11873,1.01423 4.19954,25.1202 8.31116,36.07848 12.33501,32.87536 0.26018,0.21805 -0.26878,-0.21522 0,0 0,0 144.157662,64.62626 261.721702,-35.05905" /><path
     id="path14"
     style="color:#000000;fill:#bd70b1;fill-rule:evenodd;stroke-width:0.926372;stroke-linecap:square;stroke-linejoin:bevel;-inkscape-stroke:none"
     d="m 44.717598,213.76016 c -3.79732,0.192 -7.5405,2.11909 -10.10418,5.90857 -2.92993,4.33082 -3.41319,11.42484 -1.2062,16.40108 1.36239,3.07187 2.01706,3.22367 2.6917,3.94591 0.67464,0.72224 1.32146,1.336 2.04789,2.00088 1.45286,1.32975 3.19485,2.81119 5.20679,4.49869 4.02387,3.375 12.41398,5.48999 17.35147,9.77526 4.93749,4.28527 9.76441,8.74977 13.01381,12.33904 1.62472,1.79464 2.84807,3.40114 3.39311,4.27963 0.26204,0.42232 0.24288,0.64552 0.1691,0.48809 1.26222,10.20172 4.65294,19.9117 11.37801,26.73483 6.91938,7.02027 13.138122,12.24918 24.414252,12.24918 2.09026,0 4.34743,-0.11626 7.13819,-1.9215 2.79076,-1.80524 5.38608,-6.52377 5.65393,-10.16909 0.53573,-7.29063 -1.8747,-9.59538 -3.42191,-12.40813 -2.56224,-4.65798 -5.25178,-9.00364 -6.75116,-11.99502 4.89134,-0.93259 16.92485,-0.98194 37.75261,3.08146 l 10.74798,-10.69247 c 0,-26.2957 -21.03541,-45.73222 -44.88703,-45.73222 -1.8003,0 -3.32735,0.20864 -6.03721,0.8821 -2.70986,0.67347 -6.10401,1.83624 -9.75097,3.91798 -6.134742,3.5018 -13.031772,10.05876 -17.362622,20.33817 -3.36068,0.74971 -5.70781,1.12996 -6.64594,0.88356 -1.33244,-0.34998 -3.87081,-1.94949 -9.64701,-8.86065 -1.24366,-1.50837 -4.50826,-7.09997 -7.85088,-12.37285 -1.67361,-2.64007 -3.4309,-5.27363 -5.63139,-7.72127 -2.20049,-2.44764 -4.90663,-5.36807 -9.95263,-5.82182 l -0.0827,-0.006 c -0.54138,-0.0429 -1.08456,-0.051 -1.62704,-0.0235 z m 3.82649,10.23818 c -0.0457,-0.049 0.0549,-0.0462 0.30562,0.29403 -0.0793,-0.0787 -0.28002,-0.26662 -0.30562,-0.29403 z" /><path
     id="path10"
     style="color:#000000;fill:#ffaff3;fill-rule:evenodd;stroke-width:0.926372;stroke-linecap:square;stroke-linejoin:bevel;-inkscape-stroke:none"
     d="m 46.885728,207.86483 c -0.88612,-0.014 -1.75105,0.0122 -2.60276,0.0897 -1.70341,0.15482 -3.3556,0.51338 -5.01764,1.15996 -3.32409,1.29315 -6.88877,4.45676 -8.48216,8.69158 -3.18678,8.46961 0.0364,14.56586 2.36979,18.93416 1.91821,3.59108 3.28009,4.37992 4.9901,5.92768 1.71,1.54776 3.66662,3.13326 5.85434,4.85005 4.37542,3.43361 9.6552,7.34576 14.7373,11.3114 5.08211,3.96565 9.97949,8.02597 13.21548,11.27023 1.55547,1.55945 2.65083,2.89989 3.16515,3.64747 1.09495,25.21374 21.57589,43.63283 44.781822,43.63283 2.11734,0 4.45876,-0.035 7.46135,-2.21113 3.00259,-2.17614 5.25852,-7.90079 5.08277,-11.50104 -0.35149,-7.20049 -2.75333,-8.98058 -4.58928,-11.77744 -3.06184,-4.66437 -6.47381,-9.29391 -8.59989,-12.79773 5.42543,-0.51944 25.78962,1.49304 34.78285,3.24758 8.99323,1.75453 10.74799,-10.69246 10.74799,-10.69246 0,-26.29569 -21.03417,-45.73221 -44.88579,-45.73221 -1.80029,0 -3.32734,0.20863 -6.0372,0.88209 -2.70986,0.67346 -6.10403,1.8377 -9.75097,3.91945 -5.549262,3.1676 -11.737942,8.81371 -16.076272,17.46695 -6.57828,-1.89133 -12.45681,-4.62017 -16.87789,-9.96621 -0.0985,-0.11907 -3.36197,-6.75723 -6.10735,-13.01531 -1.3727,-3.12904 -2.79319,-6.28306 -4.73959,-9.33109 -1.94639,-3.04804 -4.58197,-7.30407 -10.69287,-7.85359 -0.93626,-0.0842 -1.84315,-0.13891 -2.72928,-0.15289 z" /><path
     id="path12"
     style="color:#000000;display:inline;fill:#bd70b1;fill-rule:evenodd;stroke-width:0.926372;stroke-linecap:square;stroke-linejoin:bevel;-inkscape-stroke:none"
     d="m 285.16517,171.81801 c -2.44696,0.002 -4.95285,0.80565 -7.13193,2.12732 -4.94216,2.58664 -6.55589,6.97591 -7.70809,10.32639 -1.18002,3.43142 -1.83313,6.77698 -2.43242,10.07647 -1.19777,6.59452 -2.55409,13.54869 -2.88083,14.34287 -3.64107,8.67522 -5.627,11.12672 -6.79875,11.94797 -0.82518,0.57836 -3.15428,1.07928 -6.54449,1.601 -6.85344,-8.17468 -15.15361,-11.86674 -21.91431,-12.94033 -4.01876,-0.63817 -7.55249,-0.49647 -10.30585,-0.14113 -2.75335,0.35533 -4.26085,0.71649 -5.97083,1.37754 -22.65453,8.75773 -37.45231,34.94181 -30.44407,59.91776 l 13.05766,6.20995 c 18.70044,-11.5075 30.14316,-15.87932 35.03711,-16.78921 -0.62682,3.39175 -2.02425,8.50721 -3.2165,13.87242 -0.71992,3.23969 -2.39427,6.31375 0.0576,13.04177 1.22594,3.36402 4.94951,6.89313 8.08134,7.58308 3.13181,0.68994 5.30564,-0.0278 7.29099,-0.79536 10.71026,-4.14034 12.80723,-9.10196 17.50834,-18.31052 4.57335,-8.9583 3.98303,-18.79275 2.45746,-28.95477 -0.0224,0.23999 0.24213,-1.78552 0.39455,-2.34049 0.29623,-1.07851 1.92158,-1.95123 3.00608,-4.29728 2.169,-4.69206 5.6139,-10.78894 9.21865,-16.67306 3.60474,-5.8841 7.38081,-11.61463 10.32337,-15.97327 2.94256,-4.35864 4.30508,-6.19299 5.55624,-8.11233 3.94737,-6.05518 8.3315,-11.20915 7.60497,-13.92564 -0.72653,-2.71649 -1.84803,-5.07734 -3.61857,-7.36843 -1.77054,-2.29108 -4.35013,-4.56778 -7.8847,-5.46899 -0.88364,-0.2253 -1.80605,-0.33444 -2.74305,-0.33373 z" /><path
     id="path8"
     style="color:#000000;display:inline;fill:#ffaff3;fill-rule:evenodd;stroke-width:0.926372;stroke-linecap:square;stroke-linejoin:bevel;-inkscape-stroke:none"
     d="m 285.6023,168.09998 c -3.50191,-0.008 -6.65441,1.06306 -10.12172,2.75802 -5.65776,2.76572 -7.02746,7.77518 -8.06381,11.38491 -1.03634,3.60973 -1.54547,7.12823 -2.01533,10.60425 -0.93972,6.95202 -2.26917,14.45383 -2.33096,14.60308 -2.77473,6.70183 -7.63085,11.45239 -13.3758,15.66454 -6.42683,-6.626 -13.80661,-9.71845 -19.92155,-10.68953 -4.01873,-0.63818 -7.55501,-0.49646 -10.30834,-0.14113 -2.75334,0.35533 -4.25842,0.71946 -5.96832,1.38048 -22.65453,8.75772 -37.45481,34.94039 -30.44659,59.9163 0,0 4.98743,11.17758 13.06017,6.20995 8.07274,-4.96765 26.87737,-14.35462 32.17007,-15.85419 -1.08574,4.10857 -3.09232,9.75651 -4.75713,15.31023 -0.99839,3.33061 -2.80391,5.90306 -1.21871,12.87124 0.7926,3.48406 4.4591,8.09319 7.89096,9.05764 3.43187,0.96445 5.66571,0.13644 7.67677,-0.64099 22.0415,-8.52075 36.58671,-33.53395 30.90626,-57.88453 0.2893,-0.89894 0.97238,-2.57439 2.03412,-4.6266 2.20892,-4.2696 5.77792,-9.92312 9.54806,-15.55574 3.77013,-5.63262 7.74276,-11.28774 10.98346,-16.15557 1.62036,-2.43392 3.0557,-4.65744 4.26739,-6.75537 1.21168,-2.09795 2.29403,-3.34738 3.15888,-7.46253 1.05204,-5.00583 2.48849,-11.97888 -2.79565,-18.85331 -2.64208,-3.4372 -6.87032,-5.13342 -10.37223,-5.14115 z" /><g
     id="g1"
     transform="matrix(0.82943626,0,0,0.82943626,-84.328628,-52.303889)"><path
       id="shape05"
       fill="#151515"
       stroke-opacity="0"
       stroke="#000000"
       stroke-width="0"
       stroke-linecap="square"
       stroke-linejoin="bevel"
       d="m 222.63256,294.55925 c 10.333,-1.82309 17.23294,-11.676 15.4113,-22.00757 -1.82164,-10.33407 -11.67479,-17.2316 -22.00779,-15.40948 -10.33311,1.82237 -17.23305,11.67625 -15.41141,22.0079 1.82164,10.33158 11.67504,17.23224 22.0079,15.40915 z" /><path
       id="shape1"
       fill="#151515"
       stroke-opacity="0"
       stroke="#000000"
       stroke-width="0"
       stroke-linecap="square"
       stroke-linejoin="bevel"
       d="m 375.70176,267.56831 c 10.33163,-1.82068 17.23229,-11.67503 15.4092,-22.00707 -1.82067,-10.33238 -11.67358,-17.23135 -22.00762,-15.40899 -10.33165,1.82213 -17.23231,11.67552 -15.41164,22.0079 1.82309,10.333 11.676,17.23125 22.01006,15.40816 z" /><path
       id="shape2"
       fill="#151515"
       stroke-opacity="0"
       stroke="#000000"
       stroke-width="0"
       stroke-linecap="square"
       stroke-linejoin="bevel"
       d="m 283.43261,290.32559 c -1.18477,0.45698 -2.26798,1.14367 -3.1892,2.01894 -0.9188,0.87528 -1.65867,1.92464 -2.17126,3.08523 -0.51502,1.16301 -0.79549,2.41306 -0.82692,3.68245 -0.0314,1.26939 0.18859,2.53395 0.64557,3.71872 1.19444,3.08765 2.98368,5.91172 5.26859,8.31027 v 0 c 2.28491,2.39855 5.01954,4.32077 8.04916,5.66028 l 0.002,0.002 c 3.02478,1.33951 6.2841,2.06971 9.59419,2.14951 h 0.002 0.005 c 3.30762,0.0774 6.59837,-0.49567 9.68602,-1.68769 h 0.002 c 3.08765,-1.19202 5.91174,-2.98126 8.30787,-5.26617 h 0.002 v -0.002 c 2.39613,-2.28249 4.31836,-5.0171 5.65787,-8.04188 1.34435,-3.02962 2.07455,-6.29619 2.15192,-9.6087 0.0605,-2.56297 -0.89945,-5.04614 -2.66935,-6.90308 -1.77232,-1.85453 -4.20713,-2.93049 -6.77251,-2.99094 -1.2694,-0.0314 -2.53154,0.19102 -3.7163,0.648 -1.18477,0.4594 -2.26799,1.14608 -3.18679,2.02377 -0.91879,0.87528 -1.65625,1.92465 -2.16884,3.08765 -0.5126,1.16059 -0.79307,2.41306 -0.82209,3.68245 -0.0193,0.76647 -0.18859,1.52327 -0.5005,2.22446 v 0.002 l -0.002,0.005 c -0.31191,0.7036 -0.75922,1.33951 -1.31533,1.87144 -0.55853,0.53194 -1.21378,0.94782 -1.9319,1.22346 l -0.005,0.002 c -0.72053,0.27806 -1.48701,0.41105 -2.25827,0.39412 -0.76888,-0.0193 -1.5281,-0.19101 -2.23171,-0.50292 h -0.005 l -0.002,-0.002 c -0.70361,-0.31191 -1.3371,-0.7568 -1.86903,-1.31291 v -0.002 0 c -0.53194,-0.55853 -0.94782,-1.21378 -1.22587,-1.93432 -0.45699,-1.18476 -1.14367,-2.26798 -2.01894,-3.18678 -0.8777,-0.9188 -1.92465,-1.65867 -3.08765,-2.17126 -1.16059,-0.51501 -2.41306,-0.79549 -3.68245,-0.82692 -1.26939,-0.0314 -2.53153,0.18859 -3.7163,0.64799 z" /></g></svg>
