<svg width="128" height="128" viewBox="0 0 128 128" fill="none" xmlns="http://www.w3.org/2000/svg">
<g clip-path="url(#clip0_122_2)">
<mask id="mask0_122_2" style="mask-type:luminance" maskUnits="userSpaceOnUse" x="1" y="0" width="128" height="128">
<path d="M1 0H129V128H1V0Z" fill="white"/>
</mask>
<g mask="url(#mask0_122_2)">
<mask id="mask1_122_2" style="mask-type:luminance" maskUnits="userSpaceOnUse" x="-12" y="-11" width="149" height="144">
<path d="M10.403 -11L136.246 12.397L113.843 132.892L-12 109.495L10.403 -11Z" fill="white"/>
</mask>
<g mask="url(#mask1_122_2)">
<mask id="mask2_122_2" style="mask-type:alpha" maskUnits="userSpaceOnUse" x="3" y="3" width="122" height="122">
<path d="M66.266 5.57889C69.736 1.43889 76.407 2.67889 78.158 7.78889L87.331 34.5749C87.8923 36.2132 88.7997 37.7114 89.9918 38.9676C91.1838 40.2238 92.6324 41.2086 94.239 41.8549L120.526 52.4359C125.545 54.4559 126.422 61.1709 122.102 64.4069L99.438 81.3879C98.0523 82.4257 96.9066 83.7501 96.0792 85.2708C95.2517 86.7915 94.7618 88.4727 94.643 90.1999L92.702 118.438C92.332 123.819 86.212 126.738 81.784 123.626L58.603 107.335C57.186 106.339 55.5714 105.66 53.8687 105.343C52.1661 105.027 50.4152 105.08 48.735 105.5L21.247 112.371C15.997 113.683 11.335 108.759 12.924 103.605L21.262 76.5569C21.7719 74.9024 21.9192 73.1574 21.6936 71.4408C21.4681 69.7243 20.875 68.0765 19.955 66.6099L4.908 42.6179C2.04 38.0449 5.272 32.0949 10.681 32.0129L39.016 31.5879C40.7473 31.5621 42.4528 31.1638 44.0165 30.4201C45.5802 29.6764 46.9654 28.6047 48.078 27.2779L66.266 5.57889Z" fill="#FFAFF3"/>
</mask>
<g mask="url(#mask2_122_2)">
<path d="M-34.3818 -18.6482L174.026 23.4668L150.336 140.696L-58.0708 98.5818L-34.3818 -18.6482Z" fill="#372274"/>
<path d="M-34.382 -18.6482L174.026 23.4668L155.074 117.251L-53.333 75.1358L-34.382 -18.6482Z" fill="#83ADDF"/>
<path d="M-34.3817 -18.6482L174.026 23.4668L159.812 93.8048L-48.5947 51.6898L-34.3817 -18.6482Z" fill="white"/>
<rect width="127.733" height="29.7765" transform="matrix(0.986868 0.16153 -0.186615 0.982433 3.75146 -7)" fill="black"/>
<rect width="127.733" height="29.7765" transform="matrix(0.986868 0.16153 -0.186615 0.982433 3.75146 22.7046)" fill="#A5A5A5"/>
<rect width="127.733" height="29.7765" transform="matrix(0.986868 0.16153 -0.186615 0.982433 3.75146 52.4094)" fill="white"/>
<rect width="127.733" height="29.7765" transform="matrix(0.986868 0.16153 -0.186615 0.982433 3.75146 82.114)" fill="#810081"/>
</g>
<path d="M73.3098 0.77998C70.1188 0.18598 66.6389 1.14898 64.3039 3.93398L46.1159 25.633C45.2396 26.6784 44.1483 27.5228 42.9164 28.1087C41.6845 28.6945 40.3408 29.0081 38.9769 29.028L10.6429 29.454C3.37185 29.563 -1.12015 37.825 2.73885 43.978L17.7859 67.97C18.5107 69.1246 18.9779 70.4219 19.1557 71.7736C19.3334 73.1252 19.2175 74.4992 18.8159 75.802L10.4779 102.851C8.33785 109.791 14.8099 116.619 21.8679 114.854L49.3559 107.984C50.6794 107.652 52.0589 107.609 53.4004 107.859C54.742 108.108 56.014 108.644 57.1299 109.429L80.3118 125.721C86.2638 129.904 94.7578 125.858 95.2548 118.613L97.1968 90.376C97.2898 89.0159 97.6752 87.6918 98.3267 86.4943C98.9782 85.2968 99.8805 84.2539 100.972 83.437L123.637 66.457C129.45 62.101 128.228 52.777 121.482 50.061L95.1938 39.48C93.9283 38.9711 92.7873 38.1955 91.8484 37.206C90.9095 36.2166 90.1947 35.0364 89.7528 33.746L80.5798 6.95998C79.4018 3.52198 76.4998 1.37298 73.3098 0.77998ZM72.4038 5.65098C73.8538 5.92098 75.1638 6.94698 75.7358 8.61898L84.9088 35.404C85.5895 37.3896 86.6895 39.2055 88.1343 40.7283C89.5791 42.251 91.3347 43.445 93.2818 44.229L119.57 54.811C122.862 56.136 123.394 60.241 120.567 62.358L97.9028 79.34C96.2229 80.5986 94.834 82.2046 93.8307 84.0485C92.8274 85.8923 92.2333 87.9308 92.0888 90.025L90.1469 118.263C89.9059 121.78 86.1599 123.573 83.2569 121.533L60.0729 105.24C58.3553 104.033 56.3984 103.211 54.3348 102.827C52.2712 102.443 50.1492 102.508 48.1129 103.017L20.6259 109.887C17.1819 110.748 14.3309 107.728 15.3689 104.359L23.7079 77.311C24.3256 75.3049 24.5038 73.1893 24.2303 71.1082C23.9568 69.027 23.238 67.0293 22.1229 65.251L7.07585 41.257C5.19985 38.265 7.17185 34.625 10.7199 34.572L39.0539 34.146C41.1527 34.1145 43.2203 33.6315 45.1159 32.73C47.0115 31.8284 48.6909 30.5293 50.0399 28.921L68.2278 7.22298C69.3628 5.86898 70.9538 5.38198 72.4038 5.65098Z" fill="#151515"/>
<path d="M56.7328 69.8189C56.0542 69.8261 55.4062 70.1024 54.9312 70.5871C54.4562 71.0718 54.1932 71.7253 54.1998 72.4039C54.2085 73.2806 54.39 74.147 54.7339 74.9535C55.0777 75.7599 55.5773 76.4907 56.2038 77.1039C56.8294 77.7169 57.5695 78.2007 58.3818 78.5279L58.3838 78.5289C60.0256 79.1887 61.8621 79.1696 63.4898 78.4759C64.2962 78.1321 65.028 77.6329 65.6414 77.0066C66.2548 76.3803 66.7389 75.6393 67.0658 74.8259C67.3189 74.1958 67.3112 73.4909 67.0445 72.8664C66.7778 72.2419 66.274 71.749 65.6438 71.4959C65.3318 71.3707 64.9982 71.3081 64.662 71.3117C64.3257 71.3154 63.9935 71.3852 63.6843 71.5173C63.0598 71.7839 62.5668 72.2878 62.3138 72.9179C62.2388 73.1059 62.1268 73.2779 61.9838 73.4229L61.9828 73.4249C61.6947 73.7185 61.3021 73.886 60.8908 73.8909C60.4786 73.8946 60.0807 73.735 59.7858 73.4469L59.7848 73.4449C59.491 73.1566 59.3235 72.7636 59.3188 72.3519C59.3117 71.6731 59.0353 71.025 58.5503 70.55C58.0654 70.075 57.4116 69.812 56.7328 69.8189ZM39.3608 52.7159C38.7984 52.5299 38.1889 52.5447 37.6362 52.7577C37.0835 52.9707 36.6217 53.3689 36.3297 53.8842C36.0376 54.3996 35.9333 55.0003 36.0346 55.5839C36.1358 56.1676 36.4363 56.698 36.8848 57.0849L38.3708 58.3669L36.5238 59.0289C36.2073 59.1424 35.9163 59.3171 35.6673 59.543C35.4184 59.769 35.2163 60.0417 35.0728 60.3458C34.9292 60.6498 34.8469 60.9791 34.8306 61.3149C34.8144 61.6507 34.8644 61.9865 34.9778 62.3029C35.0913 62.6194 35.266 62.9105 35.4919 63.1594C35.7179 63.4084 35.9906 63.6104 36.2946 63.754C36.5987 63.8976 36.928 63.9798 37.2638 63.9961C37.5996 64.0124 37.9353 63.9624 38.2518 63.8489L44.2298 61.7049C44.651 61.5539 45.0252 61.2951 45.3151 60.9544C45.6051 60.6136 45.8007 60.2029 45.8825 59.763C45.9642 59.3231 45.9292 58.8695 45.781 58.4473C45.6328 58.0252 45.3766 57.6492 45.0378 57.3569L40.2298 53.2079C39.975 52.9884 39.6803 52.8212 39.3608 52.7159ZM87.6708 61.6979C87.335 61.6816 86.9993 61.7315 86.6828 61.8449L80.7048 63.9889C80.2836 64.1399 79.9093 64.3986 79.6192 64.7393C79.3292 65.0799 79.1335 65.4907 79.0516 65.9306C78.9698 66.3705 79.0046 66.8242 79.1528 67.2464C79.3009 67.6686 79.5571 68.0446 79.8958 68.3369L84.7038 72.4849C84.9584 72.7046 85.2537 72.8719 85.573 72.9774C85.8922 73.0829 86.2291 73.1245 86.5644 73.0998C86.8997 73.0751 87.2269 72.9846 87.5272 72.8335C87.8276 72.6823 88.0952 72.4735 88.3148 72.2189C88.5345 71.9644 88.7018 71.669 88.8073 71.3498C88.9128 71.0305 88.9544 70.6937 88.9297 70.3583C88.905 70.023 88.8145 69.6959 88.6634 69.3955C88.5122 69.0952 88.3034 68.8276 88.0488 68.6079L86.5638 67.3269L88.4108 66.6649C88.8468 66.508 89.232 66.2357 89.5254 65.8772C89.8189 65.5187 90.0096 65.0873 90.0774 64.6289C90.1451 64.1706 90.0872 63.7024 89.91 63.2743C89.7328 62.8463 89.4427 62.4743 89.0708 62.1979C88.6639 61.8965 88.1767 61.7225 87.6708 61.6979Z" fill="#151515"/>
</g>
</g>
</g>
<defs>
<clipPath id="clip0_122_2">
<rect width="128" height="128" fill="white"/>
</clipPath>
</defs>
</svg>
