<svg xmlns="http://www.w3.org/2000/svg" width="128" height="128" fill="none"><g clip-path="url(#a)"><g clip-path="url(#b)"><mask id="c" width="122" height="122" x="2" y="3" maskUnits="userSpaceOnUse" style="mask-type:alpha"><path fill="#FFAFF3" d="M65.266 5.579c3.47-4.14 10.141-2.9 11.892 2.21l9.173 26.786a12.06 12.06 0 0 0 6.908 7.28l26.287 10.581c5.019 2.02 5.896 8.735 1.576 11.971L98.438 81.388a12.042 12.042 0 0 0-4.795 8.812l-1.941 28.238c-.37 5.381-6.49 8.3-10.918 5.188l-23.181-16.291a12.073 12.073 0 0 0-9.868-1.835l-27.488 6.871c-5.25 1.312-9.912-3.612-8.323-8.766l8.338-27.048a12.043 12.043 0 0 0-1.307-9.947L3.908 42.618c-2.868-4.573.364-10.523 5.773-10.605l28.335-.425a12.061 12.061 0 0 0 9.062-4.31l18.188-21.7Z"/></mask><g mask="url(#c)"><path fill="#5BCEFA" d="M183.291 27.408-4.564-12.077l-23.69 112.714L159.6 140.121l23.69-112.713Z"/><path fill="#F5A9B8" d="M178.553 49.95-9.302 10.466l-14.215 67.628 187.856 39.484 14.214-67.628Z"/><path fill="#fff" d="M173.815 72.493-14.04 33.01l-4.738 22.542 187.855 39.485 4.738-22.543Z"/></g><path fill="#151515" d="M72.31.78c-3.191-.594-6.671.369-9.006 3.154L45.116 25.633a9.496 9.496 0 0 1-7.139 3.395l-28.334.426c-7.271.109-11.763 8.371-7.904 14.524L16.786 67.97a9.478 9.478 0 0 1 1.03 7.832l-8.338 27.049c-2.14 6.94 4.332 13.768 11.39 12.003l27.488-6.87a9.494 9.494 0 0 1 7.774 1.445l23.182 16.292c5.952 4.183 14.446.137 14.943-7.108l1.942-28.237a9.475 9.475 0 0 1 3.775-6.939l22.665-16.98c5.813-4.356 4.591-13.68-2.155-16.396L94.194 39.48a9.496 9.496 0 0 1-5.441-5.734L79.58 6.96C78.402 3.522 75.5 1.373 72.31.78Zm-.906 4.871c1.45.27 2.76 1.296 3.332 2.968l9.173 26.785a14.626 14.626 0 0 0 8.373 8.825l26.288 10.582c3.292 1.325 3.824 5.43.997 7.547L96.903 79.34a14.607 14.607 0 0 0-5.814 10.685l-1.942 28.238c-.241 3.517-3.987 5.31-6.89 3.27L59.073 105.24a14.635 14.635 0 0 0-11.96-2.223l-27.487 6.87c-3.444.861-6.295-2.159-5.257-5.528l8.339-27.048a14.608 14.608 0 0 0-1.585-12.06L6.076 41.257c-1.876-2.992.096-6.632 3.644-6.685l28.334-.426a14.625 14.625 0 0 0 10.986-5.225L67.228 7.223c1.135-1.354 2.726-1.841 4.176-1.572"/><path fill="#151515" d="M55.733 69.819a2.56 2.56 0 0 0-2.533 2.585 6.669 6.669 0 0 0 2.004 4.7 6.676 6.676 0 0 0 2.178 1.424v.001h.002a6.675 6.675 0 0 0 5.106-.053h.001a6.674 6.674 0 0 0 3.575-3.65 2.56 2.56 0 1 0-4.752-1.908c-.075.188-.187.36-.33.505l-.001.002a1.556 1.556 0 0 1-1.092.466h-.001a1.56 1.56 0 0 1-1.104-.444l-.001-.002a1.556 1.556 0 0 1-.466-1.093 2.56 2.56 0 0 0-2.586-2.533ZM38.361 52.716a2.56 2.56 0 0 0-2.476 4.369l1.486 1.282-1.847.662a2.56 2.56 0 1 0 1.728 4.82l5.978-2.144a2.56 2.56 0 0 0 .808-4.348l-4.808-4.149a2.56 2.56 0 0 0-.87-.492Zm48.31 8.982a2.56 2.56 0 0 0-.988.147l-5.978 2.144a2.56 2.56 0 0 0-.809 4.348l4.808 4.148a2.56 2.56 0 0 0 3.345-3.877l-1.485-1.281 1.847-.662a2.562 2.562 0 0 0 .66-4.467 2.56 2.56 0 0 0-1.4-.5"/></g></g><defs><clipPath id="a"><path fill="#fff" d="M0 0h128v128H0z"/></clipPath><clipPath id="b"><path fill="#fff" d="m9.403-11 125.843 23.397-22.403 120.495L-13 109.495z"/></clipPath></defs></svg>