<?xml version="1.0" encoding="UTF-8" standalone="no"?>
<!DOCTYPE svg PUBLIC "-//W3C//DTD SVG 1.1//EN" "http://www.w3.org/Graphics/SVG/1.1/DTD/svg11.dtd">
<svg height="100%" stroke-miterlimit="10" style="fill-rule:nonzero;clip-rule:evenodd;stroke-linecap:round;stroke-linejoin:round;" version="1.1" viewBox="0 0 2105 2016" width="100%" xml:space="preserve" xmlns="http://www.w3.org/2000/svg" xmlns:xlink="http://www.w3.org/1999/xlink">
<defs>
<linearGradient gradientTransform="matrix(106.99 -84.4208 84.4208 106.99 1517.75 1561.91)" gradientUnits="userSpaceOnUse" id="LinearGradient" x1="0" x2="1" y1="0" y2="0">
<stop offset="0" stop-color="#ffffff" stop-opacity="0"/>
<stop offset="0.231686" stop-color="#ffffff"/>
<stop offset="1" stop-color="#ffffff"/>
</linearGradient>
<linearGradient gradientTransform="matrix(113.765 45.3296 -45.3296 113.765 1464.49 1495.74)" gradientUnits="userSpaceOnUse" id="LinearGradient_2" x1="0" x2="1" y1="0" y2="0">
<stop offset="0" stop-color="#ffffff" stop-opacity="0"/>
<stop offset="0.231686" stop-color="#ffffff"/>
<stop offset="1" stop-color="#ffffff"/>
</linearGradient>
<linearGradient gradientTransform="matrix(19.6155 134.867 -134.867 19.6155 1483.66 1418.21)" gradientUnits="userSpaceOnUse" id="LinearGradient_3" x1="0" x2="1" y1="0" y2="0">
<stop offset="0" stop-color="#ffffff" stop-opacity="0"/>
<stop offset="0.231686" stop-color="#ffffff"/>
<stop offset="1" stop-color="#ffffff"/>
</linearGradient>
<linearGradient gradientTransform="matrix(-126.606 -50.4458 50.4458 -126.606 1625.4 1460.49)" gradientUnits="userSpaceOnUse" id="LinearGradient_4" x1="0" x2="1" y1="0" y2="0">
<stop offset="0" stop-color="#ffffff" stop-opacity="0"/>
<stop offset="0.231686" stop-color="#ffffff"/>
<stop offset="1" stop-color="#ffffff"/>
</linearGradient>
<linearGradient gradientTransform="matrix(-96.1393 75.8589 -75.8589 -96.1393 1567.46 1404.73)" gradientUnits="userSpaceOnUse" id="LinearGradient_5" x1="0" x2="1" y1="0" y2="0">
<stop offset="0" stop-color="#ffffff" stop-opacity="0"/>
<stop offset="0.231686" stop-color="#ffffff"/>
<stop offset="1" stop-color="#ffffff"/>
</linearGradient>
<linearGradient gradientTransform="matrix(-17.6261 -121.189 121.189 -17.6261 1594.65 1539.61)" gradientUnits="userSpaceOnUse" id="LinearGradient_6" x1="0" x2="1" y1="0" y2="0">
<stop offset="0" stop-color="#ffffff" stop-opacity="0"/>
<stop offset="0.231686" stop-color="#ffffff"/>
<stop offset="1" stop-color="#ffffff"/>
</linearGradient>
</defs>
<g id="Untitled">
<path d="M842.026 129.177C870.114 49.5833 974.531 31.1719 1028.15 96.3575L1309.17 438.02C1343.94 480.296 1395.4 505.347 1450.14 506.68L1892.78 517.45C1977.29 519.505 2026.92 612.947 1981.45 683.983L1742.87 1056.65C1728.28 1079.43 1718.77 1105.09 1715 1131.88C1711.22 1158.66 1713.27 1185.95 1721 1211.87L1847.34 1635.7C1871.42 1716.45 1797.88 1792.71 1716.03 1771.44L1287.55 1660.11C1261.36 1653.3 1234.01 1652.21 1207.36 1656.91C1180.72 1661.6 1155.39 1671.98 1133.11 1687.34L768.557 1938.51C698.913 1986.48 603.729 1939.98 598.726 1855.86L572.502 1414.38C569.257 1359.74 542.373 1309.24 498.866 1276.01L147.203 1007.41C80.1767 956.216 94.8588 851.43 173.566 820.594L585.833 659.08C636.813 639.107 676.599 597.967 694.813 546.348L842.026 129.177Z" fill="#ffaff3" fill-rule="nonzero" opacity="1" stroke="none"/>
<path d="M1741.64 1247.58L1847.35 1599.27C1871.43 1680.02 1797.89 1756.28 1716.04 1735.01L1287.56 1623.68C1261.37 1616.87 1234.02 1615.78 1207.37 1620.48C1180.73 1625.17 1155.4 1635.55 1133.12 1650.91L768.564 1902.08C698.92 1950.05 603.736 1903.55 598.733 1819.43L580.462 1453.04C577.217 1398.4 1733.91 1221.66 1741.64 1247.58Z" fill="#151515" fill-rule="nonzero" opacity="1" stroke="none"/>
<path d="M1741.63 1284.01L1847.34 1635.7C1871.42 1716.45 1797.88 1792.71 1716.03 1771.44L1287.55 1660.11C1261.36 1653.3 1234.01 1652.21 1207.36 1656.91C1180.72 1661.6 1155.39 1671.98 1133.11 1687.34L768.557 1938.51C698.913 1986.48 603.729 1939.98 598.726 1855.86L580.462 1498.31C577.217 1443.67 1733.9 1258.09 1741.63 1284.01Z" fill="#5277c3" fill-rule="nonzero" opacity="1" stroke="none"/>
<path d="M918.91 20.3875C868.969 29.1948 823.32 62.3526 804.42 115.904L657.186 533.07C642.831 573.741 611.52 606.123 571.327 621.871L159.044 783.395C53.2498 824.843 32.7918 970.356 122.981 1039.24L474.644 1307.81C491.576 1320.73 505.522 1337.15 515.528 1355.96C525.534 1374.76 531.366 1395.5 532.625 1416.76L558.835 1858.23C565.559 1971.49 697.668 2035.92 791.287 1971.44L791.289 1971.43L1155.87 1720.26L1155.87 1720.25C1173.42 1708.15 1193.38 1699.97 1214.37 1696.27C1235.37 1692.57 1256.92 1693.43 1277.55 1698.8L1277.55 1698.8L1706.04 1810.11C1816.06 1838.7 1918.17 1732.96 1885.75 1624.22L1885.75 1624.23L1759.42 1200.41L1759.42 1200.41C1753.33 1180 1751.72 1158.52 1754.69 1137.42C1757.66 1116.33 1765.15 1096.13 1776.65 1078.2L1776.65 1078.19L2015.25 705.513L2015.24 705.511C2076.44 609.933 2007.46 480.197 1893.87 477.434L1451.21 466.681C1408.06 465.633 1367.56 445.914 1340.17 412.608L1059.15 70.9554C1023.08 27.1014 968.841 11.5585 918.896 20.3665M932.34 96.6134C955.035 92.6111 979.819 100.451 997.365 121.779L1278.38 463.422C1320.52 514.663 1382.95 545.042 1449.26 546.655L1891.92 557.408C1947.35 558.754 1977.63 615.896 1947.86 662.382L1709.27 1035.06C1673.48 1090.93 1663.8 1159.69 1682.74 1223.26L1809.08 1647.07C1824.81 1699.85 1779.83 1746.62 1726.15 1732.68L1726.15 1732.68L1297.66 1621.36C1233.45 1604.67 1165.09 1616.73 1110.46 1654.38L745.884 1905.55C700.205 1937.02 641.945 1908.45 638.676 1853.48L612.469 1412.01C608.537 1345.78 575.914 1284.5 523.186 1244.22L171.524 975.65C127.662 942.151 136.58 878.1 188.203 857.867L600.485 696.341C662.256 672.139 710.525 622.24 732.608 559.671L732.608 559.669L879.842 142.504C889.034 116.463 909.64 100.618 932.335 96.6154" fill="#151515" fill-rule="nonzero" opacity="1" stroke="none"/>
<path d="M790.631 1144.08C833.367 1136.54 861.904 1095.79 854.37 1053.06C846.836 1010.32 806.085 981.793 763.349 989.329C720.613 996.866 692.076 1037.62 699.61 1080.35C707.144 1123.08 747.896 1151.62 790.631 1144.08Z" fill="#151515" fill-rule="nonzero" opacity="1" stroke="none"/>
<path d="M1423.7 1032.45C1466.43 1024.92 1494.97 984.164 1487.43 941.432C1479.9 898.699 1439.15 870.166 1396.41 877.703C1353.68 885.239 1325.14 925.991 1332.67 968.724C1340.21 1011.46 1380.96 1039.99 1423.7 1032.45Z" fill="#151515" fill-rule="nonzero" opacity="1" stroke="none"/>
<path d="M1042.09 1126.57C1037.19 1128.46 1032.71 1131.3 1028.9 1134.92C1025.1 1138.54 1022.04 1142.88 1019.92 1147.68C1017.79 1152.49 1016.63 1157.66 1016.5 1162.91C1016.37 1168.16 1017.28 1173.39 1019.17 1178.29C1024.11 1191.06 1031.51 1202.74 1040.96 1212.66L1040.96 1212.66C1050.41 1222.58 1061.72 1230.53 1074.25 1236.07L1074.26 1236.08C1086.77 1241.62 1100.25 1244.64 1113.94 1244.97L1113.95 1244.97L1113.97 1244.97C1127.65 1245.29 1141.26 1242.92 1154.03 1237.99L1154.04 1237.99C1166.81 1233.06 1178.49 1225.66 1188.4 1216.21L1188.41 1216.21L1188.41 1216.2C1198.32 1206.76 1206.27 1195.45 1211.81 1182.94C1217.37 1170.41 1220.39 1156.9 1220.71 1143.2C1220.96 1132.6 1216.99 1122.33 1209.67 1114.65C1202.34 1106.98 1192.27 1102.53 1181.66 1102.28C1176.41 1102.15 1171.19 1103.07 1166.29 1104.96C1161.39 1106.86 1156.91 1109.7 1153.11 1113.33C1149.31 1116.95 1146.26 1121.29 1144.14 1126.1C1142.02 1130.9 1140.86 1136.08 1140.74 1141.33C1140.66 1144.5 1139.96 1147.63 1138.67 1150.53L1138.67 1150.54L1138.66 1150.56C1137.37 1153.47 1135.52 1156.1 1133.22 1158.3C1130.91 1160.5 1128.2 1162.22 1125.23 1163.36L1125.21 1163.37C1122.23 1164.52 1119.06 1165.07 1115.87 1165C1112.69 1164.92 1109.55 1164.21 1106.64 1162.92L1106.62 1162.92L1106.61 1162.91C1103.7 1161.62 1101.08 1159.78 1098.88 1157.48L1098.88 1157.47L1098.88 1157.47C1096.68 1155.16 1094.96 1152.45 1093.81 1149.47C1091.92 1144.57 1089.08 1140.09 1085.46 1136.29C1081.83 1132.49 1077.5 1129.43 1072.69 1127.31C1067.89 1125.18 1062.71 1124.02 1057.46 1123.89C1052.21 1123.76 1046.99 1124.67 1042.09 1126.57Z" fill="#151515" fill-rule="nonzero" opacity="1" stroke="none"/>
<g opacity="1">
<path d="M1522.74 1538.15L1673.81 1516.19L1661.13 1548.89L1620.59 1554.67L1645.82 1586.81L1639.36 1603L1621.73 1605.58L1585.85 1559.82L1544.62 1565.73L1522.74 1538.15Z" fill="url(#LinearGradient)" fill-rule="evenodd" opacity="1" stroke="none"/>
<path d="M1482.32 1492.27L1576.87 1612.11L1542.21 1617.49L1516.93 1585.27L1501.71 1623.19L1484.47 1625.69L1473.41 1611.71L1495.11 1557.76L1469.37 1525.01L1482.32 1492.27Z" fill="url(#LinearGradient_2)" fill-rule="evenodd" opacity="1" stroke="none"/>
<path d="M1501.74 1434.42L1445.23 1576.22L1423.25 1548.89L1438.51 1510.9L1398.06 1516.67L1387.27 1502.99L1393.85 1486.43L1451.42 1478.24L1466.92 1439.58L1501.74 1434.42Z" fill="url(#LinearGradient_3)" fill-rule="evenodd" opacity="1" stroke="none"/>
<path d="M1602.33 1468.04L1507.78 1348.2L1542.44 1342.83L1567.71 1375.04L1582.94 1337.13L1600.18 1334.63L1611.23 1348.6L1589.54 1402.56L1615.27 1435.31L1602.33 1468.04Z" fill="url(#LinearGradient_4)" fill-rule="evenodd" opacity="1" stroke="none"/>
<path d="M1561.55 1421.91L1410.49 1443.87L1423.16 1411.17L1463.7 1405.39L1438.48 1373.25L1444.93 1357.06L1462.56 1354.48L1498.44 1400.24L1539.67 1394.33L1561.55 1421.91Z" fill="url(#LinearGradient_5)" fill-rule="evenodd" opacity="1" stroke="none"/>
<path d="M1582.73 1525.9L1639.24 1384.1L1661.23 1411.43L1645.97 1449.42L1686.41 1443.65L1697.2 1457.33L1690.62 1473.89L1633.05 1482.08L1617.55 1520.74L1582.73 1525.9Z" fill="url(#LinearGradient_6)" fill-rule="evenodd" opacity="1" stroke="none"/>
</g>
</g>
</svg>
