<svg width="2105" height="2016" viewBox="0 0 2105 2016" fill="none" xmlns="http://www.w3.org/2000/svg">
<g opacity="0.8">
<path d="M821.338 167.805C857.967 64.7884 993.141 41.0835 1062.33 125.543L1327.24 448.912C1353.05 480.421 1391.33 499.124 1432.12 500.152L1850.68 510.717C1960.01 513.474 2024.07 634.533 1964.91 726.539L1738.37 1078.79C1727.46 1095.75 1720.33 1114.85 1717.47 1134.79C1714.61 1154.74 1716.08 1175.06 1721.79 1194.37L1840.23 1595.32C1871.17 1700.03 1775.59 1798.56 1669.83 1770.96L1264.92 1665.3C1245.42 1660.21 1225.04 1659.38 1205.18 1662.87C1185.31 1666.35 1166.42 1674.07 1149.79 1685.49L804.433 1922.72C714.229 1984.68 591.084 1924.53 584.892 1815.46L561.175 1397.9C560.031 1377.79 554.564 1358.17 545.147 1340.38C535.73 1322.59 522.585 1307.04 506.607 1294.8L174.714 1040.48C88.03 974.051 107.504 838.347 209.433 798.536L599.688 646.133C637.714 631.284 667.427 600.655 681.092 562.224L821.338 167.805Z" fill="#FFAFF3" fill-opacity="0.8"/>
<path d="M925.039 36.5373C908.422 39.2859 892.26 44.3189 877.014 51.4934C854.409 62.1186 834.122 77.3908 817.694 96.479L817.687 96.4863C802.871 113.655 791.671 133.372 784.243 154.329C780.7 164.325 781.27 175.312 785.828 184.874C790.386 194.436 798.559 201.789 808.547 205.316C813.494 207.063 818.737 207.817 823.978 207.536C829.22 207.256 834.356 205.945 839.094 203.68C843.833 201.415 848.08 198.239 851.594 194.334C855.108 190.43 857.819 185.872 859.573 180.922C863.795 169.011 870.173 157.908 878.161 148.652L878.208 148.597C887.08 138.28 898.434 129.69 910.916 123.825L910.949 123.809C919.528 119.779 928.62 116.949 937.967 115.4C943.146 114.542 948.108 112.673 952.568 109.899C957.028 107.125 960.899 103.5 963.961 99.2319C967.023 94.9638 969.215 90.1357 970.413 85.0234C971.61 79.9111 971.79 74.6147 970.941 69.4365C970.092 64.2583 968.231 59.2998 965.465 54.844C962.698 50.3883 959.081 46.5225 954.818 43.4676C950.556 40.4126 945.732 38.2282 940.622 37.0392C935.513 35.8501 930.217 35.6796 925.038 36.5375M1053.04 89.1688C1048.01 90.6935 1043.34 93.1927 1039.27 96.5236C1031.07 103.25 1025.87 112.956 1024.82 123.505C1023.76 134.055 1026.94 144.584 1033.65 152.776L1128.55 268.616C1131.87 272.673 1135.96 276.034 1140.59 278.508C1145.21 280.981 1150.28 282.519 1155.5 283.032C1160.73 283.546 1166 283.025 1171.03 281.501C1176.05 279.976 1180.73 277.478 1184.79 274.147C1192.99 267.421 1198.19 257.716 1199.25 247.166C1200.3 236.617 1197.12 226.088 1190.41 217.895L1095.51 102.052C1090.51 95.9421 1083.8 91.4568 1076.24 89.1634C1068.68 86.87 1060.61 86.8726 1053.04 89.1688ZM777.121 247.959C769.227 248.374 761.63 251.12 755.289 255.851C748.949 260.582 744.15 267.085 741.5 274.537L691.263 415.83C687.71 425.823 688.269 436.811 692.818 446.378C697.366 455.944 705.531 463.305 715.517 466.842C720.462 468.594 725.704 469.353 730.946 469.078C736.187 468.802 741.325 467.497 746.065 465.237C750.806 462.976 755.056 459.805 758.574 455.904C762.092 452.003 764.808 447.448 766.567 442.5L816.804 301.205C820.357 291.212 819.798 280.224 815.249 270.657C810.7 261.091 802.535 253.73 792.549 250.193C787.605 248.442 782.363 247.683 777.121 247.959ZM1242.84 320.85C1237.82 322.375 1233.14 324.875 1229.08 328.206C1220.87 334.932 1215.67 344.637 1214.62 355.186C1213.56 365.736 1216.74 376.265 1223.45 384.458L1296.88 474.09C1306.09 485.335 1316.63 495.42 1328.27 504.122C1332.47 507.263 1337.25 509.544 1342.33 510.835C1347.41 512.127 1352.71 512.404 1357.9 511.65C1363.1 510.896 1368.09 509.127 1372.61 506.443C1377.12 503.758 1381.07 500.212 1384.21 496.006C1390.57 487.512 1393.29 476.847 1391.79 466.357C1390.29 455.866 1384.68 446.41 1376.19 440.069C1369.73 435.228 1363.87 429.623 1358.75 423.374L1358.74 423.369L1285.31 333.735C1280.31 327.625 1273.6 323.139 1266.04 320.846C1258.48 318.552 1250.41 318.554 1242.84 320.85ZM678.898 530.393C670.994 530.31 663.24 532.572 656.615 536.895C649.99 541.217 644.792 547.405 641.678 554.676C636.891 565.853 629.941 576.28 621.455 585.02L621.424 585.051C611.49 595.307 599.115 603.529 585.813 608.711L585.784 608.722L550.06 622.672C545.168 624.582 540.699 627.437 536.907 631.073C533.115 634.709 530.076 639.055 527.962 643.862C525.848 648.67 524.7 653.846 524.586 659.094C524.471 664.342 525.391 669.559 527.293 674.448C531.134 684.32 538.742 692.256 548.442 696.51C558.143 700.763 569.142 700.985 579.02 697.128L614.718 683.189C638.865 673.778 660.706 659.271 678.751 640.658C694.12 624.83 706.455 606.317 715.142 586.042C719.318 576.292 719.453 565.289 715.517 555.454C711.581 545.618 703.897 537.756 694.155 533.596C689.331 531.536 684.146 530.448 678.898 530.393ZM1481.68 464.269C1474.3 467.109 1467.92 472.073 1463.35 478.532C1458.79 484.992 1456.24 492.657 1456.02 500.559C1455.88 505.806 1456.78 511.028 1458.65 515.927C1460.53 520.825 1463.35 525.305 1466.96 529.109C1470.57 532.913 1474.9 535.967 1479.69 538.098C1484.48 540.228 1489.65 541.393 1494.9 541.525L1644.71 545.305C1655.31 545.572 1665.58 541.619 1673.27 534.315C1680.97 527.011 1685.45 516.954 1685.73 506.358C1686.02 495.761 1682.08 485.492 1674.79 477.81C1667.5 470.128 1657.46 465.662 1646.86 465.394L1497.05 461.613C1491.8 461.481 1486.58 462.384 1481.68 464.269ZM425.735 674.487C420.488 674.382 415.27 675.311 410.378 677.221L270.699 731.768C265.807 733.678 261.338 736.532 257.547 740.168C253.755 743.804 250.715 748.149 248.601 752.957C246.487 757.765 245.34 762.941 245.225 768.188C245.11 773.436 246.03 778.653 247.932 783.542C251.773 793.415 259.381 801.351 269.082 805.605C278.782 809.858 289.782 810.081 299.661 806.223L439.342 751.675C449.22 747.817 457.168 740.195 461.438 730.486C465.707 720.777 465.948 709.776 462.107 699.903C459.243 692.54 454.259 686.195 447.785 681.671C441.311 677.147 433.637 674.647 425.735 674.487ZM1781.3 471.83C1773.92 474.67 1767.54 479.633 1762.98 486.093C1758.41 492.553 1755.86 500.219 1755.64 508.121C1755.5 513.369 1756.4 518.591 1758.27 523.489C1760.15 528.388 1762.97 532.867 1766.58 536.671C1770.19 540.475 1774.52 543.529 1779.31 545.659C1784.11 547.789 1789.27 548.954 1794.52 549.086L1850.18 550.49L1850.22 550.493C1863.14 550.805 1875.96 553.524 1887.43 558.439L1887.48 558.458C1896.33 562.248 1904.57 567.326 1911.93 573.529C1915.94 576.909 1920.57 579.465 1925.57 581.051C1930.57 582.638 1935.84 583.223 1941.07 582.773C1946.3 582.324 1951.39 580.849 1956.05 578.433C1960.72 576.017 1964.86 572.706 1968.25 568.691C1971.63 564.676 1974.2 560.034 1975.79 555.031C1977.39 550.027 1977.98 544.761 1977.54 539.531C1977.1 534.302 1975.63 529.212 1973.23 524.552C1970.82 519.893 1967.51 515.755 1963.51 512.374C1950.11 501.078 1935.12 491.835 1919 484.947L1918.99 484.942C1897.71 475.829 1875.03 471.134 1852.33 470.58L1796.67 469.174C1791.43 469.042 1786.2 469.944 1781.3 471.83ZM150.89 798.06C145.657 798.477 140.557 799.921 135.879 802.309C131.201 804.697 127.038 807.982 123.627 811.977C119.03 817.363 114.759 823.02 110.839 828.916C94.7365 853.093 84.8254 880.758 81.6376 909.371L81.6356 909.383C78.4753 937.494 81.8554 966.164 91.9088 992.895C93.7556 997.805 96.5519 1002.3 100.138 1006.13C103.724 1009.95 108.03 1013.03 112.809 1015.19C117.589 1017.35 122.749 1018.55 127.994 1018.72C133.239 1018.88 138.468 1018.01 143.38 1016.16C153.301 1012.41 161.334 1004.88 165.712 995.216C170.09 985.555 170.455 974.558 166.726 964.642C161.269 950.135 159.299 933.856 161.064 918.174L161.071 918.121C162.848 902.131 168.544 886.355 177.346 873.144L177.357 873.123C179.508 869.887 181.851 866.783 184.373 863.828C187.784 859.833 190.376 855.206 192.001 850.213C193.626 845.219 194.252 839.956 193.843 834.724C193.434 829.491 191.999 824.392 189.619 819.718C187.239 815.044 183.961 810.886 179.973 807.482C171.918 800.607 161.456 797.217 150.89 798.06ZM1977.55 638.443C1969.8 639.999 1962.68 643.818 1957.09 649.418C1951.5 655.017 1947.7 662.146 1946.16 669.902C1943.75 682.006 1938.83 693.989 1931.9 704.74L1931.88 704.771L1879.38 786.4C1873.65 795.323 1871.68 806.153 1873.93 816.509C1876.17 826.865 1882.44 835.899 1891.35 841.622C1900.26 847.346 1911.09 849.291 1921.45 847.029C1931.81 844.768 1940.85 838.485 1946.59 829.563L1999.06 747.963C2011.25 729.055 2020.08 707.87 2024.55 685.358C2026.62 674.958 2024.47 664.169 2018.58 655.366C2012.69 646.562 2003.55 640.465 1993.15 638.415C1988 637.4 1982.7 637.41 1977.55 638.443ZM227.188 1044.43C216.679 1045.82 207.149 1051.34 200.694 1059.76C194.238 1068.18 191.387 1078.81 192.766 1089.32C194.146 1099.82 199.644 1109.35 208.05 1115.79L326.914 1206.87C335.321 1213.31 345.947 1216.14 356.456 1214.75C366.965 1213.35 376.496 1207.83 382.951 1199.42C389.406 1191 392.258 1180.37 390.878 1169.86C389.499 1159.35 384.001 1149.83 375.595 1143.39L256.731 1052.3C252.568 1049.11 247.816 1046.78 242.748 1045.43C237.679 1044.07 232.391 1043.73 227.188 1044.43ZM1823.39 895.087C1818.26 896.207 1813.4 898.325 1809.09 901.322C1804.77 904.319 1801.09 908.135 1798.25 912.553L1717.12 1038.71C1711.38 1047.63 1709.42 1058.46 1711.66 1068.82C1713.91 1079.17 1720.17 1088.21 1729.09 1093.93C1738 1099.66 1748.82 1101.6 1759.18 1099.34C1769.54 1097.08 1778.58 1090.79 1784.32 1081.87L1865.45 955.715C1871.19 946.793 1873.15 935.962 1870.91 925.606C1868.67 915.25 1862.4 906.217 1853.49 900.493C1844.58 894.77 1833.75 892.825 1823.39 895.087ZM464.916 1226.59C459.712 1227.28 454.694 1228.99 450.148 1231.62C445.602 1234.25 441.617 1237.75 438.42 1241.92C435.223 1246.09 432.878 1250.85 431.518 1255.92C430.158 1260.99 429.809 1266.28 430.493 1271.48C431.176 1276.68 432.878 1281.7 435.5 1286.24C438.123 1290.78 441.616 1294.76 445.779 1297.95L482.838 1326.35L482.851 1326.36C490.525 1332.24 497.306 1339.21 502.982 1347.04L503.004 1347.07C511.689 1359.04 517.751 1373.23 520.385 1387.78C521.32 1392.94 523.263 1397.87 526.103 1402.28C528.943 1406.69 532.624 1410.49 536.937 1413.47C541.25 1416.46 546.11 1418.56 551.239 1419.67C556.368 1420.77 561.666 1420.85 566.831 1419.91C571.995 1418.96 576.924 1417.01 581.337 1414.16C585.751 1411.32 589.561 1407.63 592.552 1403.31C595.542 1398.99 597.654 1394.13 598.766 1389C599.878 1383.86 599.969 1378.57 599.034 1373.4C594.23 1346.91 583.533 1321.85 567.733 1300.06C557.528 1285.97 545.328 1273.44 531.517 1262.87L531.505 1262.86L494.458 1234.47C490.296 1231.28 485.544 1228.94 480.475 1227.59C475.407 1226.24 470.119 1225.9 464.916 1226.59ZM1713.23 1163.27C1703.06 1166.29 1694.5 1173.22 1689.44 1182.54C1684.37 1191.86 1683.21 1202.8 1686.22 1212.96L1728.66 1356.64C1731.66 1366.8 1738.58 1375.34 1747.89 1380.39C1757.2 1385.44 1768.14 1386.58 1778.31 1383.57C1788.47 1380.55 1797.03 1373.61 1802.09 1364.29C1807.16 1354.97 1808.32 1344.03 1805.32 1333.87L1762.87 1190.2C1761.39 1185.16 1758.92 1180.48 1755.62 1176.4C1752.32 1172.32 1748.25 1168.94 1743.64 1166.44C1739.03 1163.94 1733.97 1162.37 1728.75 1161.83C1723.54 1161.28 1718.26 1161.77 1713.23 1163.27ZM567 1490.21C556.418 1490.83 546.508 1495.63 539.451 1503.55C532.393 1511.47 528.766 1521.86 529.367 1532.44L537.866 1682.07C538.163 1687.31 539.49 1692.44 541.77 1697.16C544.05 1701.88 547.239 1706.11 551.154 1709.6C555.07 1713.09 559.635 1715.77 564.59 1717.49C569.545 1719.21 574.792 1719.94 580.032 1719.64C585.272 1719.33 590.401 1717.99 595.128 1715.71C599.855 1713.42 604.087 1710.22 607.581 1706.3C611.076 1702.38 613.765 1697.81 615.495 1692.85C617.225 1687.89 617.962 1682.64 617.665 1677.4L609.166 1527.78C608.869 1522.54 607.542 1517.41 605.262 1512.69C602.982 1507.96 599.793 1503.73 595.878 1500.25C591.962 1496.76 587.397 1494.08 582.442 1492.35C577.487 1490.63 572.24 1489.9 567 1490.21ZM1798.12 1450.61C1793.08 1452.11 1788.39 1454.58 1784.31 1457.88C1780.23 1461.19 1776.84 1465.27 1774.33 1469.88C1771.82 1474.5 1770.24 1479.56 1769.69 1484.78C1769.14 1490 1769.62 1495.28 1771.11 1500.31L1802.48 1606.51L1802.49 1606.53C1805.18 1615.63 1806.63 1625.01 1806.74 1634.19C1806.81 1639.44 1807.9 1644.63 1809.97 1649.45C1812.04 1654.27 1815.04 1658.63 1818.8 1662.29C1822.55 1665.95 1826.99 1668.83 1831.87 1670.77C1836.74 1672.71 1841.95 1673.67 1847.2 1673.6C1852.45 1673.53 1857.63 1672.42 1862.45 1670.34C1867.28 1668.27 1871.65 1665.26 1875.31 1661.5C1878.98 1657.74 1881.86 1653.29 1883.81 1648.41C1885.76 1643.53 1886.73 1638.32 1886.67 1633.07C1886.46 1616.21 1883.83 1599.61 1879.14 1583.74L1879.13 1583.73L1847.76 1477.54C1846.28 1472.51 1843.81 1467.82 1840.51 1463.74C1837.21 1459.67 1833.14 1456.28 1828.53 1453.78C1823.92 1451.28 1818.86 1449.71 1813.64 1449.17C1808.43 1448.63 1803.15 1449.12 1798.12 1450.61ZM1183.27 1626.77C1163.46 1632.09 1144.68 1640.74 1127.76 1652.37L1043.55 1710.22C1034.8 1716.23 1028.8 1725.46 1026.85 1735.88C1024.9 1746.3 1027.18 1757.06 1033.17 1765.8C1036.13 1770.12 1039.92 1773.82 1044.32 1776.68C1048.72 1779.54 1053.64 1781.5 1058.8 1782.45C1063.95 1783.41 1069.25 1783.34 1074.39 1782.25C1079.52 1781.15 1084.39 1779.06 1088.72 1776.09L1172.95 1718.23L1172.96 1718.23C1182.38 1711.77 1192.82 1706.95 1203.84 1703.98C1214.08 1701.24 1222.82 1694.54 1228.14 1685.36C1233.45 1676.18 1234.9 1665.27 1232.18 1655.03C1230.83 1649.96 1228.49 1645.21 1225.3 1641.04C1222.11 1636.88 1218.14 1633.39 1213.59 1630.76C1209.05 1628.14 1204.04 1626.44 1198.84 1625.75C1193.63 1625.07 1188.35 1625.41 1183.27 1626.77ZM1334.67 1644.98C1326.84 1646.07 1319.5 1649.45 1313.59 1654.7C1307.67 1659.95 1303.44 1666.84 1301.43 1674.49C1300.1 1679.57 1299.78 1684.86 1300.49 1690.05C1301.2 1695.25 1302.93 1700.26 1305.58 1704.79C1308.22 1709.32 1311.74 1713.28 1315.92 1716.44C1320.1 1719.61 1324.86 1721.92 1329.94 1723.25L1474.88 1761.07C1479.96 1762.4 1485.25 1762.71 1490.45 1761.99C1495.65 1761.27 1500.66 1759.53 1505.19 1756.88C1509.72 1754.22 1513.69 1750.7 1516.86 1746.52C1520.04 1742.33 1522.36 1737.56 1523.69 1732.48C1525.02 1727.41 1525.34 1722.12 1524.63 1716.92C1523.92 1711.72 1522.19 1706.71 1519.55 1702.18C1516.9 1697.65 1513.39 1693.69 1509.21 1690.53C1505.03 1687.36 1500.26 1685.05 1495.19 1683.72L1350.24 1645.9C1345.16 1644.57 1339.87 1644.26 1334.67 1644.98ZM580.857 1789.81C570.382 1791.44 560.976 1797.16 554.709 1805.72C548.441 1814.28 545.826 1824.97 547.438 1835.44C548.996 1845.58 551.415 1855.6 554.704 1865.38C562.307 1888.04 574.434 1908.92 590.351 1926.74C610.52 1949.39 636.08 1966.49 664.431 1976.69C674.399 1980.28 685.39 1979.75 694.985 1975.23C704.581 1970.71 711.995 1962.57 715.597 1952.6C717.381 1947.66 718.175 1942.42 717.934 1937.17C717.693 1931.93 716.422 1926.79 714.193 1922.04C711.964 1917.29 708.821 1913.03 704.943 1909.5C701.066 1905.97 696.53 1903.24 691.594 1901.46C675.76 1895.77 661.134 1885.93 650.072 1873.51L650.031 1873.47C641.366 1863.76 634.601 1852.14 630.487 1839.86L630.474 1839.82C628.655 1834.39 627.303 1828.81 626.435 1823.16C625.637 1817.97 623.825 1812.99 621.103 1808.51C618.38 1804.03 614.801 1800.13 610.568 1797.03C606.336 1793.93 601.534 1791.7 596.436 1790.46C591.338 1789.22 586.044 1789 580.857 1789.81ZM934.253 1788.98C929.118 1790.08 924.246 1792.17 919.917 1795.14L796.285 1880.07C791.955 1883.04 788.252 1886.84 785.387 1891.24C782.523 1895.64 780.552 1900.57 779.588 1905.73C778.624 1910.89 778.686 1916.19 779.77 1921.32C780.854 1926.45 782.938 1931.32 785.905 1935.65C788.871 1939.97 792.661 1943.67 797.059 1946.53C801.456 1949.39 806.375 1951.35 811.534 1952.3C816.693 1953.26 821.991 1953.19 827.127 1952.09C832.262 1951 837.133 1948.91 841.463 1945.93L965.092 1861.01C973.836 1855 979.841 1845.77 981.788 1835.35C983.735 1824.93 981.463 1814.17 975.472 1805.43C971.005 1798.92 964.704 1793.88 957.367 1790.95C950.03 1788.02 941.987 1787.34 934.253 1788.98ZM1624.57 1720.63C1616.74 1721.72 1609.4 1725.1 1603.49 1730.35C1597.57 1735.6 1593.34 1742.49 1591.33 1750.14C1590 1755.21 1589.68 1760.5 1590.39 1765.7C1591.1 1770.9 1592.83 1775.91 1595.48 1780.44C1598.12 1784.97 1601.64 1788.93 1605.82 1792.09C1610 1795.26 1614.76 1797.57 1619.84 1798.9L1660.22 1809.43L1660.23 1809.44L1660.25 1809.44C1680.75 1814.81 1702.26 1816.71 1723.77 1814.59C1748.8 1812.17 1772.96 1804.4 1794.67 1792.03C1799.23 1789.43 1803.24 1785.96 1806.47 1781.81C1809.69 1777.66 1812.07 1772.92 1813.46 1767.86C1814.86 1762.8 1815.24 1757.51 1814.59 1752.3C1813.94 1747.1 1812.27 1742.07 1809.68 1737.51C1807.09 1732.95 1803.62 1728.95 1799.48 1725.73C1795.34 1722.51 1790.61 1720.14 1785.55 1718.76C1780.49 1717.37 1775.2 1717 1769.99 1717.65C1764.79 1718.31 1759.76 1719.99 1755.19 1722.59C1743.24 1729.4 1729.7 1733.72 1716.17 1735.03L1716.11 1735.04C1704.46 1736.19 1692.28 1735.17 1680.59 1732.1L1680.55 1732.09L1640.14 1721.55C1635.06 1720.22 1629.77 1719.91 1624.57 1720.63Z" fill="#151515"/>
</g>
<g opacity="0.8">
<path d="M785.463 1143.02C825.912 1135.89 852.92 1097.32 845.788 1056.87C838.655 1016.42 800.084 989.413 759.636 996.545C719.187 1003.68 692.179 1042.25 699.311 1082.7C706.443 1123.15 745.015 1150.15 785.463 1143.02Z" fill="#151515"/>
<path d="M1384.72 1037.36C1425.17 1030.22 1452.18 991.653 1445.04 951.204C1437.91 910.756 1399.34 883.748 1358.89 890.88C1318.44 898.012 1291.43 936.584 1298.57 977.032C1305.7 1017.48 1344.27 1044.49 1384.72 1037.36Z" fill="#151515"/>
<path d="M1138.88 1101.46C1131.5 1104.31 1125.13 1109.28 1120.58 1115.75C1116.03 1122.22 1113.5 1129.9 1113.31 1137.81C1113.28 1139.09 1113.13 1140.36 1112.86 1141.61L1112.86 1141.62C1112.58 1142.95 1112.17 1144.25 1111.63 1145.51L1111.63 1145.51C1111.09 1146.77 1110.43 1147.97 1109.66 1149.1L1109.66 1149.1C1108.88 1150.23 1108.01 1151.27 1107.03 1152.23C1104.76 1154.43 1102.03 1156.09 1099.03 1157.09L1099.01 1157.1C1097.17 1157.7 1095.17 1158.07 1093.24 1158.14L1093.23 1158.14C1092.56 1158.17 1091.88 1158.16 1091.21 1158.12L1091.2 1158.12C1089.84 1158.03 1088.49 1157.81 1087.17 1157.47L1087.17 1157.47C1086.1 1157.18 1085.05 1156.82 1084.04 1156.37L1084.02 1156.36C1082.77 1155.81 1081.58 1155.14 1080.47 1154.35L1080.46 1154.35C1078.94 1153.27 1077.56 1152 1076.37 1150.56L1076.37 1150.56C1076.22 1150.38 1076.08 1150.19 1075.94 1150.01C1069.51 1141.57 1060 1136.03 1049.48 1134.6C1038.97 1133.18 1028.33 1135.99 1019.88 1142.42C1015.71 1145.6 1012.19 1149.57 1009.55 1154.11C1006.91 1158.65 1005.18 1163.67 1004.48 1168.87C1003.77 1174.08 1004.1 1179.37 1005.44 1184.45C1006.78 1189.53 1009.11 1194.29 1012.29 1198.47C1018.54 1206.67 1026.01 1213.86 1034.44 1219.79L1034.44 1219.79L1034.45 1219.79C1039.85 1223.59 1045.61 1226.85 1051.65 1229.52L1051.65 1229.52C1062.61 1234.37 1074.34 1237.23 1086.3 1237.97L1086.31 1237.97L1086.32 1237.97C1089.65 1238.17 1092.96 1238.21 1096.25 1238.08C1105.73 1237.73 1115.11 1236.03 1124.12 1233.05C1131.18 1230.72 1137.97 1227.61 1144.35 1223.78L1144.35 1223.78C1151.08 1219.75 1157.32 1214.94 1162.93 1209.46L1162.95 1209.44C1167.67 1204.83 1171.92 1199.76 1175.65 1194.32L1175.65 1194.32C1179.38 1188.87 1182.57 1183.07 1185.17 1177.01L1185.17 1177C1187.77 1170.93 1189.77 1164.62 1191.14 1158.15L1191.14 1158.15C1192.42 1152.09 1193.14 1145.92 1193.29 1139.73C1193.54 1129.12 1189.57 1118.85 1182.25 1111.17C1174.93 1103.49 1164.86 1099.04 1154.26 1098.78C1149.01 1098.65 1143.78 1099.56 1138.88 1101.46Z" fill="#151515"/>
</g>
</svg>
