<svg width="502" height="480" viewBox="0 0 502 480" fill="none" xmlns="http://www.w3.org/2000/svg">
	<path d="M227.03 24.8243C237.358 6.50098 263.745 6.49392 274.065 24.8115L328.148 120.82C334.84 132.699 346.367 141.072 359.725 143.765L467.739 165.537C488.361 169.693 496.48 194.774 482.262 210.245L407.662 291.411C403.101 296.372 399.66 302.259 397.576 308.672 395.491 315.082 394.812 321.869 395.584 328.566L408.203 438.059C410.61 458.92 389.286 474.461 370.148 465.703L269.956 419.86C263.832 417.057 257.177 415.607 250.442 415.609 243.71 415.609 237.053 417.063 230.928 419.87L130.714 465.769C111.57 474.534 90.2552 459.007 92.6699 438.142L105.351 328.643C106.92 315.091 102.518 301.534 93.2933 291.497L18.7347 210.37C4.52393 194.907 12.6574 169.821 33.2812 165.653L141.308 143.823C154.667 141.124 166.198 132.745 172.896 120.862L227.03 24.8243Z" fill="#e2e2e2" />
	<path d="M274.065 24.8115C263.745 6.49393 237.358 6.50098 227.03 24.8243L172.896 120.862C166.198 132.745 154.667 141.124 141.308 143.823L33.2812 165.653C12.6574 169.821 4.52393 194.907 18.7347 210.37L93.2933 291.497C106.989 305.98 117.175 317.042 137.504 323.272 156.114 328.975 187.346 323.272 187.346 323.272L187.346 347.684C187.346 347.684 186.328 368.536 207.689 368.536 229.05 368.536 229.05 347.684 229.05 347.684L229.05 328.358 230.575 328.358 230.575 347.684C230.575 347.684 230.067 368.536 250.919 368.536 271.771 368.536 271.771 347.684 271.771 347.684L271.771 328.358 273.048 328.358 273.048 347.684C273.048 347.684 272.038 368.536 293.64 368.536 315.242 368.536 312.966 347.684 312.966 347.684L312.966 323.272C321.857 323.335 344.162 329.232 363.316 323.272 383.542 316.978 395.201 304.62 407.417 291.671L407.662 291.411 482.262 210.246C496.48 194.774 488.361 169.693 467.739 165.537L359.725 143.765C346.367 141.072 334.84 132.699 328.148 120.82L274.065 24.8115Z" fill="#e6e6e6" stroke="#151515" stroke-width="19" stroke-linejoin="round" />
	<path d="M275.338 287.671 275.838 287.671 275.338 287.671C275.338 288.635 275.097 289.395 274.679 290.003 274.259 290.615 273.639 291.104 272.835 291.489 271.21 292.264 268.911 292.573 266.275 292.618 263.651 292.663 260.759 292.448 257.979 292.219 257.69 292.195 257.402 292.171 257.116 292.147 254.661 291.943 252.32 291.748 250.41 291.748 248.514 291.748 246.167 291.941 243.691 292.144 243.383 292.169 243.074 292.194 242.762 292.219 239.934 292.449 236.978 292.664 234.29 292.619 231.59 292.573 229.225 292.265 227.55 291.487 226.721 291.101 226.082 290.61 225.649 289.998 225.22 289.39 224.972 288.632 224.972 287.671 224.972 285.744 226.117 283.503 228.051 281.178 229.971 278.87 232.606 276.555 235.446 274.49 238.284 272.427 241.309 270.626 243.997 269.343 246.709 268.05 249.005 267.319 250.41 267.319 251.813 267.319 254.077 268.049 256.739 269.342 259.379 270.623 262.34 272.423 265.114 274.486 267.89 276.55 270.463 278.865 272.335 281.173 274.221 283.496 275.339 285.739 275.338 287.671Z" fill="#151515" stroke="#151515" />
	<path d="M249.714 288.513 249.714 288.513C250.934 295.431 246.314 302.029 239.394 303.25 232.476 304.471 225.878 299.85 224.658 292.931 223.439 286.013 228.059 279.415 234.978 278.195 241.897 276.974 248.494 281.593 249.714 288.513Z" fill="#151515" stroke="#151515" />
	<path d="M276.161 288.513 276.161 288.513C277.38 295.431 272.76 302.029 265.841 303.25 258.923 304.471 252.325 299.85 251.105 292.931 249.885 286.013 254.505 279.415 261.424 278.195 268.343 276.974 274.941 281.593 276.161 288.513Z" fill="#151515" stroke="#151515" />
	<path d="M250.58 1.44321C237.959 1.44693 225.337 7.6132 218.387 19.9412L164.248 115.976C158.97 125.339 149.895 131.935 139.363 134.063L31.3313 155.895C3.60983 161.497-7.70191 196.331 11.4199 217.136L85.9798 298.256C89.5702 302.159 92.2774 306.792 93.9155 311.842 95.554 316.889 96.0856 322.232 95.474 327.504L82.7901 437C79.5359 465.092 109.124 486.616 134.858 474.834L134.859 474.832 235.08 428.934 235.081 428.932C239.905 426.72 245.151 425.575 250.455 425.574 255.762 425.573 261.006 426.715 265.83 428.925L366.025 474.764C391.75 486.536 421.352 464.993 418.113 436.901L418.112 436.903 405.495 327.413C404.886 322.14 405.421 316.798 407.062 311.747 408.703 306.699 411.413 302.064 415.007 298.16L415.008 298.158 489.613 216.991 489.61 216.99C508.746 196.174 497.456 161.348 469.737 155.761L361.717 133.993C351.188 131.871 342.116 125.281 336.844 115.922L282.76 19.9159C275.819 7.59274 263.199 1.43373 250.577 1.43744M250.572 20.734C256.307 20.7323 262.042 23.7277 265.419 29.7211L319.502 125.724C327.612 140.123 341.597 150.278 357.778 153.539L465.798 175.308C479.324 178.033 484.272 193.368 474.964 203.492L400.361 284.659C389.172 296.826 383.824 313.286 385.714 329.708L398.334 439.196C399.904 452.832 386.857 462.368 374.304 456.627L274.11 410.785C259.096 403.914 241.821 403.92 226.803 410.801L126.583 456.699C114.026 462.449 100.985 452.919 102.563 439.285L115.247 329.789C117.15 313.362 111.807 296.911 100.628 284.745L26.0688 203.625C16.7692 193.507 21.727 178.17 35.2542 175.435L143.285 153.603C159.472 150.331 173.461 140.169 181.581 125.765L235.72 29.7297C239.1 23.7349 244.835 20.736 250.571 20.7343" fill="#151515" />
	<path d="M209.659 247.976C209.659 267.919 193.49 284.086 173.545 284.088 153.601 284.09 137.434 267.92 137.435 247.978 137.435 228.035 153.604 211.866 173.548 211.865 193.493 211.865 209.66 228.03 209.659 247.976Z" fill="#151515" stroke="#151515" />
	<path d="M327.645 284.36 327.645 284.36C307.699 284.362 291.532 268.196 291.53 248.25 291.533 228.307 307.703 212.138 327.644 212.137 347.591 212.137 363.757 228.304 363.755 248.248L363.755 248.248C363.757 268.192 347.586 284.362 327.645 284.36Z" fill="#151515" stroke="#151515" />
</svg>