<svg xmlns="http://www.w3.org/2000/svg" width="2000" height="1915" fill="none"><path fill="#ffaff3" stroke="#151515" stroke-width="80" d="M905.504 95.13c41.483-73.507 147.506-73.507 188.996 0l217.42 385.27c26.9 47.672 73.23 81.278 126.9 92.095l434.05 87.471c82.87 16.699 115.52 117.344 58.4 179.399L1631.6 1164.95a188.151 188.151 0 0 0-48.49 149.06l50.83 439.33c9.69 83.71-75.98 146.04-152.89 110.88l-402.64-184.05a188.552 188.552 0 0 0-156.823 0l-402.634 184.05c-76.916 35.15-162.584-27.17-152.898-110.88l50.837-439.33c6.292-54.37-11.413-108.78-48.488-149.06L68.725 839.366c-57.118-62.055-24.463-162.7 58.403-179.399l434.052-87.471c53.674-10.817 100-44.423 126.902-92.095L905.504 95.13Z"/><circle cx="678.571" cy="1007.14" r="78.571" fill="#151515"/><circle cx="1321.43" cy="1007.14" r="78.571" fill="#151515"/><path stroke="#151515" stroke-linecap="round" stroke-width="80" d="M936.158 1196.89h126.052"/></svg>