<svg xmlns="http://www.w3.org/2000/svg" width="1967" height="1874" fill="none"><g opacity=".8"><path fill="#ffaff3" fill-opacity=".8" stroke="#151515" stroke-dasharray="150 150" stroke-linecap="round" stroke-linejoin="round" stroke-width="80" d="M861.088 93.433c53.75-95.244 191.072-95.244 244.822 0l205.79 364.659c20.05 35.532 54.59 60.594 94.62 68.661l410.83 82.792c107.31 21.624 149.74 152.067 75.66 232.555l-283.65 308.16a140.232 140.232 0 0 0-36.14 111.1l48.12 415.83c12.57 108.6-98.53 189.22-198.07 143.72l-381.09-174.2a140.71 140.71 0 0 0-116.958 0l-381.093 174.2c-99.537 45.5-210.635-35.11-198.067-143.72l48.118-415.83a140.248 140.248 0 0 0-36.142-111.1L74.192 842.1C.108 761.612 42.543 631.169 149.847 609.545l410.831-82.792c40.031-8.067 74.568-33.129 94.62-68.661l205.79-364.659Z"/><circle cx="679.268" cy="975.261" r="74.368" fill="#151515"/><circle cx="1287.73" cy="975.261" r="74.368" fill="#151515"/><path stroke="#151515" stroke-dasharray="150 150" stroke-linecap="round" stroke-linejoin="round" stroke-width="80" d="M1042.25 1109.27a60.844 60.844 0 0 1-9.14 21.92 60.953 60.953 0 0 1-16.82 16.75 60.972 60.972 0 0 1-21.957 9.03 60.994 60.994 0 0 1-23.741-.05 60.819 60.819 0 0 1-21.913-9.14 60.813 60.813 0 0 1-16.749-16.82 60.921 60.921 0 0 1-9.035-21.96"/></g></svg>