<svg width="512" height="512" viewBox="0 0 512 512" fill="none" xmlns="http://www.w3.org/2000/svg">
<g clip-path="url(#clip0_1247_14)">
<rect width="512" height="512" fill="#FFAFF3"/>
<rect width="663.797" height="158.099" transform="translate(-170.077 55.8691) rotate(-20)" fill="#F24D6B"/>
<rect width="663.797" height="84" transform="translate(-116.004 204.433) rotate(-20)" fill="#FFA564"/>
<rect width="663.797" height="84" transform="translate(-87.2744 283.367) rotate(-20)" fill="#ECE072"/>
<rect width="663.797" height="84" transform="translate(-58.5449 362.302) rotate(-20)" fill="#8CE685"/>
<rect width="663.797" height="84" transform="translate(-29.8154 441.236) rotate(-20)" fill="#88CFDB"/>
<rect width="663.797" height="172.951" transform="translate(-1.08594 520.17) rotate(-20)" fill="#B198F6"/>
<path d="M259.02 58.7839C271.331 56.6131 284.703 60.4519 293.598 71.2773L362.895 155.607C369.651 163.829 379.636 168.698 390.275 168.959L499.404 171.636C527.408 172.324 544.422 204.346 529.34 227.93L470.535 319.89C467.703 324.315 465.858 329.3 465.126 334.505C464.394 339.711 464.793 345.013 466.295 350.05L497.465 454.65C505.461 481.486 480.294 507.575 453.168 500.517L347.525 473.022C342.438 471.696 337.125 471.482 331.949 472.394C326.773 473.307 321.855 475.325 317.528 478.31L227.66 540.28C204.587 556.193 172.012 540.283 170.349 512.329L163.862 403.377C163.551 398.13 162.112 393.011 159.644 388.37C157.176 383.729 153.738 379.675 149.562 376.485L149.562 376.484L62.8532 310.181C40.6149 293.177 45.649 257.267 71.7295 247.042L173.362 207.202C183.269 203.318 190.987 195.328 194.523 185.292L230.798 82.3444C235.456 69.1296 246.709 60.9489 259.021 58.7779" fill="#FFAFF3"/>
<path d="M205.025 334.326C217.892 332.057 226.484 319.793 224.216 306.933C221.948 294.074 209.68 285.488 196.814 287.756C183.948 290.025 175.356 302.289 177.623 315.149C179.891 328.009 192.159 336.595 205.025 334.326Z" fill="#151515"/>
<path d="M395.625 300.718C408.491 298.449 417.083 286.185 414.816 273.326C412.548 260.466 400.28 251.88 387.414 254.149C374.547 256.417 365.955 268.681 368.223 281.541C370.49 294.401 382.759 302.987 395.625 300.718Z" fill="#151515"/>
<path d="M280.731 329.047C279.256 329.616 277.907 330.471 276.762 331.561C275.617 332.652 274.697 333.957 274.057 335.402C273.416 336.848 273.067 338.405 273.028 339.985C272.99 341.566 273.263 343.138 273.833 344.613C275.318 348.458 277.546 351.972 280.39 354.956L280.391 354.957L280.392 354.958C283.236 357.941 286.641 360.335 290.412 362.001L290.415 362.003C294.183 363.67 298.242 364.579 302.362 364.679L302.366 364.679L302.371 364.679C306.49 364.776 310.589 364.062 314.433 362.577L314.434 362.577C318.28 361.093 321.796 358.866 324.781 356.024L324.782 356.022L324.784 356.02C327.767 353.178 330.161 349.776 331.83 346.009C333.502 342.238 334.413 338.174 334.51 334.051C334.585 330.859 333.389 327.769 331.184 325.459C328.979 323.15 325.947 321.81 322.754 321.735C321.173 321.699 319.6 321.973 318.125 322.544C316.65 323.115 315.302 323.97 314.158 325.061C313.013 326.153 312.095 327.459 311.456 328.905C310.817 330.351 310.468 331.908 310.431 333.488C310.409 334.443 310.198 335.384 309.81 336.256L309.808 336.261L309.806 336.267C309.418 337.143 308.862 337.935 308.168 338.596C307.474 339.257 306.656 339.774 305.761 340.119L305.759 340.12L305.756 340.121C304.86 340.467 303.905 340.634 302.945 340.612C301.987 340.588 301.042 340.376 300.165 339.988L300.161 339.986L300.157 339.984C299.282 339.597 298.491 339.041 297.831 338.349L297.83 338.348L297.829 338.347C297.167 337.653 296.649 336.835 296.303 335.94C295.733 334.465 294.879 333.117 293.788 331.972C292.697 330.828 291.392 329.909 289.946 329.269C288.5 328.629 286.942 328.28 285.361 328.242C283.78 328.204 282.207 328.477 280.731 329.047Z" fill="#151515"/>
<path d="M256.634 45.2575C269.662 42.9602 283.812 47.0225 293.225 58.478L366.556 147.716C373.705 156.416 384.271 161.568 395.529 161.845L511.01 164.678C540.643 165.405 558.647 199.291 542.688 224.248L480.46 321.56C477.463 326.243 475.511 331.518 474.736 337.026C473.962 342.534 474.384 348.145 475.973 353.476L508.957 464.164C517.419 492.561 490.787 520.169 462.082 512.7L462.081 512.7L350.29 483.604L350.29 483.604C344.907 482.201 339.286 481.974 333.808 482.94C328.331 483.906 323.126 486.041 318.548 489.201L318.547 489.201L223.45 554.777C199.033 571.616 164.562 554.78 162.803 525.2L162.803 525.2L155.939 409.907L155.938 409.906C155.609 404.353 154.087 398.936 151.475 394.025C148.864 389.114 145.225 384.825 140.807 381.449L140.806 381.448L49.0508 311.286L49.0507 311.285C25.518 293.292 30.8452 255.293 58.4436 244.473L165.991 202.313C176.475 198.204 184.643 189.748 188.384 179.128L226.771 70.1891C231.699 56.2053 243.607 47.5485 256.636 45.2511M260.147 65.1643C254.226 66.2082 248.851 70.3452 246.454 77.1461L208.067 186.083C202.31 202.421 189.72 215.45 173.609 221.767L66.0615 263.926C52.5934 269.206 50.2721 285.933 61.7176 294.684L153.473 364.847C167.231 375.365 175.744 391.374 176.774 408.668L183.638 523.962C184.492 538.318 199.694 545.783 211.607 537.568L211.607 537.568L306.705 471.992C320.955 462.163 338.789 459.019 355.542 463.381L467.33 492.477C481.336 496.121 493.067 483.909 488.962 470.126L455.977 359.438C451.029 342.832 453.555 324.879 462.885 310.288L525.113 212.976C532.874 200.839 524.97 185.915 510.51 185.559L395.029 182.725C377.727 182.3 361.441 174.363 350.442 160.978L350.442 160.978L277.112 71.74C272.534 66.1695 266.068 64.1204 260.148 65.1643" fill="#151515"/>
</g>
<defs>
<clipPath id="clip0_1247_14">
<rect width="512" height="512" fill="white"/>
</clipPath>
</defs>
</svg>
