<svg xmlns="http://www.w3.org/2000/svg" fill="none" viewBox="0 0 2000 1915"><path fill="#ffaff3" d="M905.504 95.13c41.483-73.507 147.506-73.507 188.996 0l217.42 385.27c26.9 47.672 73.23 81.278 126.9 92.095l434.05 87.471c82.87 16.699 115.52 117.344 58.4 179.399L1631.6 1164.95a188.15 188.15 0 0 0-48.49 149.06l50.83 439.33c9.69 83.71-75.98 146.04-152.89 110.88l-402.64-184.05a188.55 188.55 0 0 0-156.823 0l-402.634 184.05c-76.915 35.16-162.584-27.17-152.898-110.88l50.837-439.33c6.292-54.37-11.413-108.78-48.488-149.06L68.725 839.366c-57.118-62.055-24.463-162.7 58.403-179.399l434.053-87.471c53.673-10.817 99.999-44.423 126.901-92.095z" color="#000"/><path fill="#151515" d="M999.998 1.287c-50.71 0-101.42 24.727-129.33 74.184L653.246 460.742c-21.197 37.562-57.653 64.015-99.967 72.543l-434.052 87.47c-111.382 22.446-156.79 162.2-79.932 245.7l299.678 325.584a148.08 148.08 0 0 1 38.183 117.373l-50.836 439.33c-13.042 112.714 105.876 199.118 209.262 151.858l402.637-184.051.002-.002a148.48 148.48 0 0 1 123.554 0l.002.002 402.643 184.05c103.382 47.263 222.301-39.144 209.254-151.859l.002.002-50.83-439.328v-.002a148.07 148.07 0 0 1 38.181-117.367l.002-.004 299.672-325.586v-.002c76.858-83.5 31.455-223.254-79.93-245.7l-434.048-87.47c-42.311-8.527-78.773-34.981-99.967-72.54L1129.334 75.468c-27.914-49.455-78.626-74.182-129.336-74.182m.002 77.426c23.044 0 46.09 12.026 59.666 36.078l217.418 385.266c32.606 57.784 88.805 98.544 153.834 111.65l434.05 87.47c54.356 10.954 74.253 72.488 36.872 113.098l-299.672 325.586c-44.938 48.81-66.415 114.837-58.793 180.744l50.83 439.333v.001c6.333 54.706-46.086 92.96-96.523 69.903h-.002l-402.64-184.051c-60.336-27.588-129.752-27.588-190.087.002L502.324 1827.84h-.002c-50.444 23.06-102.863-15.196-96.533-69.902l50.838-439.33c7.627-65.91-13.86-131.93-58.793-180.747L98.156 812.277C60.778 771.668 80.68 710.132 135.03 699.18l434.055-87.473c65.031-13.106 121.227-53.865 153.834-111.646v-.002l217.422-385.27c13.573-24.05 36.616-36.076 59.66-36.076" color="#000"/><path fill="#151515" d="M942.547 1109.19a40 40 0 0 0-31.543 46.956 104.3 104.3 0 0 0 15.484 37.637l.002.002.002.004a104.2 104.2 0 0 0 28.715 28.834l.008.006a104.3 104.3 0 0 0 37.533 15.652l.014.004.015.002a104.4 104.4 0 0 0 40.65.086l.01-.002a104.3 104.3 0 0 0 37.633-15.478l.008-.004.006-.004a104.3 104.3 0 0 0 28.818-28.7 104.1 104.1 0 0 0 15.666-37.587 40 40 0 0 0-31.35-47.086 40 40 0 0 0-47.087 31.35 24.1 24.1 0 0 1-3.627 8.7l-.01.016-.012.016a24.3 24.3 0 0 1-6.705 6.68l-.002.001a24.3 24.3 0 0 1-8.744 3.592l-.01.002-.007.002c-3.13.615-6.348.61-9.475-.016a24.3 24.3 0 0 1-8.734-3.646l-.014-.01-.014-.008a24.2 24.2 0 0 1-6.666-6.693l-.002-.004v-.002a24.3 24.3 0 0 1-3.605-8.76 40 40 0 0 0-46.957-31.543M626.826 896.08a40 40 0 0 0-39.949 19.479 40 40 0 0 0 14.396 54.707l26.483 15.447-26.48 15.445a40 40 0 0 0-14.399 54.705 40 40 0 0 0 54.705 14.399l85.715-49.996a40.004 40.004 0 0 0 0-69.104l-85.715-50a40 40 0 0 0-14.756-5.082m767.776 0a40 40 0 0 0-14.758 5.084l-85.71 50a40.004 40.004 0 0 0 0 69.102l85.712 49.996a40 40 0 0 0 54.705-14.397 40 40 0 0 0-14.397-54.707l-26.478-15.445 26.48-15.447a40 40 0 0 0 14.395-54.707 40 40 0 0 0-39.95-19.479" color="#000"/></svg>