<svg width="2000" height="1915" viewBox="0 0 2000 1915" fill="none" xmlns="http://www.w3.org/2000/svg">
<path d="M905.504 95.13C946.987 21.6234 1053.01 21.6233 1094.5 95.1299L1311.92 480.401C1338.82 528.073 1385.15 561.679 1438.82 572.496L1872.87 659.967C1955.74 676.666 1988.39 777.311 1931.27 839.366L1631.6 1164.95C1594.52 1205.23 1576.82 1259.64 1583.11 1314.01L1633.94 1753.34C1643.63 1837.05 1557.96 1899.38 1481.05 1864.22L1078.41 1680.17C1028.62 1657.4 971.38 1657.4 921.587 1680.17L518.953 1864.22C442.038 1899.38 356.369 1837.05 366.055 1753.34L416.892 1314.01C423.184 1259.64 405.479 1205.23 368.404 1164.95L68.7254 839.366C11.607 777.311 44.2619 676.666 127.128 659.967L561.181 572.496C614.854 561.679 661.18 528.073 688.082 480.401L905.504 95.13Z" fill="#ffaff3" stroke="#151515" stroke-width="80"/>
<path d="M718.958 957.43C717.292 965.706 714.013 973.573 709.306 980.582C704.6 987.591 698.56 993.604 691.53 998.278C684.499 1002.95 676.618 1006.2 668.334 1007.82C660.05 1009.45 651.527 1009.43 643.251 1007.77C634.975 1006.1 627.108 1002.82 620.099 998.115C613.091 993.409 607.078 987.368 602.403 980.338C597.729 973.308 594.486 965.426 592.857 957.143" stroke="#151515" stroke-width="80" stroke-linecap="round"/>
<path d="M1054.93 1148.73C1053.26 1157.01 1049.98 1164.87 1045.28 1171.88C1040.57 1178.89 1034.53 1184.9 1027.5 1189.58C1020.47 1194.25 1012.59 1197.5 1004.3 1199.12C996.019 1200.75 987.496 1200.73 979.22 1199.07C970.944 1197.4 963.077 1194.12 956.068 1189.41C949.059 1184.71 943.046 1178.67 938.372 1171.64C933.698 1164.61 930.454 1156.73 928.826 1148.44" stroke="#151515" stroke-width="80" stroke-linecap="round"/>
<path d="M1383.24 957.43C1381.58 965.706 1378.3 973.573 1373.59 980.582C1368.89 987.591 1362.84 993.604 1355.81 998.278C1348.78 1002.95 1340.9 1006.2 1332.62 1007.82C1324.34 1009.45 1315.81 1009.43 1307.54 1007.77C1299.26 1006.1 1291.39 1002.82 1284.38 998.115C1277.38 993.409 1271.36 987.368 1266.69 980.338C1262.01 973.308 1258.77 965.426 1257.14 957.143" stroke="#151515" stroke-width="80" stroke-linecap="round"/>
</svg>
