<svg width="495" height="560" viewBox="0 0 495 560" fill="none" xmlns="http://www.w3.org/2000/svg">
<path d="M202.007 101.654C208.879 82.15 234.425 77.6384 247.543 93.6115L316.296 177.332C324.803 187.692 337.393 193.83 350.785 194.157L459.08 196.796C479.756 197.299 491.898 220.196 480.773 237.603L422.403 328.921C418.834 334.503 416.507 340.791 415.585 347.356C414.66 353.918 415.162 360.605 417.053 366.956L447.963 470.811C453.854 490.598 435.862 509.285 415.837 504.073L311.007 476.793C304.599 475.124 297.908 474.857 291.388 476.009C284.87 477.158 278.673 479.702 273.222 483.465L184.032 545.012C166.994 556.767 143.706 545.372 142.482 524.759L136.066 416.579C135.273 403.19 128.695 390.816 118.051 382.673L32.0146 316.855C15.6163 304.311 19.2083 278.634 38.4645 271.078L139.328 231.501C151.8 226.607 161.534 216.526 165.99 203.877L202.007 101.654Z" fill="#FFAFF3"/>
<path d="M220.817 74.9959C208.599 77.154 197.431 85.279 192.807 98.4012L156.785 200.623C153.273 210.589 145.612 218.524 135.779 222.383L34.9117 261.963C9.02856 272.119 4.0234 307.776 26.0887 324.655L112.125 390.465C116.268 393.631 119.679 397.655 122.128 402.264C124.576 406.871 126.002 411.953 126.31 417.163L132.723 525.34C134.368 553.093 166.689 568.881 189.593 553.081L189.594 553.079L278.791 491.532V491.53C283.084 488.565 287.968 486.56 293.103 485.654C298.241 484.747 303.513 484.958 308.56 486.274L413.393 513.549C440.31 520.555 465.292 494.644 457.36 467.998V468.001L426.453 364.148C424.963 359.147 424.569 353.884 425.295 348.713C426.022 343.545 427.855 338.595 430.668 334.202V334.199L489.043 242.879L489.04 242.878C504.013 219.458 487.137 187.667 459.347 186.99L351.047 184.355C340.49 184.099 330.582 179.267 323.881 171.105L255.128 87.387C246.303 76.641 233.033 72.8324 220.814 74.9907M224.103 93.6742C229.655 92.6935 235.719 94.6146 240.012 99.8408L308.764 183.557C319.073 196.113 334.347 203.557 350.57 203.952L458.87 206.587C472.431 206.917 479.839 220.919 472.556 232.31L414.183 323.631C405.427 337.321 403.059 354.17 407.692 369.747L438.602 473.598C442.451 486.531 431.446 497.991 418.313 494.576L313.48 467.298C297.771 463.208 281.046 466.163 267.681 475.389L178.485 536.935C167.31 544.647 153.056 537.646 152.256 524.176L145.845 415.999C144.883 399.77 136.901 384.754 124.001 374.883L37.965 309.073C27.2339 300.865 29.4158 285.169 42.0456 280.212L142.913 240.631C158.025 234.701 169.835 222.474 175.237 207.142V207.141L211.259 104.919C213.508 98.5382 218.549 94.6555 224.102 93.6747" fill="#151515"/>
<path d="M166.645 345.677C178.065 343.662 185.691 332.773 183.678 321.354C181.664 309.932 170.775 302.309 159.355 304.323C147.935 306.337 140.309 317.228 142.322 328.646C144.336 340.065 155.225 347.692 166.645 345.677Z" fill="#151515"/>
<path d="M315.647 319.677C327.066 317.665 334.692 306.773 332.677 295.354C330.665 283.934 319.776 276.308 308.355 278.323C296.936 280.337 289.31 291.227 291.322 302.647C293.337 314.068 304.226 321.692 315.647 319.677Z" fill="#151515"/>
<path d="M227 365.557L258.514 360" stroke="#151515" stroke-width="21" stroke-linecap="round"/>
<path d="M283 270.905L319.252 254" stroke="#151515" stroke-width="21" stroke-linecap="round"/>
<path d="M141 286L180.848 289.486" stroke="#151515" stroke-width="21" stroke-linecap="round"/>
<path d="M83.9386 257.995C83.9386 257.995 65.1149 376.06 57.3135 380.832C47.1021 387.078 26.7846 380.541 21.8115 373.748C12.6408 361.221 38.9266 317.044 42.8514 249.797L83.9386 257.995Z" fill="#C9B39A" stroke="#151515" stroke-width="17"/>
<path d="M42.8516 249.797L83.9388 257.995C83.9388 257.995 123.096 51.1707 119.122 18.2085C56.2149 77.1162 44.5752 166.715 25.6112 246.357L42.8516 249.797Z" fill="#F3F3F3" stroke="#151515" stroke-width="17"/>
</svg>
