<?xml version="1.0" encoding="UTF-8" standalone="no"?>
<svg
   viewBox="0 0 2000 1915"
   version="1.1"
   id="svg3"
   sodipodi:docname="lucy-wasm.svg"
   inkscape:version="1.3.2 (091e20e, 2023-11-25)"
   xml:space="preserve"
   inkscape:export-filename="lucy-wasm.png"
   inkscape:export-xdpi="14.604304"
   inkscape:export-ydpi="14.604304"
   xmlns:inkscape="http://www.inkscape.org/namespaces/inkscape"
   xmlns:sodipodi="http://sodipodi.sourceforge.net/DTD/sodipodi-0.dtd"
   xmlns="http://www.w3.org/2000/svg"
   xmlns:svg="http://www.w3.org/2000/svg"><defs
     id="defs3" /><sodipodi:namedview
     id="namedview3"
     pagecolor="#ffffff"
     bordercolor="#000000"
     borderopacity="0.25"
     inkscape:showpageshadow="2"
     inkscape:pageopacity="0.0"
     inkscape:pagecheckerboard="0"
     inkscape:deskcolor="#d1d1d1"
     showgrid="false"
     inkscape:zoom="0.31128398"
     inkscape:cx="899.50019"
     inkscape:cy="1040.8502"
     inkscape:window-width="2560"
     inkscape:window-height="1387"
     inkscape:window-x="1800"
     inkscape:window-y="25"
     inkscape:window-maximized="1"
     inkscape:current-layer="svg3" /><path
     fill="#ffaff3"
     d="M 715.3751,137.98872 C 739.40067,57.075859 842.75169,33.405316 899.60498,95.794441 L 1197.5491,422.80164 c 36.8639,40.4634 89.5271,62.87804 144.2574,61.44021 l 442.623,-11.63839 c 84.5065,-2.22319 138.8006,88.58864 96.9772,161.83435 l -219.4209,384.26409 a 188.15,188.15 0 0 0 -13.9885,156.1233 l 147.6276,416.8941 c 28.1336,79.4339 -41.459,159.3166 -124.2774,142.2142 l -433.567,-89.5154 a 188.55,188.55 0 0 0 -152.862,35.0101 l -351.37894,269.292 c -67.12749,51.4344 -164.54238,9.8117 -173.79495,-73.9465 l -48.52654,-439.5913 c -6.00492,-54.4024 -35.41011,-103.4866 -80.54189,-134.473 L 65.873971,1050.2503 C -3.6562248,1002.5131 5.7055946,897.11803 82.751874,862.33968 L 486.31907,680.17462 c 49.90442,-22.52671 87.55867,-65.62682 103.13697,-118.10107 z"
     id="path1" /><path
     fill="#ffaff3"
     d="m 1636.1529,1207.3341 126.3467,423.8291 c 24.0788,80.7556 -49.4661,157.0151 -131.3132,135.7445 l -428.4829,-111.3361 c -52.9912,-13.7769 -109.3541,-3.8386 -154.4376,27.2315 l -364.55317,251.1698 c -69.64374,47.9723 -164.82807,1.4745 -169.83122,-82.6447 l -26.22418,-441.4833 449.40395,-82.5041 c 0,0 5.81812,107.0947 147.06872,75.6643 115.5666,-10.5913 84.0317,-115.3352 84.0317,-115.3352 z"
     id="path4"
     style="fill:#654ff0;fill-opacity:1"
     sodipodi:nodetypes="cccccccccccc" /><g
     fill="#151515"
     id="g3"
     transform="rotate(-10,999.99884,957.52831)"><path
       d="m 1000,1.287 c -50.71,0 -101.42,24.727 -129.33,74.184 l -217.42,385.27 c -21.197,37.562 -57.654,64.015 -99.969,72.543 l -434.05,87.47 c -111.38,22.446 -156.79,162.2 -79.932,245.7 l 299.68,325.58 a 148.08,148.08 0 0 1 38.183,117.37 l -50.836,439.33 c -13.042,112.71 105.87,199.11 209.26,151.86 l 0.002,-0 402.64,-184.05 0.002,-0 a 148.48,148.48 0 0 1 123.55,0 l 0,0 402.64,184.05 c 103.38,47.263 222.3,-39.144 209.25,-151.86 l 0,0 -50.83,-439.33 v -0 a 148.07,148.07 0 0 1 38.181,-117.37 l 0,-0 299.67,-325.59 v -0.002 c 76.858,-83.5 31.455,-223.25 -79.93,-245.7 l -434.05,-87.47 c -42.311,-8.527 -78.773,-34.981 -99.967,-72.54 L 1129.33,75.446 C 1101.416,25.991 1050.704,1.264 999.99,1.264 m 0.002,77.426 c 23.044,0 46.09,12.026 59.666,36.078 l 217.42,385.27 c 32.606,57.784 88.805,98.544 153.83,111.65 l 434.05,87.47 c 54.356,10.954 74.253,72.488 36.872,113.1 l -299.67,325.59 c -44.938,48.81 -66.415,114.84 -58.793,180.74 l 50.83,439.33 v 0 c 6.333,54.706 -46.086,92.96 -96.523,69.903 h -0 l -402.64,-184.05 c -60.336,-27.588 -129.75,-27.588 -190.09,0 l -402.63,184.05 c -50.446,23.052 -102.86,-15.196 -96.535,-69.902 l 50.838,-439.33 c 7.627,-65.91 -13.86,-131.93 -58.793,-180.75 L 98.142,812.262 c -37.378,-40.609 -17.476,-102.14 36.874,-113.1 l 434.05,-87.473 c 65.032,-13.106 121.23,-53.865 153.84,-111.65 v -0.002 l 217.42,-385.27 c 13.573,-24.05 36.616,-36.076 59.66,-36.076"
       id="path2" /><circle
       cx="678.57001"
       cy="1007.1"
       r="78.570999"
       id="circle2" /><circle
       cx="1321.4"
       cy="1007.1"
       r="78.570999"
       id="circle3" /><path
       d="m 929.244,1112.08 a 40,40 0 0 0 -31.543,46.96 104.3,104.3 0 0 0 15.485,37.634 l 10e-4,0 0.002,0 a 104.2,104.2 0 0 0 28.715,28.834 l 0.008,0.01 a 104.3,104.3 0 0 0 37.533,15.652 l 0.014,0 0.016,0 a 104.4,104.4 0 0 0 40.666,0.082 h 0 a 104.3,104.3 0 0 0 37.625,-15.477 l 0.01,-0 0.01,-0 a 104.3,104.3 0 0 0 28.819,-28.699 104.1,104.1 0 0 0 15.664,-37.588 40,40 0 0 0 -31.35,-47.086 40,40 0 0 0 -47.086,31.352 24.1,24.1 0 0 1 -3.627,8.7 l -0.012,0.015 -0.01,0.017 a 24.2,24.2 0 0 1 -6.7,6.676 24.2,24.2 0 0 1 -8.75,3.596 l -0.01,0 -0.01,0 c -3.13,0.615 -6.348,0.61 -9.475,-0.016 a 24.3,24.3 0 0 1 -8.734,-3.646 l -0.014,-0.01 -0.011,-0.01 a 24.2,24.2 0 0 1 -6.666,-6.693 l -0.002,-0 -0.002,-0 a 24.3,24.3 0 0 1 -3.604,-8.76 40,40 0 0 0 -46.959,-31.543"
       id="path3" /></g><g
     id="g1"
     transform="matrix(0.71807361,-0.12661575,0.11443717,0.64900546,1137.9886,1232.2975)"><path
       d="m 142.16,329.81 h 40.56 l 27.69,147.47 h 0.5 l 33.28,-147.47 h 37.94 l 30.06,149.28 h 0.59 l 31.56,-149.28 h 39.78 L 332.43,546.5 H 292.18 L 262.37,399.03 h -0.78 L 229.68,546.5 h -41 z m 287.69,0 h 63.94 l 63.5,216.69 H 515.45 L 501.64,498.28 H 428.8 l -10.66,48.22 h -40.75 z m 24.34,53.41 -17.69,79.5 h 55.06 l -20.31,-79.5 z"
       fill="#ffffff"
       id="path2-9" /></g></svg>
