<svg xmlns="http://www.w3.org/2000/svg" width="2000" height="1915" fill="none"><defs><filter id="a" width="1407.01" height="1351" x="0" y="0" color-interpolation-filters="sRGB" filterUnits="userSpaceOnUse"><feFlood flood-opacity="0" result="BackgroundImageFix"/><feColorMatrix in="SourceAlpha" result="hardAlpha" values="0 0 0 0 0 0 0 0 0 0 0 0 0 0 0 0 0 0 127 0"/><feOffset/><feGaussianBlur stdDeviation="25"/><feComposite in2="hardAlpha" operator="out"/><feColorMatrix values="0 0 0 0 1 0 0 0 0 0.433333 0 0 0 0 0.841334 0 0 0 1 0"/><feBlend in2="BackgroundImageFix" result="effect1_dropShadow_88_323"/><feBlend in="SourceGraphic" in2="effect1_dropShadow_88_323" result="shape"/></filter></defs><g fill="#ffaff3" filter="url(#a)" style="display:inline" transform="matrix(1.4199 0 0 1.41563 .595 1.244)"><path d="M905.504 95.13c41.483-73.507 147.506-73.507 188.996 0l217.42 385.27c26.9 47.672 73.23 81.278 126.9 92.095l434.05 87.471c82.87 16.699 115.52 117.344 58.4 179.399L1631.6 1164.95a188.151 188.151 0 0 0-48.49 149.06l50.83 439.33c9.69 83.71-75.98 146.04-152.89 110.88l-402.64-184.05a188.552 188.552 0 0 0-156.823 0l-402.634 184.05c-76.916 35.15-162.584-27.17-152.898-110.88l50.837-439.33c6.292-54.37-11.413-108.78-48.488-149.06L68.725 839.366c-57.118-62.055-24.463-162.7 58.403-179.399l434.052-87.471c53.674-10.817 100-44.423 126.902-92.095z" style="display:inline;font-variation-settings:normal;opacity:1;vector-effect:none;fill:#ffd3e6;fill-opacity:1;stroke:none;stroke-width:1;stroke-linecap:butt;stroke-linejoin:miter;stroke-miterlimit:4;stroke-dasharray:none;stroke-dashoffset:0;stroke-opacity:1;-inkscape-stroke:none;stop-color:#000;stop-opacity:1" transform="matrix(.70427 0 0 .7064 -.419 -.879)"/><path stroke="#151515" stroke-width="80" d="M905.504 95.13c41.483-73.507 147.506-73.507 188.996 0l217.42 385.27c26.9 47.672 73.23 81.278 126.9 92.095l434.05 87.471c82.87 16.699 115.52 117.344 58.4 179.399L1631.6 1164.95a188.151 188.151 0 0 0-48.49 149.06l50.83 439.33c9.69 83.71-75.98 146.04-152.89 110.88l-402.64-184.05a188.552 188.552 0 0 0-156.823 0l-402.634 184.05c-76.916 35.15-162.584-27.17-152.898-110.88l50.837-439.33c6.292-54.37-11.413-108.78-48.488-149.06L68.725 839.366c-57.118-62.055-24.463-162.7 58.403-179.399l434.052-87.471c53.674-10.817 100-44.423 126.902-92.095z" style="display:inline;font-variation-settings:normal;opacity:1;vector-effect:none;fill:none;fill-opacity:1;stroke:#ffa5e6;stroke-width:50;stroke-linecap:butt;stroke-linejoin:miter;stroke-miterlimit:4;stroke-dasharray:none;stroke-dashoffset:0;stroke-opacity:1;-inkscape-stroke:none;stop-color:#000;stop-opacity:1" transform="matrix(.70427 0 0 .7064 -.419 -.879)"/></g><circle cx="678.571" cy="1007.14" r="78.571" fill="#151515" style="display:inline;font-variation-settings:normal;opacity:1;vector-effect:none;fill:#9f57a5;fill-opacity:1;stroke-width:1;stroke-linecap:butt;stroke-linejoin:miter;stroke-miterlimit:4;stroke-dasharray:none;stroke-dashoffset:0;stroke-opacity:1;-inkscape-stroke:none;stop-color:#000;stop-opacity:1"/><circle cx="1321.43" cy="1007.14" r="78.571" fill="#151515" style="display:inline;font-variation-settings:normal;opacity:1;vector-effect:none;fill:#9f57a5;fill-opacity:1;stroke-width:1;stroke-linecap:butt;stroke-linejoin:miter;stroke-miterlimit:4;stroke-dasharray:none;stroke-dashoffset:0;stroke-opacity:1;-inkscape-stroke:none;stop-color:#000;stop-opacity:1"/><path stroke="#151515" stroke-linecap="round" stroke-width="80" d="M1063.048 1151.621a64.085 64.085 0 0 1-9.65 23.15 64.254 64.254 0 0 1-17.77 17.7 64.252 64.252 0 0 1-23.2 9.54 64.346 64.346 0 0 1-25.08-.05 64.292 64.292 0 0 1-23.154-9.66 64.172 64.172 0 0 1-17.696-17.77 64.262 64.262 0 0 1-9.546-23.2" style="display:inline;font-variation-settings:normal;opacity:1;vector-effect:none;fill:none;fill-opacity:1;stroke:#b773b3;stroke-width:50;stroke-linecap:round;stroke-linejoin:miter;stroke-miterlimit:4;stroke-dasharray:none;stroke-dashoffset:0;stroke-opacity:1;-inkscape-stroke:none;stop-color:#000;stop-opacity:1"/></svg>