<svg width="1967" height="1874" viewBox="0 0 1967 1874" fill="none" xmlns="http://www.w3.org/2000/svg">
<g opacity="0.8">
<path d="M861.088 93.4333C914.838 -1.81101 1052.16 -1.81116 1105.91 93.4332L1311.7 458.092C1331.75 493.624 1366.29 518.686 1406.32 526.753L1817.15 609.545C1924.46 631.169 1966.89 761.612 1892.81 842.1L1609.16 1150.26C1581.52 1180.29 1568.33 1220.84 1573.02 1261.36L1621.14 1677.19C1633.71 1785.79 1522.61 1866.41 1423.07 1820.91L1041.98 1646.71C1004.85 1629.74 962.155 1629.74 925.022 1646.71L543.929 1820.91C444.392 1866.41 333.294 1785.8 345.862 1677.19L393.98 1261.36C398.668 1220.84 385.476 1180.29 357.838 1150.26L74.1924 842.1C0.107747 761.612 42.5433 631.169 149.847 609.545L560.678 526.753C600.709 518.686 635.246 493.624 655.298 458.092L861.088 93.4333Z" fill="#ffaff3" fill-opacity="0.8" stroke="#151515" stroke-width="80" stroke-linecap="round" stroke-linejoin="round" stroke-dasharray="150 150"/>
<ellipse cx="679.268" cy="975.261" rx="74.3679" ry="74.3679" fill="#151515"/>
<ellipse cx="1287.73" cy="975.261" rx="74.3679" ry="74.3679" fill="#151515"/>
<path d="M1042.25 1109.27C1040.67 1117.11 1037.57 1124.55 1033.11 1131.19C1028.66 1137.82 1022.94 1143.51 1016.29 1147.94C1009.63 1152.36 1002.17 1155.43 994.333 1156.97C986.493 1158.51 978.425 1158.49 970.592 1156.92C962.759 1155.34 955.313 1152.24 948.679 1147.78C942.045 1143.33 936.354 1137.61 931.93 1130.96C927.506 1124.3 924.436 1116.84 922.895 1109" stroke="#151515" stroke-width="80" stroke-linecap="round" stroke-linejoin="round" stroke-dasharray="150 150"/>
</g>
</svg>
