<svg width="1392" height="1332" viewBox="0 0 1392 1332" fill="none" xmlns="http://www.w3.org/2000/svg">
<path d="M764.04 64.8011L915.327 332.881C933.641 365.334 965.179 388.214 1001.72 395.577L1303.74 456.442C1363.56 468.497 1387.15 541.16 1345.91 585.967L1137.38 812.514C1112.14 839.935 1100.09 876.975 1104.37 913.99L1139.75 1219.69C1146.74 1280.13 1084.89 1325.12 1029.37 1299.74L749.205 1171.67C715.306 1156.17 676.336 1156.17 642.437 1171.67L362.276 1299.74C306.756 1325.12 244.901 1280.13 251.895 1219.69L287.268 913.99C291.552 876.975 279.499 839.935 254.259 812.514L45.7363 585.967C4.49397 541.16 28.0784 468.497 87.8985 456.442L389.922 395.577C426.463 388.214 458 365.334 476.315 332.881L627.602 64.8012C657.55 11.733 734.092 11.7329 764.04 64.8011Z" fill="#ffaff3" stroke="#1e1e1e" stroke-width="50"/>
<circle cx="472.164" cy="700.791" r="54.6716" fill="#1e1e1e"/>
<circle cx="919.477" cy="700.791" r="54.6716" fill="#1e1e1e"/>
<path d="M739.01 799.311C737.851 805.07 735.569 810.544 732.294 815.421C729.02 820.297 724.816 824.481 719.925 827.734C715.033 830.986 709.549 833.243 703.785 834.376C698.021 835.509 692.09 835.495 686.332 834.336C680.573 833.177 675.099 830.895 670.222 827.62C665.345 824.346 661.161 820.143 657.909 815.251C654.657 810.359 652.399 804.875 651.267 799.111" stroke="#1e1e1e" stroke-width="50" stroke-linecap="round"/>
</svg>
