<?xml version="1.0" encoding="UTF-8" standalone="no"?>
<!-- Created using Krita: https://krita.org -->

<svg
   width="380.49936pt"
   height="324.89966pt"
   viewBox="0 0 380.49936 324.89966"
   version="1.1"
   id="svg1"
   xml:space="preserve"
   xmlns="http://www.w3.org/2000/svg"
   xmlns:svg="http://www.w3.org/2000/svg"><defs
     id="defs1" /><path
     id="path15"
     d="m 211.50142,10.023216 c -1.9634,-0.2176101 -3.84082,0.76777 -4.96582,2.60889 l -11.11524,18.21533 c -1.60866,-0.0192 -3.21441,-0.0201 -4.82226,0.0132 l -12.41309,-18.1714 c -1.25785,-1.84068 -3.20945,-2.8199901 -5.15918,-2.58838 -1.9449,0.23104 -3.6159,1.64051 -4.39893,3.72363 l -7.81347,20.57373 c -1.57092,0.34431 -3.13866,0.72253 -4.69483,1.11768 l -15.07617,-15.10401 c -1.52611,-1.52618 -3.58909,-2.04332 -5.44043,-1.37255 -1.86269,0.68053 -3.24871,2.45599 -3.66943,4.70507 l -4.1836,22.07813 c -1.49043,0.71497 -2.9641,1.45708 -4.43115,2.21338 L 106.1894,36.610136 c -1.74223,-1.16661 -3.83543,-1.2082 -5.52978,-0.10401 -1.68891,1.09517 -2.75109,3.17947 -2.79199,5.49024 l -0.42041,22.80908 c -1.32316,1.04748 -2.62902,2.11725 -3.92871,3.20654 l -18.56836,-7.36084 c -1.8858,-0.75003 -3.93095,-0.30567 -5.39209,1.17334 -1.46914,1.4711 -2.15694,3.77521 -1.80909,6.07178 l 3.375,22.69336 c -1.10195,1.32563 -2.18756,2.67373 -3.26074,4.03564 l -19.32275,-3.00732 c -1.96248,-0.29871 -3.87503,0.60829 -5.05664,2.40234 -1.18972,1.80045 -1.46921,4.22434 -0.75733,6.424814 l 7.04004,21.65918 c -0.85117,1.55903 -1.68999,3.13242 -2.50634,4.72265 l -19.29786,1.48829 c -1.94579,0.16533 -3.66429,1.48454 -4.51904,3.53613 -0.8571,2.04154 -0.72995,4.5121 0.32666,6.52588 l 10.41504,19.75049 c -0.57535,1.75411 -1.1452,3.51995 -1.68164,5.30859 l -18.48926,5.89892 c -1.87826,0.59671 -3.31587,2.31415 -3.81006,4.53663 -0.4899804,2.22685 0.0426,4.63504 1.396,6.37646 l 13.38721,17.10352 c -0.0489,0.33535 -0.0903,0.67431 -0.13916,1.01074 3.08067,15.69976 6.1203,25.83587 9.12011,30.43213 0.86941,2.19052 2.05378,4.10045 3.09229,5.75683 2.24335,3.5781 3.83608,4.36409 5.83594,5.90625 1.99985,1.54217 4.28813,3.12193 6.84668,4.83252 5.11707,3.4212 11.2918,7.3192 17.23535,11.27051 5.94354,3.95131 11.67107,7.99697 15.45556,11.22949 1.81913,1.55381 3.10016,2.8894 3.70166,3.63428 1.28055,25.12257 25.23314,43.4751 52.37256,43.4751 2.47623,0 5.21454,-0.0349 8.72608,-2.20313 3.51153,-2.16828 6.14987,-7.87223 5.94433,-11.45947 -0.41107,-7.17445 -3.22004,-8.94812 -5.36719,-11.73486 -3.58083,-4.64751 -7.57116,-9.26032 -10.05761,-12.75147 6.34505,-0.51756 30.16109,1.48764 40.67871,3.23584 10.51762,1.74819 12.56982,-10.65381 12.56982,-10.65381 0,-3.43267 -0.43241,-6.74419 -1.229,-9.91406 -0.47905,-2.9505 -1.27849,-5.78907 -2.35986,-8.49756 7.68693,-0.48392 15.53091,-1.26021 23.47558,-2.31152 -0.47165,2.799 -0.66285,5.64519 -0.54346,8.51367 -0.16574,4.67121 0.46845,9.42478 2.02002,14.13574 0,0 5.83283,11.13718 15.27393,6.1875 9.4411,-4.94968 31.43322,-14.30272 37.62305,-15.79687 -1.26977,4.0937 -3.61648,9.72125 -5.56348,15.25488 -1.16763,3.31857 -3.27919,5.88172 -1.42529,12.82471 0.92695,3.47146 5.21495,8.06394 9.22851,9.0249 4.0136,0.96096 6.62608,0.13595 8.97803,-0.63867 25.77761,-8.48994 42.78832,-33.41276 36.14502,-57.67529 0.33833,-0.89569 1.1372,-2.56508 2.37891,-4.60987 2.58333,-4.25416 6.75731,-9.88726 11.1665,-15.49951 4.40919,-5.61225 9.05521,-11.24693 12.84521,-16.09717 1.89502,-2.42512 3.57366,-4.64061 4.99073,-6.73095 0.18283,-0.2697 0.35563,-0.50783 0.5332,-0.75733 0.27146,-0.19465 0.54763,-0.36218 0.81885,-0.5581 l 16.86474,-35.042 c -0.47217,-1.23271 -0.94201,-2.46631 -1.42236,-3.68554 l 9.00147,-19.76221 c 0.91881,-2.01135 0.86141,-4.47556 -0.13477,-6.52588 -0.99544,-2.03954 -2.80135,-3.3737 -4.76807,-3.51855 l -19.35644,-1.40332 c -0.93455,-1.61391 -1.90253,-3.19736 -2.8711,-4.76807 l 5.49024,-21.640144 c 0.56769,-2.20673 0.10391,-4.63642 -1.20703,-6.42041 -1.30839,-1.79463 -3.27506,-2.69996 -5.21924,-2.38037 l -19.11035,3.07471 c -1.16962,-1.35432 -2.353,-2.69266 -3.55371,-4.00196 l 1.77832,-22.708 c 0.17902,-2.3063 -0.66476,-4.59665 -2.23828,-6.06885 -1.56539,-1.46773 -3.6405,-1.90575 -5.47266,-1.15137 l -18.08496,7.4502 c -1.35594,-1.07334 -2.73006,-2.12815 -4.11621,-3.15821 l -2.03028,-22.85302 c -0.20147,-2.31395 -1.40752,-4.39287 -3.1831,-5.47852 -1.77448,-1.09465 -3.8564,-1.04441 -5.5166,0.12305 l -16.32862,11.50635 c -1.51486,-0.74951 -3.03658,-1.49046 -4.56884,-2.19873 l -5.74805,-22.0752 c -0.58274,-2.2367 -2.09983,-4.01505 -4.00635,-4.68311 -1.90111,-0.67289 -3.92613,-0.14265 -5.34228,1.39454 l -13.98047,15.12304 c -1.60073,-0.39649 -3.20483,-0.76948 -4.82666,-1.11474 l -9.23438,-20.48438 c -0.93915,-2.08755 -2.70116,-3.49322 -4.67138,-3.71338 z"
     style="fill:none;stroke:#000000;stroke-width:20;stroke-dasharray:none" /><g
     id="lucy"
     style="display:inline"
     transform="translate(-104.28667,-97.481664)"><path
       id="shape0"
       fill="#ffaff3"
       stroke-opacity="0"
       stroke="#000000"
       stroke-width="0"
       stroke-linecap="square"
       stroke-linejoin="bevel"
       d="m 466.51092,258.62643 c -0.47217,-1.23271 -0.94213,-2.46514 -1.42248,-3.68437 l 9.00077,-19.76331 c 0.91882,-2.01135 0.86102,-4.4755 -0.13516,-6.52582 -0.99544,-2.03954 -2.8015,-3.37264 -4.76822,-3.51749 l -19.35627,-1.40389 c -0.93455,-1.61391 -1.9025,-3.19775 -2.87107,-4.76846 l 5.49119,-21.6396 c 0.56769,-2.20673 0.10338,-4.63673 -1.20756,-6.42072 -1.30839,-1.79463 -3.27568,-2.69964 -5.21986,-2.38005 l -19.10972,3.07489 c -1.16962,-1.35432 -2.35267,-2.69346 -3.55338,-4.00276 l 1.77804,-22.707 c 0.17902,-2.3063 -0.66518,-4.59709 -2.23871,-6.06929 -1.56539,-1.46773 -3.63983,-1.90595 -5.47199,-1.15157 l -18.08471,7.45087 c -1.35594,-1.07334 -2.72987,-2.12878 -4.11602,-3.15884 l -2.03122,-22.85327 c -0.20147,-2.31395 -1.40657,-4.39264 -3.18215,-5.47829 -1.77448,-1.09465 -3.8567,-1.04453 -5.5169,0.12293 l -16.32938,11.50632 c -1.51487,-0.74951 -3.03572,-1.48987 -4.56799,-2.19815 l -5.74925,-22.0758 c -0.58274,-2.2367 -2.09906,-4.01473 -4.00558,-4.68279 -1.90111,-0.6729 -3.92571,-0.14223 -5.34186,1.39496 l -13.98138,15.12179 c -1.60073,-0.39649 -3.20504,-0.7682 -4.82687,-1.11346 l -9.23359,-20.48474 c -0.93915,-2.08755 -2.70118,-3.49402 -4.67141,-3.71418 -1.9634,-0.21761 -3.84039,0.76826 -4.9654,2.60938 l -11.11628,18.21492 c -1.60866,-0.0192 -3.2146,-0.0202 -4.82246,0.0131 l -12.41243,-18.17126 c -1.25785,-1.84068 -3.20897,-2.82012 -5.1587,-2.58851 -1.9449,0.23104 -3.61602,1.64077 -4.39905,3.72389 l -7.81309,20.57389 c -1.57092,0.34431 -3.13999,0.72244 -4.69616,1.11759 L 245.3293,117.89376 c -1.52611,-1.52619 -3.58934,-2.044 -5.44068,-1.37323 -1.86269,0.68053 -3.24892,2.45594 -3.66964,4.70503 l -4.18342,22.07857 c -1.49044,0.71497 -2.96355,1.45687 -4.4306,2.21317 l -17.1296,-11.42607 c -1.74224,-1.16661 -3.83477,-1.20777 -5.52912,-0.10358 -1.68891,1.09517 -2.75131,3.17954 -2.79221,5.49031 l -0.42007,22.80867 c -1.32316,1.04748 -2.62887,2.11818 -3.92857,3.20747 l -18.56899,-7.36069 c -1.8858,-0.75003 -3.93049,-0.3061 -5.39163,1.17291 -1.46914,1.4711 -2.15639,3.77458 -1.80854,6.07115 l 3.37448,22.6937 c -1.10196,1.32563 -2.18771,2.67325 -3.26089,4.03516 l -19.32289,-3.00717 c -1.96248,-0.29871 -3.87415,0.60813 -5.05576,2.40218 -1.18972,1.80045 -1.46983,4.2248 -0.75795,6.42527 l 7.04047,21.65944 c -0.85117,1.55903 -1.68987,3.13235 -2.50623,4.72259 l -19.29806,1.48763 c -1.9458,0.16534 -3.66487,1.48543 -4.51962,3.53702 -0.8571,2.04154 -0.73008,4.5116 0.32653,6.52538 l 10.41489,19.75009 c -0.57535,1.75412 -1.14407,3.5205 -1.68051,5.30914 l -18.48991,5.89971 c -1.87826,0.59671 -3.31641,2.3141 -3.8106,4.53658 -0.48998,2.22686 0.0438,4.63447 1.39725,6.37589 l 13.38637,17.10391 c -0.0489,0.33535 -0.09,0.67413 -0.13886,1.01056 4.91138,25.0294 9.71994,35.94806 14.42585,32.75652 0.30429,0.21726 -0.31434,-0.21444 0,0 0,0 168.59308,64.39264 306.0848,-34.93231" /><path
       id="path14"
       style="color:#000000;fill:#bd70b1;fill-rule:evenodd;stroke-linecap:square;stroke-linejoin:bevel;-inkscape-stroke:none"
       d="m 154.87207,309.13623 c -4.44099,0.19131 -8.81865,2.11143 -11.81689,5.88721 -3.42657,4.31517 -3.99174,11.38354 -1.41065,16.34179 1.59332,3.06077 2.35896,3.21202 3.14795,3.93165 0.78899,0.71963 1.54545,1.33117 2.39502,1.99365 1.69913,1.32494 3.73639,2.80102 6.08936,4.48242 4.70594,3.3628 14.51821,5.47015 20.29263,9.73993 5.77442,4.26978 11.41953,8.71814 15.21972,12.29443 1.90011,1.78815 3.33083,3.38885 3.96826,4.26416 0.30645,0.42079 0.28404,0.64319 0.19776,0.48633 1.47617,10.16484 5.44163,19.83972 13.30664,26.63818 8.09224,6.99489 15.36509,12.2049 28.55258,12.2049 2.44457,0 5.08434,-0.11584 8.34815,-1.91455 3.2638,-1.79872 6.29904,-6.50019 6.6123,-10.13233 0.62653,-7.26428 -2.19247,-9.56069 -4.00195,-12.36328 -2.99655,-4.64114 -6.14198,-8.97109 -7.89551,-11.95166 5.72045,-0.92921 19.7937,-0.97839 44.15186,3.07032 l 12.56982,-10.65381 c 0,-26.20065 -24.60102,-45.5669 -52.4956,-45.5669 -2.10546,0 -3.89135,0.20788 -7.06055,0.87891 -3.1692,0.67103 -7.13867,1.8296 -11.40381,3.90381 -7.17461,3.48915 -15.24071,10.0224 -20.30566,20.26465 -3.93034,0.747 -6.67532,1.12588 -7.77246,0.88037 -1.5583,-0.34872 -4.52694,-1.94244 -11.28223,-8.82862 -1.45446,-1.50292 -5.27243,-7.0743 -9.18164,-12.32812 -1.9573,-2.63053 -4.01246,-5.25457 -6.58594,-7.69336 -2.57348,-2.43879 -5.73832,-5.34867 -11.63965,-5.80078 l -0.0967,-0.006 c -0.63315,-0.0428 -1.2684,-0.0508 -1.90283,-0.0234 z m 4.4751,10.20117 c -0.0535,-0.0488 0.0642,-0.046 0.35742,0.29297 -0.0927,-0.0784 -0.32748,-0.26566 -0.35742,-0.29297 z" /><path
       id="path10"
       style="color:#000000;fill:#ffaff3;fill-rule:evenodd;stroke-linecap:square;stroke-linejoin:bevel;-inkscape-stroke:none"
       d="m 157.40771,303.26221 c -1.03632,-0.0139 -2.04787,0.0122 -3.04394,0.0894 -1.99215,0.15426 -3.92439,0.51152 -5.86816,1.15576 -3.88754,1.28848 -8.05645,4.44065 -9.91993,8.66016 -3.72695,8.439 0.0426,14.51321 2.77149,18.86572 2.24335,3.5781 3.83608,4.36409 5.83594,5.90625 1.99986,1.54217 4.28813,3.12193 6.84668,4.83252 5.11708,3.4212 11.2918,7.3192 17.23535,11.27051 5.94355,3.95131 11.67106,7.99696 15.45556,11.22949 1.81913,1.55381 3.10016,2.8894 3.70166,3.63428 1.28055,25.1226 25.23311,43.4751 52.37256,43.4751 2.47623,0 5.21454,-0.0349 8.72608,-2.20313 3.51154,-2.16828 6.14987,-7.87223 5.94433,-11.45947 -0.41107,-7.17446 -3.22004,-8.94811 -5.36719,-11.73486 -3.58084,-4.64751 -7.57115,-9.26032 -10.05761,-12.75147 6.34506,-0.51756 30.16108,1.48764 40.67871,3.23584 10.51763,1.74819 12.56982,-10.65381 12.56982,-10.65381 0,-26.20063 -24.59956,-45.56689 -52.49414,-45.56689 -2.10545,0 -3.89135,0.20788 -7.06054,0.8789 -3.16919,0.67103 -7.13869,1.83106 -11.40381,3.90528 -6.48988,3.15615 -13.72757,8.78185 -18.80127,17.40381 -7.69333,-1.88449 -14.5683,-4.60347 -19.73877,-9.93018 -0.11516,-0.11864 -3.93184,-6.73281 -7.14258,-12.96826 -1.60538,-3.11773 -3.26665,-6.26035 -5.54297,-9.29736 -2.27632,-3.03702 -5.35864,-7.27767 -12.50537,-7.8252 -1.09496,-0.0839 -2.15557,-0.13841 -3.1919,-0.15234 z" /><path
       id="path12"
       style="color:#000000;display:inline;fill:#bd70b1;fill-rule:evenodd;stroke-linecap:square;stroke-linejoin:bevel;-inkscape-stroke:none"
       d="m 436.07666,267.3457 c -2.86173,0.002 -5.79238,0.80274 -8.34082,2.11963 -5.77988,2.57729 -7.66715,6.95069 -9.01465,10.28906 -1.38004,3.41901 -2.14385,6.75248 -2.84473,10.04004 -1.40079,6.57068 -2.98702,13.49972 -3.36914,14.29102 -4.25825,8.64386 -6.58081,11.0865 -7.95117,11.90478 -0.96505,0.57627 -3.68895,1.07538 -7.65381,1.59522 -8.01514,-8.14513 -17.72223,-11.82385 -25.6289,-12.89356 -4.69996,-0.63586 -8.83267,-0.49467 -12.05274,-0.14062 -3.22005,0.35405 -4.98308,0.7139 -6.98291,1.37256 -26.49459,8.72608 -43.80066,34.8155 -35.60449,59.70117 l 15.271,6.1875 c 21.87025,-11.4659 35.25257,-15.82192 40.97607,-16.72852 -0.73307,3.37949 -2.36737,8.47646 -3.76172,13.82227 -0.84195,3.22798 -2.80011,6.29093 0.0674,12.99463 1.43374,3.35186 5.78848,6.86821 9.45117,7.55566 3.66267,0.68745 6.20497,-0.0277 8.52685,-0.79248 12.5257,-4.12537 14.97811,-9.06906 20.47608,-18.24433 5.34856,-8.92592 4.65818,-18.72481 2.87402,-28.8501 -0.0262,0.23912 0.28317,-1.77906 0.46142,-2.33203 0.34645,-1.07461 2.2473,-1.94418 3.51563,-4.28174 2.53665,-4.6751 6.56548,-10.74994 10.78125,-16.61279 4.21577,-5.86283 8.6319,-11.57265 12.07324,-15.91553 3.44134,-4.34288 5.03481,-6.1706 6.49805,-8.083 4.61646,-6.0333 9.74372,-11.16863 8.89404,-13.8753 -0.84968,-2.70667 -2.16128,-5.05899 -4.23193,-7.3418 -2.07066,-2.2828 -5.0875,-4.55127 -9.22119,-5.44922 -1.03343,-0.22448 -2.11219,-0.33323 -3.20801,-0.33252 z" /><path
       id="path8"
       style="color:#000000;display:inline;opacity:1;fill:#ffaff3;fill-rule:evenodd;stroke-linecap:square;stroke-linejoin:bevel;-inkscape-stroke:none"
       d="m 436.58789,263.64111 c -4.0955,-0.008 -7.78236,1.05922 -11.8374,2.74805 -6.61678,2.75572 -8.21865,7.74707 -9.43067,11.34375 -1.212,3.59668 -1.80743,7.10246 -2.35693,10.56592 -1.09901,6.92689 -2.65381,14.40158 -2.72607,14.55029 -3.24506,6.6776 -8.92432,11.41099 -15.64307,15.60791 -7.5162,-6.60204 -16.14689,-9.68331 -23.29834,-10.65088 -4.69993,-0.63588 -8.83563,-0.49467 -12.05566,-0.14062 -3.22004,0.35404 -4.98024,0.71686 -6.97998,1.37549 -26.49458,8.72606 -43.80358,34.81408 -35.60743,59.6997 0,0 5.83282,11.13718 15.27393,6.1875 9.44111,-4.94969 31.43322,-14.30272 37.62305,-15.79687 -1.26977,4.09371 -3.61648,9.72124 -5.56348,15.25488 -1.16763,3.31857 -3.27919,5.88172 -1.42529,12.82471 0.92695,3.47147 5.21494,8.06394 9.22851,9.0249 4.0136,0.96096 6.62608,0.13595 8.97803,-0.63867 25.77764,-8.48995 42.78833,-33.41273 36.14502,-57.67529 0.33833,-0.89569 1.1372,-2.56508 2.37891,-4.60987 2.58334,-4.25417 6.75731,-9.88725 11.1665,-15.49951 4.40919,-5.61226 9.0552,-11.24693 12.84521,-16.09717 1.89502,-2.42512 3.57366,-4.6406 4.99073,-6.73095 1.41707,-2.09036 2.68288,-3.33528 3.69433,-7.43555 1.23036,-4.98773 2.9103,-11.93558 -3.26953,-18.78516 -3.08992,-3.42477 -8.03487,-5.11486 -12.13037,-5.12256 z" /><path
       id="shape05"
       fill="#151515"
       stroke-opacity="0"
       stroke="#000000"
       stroke-width="0"
       stroke-linecap="square"
       stroke-linejoin="bevel"
       d="m 222.63256,294.55925 c 10.333,-1.82309 17.23294,-11.676 15.4113,-22.00757 -1.82164,-10.33407 -11.67479,-17.2316 -22.00779,-15.40948 -10.33311,1.82237 -17.23305,11.67625 -15.41141,22.0079 1.82164,10.33158 11.67504,17.23224 22.0079,15.40915 z" /><path
       id="shape1"
       fill="#151515"
       stroke-opacity="0"
       stroke="#000000"
       stroke-width="0"
       stroke-linecap="square"
       stroke-linejoin="bevel"
       d="m 375.70176,267.56831 c 10.33163,-1.82068 17.23229,-11.67503 15.4092,-22.00707 -1.82067,-10.33238 -11.67358,-17.23135 -22.00762,-15.40899 -10.33165,1.82213 -17.23231,11.67552 -15.41164,22.0079 1.82309,10.333 11.676,17.23125 22.01006,15.40816 z" /><path
       id="shape2"
       fill="#151515"
       stroke-opacity="0"
       stroke="#000000"
       stroke-width="0"
       stroke-linecap="square"
       stroke-linejoin="bevel"
       d="m 283.43261,290.32559 c -1.18477,0.45698 -2.26798,1.14367 -3.1892,2.01894 -0.9188,0.87528 -1.65867,1.92464 -2.17126,3.08523 -0.51502,1.16301 -0.79549,2.41306 -0.82692,3.68245 -0.0314,1.26939 0.18859,2.53395 0.64557,3.71872 1.19444,3.08765 2.98368,5.91172 5.26859,8.31027 v 0 c 2.28491,2.39855 5.01954,4.32077 8.04916,5.66028 l 0.002,0.002 c 3.02478,1.33951 6.2841,2.06971 9.59419,2.14951 h 0.002 0.005 c 3.30762,0.0774 6.59837,-0.49567 9.68602,-1.68769 h 0.002 c 3.08765,-1.19202 5.91174,-2.98126 8.30787,-5.26617 h 0.002 v -0.002 c 2.39613,-2.28249 4.31836,-5.0171 5.65787,-8.04188 1.34435,-3.02962 2.07455,-6.29619 2.15192,-9.6087 0.0605,-2.56297 -0.89945,-5.04614 -2.66935,-6.90308 -1.77232,-1.85453 -4.20713,-2.93049 -6.77251,-2.99094 -1.2694,-0.0314 -2.53154,0.19102 -3.7163,0.648 -1.18477,0.4594 -2.26799,1.14608 -3.18679,2.02377 -0.91879,0.87528 -1.65625,1.92465 -2.16884,3.08765 -0.5126,1.16059 -0.79307,2.41306 -0.82209,3.68245 -0.0193,0.76647 -0.18859,1.52327 -0.5005,2.22446 v 0.002 l -0.002,0.005 c -0.31191,0.7036 -0.75922,1.33951 -1.31533,1.87144 -0.55853,0.53194 -1.21378,0.94782 -1.9319,1.22346 l -0.005,0.002 c -0.72053,0.27806 -1.48701,0.41105 -2.25827,0.39412 -0.76888,-0.0193 -1.5281,-0.19101 -2.23171,-0.50292 h -0.005 l -0.002,-0.002 c -0.70361,-0.31191 -1.3371,-0.7568 -1.86903,-1.31291 v -0.002 0 c -0.53194,-0.55853 -0.94782,-1.21378 -1.22587,-1.93432 -0.45699,-1.18476 -1.14367,-2.26798 -2.01894,-3.18678 -0.8777,-0.9188 -1.92465,-1.65867 -3.08765,-2.17126 -1.16059,-0.51501 -2.41306,-0.79549 -3.68245,-0.82692 -1.26939,-0.0314 -2.53153,0.18859 -3.7163,0.64799 z" /></g></svg>
