<?xml version="1.0" encoding="UTF-8" standalone="no"?>
<!-- Created using Krita: https://krita.org -->

<svg
   width="380.49954pt"
   height="324.89923pt"
   viewBox="0 0 380.49954 324.89923"
   version="1.1"
   id="svg1"
   xml:space="preserve"
   xmlns="http://www.w3.org/2000/svg"
   xmlns:svg="http://www.w3.org/2000/svg"><defs
     id="defs1" /><path
     style="color:#000000;fill:#000000;-inkscape-stroke:none"
     d="M 212.60396,0.08407815 C 206.66175,-0.57451685 200.8806,2.7077421 198.0024,7.4180621 l -0.002,0.002 -5.33399,8.7402399 -6.2246,-9.1132799 c -3.04417,-4.4547 -8.59089,-7.59027295 -14.59571,-6.87695595 -6.00947,0.713881 -10.6711,5.05624595 -12.58008,10.13476585 l -3.9082,10.29297 -7.24023,-7.25391 -0.004,-0.004 C 144.20001,9.4261221 137.83157,7.5947721 132.19562,9.6367621 l -0.0137,0.004 -0.0117,0.006 c -5.62657,2.0556499 -9.0907,7.0418799 -10.06641,12.2578099 l -2.23828,11.80859 -8.11328,-5.41211 c -4.72429,-3.16342 -11.59499,-3.39592 -16.541005,-0.17968 -4.93682,3.20555 -7.24862,8.43292 -7.3418,13.69726 l -0.24219,13.09961 -8.98242,-3.56055 c -5.44389,-2.16517 -12.13942,-0.64991 -16.17773,3.41993 -4.04135,4.05883 -5.39274,9.41752 -4.60547,14.61523 l 2.06445,13.87695 -9.86523,-1.53515 -0.0156,-0.004 c -5.89411,-0.89714 -11.85324,2.14773 -14.91016,6.78711 -5e-4,7.6e-4 -10e-4,10e-4 -0.002,0.002 -3.0604,4.64054 -3.53011,10.03079 -1.92187,15.001958 l 0.002,0.008 4.55078,14 -10.60937,0.81836 -0.0391,0.002 c -5.91814,0.50285 -10.79463,4.61013 -12.89648,9.64453 -2.10214,5.01806 -1.76917,10.33228 0.69531,15.0293 l 0.006,0.008 7.00391,13.28125 -10.94922,3.49414 0.0117,-0.002 c -5.7520201,1.82738 -9.3957401,6.72836 -10.54492013,11.89648 l -0.002,0.01 -0.002,0.0117 c -1.14191,5.1897 -0.0491,10.3972 3.26562003,14.66211 l 0.0117,0.0137 11.4824301,14.67187 c 2.9061,14.73843 5.29272,24.43071 9.65429,31.78516 1.24966,3.02667 2.72392,5.39306 3.73633,7.00781 3.0248,4.8245 6.93338,7.53603 8.20117,8.51367 v -0.002 c 2.30582,1.77812 4.76329,3.46802 7.39649,5.22852 5.28946,3.53646 11.4464,7.42299 17.25586,11.28515 5.78939,3.84883 11.36913,7.83135 14.49804,10.50391 0.38265,0.32684 0.33027,0.32003 0.64649,0.61914 3.81066,28.99466 31.680475,48.88672 61.921865,48.88672 2.57019,0 8.53237,-0.32938 13.98047,-3.69336 4.13848,-2.55541 6.36863,-5.85873 8.05664,-9.23438 1.68801,-3.37564 2.87706,-6.77125 2.61719,-11.30664 -0.31402,-5.48053 -2.35437,-9.7801 -4.2461,-12.81836 6.75754,0.61283 13.92014,1.34622 17.87696,2.00391 9.13568,1.51849 17.20071,-4.27306 20.3125,-9.17969 3.11178,-4.90662 3.76172,-9.70507 3.76172,-9.70507 l 0.13476,-0.81055 v -0.82227 c 0,-3.30363 -0.41148,-6.49433 -1.01562,-9.60742 0.17258,-0.0169 0.34489,-0.0336 0.51758,-0.0508 0.10749,4.88949 0.75734,9.83686 2.36328,14.71289 l 0.25781,0.78125 0.38086,0.73047 c 0,0 2.12061,4.35303 6.61133,8.03906 4.49071,3.68604 13.96367,6.66547 22.16601,2.36524 3.55142,-1.8619 10.12339,-4.80053 16.34961,-7.4961 -0.84556,3.4774 -1.43726,8.19978 -0.0215,13.50196 1.17143,4.38706 3.36278,7.23943 6.02148,9.91796 2.6587,2.67854 5.81032,5.1193 10.54102,6.25196 6.22965,1.49154 11.99562,-0.0623 14.43359,-0.86524 28.72332,-9.46011 48.97462,-37.07104 43.52344,-65.80273 0.20685,-0.38318 0.15858,-0.36065 0.41992,-0.79102 2.13568,-3.51698 6.1874,-9.04479 10.48242,-14.51172 4.30972,-5.48563 8.94362,-11.1035 12.86133,-16.11718 1.71512,-2.1949 3.26565,-4.28715 4.73828,-6.40039 l 1.63672,-1.18164 19.83398,-41.2129 -1.46093,-3.8164 7.25586,-15.92774 0.002,-0.004 c 2.26491,-4.96121 2.06765,-10.30084 -0.23828,-15.04688 l -0.004,-0.008 -0.004,-0.008 c -2.33251,-4.77903 -7.01413,-8.66317 -13.01954,-9.10547 h -0.006 l -11.46485,-0.83203 3.6836,-14.51563 v -0.002 c 1.33347,-5.185718 0.37696,-10.446838 -2.82032,-14.810548 -3.17521,-4.34777 -8.92045,-7.32695 -14.90429,-6.34765 l -10.45313,1.68164 1.15039,-14.67188 v -0.004 c 0.4059,-5.22919 -1.3255,-10.34867 -5.36914,-14.13672 l -0.002,-0.002 c -4.05811,-3.80347 -10.56771,-5.38652 -16.11719,-3.10156 h -0.002 l -9.21875,3.79883 -1.24219,-13.99805 v 0.0176 c -0.45502,-5.22601 -3.01918,-10.12758 -7.9082,-13.12695 -4.86472,-2.99346 -11.74247,-2.89066 -16.50586,0.45898 l -0.004,0.004 -7.9082,5.57226 -3.30274,-12.68359 v -0.002 c -1.32304,-5.07817 -4.80141,-9.63473 -10.36328,-11.5898499 -5.55991,-1.96044 -12.15828,-0.13733 -16.01367,4.0449299 -9.6e-4,0.001 -0.003,9.1e-4 -0.004,0.002 l -6.62304,7.16601 -4.94532,-10.9687499 -0.002,-0.006 C 223.11769,4.8057521 218.59368,0.75258715 212.611,0.08405815 h -0.004 z m -2.14257,25.31445385 7.91015,17.54883 4.95313,1.05468 c 1.50065,0.31947 2.99782,0.66554 4.50586,1.03907 l 5.73437,1.42187 12.20508,-13.20312 5.05469,19.41015 4.29101,1.98243 c 1.41007,0.65178 2.8531,1.35517 4.33008,2.08593 l 5.33203,2.63672 14.74414,-10.38867 1.85352,20.8418 3.59766,2.67578 c 1.30236,0.9678 2.59708,1.95912 3.875,2.9707 l 4.5957,3.63867 17.00781,-7.00586 -1.6875,21.5586 2.9375,3.20508 c 1.11853,1.21968 2.23664,2.48379 3.35547,3.779288 l 3.64844,4.22461 18.62304,-2.99609 -5.39062,21.24609 2.22266,3.60547 c 0.95493,1.5486 1.87313,3.0521 2.72851,4.5293 l 2.65234,4.58008 19.47461,1.4121 -9.07421,19.92383 1.39257,3.53711 -13.85547,28.78906 -0.12109,0.0859 -0.96484,1.35742 c -0.14341,0.2015 -0.37317,0.51621 -0.66407,0.94532 -1.20037,1.77069 -2.75202,3.83113 -4.59179,6.18554 -3.66228,4.68679 -8.32142,10.33732 -12.83008,16.07618 -4.52335,5.75755 -8.81863,11.49499 -11.84961,16.48632 -1.50737,2.48227 -2.46182,4.34643 -3.1875,6.26758 l -1.14844,3.03906 0.85938,3.13477 c 5.03436,18.38642 -8.13278,38.45729 -29.62891,45.53711 -2.08871,0.68792 -1.9248,0.76742 -3.27344,0.44726 -0.0124,-0.0562 -0.70968,-0.38338 -1.25,-0.92773 -0.52871,-0.53266 -0.88898,-1.29488 -0.94921,-1.30859 -0.98024,-3.60891 -0.53559,-1.51948 1.2539,-6.60547 1.81654,-5.16283 4.14534,-10.66463 5.67969,-15.61133 l 5.2168,-16.81445 -17.11329,4.13086 c -5.09551,1.22999 -11.49864,3.88874 -19.13281,7.10937 -7.63416,3.22063 -15.53265,6.79798 -20.78711,9.55274 -0.0683,0.0358 -0.0471,0.045 -0.0977,0.0762 -0.028,-0.0628 0.005,-0.10819 -0.0918,-0.1875 -0.59104,-0.48514 -0.92969,-1.02791 -1.18945,-1.39844 -0.93896,-3.22316 -1.39021,-6.42254 -1.27735,-9.60352 l 0.0137,-0.38476 -0.0176,-0.38477 c -0.0895,-2.15065 0.0534,-4.29521 0.41406,-6.43554 l 2.25,-13.35157 -13.42383,1.77539 c -7.73071,1.023 -15.34763,1.77556 -22.79101,2.24414 l -13.77735,0.86719 5.11719,12.82227 c 0.81855,2.05022 1.41774,4.17778 1.77734,6.39258 l 0.0684,0.41992 0.10352,0.41406 c 0.52324,2.08215 0.7305,4.25707 0.80469,6.47852 -0.1401,0.45586 -0.27108,1.00842 -0.66211,1.625 -0.0658,0.10374 -0.0219,0.13535 -0.0293,0.20312 -0.0573,-0.0136 -0.0402,-0.0285 -0.11524,-0.041 -5.85309,-0.97288 -14.47533,-1.89916 -22.73437,-2.57032 -8.25904,-0.67115 -15.17051,-1.19385 -20.39648,-0.76758 l -17.54493,1.43165 10.21094,14.33593 c 3.00462,4.2187 6.94008,8.71823 10.28125,13.05469 3.28996,4.26997 3.06265,2.15515 3.25977,5.87695 -0.0526,0.0218 -0.1544,0.86746 -0.49219,1.54297 -0.45765,0.91521 -1.30274,1.54924 -0.67578,1.16211 -1.57497,0.97248 -1.09039,0.71094 -3.47266,0.71094 -22.63119,0 -41.414335,-14.94605 -42.384755,-33.98438 l -0.16602,-3.24414 -2.04102,-2.52929 c -1.29079,-1.59848 -2.78022,-3.06907 -4.98828,-4.95508 -4.44006,-3.79248 -10.31638,-7.89934 -16.41406,-11.95313 -6.07763,-4.04045 -12.26823,-7.94992 -17.21289,-11.25586 -2.4839,-1.66068 -4.60495,-3.13128 -6.29883,-4.4375 v -0.002 c -2.73192,-2.10668 -2.00685,-0.96713 -3.46875,-3.29883 -1.01839,-1.62429 -1.81558,-2.98414 -2.27148,-4.13281 l -0.3711,-0.93555 -0.54882,-0.84179 c -0.97458,-1.49324 -4.4089,-11.01458 -7.33985,-25.35547 l 0.49805,-3.41406 -13.51758,-17.26954 18.58399,-5.92968 1.51562,-5.05078 c 0.4969,-1.65681 1.03816,-3.34083 1.60352,-5.06446 l 1.32226,-4.03125 -10.22656,-19.39453 18.82226,-1.45117 2.55274,-4.97461 c 0.7692,-1.49839 1.56742,-2.9974 2.38672,-4.49805 l 2.0664,-3.7832 -6.67578,-20.53516 18.16602,2.82813 3.61719,-4.58985 c 1.0296,-1.306608 2.06228,-2.588438 3.09765,-3.833978 l 2.85742,-3.43945 -3.07617,-20.6875 16.77735,6.65039 4.56836,-3.82813 c 1.242665,-1.0415 2.477115,-2.05295 3.712885,-3.03125 l 3.70312,-2.93164 0.36914,-20.05664 14.93945,9.96485 5.23438,-2.69727 c 1.41088,-0.72734 2.79874,-1.4263 4.17383,-2.08594 l 4.55859,-2.1875 3.58399,-18.91015 12.8457,12.86914 5.51758,-1.40235 c 1.47867,-0.37547 2.93901,-0.7267 4.37304,-1.04101 l 5.28711,-1.15821 6.625,-17.44921 10.52735,15.4121 5.41211,-0.11328 c 1.46627,-0.0304 2.96307,-0.03 4.49609,-0.0117 l 5.69141,0.0684 z M 200.35201,256.76767 c -0.002,0.0568 0.0116,0.11505 0.01,0.17187 0.006,0.20096 -0.0162,0.39841 -0.008,0.59961 z m -0.88086,0.21289 0.17383,0.83398 c -0.0293,-0.18067 -0.0859,-0.35123 -0.11719,-0.53125 -0.0242,-0.0987 -0.0319,-0.20426 -0.0566,-0.30273 z"
     id="path15" /><g
     id="lucy"
     style="display:inline"
     transform="translate(-104.28666,-97.482328)"><path
       id="shape0"
       fill="#ffaff3"
       stroke-opacity="0"
       stroke="#000000"
       stroke-width="0"
       stroke-linecap="square"
       stroke-linejoin="bevel"
       d="m 466.51092,258.62643 c -0.47217,-1.23271 -0.94213,-2.46514 -1.42248,-3.68437 l 9.00077,-19.76331 c 0.91882,-2.01135 0.86102,-4.4755 -0.13516,-6.52582 -0.99544,-2.03954 -2.8015,-3.37264 -4.76822,-3.51749 l -19.35627,-1.40389 c -0.93455,-1.61391 -1.9025,-3.19775 -2.87107,-4.76846 l 5.49119,-21.6396 c 0.56769,-2.20673 0.10338,-4.63673 -1.20756,-6.42072 -1.30839,-1.79463 -3.27568,-2.69964 -5.21986,-2.38005 l -19.10972,3.07489 c -1.16962,-1.35432 -2.35267,-2.69346 -3.55338,-4.00276 l 1.77804,-22.707 c 0.17902,-2.3063 -0.66518,-4.59709 -2.23871,-6.06929 -1.56539,-1.46773 -3.63983,-1.90595 -5.47199,-1.15157 l -18.08471,7.45087 c -1.35594,-1.07334 -2.72987,-2.12878 -4.11602,-3.15884 l -2.03122,-22.85327 c -0.20147,-2.31395 -1.40657,-4.39264 -3.18215,-5.47829 -1.77448,-1.09465 -3.8567,-1.04453 -5.5169,0.12293 l -16.32938,11.50632 c -1.51487,-0.74951 -3.03572,-1.48987 -4.56799,-2.19815 l -5.74925,-22.0758 c -0.58274,-2.2367 -2.09906,-4.01473 -4.00558,-4.68279 -1.90111,-0.6729 -3.92571,-0.14223 -5.34186,1.39496 l -13.98138,15.12179 c -1.60073,-0.39649 -3.20504,-0.7682 -4.82687,-1.11346 l -9.23359,-20.48474 c -0.93915,-2.08755 -2.70118,-3.49402 -4.67141,-3.71418 -1.9634,-0.21761 -3.84039,0.76826 -4.9654,2.60938 l -11.11628,18.21492 c -1.60866,-0.0192 -3.2146,-0.0202 -4.82246,0.0131 l -12.41243,-18.17126 c -1.25785,-1.84068 -3.20897,-2.82012 -5.1587,-2.58851 -1.9449,0.23104 -3.61602,1.64077 -4.39905,3.72389 l -7.81309,20.57389 c -1.57092,0.34431 -3.13999,0.72244 -4.69616,1.11759 L 245.3293,117.89376 c -1.52611,-1.52619 -3.58934,-2.044 -5.44068,-1.37323 -1.86269,0.68053 -3.24892,2.45594 -3.66964,4.70503 l -4.18342,22.07857 c -1.49044,0.71497 -2.96355,1.45687 -4.4306,2.21317 l -17.1296,-11.42607 c -1.74224,-1.16661 -3.83477,-1.20777 -5.52912,-0.10358 -1.68891,1.09517 -2.75131,3.17954 -2.79221,5.49031 l -0.42007,22.80867 c -1.32316,1.04748 -2.62887,2.11818 -3.92857,3.20747 l -18.56899,-7.36069 c -1.8858,-0.75003 -3.93049,-0.3061 -5.39163,1.17291 -1.46914,1.4711 -2.15639,3.77458 -1.80854,6.07115 l 3.37448,22.6937 c -1.10196,1.32563 -2.18771,2.67325 -3.26089,4.03516 l -19.32289,-3.00717 c -1.96248,-0.29871 -3.87415,0.60813 -5.05576,2.40218 -1.18972,1.80045 -1.46983,4.2248 -0.75795,6.42527 l 7.04047,21.65944 c -0.85117,1.55903 -1.68987,3.13235 -2.50623,4.72259 l -19.29806,1.48763 c -1.9458,0.16534 -3.66487,1.48543 -4.51962,3.53702 -0.8571,2.04154 -0.73008,4.5116 0.32653,6.52538 l 10.41489,19.75009 c -0.57535,1.75412 -1.14407,3.5205 -1.68051,5.30914 l -18.48991,5.89971 c -1.87826,0.59671 -3.31641,2.3141 -3.8106,4.53658 -0.48998,2.22686 0.0438,4.63447 1.39725,6.37589 l 13.38637,17.10391 c -0.0489,0.33535 -0.09,0.67413 -0.13886,1.01056 4.91138,25.0294 9.71994,35.94806 14.42585,32.75652 0.30429,0.21726 -0.31434,-0.21444 0,0 0,0 168.59308,64.39264 306.0848,-34.93231" /><path
       id="path14"
       style="color:#000000;fill:#bd70b1;fill-rule:evenodd;stroke-linecap:square;stroke-linejoin:bevel;-inkscape-stroke:none"
       d="m 154.87207,309.13623 c -4.44099,0.19131 -8.81865,2.11143 -11.81689,5.88721 -3.42657,4.31517 -3.99174,11.38354 -1.41065,16.34179 1.59332,3.06077 2.35896,3.21202 3.14795,3.93165 0.78899,0.71963 1.54545,1.33117 2.39502,1.99365 1.69913,1.32494 3.73639,2.80102 6.08936,4.48242 4.70594,3.3628 14.51821,5.47015 20.29263,9.73993 5.77442,4.26978 11.41953,8.71814 15.21972,12.29443 1.90011,1.78815 3.33083,3.38885 3.96826,4.26416 0.30645,0.42079 0.28404,0.64319 0.19776,0.48633 1.47617,10.16484 5.44163,19.83972 13.30664,26.63818 8.09224,6.99489 15.36509,12.2049 28.55258,12.2049 2.44457,0 5.08434,-0.11584 8.34815,-1.91455 3.2638,-1.79872 6.29904,-6.50019 6.6123,-10.13233 0.62653,-7.26428 -2.19247,-9.56069 -4.00195,-12.36328 -2.99655,-4.64114 -6.14198,-8.97109 -7.89551,-11.95166 5.72045,-0.92921 19.7937,-0.97839 44.15186,3.07032 l 12.56982,-10.65381 c 0,-26.20065 -24.60102,-45.5669 -52.4956,-45.5669 -2.10546,0 -3.89135,0.20788 -7.06055,0.87891 -3.1692,0.67103 -7.13867,1.8296 -11.40381,3.90381 -7.17461,3.48915 -15.24071,10.0224 -20.30566,20.26465 -3.93034,0.747 -6.67532,1.12588 -7.77246,0.88037 -1.5583,-0.34872 -4.52694,-1.94244 -11.28223,-8.82862 -1.45446,-1.50292 -5.27243,-7.0743 -9.18164,-12.32812 -1.9573,-2.63053 -4.01246,-5.25457 -6.58594,-7.69336 -2.57348,-2.43879 -5.73832,-5.34867 -11.63965,-5.80078 l -0.0967,-0.006 c -0.63315,-0.0428 -1.2684,-0.0508 -1.90283,-0.0234 z m 4.4751,10.20117 c -0.0535,-0.0488 0.0642,-0.046 0.35742,0.29297 -0.0927,-0.0784 -0.32748,-0.26566 -0.35742,-0.29297 z" /><path
       id="path10"
       style="color:#000000;fill:#ffaff3;fill-rule:evenodd;stroke-linecap:square;stroke-linejoin:bevel;-inkscape-stroke:none"
       d="m 157.40771,303.26221 c -1.03632,-0.0139 -2.04787,0.0122 -3.04394,0.0894 -1.99215,0.15426 -3.92439,0.51152 -5.86816,1.15576 -3.88754,1.28848 -8.05645,4.44065 -9.91993,8.66016 -3.72695,8.439 0.0426,14.51321 2.77149,18.86572 2.24335,3.5781 3.83608,4.36409 5.83594,5.90625 1.99986,1.54217 4.28813,3.12193 6.84668,4.83252 5.11708,3.4212 11.2918,7.3192 17.23535,11.27051 5.94355,3.95131 11.67106,7.99696 15.45556,11.22949 1.81913,1.55381 3.10016,2.8894 3.70166,3.63428 1.28055,25.1226 25.23311,43.4751 52.37256,43.4751 2.47623,0 5.21454,-0.0349 8.72608,-2.20313 3.51154,-2.16828 6.14987,-7.87223 5.94433,-11.45947 -0.41107,-7.17446 -3.22004,-8.94811 -5.36719,-11.73486 -3.58084,-4.64751 -7.57115,-9.26032 -10.05761,-12.75147 6.34506,-0.51756 30.16108,1.48764 40.67871,3.23584 10.51763,1.74819 12.56982,-10.65381 12.56982,-10.65381 0,-26.20063 -24.59956,-45.56689 -52.49414,-45.56689 -2.10545,0 -3.89135,0.20788 -7.06054,0.8789 -3.16919,0.67103 -7.13869,1.83106 -11.40381,3.90528 -6.48988,3.15615 -13.72757,8.78185 -18.80127,17.40381 -7.69333,-1.88449 -14.5683,-4.60347 -19.73877,-9.93018 -0.11516,-0.11864 -3.93184,-6.73281 -7.14258,-12.96826 -1.60538,-3.11773 -3.26665,-6.26035 -5.54297,-9.29736 -2.27632,-3.03702 -5.35864,-7.27767 -12.50537,-7.8252 -1.09496,-0.0839 -2.15557,-0.13841 -3.1919,-0.15234 z" /><path
       id="path12"
       style="color:#000000;display:inline;fill:#bd70b1;fill-rule:evenodd;stroke-linecap:square;stroke-linejoin:bevel;-inkscape-stroke:none"
       d="m 436.07666,267.3457 c -2.86173,0.002 -5.79238,0.80274 -8.34082,2.11963 -5.77988,2.57729 -7.66715,6.95069 -9.01465,10.28906 -1.38004,3.41901 -2.14385,6.75248 -2.84473,10.04004 -1.40079,6.57068 -2.98702,13.49972 -3.36914,14.29102 -4.25825,8.64386 -6.58081,11.0865 -7.95117,11.90478 -0.96505,0.57627 -3.68895,1.07538 -7.65381,1.59522 -8.01514,-8.14513 -17.72223,-11.82385 -25.6289,-12.89356 -4.69996,-0.63586 -8.83267,-0.49467 -12.05274,-0.14062 -3.22005,0.35405 -4.98308,0.7139 -6.98291,1.37256 -26.49459,8.72608 -43.80066,34.8155 -35.60449,59.70117 l 15.271,6.1875 c 21.87025,-11.4659 35.25257,-15.82192 40.97607,-16.72852 -0.73307,3.37949 -2.36737,8.47646 -3.76172,13.82227 -0.84195,3.22798 -2.80011,6.29093 0.0674,12.99463 1.43374,3.35186 5.78848,6.86821 9.45117,7.55566 3.66267,0.68745 6.20497,-0.0277 8.52685,-0.79248 12.5257,-4.12537 14.97811,-9.06906 20.47608,-18.24433 5.34856,-8.92592 4.65818,-18.72481 2.87402,-28.8501 -0.0262,0.23912 0.28317,-1.77906 0.46142,-2.33203 0.34645,-1.07461 2.2473,-1.94418 3.51563,-4.28174 2.53665,-4.6751 6.56548,-10.74994 10.78125,-16.61279 4.21577,-5.86283 8.6319,-11.57265 12.07324,-15.91553 3.44134,-4.34288 5.03481,-6.1706 6.49805,-8.083 4.61646,-6.0333 9.74372,-11.16863 8.89404,-13.8753 -0.84968,-2.70667 -2.16128,-5.05899 -4.23193,-7.3418 -2.07066,-2.2828 -5.0875,-4.55127 -9.22119,-5.44922 -1.03343,-0.22448 -2.11219,-0.33323 -3.20801,-0.33252 z" /><path
       id="path8"
       style="color:#000000;display:inline;opacity:1;fill:#ffaff3;fill-rule:evenodd;stroke-linecap:square;stroke-linejoin:bevel;-inkscape-stroke:none"
       d="m 436.58789,263.64111 c -4.0955,-0.008 -7.78236,1.05922 -11.8374,2.74805 -6.61678,2.75572 -8.21865,7.74707 -9.43067,11.34375 -1.212,3.59668 -1.80743,7.10246 -2.35693,10.56592 -1.09901,6.92689 -2.65381,14.40158 -2.72607,14.55029 -3.24506,6.6776 -8.92432,11.41099 -15.64307,15.60791 -7.5162,-6.60204 -16.14689,-9.68331 -23.29834,-10.65088 -4.69993,-0.63588 -8.83563,-0.49467 -12.05566,-0.14062 -3.22004,0.35404 -4.98024,0.71686 -6.97998,1.37549 -26.49458,8.72606 -43.80358,34.81408 -35.60743,59.6997 0,0 5.83282,11.13718 15.27393,6.1875 9.44111,-4.94969 31.43322,-14.30272 37.62305,-15.79687 -1.26977,4.09371 -3.61648,9.72124 -5.56348,15.25488 -1.16763,3.31857 -3.27919,5.88172 -1.42529,12.82471 0.92695,3.47147 5.21494,8.06394 9.22851,9.0249 4.0136,0.96096 6.62608,0.13595 8.97803,-0.63867 25.77764,-8.48995 42.78833,-33.41273 36.14502,-57.67529 0.33833,-0.89569 1.1372,-2.56508 2.37891,-4.60987 2.58334,-4.25417 6.75731,-9.88725 11.1665,-15.49951 4.40919,-5.61226 9.0552,-11.24693 12.84521,-16.09717 1.89502,-2.42512 3.57366,-4.6406 4.99073,-6.73095 1.41707,-2.09036 2.68288,-3.33528 3.69433,-7.43555 1.23036,-4.98773 2.9103,-11.93558 -3.26953,-18.78516 -3.08992,-3.42477 -8.03487,-5.11486 -12.13037,-5.12256 z" /><path
       id="shape05"
       fill="#151515"
       stroke-opacity="0"
       stroke="#000000"
       stroke-width="0"
       stroke-linecap="square"
       stroke-linejoin="bevel"
       d="m 222.63256,294.55925 c 10.333,-1.82309 17.23294,-11.676 15.4113,-22.00757 -1.82164,-10.33407 -11.67479,-17.2316 -22.00779,-15.40948 -10.33311,1.82237 -17.23305,11.67625 -15.41141,22.0079 1.82164,10.33158 11.67504,17.23224 22.0079,15.40915 z" /><path
       id="shape1"
       fill="#151515"
       stroke-opacity="0"
       stroke="#000000"
       stroke-width="0"
       stroke-linecap="square"
       stroke-linejoin="bevel"
       d="m 375.70176,267.56831 c 10.33163,-1.82068 17.23229,-11.67503 15.4092,-22.00707 -1.82067,-10.33238 -11.67358,-17.23135 -22.00762,-15.40899 -10.33165,1.82213 -17.23231,11.67552 -15.41164,22.0079 1.82309,10.333 11.676,17.23125 22.01006,15.40816 z" /><path
       id="shape2"
       fill="#151515"
       stroke-opacity="0"
       stroke="#000000"
       stroke-width="0"
       stroke-linecap="square"
       stroke-linejoin="bevel"
       d="m 283.43261,290.32559 c -1.18477,0.45698 -2.26798,1.14367 -3.1892,2.01894 -0.9188,0.87528 -1.65867,1.92464 -2.17126,3.08523 -0.51502,1.16301 -0.79549,2.41306 -0.82692,3.68245 -0.0314,1.26939 0.18859,2.53395 0.64557,3.71872 1.19444,3.08765 2.98368,5.91172 5.26859,8.31027 v 0 c 2.28491,2.39855 5.01954,4.32077 8.04916,5.66028 l 0.002,0.002 c 3.02478,1.33951 6.2841,2.06971 9.59419,2.14951 h 0.002 0.005 c 3.30762,0.0774 6.59837,-0.49567 9.68602,-1.68769 h 0.002 c 3.08765,-1.19202 5.91174,-2.98126 8.30787,-5.26617 h 0.002 v -0.002 c 2.39613,-2.28249 4.31836,-5.0171 5.65787,-8.04188 1.34435,-3.02962 2.07455,-6.29619 2.15192,-9.6087 0.0605,-2.56297 -0.89945,-5.04614 -2.66935,-6.90308 -1.77232,-1.85453 -4.20713,-2.93049 -6.77251,-2.99094 -1.2694,-0.0314 -2.53154,0.19102 -3.7163,0.648 -1.18477,0.4594 -2.26799,1.14608 -3.18679,2.02377 -0.91879,0.87528 -1.65625,1.92465 -2.16884,3.08765 -0.5126,1.16059 -0.79307,2.41306 -0.82209,3.68245 -0.0193,0.76647 -0.18859,1.52327 -0.5005,2.22446 v 0.002 l -0.002,0.005 c -0.31191,0.7036 -0.75922,1.33951 -1.31533,1.87144 -0.55853,0.53194 -1.21378,0.94782 -1.9319,1.22346 l -0.005,0.002 c -0.72053,0.27806 -1.48701,0.41105 -2.25827,0.39412 -0.76888,-0.0193 -1.5281,-0.19101 -2.23171,-0.50292 h -0.005 l -0.002,-0.002 c -0.70361,-0.31191 -1.3371,-0.7568 -1.86903,-1.31291 v -0.002 0 c -0.53194,-0.55853 -0.94782,-1.21378 -1.22587,-1.93432 -0.45699,-1.18476 -1.14367,-2.26798 -2.01894,-3.18678 -0.8777,-0.9188 -1.92465,-1.65867 -3.08765,-2.17126 -1.16059,-0.51501 -2.41306,-0.79549 -3.68245,-0.82692 -1.26939,-0.0314 -2.53153,0.18859 -3.7163,0.64799 z" /></g></svg>
