<svg xmlns="http://www.w3.org/2000/svg" fill="none" viewBox="0 0 2000 1905.4"><g opacity=".8"><path fill="#ffaff3" fill-opacity=".8" d="M882.22 118.22c53.75-95.244 191.07-95.244 244.82 0l205.79 364.66c20.05 35.532 54.59 60.594 94.62 68.66l410.83 82.793c107.31 21.624 149.74 152.07 75.66 232.56l-283.65 308.16a140.23 140.23 0 0 0-36.14 111.1l48.12 415.83c12.57 108.6-98.53 189.22-198.07 143.72l-381.09-174.2a140.7 140.7 0 0 0-116.96 0l-381.09 174.2c-99.537 45.5-210.64-35.11-198.07-143.72l48.118-415.83a140.25 140.25 0 0 0-36.142-111.1l-283.65-308.16c-74.084-80.488-31.649-210.93 75.655-232.56l410.83-82.792c40.031-8.067 74.568-33.13 94.62-68.661z"/><path fill="#151515" d="M1006.34 6.791a182.8 182.8 0 0 0-49.906 6.443c-24.105 6.568-46.72 18.119-66.184 34.1l-.008.006c-17.546 14.367-31.964 31.872-42.875 51.252a40 40 0 0 0 15.23 54.478 40 40 0 0 0 54.481-15.23c6.201-11.015 14.39-20.86 23.85-28.606l.056-.046c10.513-8.639 23.177-15.145 36.487-18.77l.035-.01a103.2 103.2 0 0 1 28.076-3.62 40 40 0 0 0 40.377-39.62 40 40 0 0 0-39.62-40.377m117.178 74.03a40 40 0 0 0-14.829 4.872 40 40 0 0 0-15.175 54.495l73.72 130.632a40 40 0 0 0 54.495 15.178 40 40 0 0 0 15.177-54.494l-73.72-130.635a40 40 0 0 0-39.668-20.049M824.314 189.683a40 40 0 0 0-39.668 20.048l-73.72 130.633a40 40 0 0 0 15.176 54.494 40 40 0 0 0 54.496-15.175l73.72-130.635a40 40 0 0 0-15.177-54.494 40 40 0 0 0-14.827-4.871m446.647 152.404a40 40 0 0 0-14.828 4.873 40 40 0 0 0-15.178 54.494l57.043 101.078a180 180 0 0 0 25.799 35.04 40 40 0 0 0 56.545 1.671 40 40 0 0 0 1.672-56.543 100.4 100.4 0 0 1-14.34-19.478l-.004-.006-57.043-101.08a40 40 0 0 0-39.666-20.05M679.119 451.189a40 40 0 0 0-40.851 17.508c-6.633 10.194-15.27 19.273-25.133 26.424l-.035.025c-11.55 8.395-25.158 14.362-39.159 17.172l-.03.006-37.608 7.578a40 40 0 0 0-31.31 47.116 40 40 0 0 0 47.112 31.308l37.579-7.572a180.2 180.2 0 0 0 70.41-30.865 180.1 180.1 0 0 0 45.228-47.56 40 40 0 0 0-11.71-55.343 40 40 0 0 0-14.493-5.797m802.744 73.614a40 40 0 0 0-31.506 31.347 40 40 0 0 0 31.309 47.116l147.045 29.632a40 40 0 0 0 47.113-31.31 40 40 0 0 0-31.31-47.113l-147.043-29.633a40 40 0 0 0-15.608-.04M404.865 549.496a40 40 0 0 0-15.607.04l-147.043 29.632a40 40 0 0 0-31.31 47.115 40 40 0 0 0 47.113 31.309l147.045-29.633a40 40 0 0 0 31.308-47.113 40 40 0 0 0-31.506-31.35m1371.086 34.572a40 40 0 0 0-31.508 31.348 40 40 0 0 0 31.31 47.115l54.63 11.008.04.01c12.685 2.542 24.856 7.44 35.327 14.27l.043.027a97.8 97.8 0 0 1 21.521 19.088 40 40 0 0 0 56.35 4.968 40 40 0 0 0 4.97-56.35 177.4 177.4 0 0 0-39.177-34.74l-.014-.007c-19.42-12.666-40.975-21.217-63.257-25.688l-.01-.002-54.617-11.008a40 40 0 0 0-15.608-.039M112.75 623.818a40 40 0 0 0-29.26 9.008 177 177 0 0 0-15.508 14.492c-20.014 21.055-34.522 46.62-42.564 74.282l-.004.011c-7.929 27.172-9.506 56.027-4.172 84.123a40 40 0 0 0 46.76 31.836 40 40 0 0 0 31.836-46.758c-2.895-15.248-2.05-31.64 2.375-46.798l.016-.051c4.49-15.459 12.807-30.03 23.746-41.535l.015-.018a97 97 0 0 1 8.508-7.953 40 40 0 0 0 5.31-56.32 40 40 0 0 0-27.058-14.319M1940.898 782.29a40 40 0 0 0-36.34 25.59c-4.444 11.519-11.348 22.484-20.019 31.887l-.025.027-65.733 71.412a40 40 0 0 0 2.342 56.52 40 40 0 0 0 56.52-2.34L1943.35 894c15.25-16.537 27.581-35.9 35.847-57.324a40 40 0 0 0-22.92-51.717 40 40 0 0 0-15.379-2.67M145.783 879.938a40 40 0 0 0-28.744 10.535 40 40 0 0 0-2.342 56.52l101.586 110.364a40 40 0 0 0 56.52 2.34 40 40 0 0 0 2.342-56.52L173.559 892.813a40 40 0 0 0-27.776-12.875m1599.188 128.755a40 40 0 0 0-27.776 12.875l-101.586 110.366a40 40 0 0 0 2.342 56.52 40 40 0 0 0 56.52-2.34l101.586-110.366a40 40 0 0 0-2.342-56.52 40 40 0 0 0-28.744-10.535m-1396.016 91.973a40 40 0 0 0-28.746 10.535 40 40 0 0 0-2.34 56.522l31.672 34.41.012.01a100.4 100.4 0 0 1 16.306 23.869l.016.035c6.512 13.304 10.058 28.348 10.164 43.146a40 40 0 0 0 40.287 39.713 40 40 0 0 0 39.711-40.287 179.9 179.9 0 0 0-18.3-77.73 180 180 0 0 0-29.335-42.936l-.01-.012-31.662-34.398a40 40 0 0 0-27.775-12.877m1241.488 153.414a40 40 0 0 0-35.136 44.332l17.244 149.006a40 40 0 0 0 44.332 35.137 40 40 0 0 0 35.137-44.332l-17.243-149.006a40 40 0 0 0-44.334-35.137M404.455 1378.256a40 40 0 0 0-44.332 35.137l-17.242 149.005a40 40 0 0 0 35.137 44.334 40 40 0 0 0 44.332-35.138l17.242-149.004a40 40 0 0 0-35.137-44.334M1624.93 1552.09a40 40 0 0 0-35.137 44.334l12.746 110.146.002.016c1.096 9.438.92 18.937-.541 28.016a40 40 0 0 0 33.135 45.85 40 40 0 0 0 45.85-33.134c2.683-16.67 2.934-33.484 1.025-49.943l-.002-.016-12.744-110.132a40 40 0 0 0-44.334-35.137m-636.305 67.387a180.4 180.4 0 0 0-59.107 15.64l-92.932 42.48a40 40 0 0 0-19.75 53.008 40 40 0 0 0 53.01 19.75l92.94-42.482.007-.004a101 101 0 0 1 32.889-8.705 40 40 0 0 0 36.316-43.371 40 40 0 0 0-43.373-36.316m146.137 44.134a40 40 0 0 0-37.82 23.344 40 40 0 0 0 19.75 53.01l136.421 62.36a40 40 0 0 0 53.01-19.75 40 40 0 0 0-19.75-53.009l-136.424-62.36a40 40 0 0 0-15.187-3.595m-767.946 12.455a40 40 0 0 0-40.761 39.221c-.198 10.26.47 20.56 2.037 30.777a176.8 176.8 0 0 0 24.637 66.663c16.005 25.82 38.275 47.107 64.478 62.064a40 40 0 0 0 54.568-14.91 40 40 0 0 0-14.908-54.569c-14.635-8.354-27.37-20.58-36.148-34.744l-.033-.05c-6.881-11.066-11.559-23.7-13.512-36.52l-.006-.041a100.4 100.4 0 0 1-1.129-17.127 40 40 0 0 0-39.223-40.764m348.536 60.297a40 40 0 0 0-15.188 3.594l-136.424 62.36a40 40 0 0 0-19.75 53.01 40 40 0 0 0 53.01 19.75l136.422-62.362a40 40 0 0 0 19.75-53.008 40 40 0 0 0-37.82-23.344m692.255 51.969a40 40 0 0 0-37.82 23.344 40 40 0 0 0 19.75 53.01l38.006 17.373.012.005.02.008c19.29 8.834 40.17 14.428 61.741 16.063 25.088 1.934 50.235-1.548 73.756-9.99a40 40 0 0 0 24.135-51.163 40 40 0 0 0-51.162-24.134c-12.952 4.649-27.038 6.571-40.598 5.523l-.068-.006c-11.676-.882-23.507-3.994-34.514-9.037l-.031-.014-38.04-17.388a40 40 0 0 0-15.187-3.594"/></g><g fill="#151515"><circle cx="700.4" cy="1000" r="74.368" opacity=".8"/><circle cx="1308.9" cy="1000" r="74.368" opacity=".8"/><path d="M1055.668 1094.805a40 40 0 0 0-31.498 31.357 21 21 0 0 1-1.098 3.668l-.002.006a21 21 0 0 1-1.886 3.617l-.004.004a21 21 0 0 1-2.565 3.191l-.004.004a21 21 0 0 1-3.125 2.62 21 21 0 0 1-8.729 3.402l-.015.002c-1.919.28-3.95.288-5.87.023h-.009a20 20 0 0 1-1.978-.37l-.016-.005a21 21 0 0 1-3.85-1.336l-.003-.002a21 21 0 0 1-2.893-1.625l-.021-.013a21 21 0 0 1-3.147-2.592l-.004-.006a21 21 0 0 1-3.369-4.445l-.002-.002a19 19 0 0 1-.33-.612 40 40 0 0 0-53.885-17.212 40 40 0 0 0-17.215 53.886 100.6 100.6 0 0 0 18.113 24.836l.005.004.002.002a100.7 100.7 0 0 0 15.251 12.568l.004.002a100.8 100.8 0 0 0 32.657 14.334l.006.002.01.002c3.244.78 6.502 1.388 9.759 1.836a100.8 100.8 0 0 0 28.318-.111 100.7 100.7 0 0 0 21.534-5.617v-.002a100.8 100.8 0 0 0 20.787-10.88l.02-.013a101 101 0 0 0 15.134-12.685l.002-.002a101 101 0 0 0 12.38-15.397l.003-.004a101 101 0 0 0 9.146-17.525l.002-.004a101 101 0 0 0 5.315-17.768 40 40 0 0 0-31.323-47.103 40 40 0 0 0-15.607-.035" opacity=".8"/></g></svg>