<svg xmlns="http://www.w3.org/2000/svg" width="2821" height="2320" fill="none"><path fill="#ffaff3" stroke="#151515" stroke-width="80" d="M1391.62 307.436c26.29-80.203 130.27-100.947 185.33-36.978l288.6 335.285c35.71 41.487 87.72 65.38 142.47 65.486l442.78.856c84.53.163 136.25 92.473 92.38 164.505l-230.19 377.92a188.193 188.193 0 0 0-18.39 155.67l135.82 420.9c25.87 80.19-45.95 158.07-128.25 138.64l-430.87-101.71a188.627 188.627 0 0 0-153.79 30.68l-358.84 259.27c-68.55 49.53-164.76 5.17-171.64-78.81l-36.1-440.79c-4.47-54.56-32.48-104.45-76.72-136.7l-357.586-260.65c-68.156-49.68-55.824-154.77 22.173-187.36l408.553-170.706c50.52-21.109 89.37-63.13 106.43-115.144l137.84-420.364Z"/><circle cx="1249.43" cy="1279.2" r="78.571" fill="#151515" transform="rotate(-11.283 1249.43 1279.2)"/><circle cx="1879.86" cy="1153.43" r="78.571" fill="#151515" transform="rotate(-11.283 1879.86 1153.43)"/><path stroke="#151515" stroke-linecap="round" stroke-width="80" d="m1539.16 1414.88 123.61-24.66"/><path fill="#FFF2F8" fill-rule="evenodd" d="M1206.16 1532.78c-7.89-33.66-37.92-57.46-72.5-57.46H113.508c-49.069 0-84.724 46.63-71.863 93.99l177.984 655.3c8.809 32.43 38.253 54.94 71.862 54.94H1411.29l-132.43-436.86-72.7-309.91Z" clip-rule="evenodd"/><path fill="#F8B8E6" d="m1411.29 2279.55 252.79-315.24c39.78-48.62 5.19-121.62-57.63-121.62h-327.59l132.43 436.86Z"/><path fill="#151515" d="M1408.1 2279.55v40c11.99 0 23.36-5.38 30.96-14.67l-30.96-25.33Zm-102.48-436.86-38.75 9.93 7.71 30.07h31.04v-40Zm360.41 121.62-30.96-25.33 30.96 25.33Zm-1444.457 260.3-38.602 10.48 38.602-10.48ZM43.59 1569.31l38.601-10.49-38.601 10.49Zm1182.61-36.53-38.94 9.14c.06.26.13.53.19.79l38.75-9.93Zm-79.22-97.46H115.452v80H1146.98v-80ZM4.988 1579.79l177.983 655.3 77.203-20.97-177.983-655.3-77.203 20.97Zm288.447 739.76H1408.1v-80H293.435v80Zm1145.625-14.67 257.92-315.24-61.91-50.66-257.93 315.24 61.92 50.66Zm-94.69-472.12-79.42-309.91-77.5 19.86 79.42 309.91 77.5-19.86Zm264.02-30.07h-302.77v80h302.77v-80Zm88.59 186.95c61.15-74.74 7.98-186.95-88.59-186.95v80c29.08 0 45.09 33.78 26.68 56.29l61.91 50.66ZM182.971 2235.09c13.542 49.86 58.802 84.46 110.464 84.46v-80c-15.556 0-29.183-10.42-33.261-25.43l-77.203 20.97Zm-67.519-799.77c-75.426 0-130.234 71.68-110.464 144.47l77.203-20.97c-5.953-21.92 10.55-43.5 33.261-43.5v-80Zm1031.528 80c20.16 0 37.51 14.78 40.28 26.6l77.88-18.27c-13.02-55.51-69.18-88.33-118.16-88.33v80Z"/></svg>