<svg xmlns="http://www.w3.org/2000/svg" viewBox="0 0 2796 2254"><path fill="#ffaff3" d="M1152.1 221.38c51.39-66.951 156.37-52.057 187.11 26.548l161.15 411.99c19.94 50.977 61.08 90.758 112.71 109.01l417.46 147.58c79.7 28.174 97.89 132.41 32.62 185.82l-342.44 280.26a188.16 188.16 0 0 0-68.95 140.77l-11.38 442.12c-2.17 84.23-95.74 133.91-166.95 88.3l-372.79-238.79a188.64 188.64 0 0 0-155.27-22.03l-424.5 125.67c-81.092 24.01-157.16-49.74-135.81-131.25l112.05-427.84c13.868-52.95 3.981-109.3-27.068-154.39l-250.97-364.45c-47.835-69.464-1.366-164.52 83.024-169.42l442.04-25.632c54.661-3.169 105.25-29.935 138.58-73.355z"/><g fill="#151515"><path d="M1239.9 140.23c-44.383-.834-89.266 17.385-119.52 56.802l-269.39 350.91c-26.263 34.212-66.074 55.28-109.17 57.779l-442.04 25.63c-113.43 6.577-178.02 138.57-113.65 232.04l250.97 364.45h-.002c24.47 35.537 32.244 79.858 21.319 121.57l-112.05 427.84c-28.745 109.76 76.857 212.01 185.86 179.74l424.49-125.67a148.56 148.56 0 0 1 122.35 17.36l372.79 238.79c95.72 61.309 225.59-7.534 228.51-120.95l11.38-442.12v-.004a148.08 148.08 0 0 1 54.294-110.84l.002-.002 342.44-280.26.001-.002c87.827-71.87 62.505-216.62-44.621-254.49l-417.46-147.58-.003-.002c-40.704-14.387-73.075-45.694-88.787-85.864l-161.15-411.99-.002-.004c-23.27-59.497-79.508-92.063-136.57-93.134m-.547 77.527c25.977.27 51.3 15.817 62.614 44.748l161.15 411.99v.002c24.168 61.785 74.075 110.04 136.63 132.15l417.46 147.58c52.273 18.478 63.332 82.2 20.621 117.15l-.002.002-342.44 280.26c-51.35 42.013-81.888 104.37-83.602 170.69v.002l-11.38 442.12c-1.42 55.04-58.69 85.558-105.39 55.647l-372.79-238.79c-55.865-35.78-124.59-45.53-188.2-26.702h-.002l-424.5 125.67h-.002c-53.183 15.747-99.704-29.5-85.755-82.761l112.05-427.84c16.811-64.186 4.81-132.56-32.818-187.21l-250.97-364.45c-31.303-45.458-2.955-103.59 52.395-106.8l442.04-25.633c66.23-3.84 127.59-36.302 167.99-88.93v-.002l269.39-350.91.003-.002c14.71-19.165 35.31-28.196 55.513-27.986"/><circle cx="799.27" cy="1092.5" r="78.571" transform="rotate(8.075 799.27 1092.5)"/><circle cx="1435.8" cy="1182.8" r="78.571" transform="rotate(8.075 1435.8 1182.8)"/><path d="M1032.145 1228.586a40 40 0 0 0-37.819 42.07 104.4 104.4 0 0 0 10.037 39.42l.006.012.006.01a104.5 104.5 0 0 0 24.342 32.56l.02.016.017.015a104.3 104.3 0 0 0 34.967 20.754 104.1 104.1 0 0 0 40.295 5.809 104.1 104.1 0 0 0 39.392-10.033l.004-.002a104.2 104.2 0 0 0 32.61-24.38v-.001a104.4 104.4 0 0 0 20.771-34.977 40 40 0 0 0-24.383-51.043 40 40 0 0 0-51.043 24.383 24.4 24.4 0 0 1-4.85 8.164 24.2 24.2 0 0 1-7.566 5.657l-.02.01-.019.01a24.1 24.1 0 0 1-9.129 2.325l-.025.002h-.026a24.1 24.1 0 0 1-9.34-1.346l-.013-.005-.014-.004a24.3 24.3 0 0 1-8.138-4.826 24.4 24.4 0 0 1-5.67-7.582l-.002-.006a24.4 24.4 0 0 1-2.342-9.194 40 40 0 0 0-42.068-37.818"/></g><path fill="#F2FFFE" d="m2646.2 1059.8-779.71-407.97 163.04 393.85 61.83 149.38 156.63-38.18z"/><path fill="#BDF3FF" d="m2401 1530.7 245.2-470.87-398.21 97.08-156.63 38.18-61.83-149.38-163.04-393.85-272.44 472.67z"/><path fill="#151515" d="M1881.8 611.3c-19.408-1.456-39.129 8.48-48.561 26.509l-241.07 460.74-.013.021c-12.548 24.02-2.92 54.873 21.122 67.46l.007.003 754.9 394.99.002.002.006.001c24.058 12.59 54.898 2.938 67.486-21.126l.008-.014 241.06-460.72.002-.002c12.588-24.047 2.896-54.932-21.148-67.494l-754.88-394.98-.018-.008c-6.006-3.14-12.439-4.892-18.908-5.377m8.413 90.175 701.74 367.18-213.25 407.58-701.75-367.17z"/></svg>