<svg xmlns="http://www.w3.org/2000/svg" width="2796" height="2254" fill="none"><path fill="#ffaff3" stroke="#151515" stroke-width="80" d="M1152.07 221.385c51.39-66.951 156.37-52.057 187.11 26.548l161.15 411.993c19.94 50.977 61.08 90.758 112.71 109.007l417.46 147.576c79.7 28.174 97.89 132.411 32.62 185.821l-342.44 280.26a188.159 188.159 0 0 0-68.95 140.77l-11.38 442.12c-2.17 84.23-95.74 133.91-166.95 88.3l-372.79-238.79a188.635 188.635 0 0 0-155.274-22.03l-424.495 125.67c-81.092 24.01-157.155-49.74-135.808-131.25l112.047-427.84c13.868-52.95 3.981-109.3-27.068-154.39L219.04 840.698c-47.835-69.464-1.366-164.524 83.024-169.417L744.1 645.649c54.661-3.169 105.248-29.935 138.58-73.355l269.39-350.909Z"/><circle cx="799.271" cy="1092.48" r="78.571" fill="#151515" transform="rotate(8.075 799.271 1092.48)"/><circle cx="1435.75" cy="1182.78" r="78.571" fill="#151515" transform="rotate(8.075 1435.75 1182.78)"/><path stroke="#151515" stroke-linecap="round" stroke-width="80" d="M1159.08 1286.53a64.36 64.36 0 0 1-12.81 21.57 64.175 64.175 0 0 1-20.09 15.02 64.07 64.07 0 0 1-24.3 6.19 64.12 64.12 0 0 1-24.83-3.58 64.335 64.335 0 0 1-21.57-12.8 64.443 64.443 0 0 1-15.02-20.09 64.351 64.351 0 0 1-6.19-24.31"/><path fill="#F2FFFE" d="m2646.23 1059.81-779.71-407.971 163.04 393.851 61.83 149.38 156.63-38.18 398.21-97.08Z"/><path fill="#BDF3FF" d="m2401.03 1530.68 245.2-470.87-398.21 97.08-156.63 38.18-61.83-149.38-163.04-393.851-272.44 472.671 806.95 406.17Z"/><path stroke="#151515" stroke-linejoin="round" stroke-width="80" d="m1882.17 652.127 754.9 394.993c4.9 2.56 6.79 8.6 4.23 13.49l-241.07 460.74c-2.56 4.9-8.61 6.79-13.5 4.23l-754.91-394.99c-4.89-2.56-6.78-8.6-4.22-13.5l241.07-460.739c2.56-4.893 8.6-6.785 13.5-4.224Z"/></svg>