<svg viewBox="0 0 2105 2016" version="1.1" width="2105" height="2016" xmlns="http://www.w3.org/2000/svg" xmlns:xlink="http://www.w3.org/1999/xlink" xml:space="preserve" xmlns:serif="http://www.serif.com/" style="fill-rule:evenodd;clip-rule:evenodd;stroke-linejoin:round;stroke-miterlimit:2;">
    <path d="M213,549L271,547L1967,901L1995,931L1857,1091L1609,1301L1521,1375L1507,1501L377,1283L373,1159L309,985L197,841L169,729L131,639L145,563L213,549Z" style="fill:rgb(255,216,0);fill-rule:nonzero;"/>
    <path d="M396,1270L1498,1486L1506,1850L1416,1950L1240,1860L898,1656L386,1770L278,1722L274,1626L396,1270Z" style="fill:rgb(33,177,255);fill-rule:nonzero;"/>
    <path d="M207,553L1971,907L1923,805L1475,623L1242,70L1161,58L1002,181L858,385L675,502L285,496L207,553Z" style="fill:rgb(255,33,140);fill-rule:nonzero;"/>
    <path d="M1186.1,20.4C1236.1,29.2 1281.7,62.3 1300.6,115.9L1447.8,533.1C1462.2,573.7 1493.5,606.1 1533.7,621.9L1946,783.4C2051.8,824.8 2072.2,970.3 1982,1039.2L1630.4,1307.8C1613.4,1320.7 1599.5,1337.2 1589.5,1356C1579.5,1374.8 1573.6,1395.5 1572.4,1416.8L1546.1,1858.3C1539.4,1971.5 1407.3,2036 1313.7,1971.5L949.1,1720.3C931.6,1708.2 911.6,1700 890.6,1696.3C869.6,1692.6 848.1,1693.5 827.5,1698.8L399,1810.2C289,1838.8 186.8,1733 219.3,1624.3L345.6,1200.5C351.7,1180 353.3,1158.6 350.3,1137.5C347.4,1116.4 339.9,1096.2 328.4,1078.2L89.8,705.6C28.6,610 97.6,480.2 211.2,477.5L653.8,466.7C697,465.7 737.5,445.9 764.9,412.6L1045.9,71C1082,27.1 1136.2,11.6 1186.1,20.4ZM1172.7,96.6C1150,92.6 1125.2,100.5 1107.7,121.8L826.7,463.4C784.5,514.7 722.1,545.1 655.8,546.7L213.1,557.5C157.7,558.8 127.4,615.9 157.2,662.4L395.8,1035.1C431.5,1091 441.2,1159.7 422.3,1223.3L295.9,1647.2C280.2,1699.9 325.2,1746.7 378.8,1732.8L807.3,1621.4C871.5,1604.7 939.9,1616.8 994.5,1654.4L1359.1,1905.6C1404.8,1937.1 1463,1908.5 1466.3,1853.5L1492.5,1412C1496.4,1345.8 1529.1,1284.5 1581.8,1244.2L1933.5,975.6C1977.3,942.1 1968.4,878.1 1916.8,857.9L1504.5,696.3C1442.7,672.1 1394.5,622.2 1372.4,559.7L1225.2,142.5C1216,116.5 1195.4,100.6 1172.7,96.6Z" style="fill:rgb(21,21,21);"/>
    <path d="M1069.4,1125C1079.2,1128.8 1087.2,1136.4 1091.5,1146.1C1095.8,1155.8 1096.1,1166.8 1092.3,1176.7C1087.3,1189.5 1079.9,1201.1 1070.5,1211C1061,1221 1049.7,1228.9 1037.2,1234.5C1024.7,1240 1011.2,1243 997.5,1243.4C983.8,1243.7 970.2,1241.3 957.4,1236.4C944.6,1231.5 933,1224.1 923,1214.6C913.1,1205.2 905.2,1193.8 899.6,1181.3C894.1,1168.8 891,1155.3 890.7,1141.6C890.5,1131 894.5,1120.7 901.8,1113C909.1,1105.4 919.2,1100.9 929.8,1100.7C935,1100.5 940.3,1101.5 945.2,1103.3C950.1,1105.3 954.5,1108.1 958.3,1111.7C962.1,1115.3 965.2,1119.7 967.3,1124.5C969.4,1129.3 970.6,1134.5 970.7,1139.7C970.8,1142.9 971.5,1146 972.8,1148.9L972.8,1149C974.1,1151.9 975.9,1154.5 978.2,1156.7C980.5,1158.9 983.2,1160.6 986.2,1161.8C989.2,1162.9 992.4,1163.5 995.6,1163.4C998.7,1163.3 1001.9,1162.6 1004.8,1161.3C1007.7,1160 1010.4,1158.2 1012.6,1155.9C1014.8,1153.5 1016.5,1150.8 1017.6,1147.9C1021.5,1138 1029,1130 1038.7,1125.7C1048.4,1121.4 1059.5,1121.1 1069.4,1125ZM1417.3,969.9C1425.2,970.2 1432.8,972.9 1439.2,977.5C1445.6,982.2 1450.5,988.6 1453.2,996C1455.1,1001 1455.9,1006.2 1455.7,1011.4C1455.5,1016.7 1454.2,1021.9 1452,1026.6C1449.8,1031.4 1446.7,1035.7 1442.9,1039.2C1439,1042.8 1434.5,1045.6 1429.6,1047.4L1400.8,1058L1424.2,1077.8C1432.3,1084.7 1437.3,1094.5 1438.2,1105C1439.1,1115.6 1435.7,1126.1 1428.9,1134.2C1422,1142.3 1412.2,1147.3 1401.7,1148.2C1391.1,1149.1 1380.6,1145.7 1372.5,1138.9L1296.8,1074.8C1291.4,1070.2 1287.4,1064.4 1285,1057.8C1282.6,1051.2 1282,1044.2 1283.2,1037.3C1284.4,1030.4 1287.4,1024 1291.9,1018.6C1296.4,1013.2 1302.2,1009.1 1308.8,1006.7L1401.9,972.3C1406.8,970.5 1412,969.7 1417.3,969.9ZM661.2,836.6C666.2,838.2 670.8,840.8 674.8,844.2L750.5,908.3C755.9,912.8 759.9,918.6 762.3,925.2C764.7,931.8 765.3,938.9 764.1,945.7C762.9,952.6 759.9,959.1 755.4,964.4C750.9,969.8 745.1,973.9 738.5,976.3L645.5,1010.7C635.5,1014.4 624.5,1013.9 614.9,1009.5C605.2,1005 597.8,997 594.1,987C592.3,982.1 591.4,976.8 591.6,971.6C591.8,966.3 593.1,961.2 595.3,956.4C597.5,951.6 600.6,947.3 604.5,943.8C608.3,940.2 612.8,937.4 617.8,935.6L646.5,925L623.1,905.2C619.1,901.8 615.8,897.7 613.4,893C611,888.3 609.5,883.2 609.1,878C608.7,872.7 609.3,867.5 610.9,862.5C612.5,857.5 615.1,852.8 618.5,848.8C623.6,842.8 630.3,838.4 638,836.2C645.6,834 653.6,834.2 661.2,836.6Z" style="fill:rgb(21,21,21);fill-rule:nonzero;"/>
</svg>
