<svg width="631" height="421" viewBox="0 0 631 421" fill="none" xmlns="http://www.w3.org/2000/svg">
<path fill-rule="evenodd" clip-rule="evenodd" d="M313.689 182.617C246.908 182.617 186.232 190.652 141.312 203.746V315.595C186.232 328.689 246.908 336.724 313.689 336.724C390.123 336.724 458.551 326.199 504.515 309.61V209.732C458.551 193.143 390.123 182.617 313.689 182.617ZM573.355 273.497L565.528 257.267C565.568 256.651 565.6 256.034 565.6 255.415C565.6 237.017 546.483 220.061 514.319 206.485V304.346C529.326 298.011 541.501 290.942 550.209 283.33C547.646 293.642 538.882 314.505 531.894 329.176C520.409 350.16 516.25 368.427 516.783 369.332C517.123 369.901 521.041 363.852 526.819 354.05C540.265 334.877 565.743 298.274 570.835 288.95C576.604 278.38 573.355 273.497 573.355 273.497ZM68.8483 266.945C67.474 263.522 66.7618 260.031 66.7618 256.488C66.7618 234.006 95.2933 213.673 141.312 199.039V313.939C122.215 307.864 106.142 300.806 93.8567 293.024C98.2568 303.756 105.588 318.286 111.727 329.253C124.882 349.672 129.62 367.569 129 368.469C128.607 369.037 124.116 363.165 117.492 353.632C102.07 335.038 72.8512 299.531 67.0179 290.46C60.4046 280.172 64.1602 275.296 64.1602 275.296L68.8483 266.945Z" fill="#FFAFF3"/>
<path d="M141.312 203.746L139.493 197.506C136.719 198.314 134.812 200.857 134.812 203.746H141.312ZM141.312 315.595H134.812C134.812 318.484 136.719 321.027 139.493 321.835L141.312 315.595ZM504.515 309.61L506.722 315.724C509.298 314.794 511.015 312.349 511.015 309.61H504.515ZM504.515 209.732H511.015C511.015 206.994 509.298 204.548 506.722 203.619L504.515 209.732ZM565.528 257.267L559.041 256.844C558.968 257.963 559.186 259.081 559.673 260.091L565.528 257.267ZM573.355 273.497L567.501 276.321C567.63 276.589 567.778 276.848 567.943 277.097L573.355 273.497ZM514.319 206.485L516.846 200.497C514.839 199.65 512.541 199.864 510.726 201.068C508.91 202.273 507.819 204.307 507.819 206.485H514.319ZM514.319 304.346H507.819C507.819 306.525 508.91 308.559 510.726 309.763C512.541 310.967 514.84 311.182 516.847 310.335L514.319 304.346ZM550.209 283.33L556.517 284.897C557.202 282.142 556.019 279.261 553.595 277.782C551.172 276.303 548.069 276.567 545.931 278.436L550.209 283.33ZM531.894 329.176L537.596 332.297C537.654 332.19 537.71 332.081 537.762 331.971L531.894 329.176ZM516.783 369.332L511.184 372.632C511.19 372.642 511.196 372.653 511.202 372.663L516.783 369.332ZM526.819 354.05L521.497 350.318C521.399 350.458 521.306 350.602 521.219 350.75L526.819 354.05ZM570.835 288.95L576.54 292.066L576.541 292.064L570.835 288.95ZM68.8483 266.945L74.5163 270.126C75.4799 268.41 75.6137 266.349 74.8802 264.523L68.8483 266.945ZM141.312 199.039H147.812C147.812 196.965 146.823 195.016 145.149 193.792C143.475 192.568 141.318 192.216 139.342 192.844L141.312 199.039ZM141.312 313.939L139.342 320.133C141.318 320.761 143.475 320.409 145.149 319.185C146.823 317.961 147.812 316.012 147.812 313.939H141.312ZM93.8567 293.024L97.3348 287.533C94.9445 286.019 91.8495 286.225 89.6811 288.043C87.5127 289.86 86.7692 292.872 87.8426 295.49L93.8567 293.024ZM111.727 329.253L106.055 332.428C106.121 332.545 106.19 332.66 106.263 332.773L111.727 329.253ZM129 368.469L134.342 372.173C134.347 372.166 134.351 372.16 134.356 372.153L129 368.469ZM117.492 353.632L122.83 349.923C122.724 349.771 122.613 349.624 122.495 349.482L117.492 353.632ZM67.0179 290.46L61.5503 293.975L61.5508 293.976L67.0179 290.46ZM64.1602 275.296L69.3099 279.262C69.5014 279.014 69.6746 278.751 69.8282 278.478L64.1602 275.296ZM143.131 209.986C187.323 197.105 247.362 189.117 313.689 189.117V176.117C246.453 176.117 185.141 184.2 139.493 197.506L143.131 209.986ZM147.812 315.595V203.746H134.812V315.595H147.812ZM313.689 330.224C247.362 330.224 187.323 322.237 143.131 309.355L139.493 321.835C185.141 335.142 246.453 343.224 313.689 343.224V330.224ZM502.309 303.496C457.273 319.751 389.647 330.224 313.689 330.224V343.224C390.599 343.224 459.83 332.648 506.722 315.724L502.309 303.496ZM498.015 209.732V309.61H511.015V209.732H498.015ZM313.689 189.117C389.647 189.117 457.273 199.591 502.309 215.846L506.722 203.619C459.83 186.694 390.599 176.117 313.689 176.117V189.117ZM559.673 260.091L567.501 276.321L579.21 270.673L571.382 254.444L559.673 260.091ZM559.1 255.415C559.1 255.822 559.079 256.274 559.041 256.844L572.014 257.691C572.057 257.028 572.1 256.246 572.1 255.415H559.1ZM511.791 212.474C527.486 219.098 539.546 226.369 547.579 233.888C555.607 241.401 559.1 248.642 559.1 255.415H572.1C572.1 243.79 566.034 233.354 556.462 224.396C546.896 215.443 533.315 207.448 516.846 200.497L511.791 212.474ZM520.819 304.346V206.485H507.819V304.346H520.819ZM545.931 278.436C537.925 285.435 526.426 292.18 511.791 298.358L516.847 310.335C532.226 303.843 545.078 296.449 554.487 288.224L545.931 278.436ZM537.762 331.971C544.749 317.301 553.78 295.912 556.517 284.897L543.901 281.762C541.513 291.373 533.014 311.709 526.025 326.381L537.762 331.971ZM522.383 366.031C523.069 367.194 523.18 368.249 523.201 368.421C523.243 368.772 523.239 369.025 523.237 369.099C523.234 369.26 523.222 369.28 523.249 369.081C523.299 368.718 523.418 368.054 523.642 367.072C524.083 365.138 524.852 362.313 526.005 358.82C528.307 351.839 532.068 342.396 537.596 332.297L526.192 326.056C520.235 336.94 516.174 347.123 513.659 354.748C512.402 358.557 511.515 361.78 510.967 364.181C510.697 365.367 510.488 366.442 510.367 367.333C510.309 367.761 510.252 368.287 510.24 368.825C510.235 369.088 510.236 369.497 510.294 369.972C510.329 370.267 510.465 371.412 511.184 372.632L522.383 366.031ZM521.219 350.75C518.348 355.621 515.984 359.482 514.322 362.022C513.472 363.322 512.899 364.131 512.581 364.535C512.369 364.802 512.485 364.616 512.832 364.316C512.901 364.257 513.666 363.563 514.93 363.164C515.637 362.94 516.982 362.656 518.591 363.11C520.381 363.615 521.642 364.789 522.365 366L511.202 372.663C511.946 373.91 513.235 375.106 515.06 375.621C516.704 376.085 518.091 375.798 518.847 375.559C520.209 375.129 521.098 374.354 521.318 374.165C521.967 373.605 522.49 372.963 522.784 372.59C523.476 371.713 524.308 370.505 525.201 369.139C527.029 366.346 529.513 362.281 532.418 357.351L521.219 350.75ZM565.131 285.834C562.778 290.142 555.364 301.303 546.593 314.14C537.928 326.82 528.215 340.739 521.497 350.318L532.141 357.782C538.869 348.188 548.617 334.219 557.326 321.474C565.929 308.884 573.8 297.082 576.54 292.066L565.131 285.834ZM573.355 273.497C567.943 277.097 567.94 277.092 567.937 277.087C567.936 277.085 567.933 277.081 567.931 277.078C567.927 277.071 567.923 277.065 567.918 277.059C567.91 277.046 567.902 277.034 567.895 277.022C567.879 276.998 567.865 276.975 567.851 276.953C567.823 276.909 567.799 276.868 567.777 276.831C567.733 276.756 567.701 276.695 567.677 276.648C567.63 276.554 567.619 276.517 567.627 276.54C567.64 276.578 567.741 276.885 567.763 277.492C567.805 278.67 567.558 281.386 565.13 285.836L576.541 292.064C579.881 285.944 580.894 280.934 580.754 277.027C580.685 275.092 580.335 273.518 579.919 272.31C579.713 271.71 579.493 271.209 579.291 270.806C579.189 270.605 579.093 270.429 579.004 270.278C578.96 270.202 578.918 270.132 578.878 270.069C578.859 270.037 578.839 270.007 578.821 269.978C578.812 269.964 578.803 269.95 578.794 269.936C578.789 269.93 578.785 269.923 578.781 269.916C578.778 269.913 578.775 269.908 578.774 269.907C578.771 269.902 578.768 269.897 573.355 273.497ZM60.2618 256.488C60.2618 260.923 61.1568 265.233 62.8164 269.367L74.8802 264.523C73.7912 261.81 73.2618 259.14 73.2618 256.488H60.2618ZM139.342 192.844C115.969 200.278 96.5645 209.295 82.8648 219.632C69.2723 229.889 60.2618 242.28 60.2618 256.488H73.2618C73.2618 248.214 78.5171 239.198 90.695 230.009C102.766 220.901 120.637 212.435 143.282 205.233L139.342 192.844ZM147.812 313.939V199.039H134.812V313.939H147.812ZM90.3786 298.515C103.28 306.687 119.909 313.951 139.342 320.133L143.283 307.744C124.522 301.777 109.004 294.924 97.3348 287.533L90.3786 298.515ZM117.399 326.078C111.337 315.248 104.138 300.966 99.8709 290.558L87.8426 295.49C92.3757 306.547 99.8399 321.324 106.055 332.428L117.399 326.078ZM134.356 372.153C135.231 370.881 135.422 369.64 135.476 369.265C135.554 368.724 135.558 368.26 135.552 367.968C135.539 367.372 135.467 366.804 135.398 366.362C135.254 365.439 135.008 364.348 134.696 363.169C134.062 360.777 133.038 357.59 131.594 353.843C128.703 346.34 124.036 336.357 117.191 325.732L106.263 332.773C112.573 342.568 116.853 351.743 119.464 358.518C120.771 361.91 121.638 364.643 122.129 366.498C122.38 367.443 122.505 368.057 122.553 368.365C122.58 368.538 122.559 368.467 122.554 368.241C122.552 368.135 122.549 367.826 122.609 367.407C122.646 367.153 122.809 366.001 123.645 364.786L134.356 372.153ZM112.154 357.341C115.488 362.138 118.339 366.094 120.439 368.812C121.467 370.142 122.424 371.32 123.222 372.172C123.568 372.542 124.156 373.148 124.866 373.66C125.141 373.858 126.018 374.482 127.287 374.803C127.978 374.977 129.17 375.161 130.58 374.797C132.148 374.391 133.466 373.436 134.342 372.173L123.659 364.766C124.51 363.538 125.795 362.606 127.324 362.211C128.693 361.857 129.837 362.039 130.471 362.199C131.628 362.491 132.362 363.038 132.464 363.112C132.827 363.373 132.947 363.539 132.714 363.29C132.352 362.903 131.699 362.123 130.727 360.864C128.827 358.405 126.121 354.659 122.83 349.923L112.154 357.341ZM61.5508 293.976C64.7046 298.88 73.7446 310.352 83.6024 322.558C93.5904 334.926 104.771 348.477 112.489 357.781L122.495 349.482C114.791 340.193 103.651 326.693 93.7161 314.391C83.6507 301.927 75.1646 291.111 72.485 286.944L61.5508 293.976ZM64.1602 275.296C59.0105 271.33 59.0068 271.335 59.0032 271.339C59.0019 271.341 58.9983 271.346 58.9958 271.349C58.9908 271.355 58.9858 271.362 58.9808 271.369C58.9707 271.382 58.9603 271.396 58.9497 271.41C58.9286 271.438 58.9066 271.468 58.8838 271.5C58.8382 271.563 58.7894 271.632 58.7379 271.708C58.635 271.86 58.5213 272.038 58.4015 272.243C58.1619 272.653 57.8978 273.168 57.647 273.791C57.1414 275.047 56.7066 276.699 56.6156 278.729C56.431 282.85 57.6782 287.951 61.5503 293.975L72.4856 286.945C69.7444 282.681 69.5627 280.2 69.6026 279.311C69.6238 278.837 69.7146 278.626 69.7064 278.646C69.7044 278.651 69.682 278.706 69.6219 278.808C69.5919 278.86 69.5525 278.923 69.5013 278.998C69.4758 279.036 69.4472 279.077 69.4154 279.121C69.3995 279.143 69.3828 279.166 69.3653 279.189C69.3565 279.201 69.3475 279.213 69.3383 279.225C69.3337 279.231 69.329 279.237 69.3243 279.243C69.3219 279.247 69.3183 279.251 69.3171 279.253C69.3136 279.257 69.3099 279.262 64.1602 275.296ZM63.1803 263.763L58.4922 272.114L69.8282 278.478L74.5163 270.126L63.1803 263.763Z" fill="black"/>
<path fill-rule="evenodd" clip-rule="evenodd" d="M305.286 12.3944L289.984 37.967L282.525 38.6204L262.643 16.5481C260.768 14.2056 257.759 13.2158 254.895 13.8846C252.031 14.5533 249.726 16.8442 248.7 19.4408L238.66 47.8947C236.21 48.5271 233.76 49.1596 231.761 50.1703L208.061 32.1926C205.844 30.7156 202.457 30.1768 200.043 31.2239C197.251 32.7218 195.361 34.9764 194.786 37.9514L189.899 68.0427C189.093 68.4502 188.293 68.925 187.467 69.4153C186.244 70.1412 184.964 70.9009 183.523 71.5259L157.394 59.1923C154.763 57.7516 151.448 58.042 149.107 59.9183C146.729 61.38 145.325 64.4275 145.164 67.3662L146.151 97.7786C145.854 98.0454 145.542 98.3288 145.219 98.6228L145.217 98.6252L145.217 98.6253C143.859 99.8611 142.298 101.282 140.713 102.433L112.568 95.7073C109.559 94.7175 106.731 95.8009 104.426 98.0918C102.499 99.9317 101.546 103.358 102.214 106.224L108.965 135.713C107.453 137.517 105.94 139.321 104.464 141.539L75.1328 140.348C72.1961 140.188 69.4043 141.686 67.9642 144.319C66.5241 146.952 65.9852 150.341 67.4818 153.135L79.4754 180.494C77.9991 182.712 76.9372 184.894 75.8752 187.076L75.8752 187.076L47.5018 192.069C44.1869 192.359 41.8819 194.65 40.8562 197.247C39.8667 200.258 40.1565 203.575 41.6169 205.954L58.7797 230.353C58.4016 230.804 58.4378 231.219 58.474 231.633L10.3221 282.645C10.3221 282.645 3.29832 288.273 13.6821 301.986C23.0071 313.638 70.9299 360.358 96.5904 385.375L96.5914 385.376L96.9922 385.766C107.682 398.199 115.036 405.911 115.828 405.424C116.963 404.071 110.791 381.215 89.6812 354.655C73.3833 330.597 52.197 293.599 56.8433 289.431C56.8433 289.431 62.4791 282.253 74.1332 277.054C74.1332 277.054 87.4968 283.22 110.838 291.207C156.093 363.555 189.192 364.643 189.192 364.643C264.238 460.96 299.787 383.617 299.787 383.617C257.655 378.873 227.768 350.808 227.768 350.808C278.326 344.352 307.555 343.825 307.555 343.825C302.334 336.934 297.19 331.056 292.141 326.075C306.627 326.755 321.531 326.93 336.755 326.471C332.25 331.621 327.641 337.565 322.938 344.393C322.938 344.393 344.28 332.02 401.536 347.192C401.536 347.192 375.19 387.552 322.202 386.226C322.202 386.226 372.982 447.356 450.403 359.123C450.403 359.123 516.135 333.686 534.546 279.525C535.055 279.278 535.563 279.03 536.072 278.781C561.545 274.043 576.937 287.735 576.937 287.735C582.235 291.031 568.434 329.005 557.276 354.215C541.813 382.726 539.589 405.064 540.905 405.784C541.77 406.126 547.297 397.704 555.29 384.052C575.041 356.837 611.824 304.732 618.647 292.019C626.567 277.538 618.674 273.216 618.674 273.216L567.364 235.514C566.805 233.892 566.246 232.269 566.064 230.196L582.718 205.759C584.609 203.504 584.733 200.151 583.651 197.321C582.569 194.491 580.316 192.6 577.343 192.025L548.515 187.03C548.01 186.03 547.496 184.926 546.982 183.823C546.468 182.719 545.954 181.614 545.449 180.614L557.219 152.844C558.659 150.211 558.369 146.894 556.458 144.137C554.997 141.758 552.366 140.318 549.466 140.572L520.316 141.454C519.604 140.472 518.788 139.499 517.973 138.526L517.972 138.526C517.157 137.553 516.341 136.58 515.629 135.598L522.245 106.191C522.821 103.216 522.116 99.9352 520.278 98.0073C517.989 95.7011 514.98 94.7113 512.115 95.3801L483.923 102.446C482.121 100.932 480.318 99.4191 478.48 97.4912L479.187 67.3483C479.347 64.4096 477.851 61.6162 475.598 59.7246C472.931 57.8693 469.994 57.7088 467.202 59.2068L441.138 71.5173C440.048 70.9861 438.949 70.3513 437.849 69.7164C436.75 69.0816 435.651 68.4468 434.56 67.9156L429.88 38.2445C429.591 34.9276 427.302 32.6214 424.707 31.5953C422.076 30.1547 418.761 30.4451 416.42 32.3214L392.898 49.8403C390.754 49.1926 388.61 48.5449 386.051 47.9335L376.057 19.5636C374.975 16.7338 372.686 14.4276 369.713 13.8525C366.74 13.2774 363.912 14.3607 361.607 16.6516L341.835 38.8556C340.94 38.7567 339.965 38.5896 338.945 38.415C337.562 38.1782 336.098 37.9276 334.646 37.8143L319.483 12.404C317.986 9.61061 315.355 8.16991 312.418 8.0094C309.481 7.84889 306.726 9.7615 305.286 12.3944ZM204.288 315.708C185.723 312.229 168.629 308.22 153.355 304.129C162.744 318.273 173.988 331.374 184.979 335.392C184.979 335.392 192.067 324.948 204.288 315.708ZM439.953 333.198C439.953 333.198 435.319 324.741 426.888 316.007C448.839 311.441 471.033 305.244 493.217 297.09C484.147 307.085 471.732 318.286 454.819 329.663L439.953 333.198Z" fill="#FFAFF3"/>
<path d="M289.984 37.967L290.682 45.9364C293.238 45.7125 295.531 44.2763 296.849 42.0747L289.984 37.967ZM305.286 12.3944L312.151 16.5022C312.204 16.4136 312.255 16.324 312.305 16.2334L305.286 12.3944ZM282.525 38.6204L276.581 43.9747C278.262 45.8407 280.722 46.8091 283.224 46.5899L282.525 38.6204ZM262.643 16.5481L256.397 21.5469C256.494 21.6683 256.595 21.7868 256.699 21.9024L262.643 16.5481ZM254.895 13.8846L256.714 21.6751L256.714 21.6751L254.895 13.8846ZM248.7 19.4408L241.259 16.5016C241.223 16.5934 241.189 16.6858 241.156 16.7789L248.7 19.4408ZM238.66 47.8947L240.66 55.6408C243.239 54.9749 245.318 53.0688 246.204 50.5567L238.66 47.8947ZM231.761 50.1703L226.926 56.544C229.363 58.3926 232.64 58.6898 235.37 57.3098L231.761 50.1703ZM208.061 32.1926L212.896 25.8189C212.766 25.7202 212.633 25.6256 212.497 25.5351L208.061 32.1926ZM200.043 31.2239L196.86 23.8846C196.656 23.9729 196.456 24.0696 196.261 24.1745L200.043 31.2239ZM194.786 37.9514L186.931 36.4328C186.916 36.5113 186.902 36.5901 186.889 36.669L194.786 37.9514ZM189.899 68.0427L193.508 75.1822C195.792 74.0278 197.386 71.8507 197.796 69.325L189.899 68.0427ZM187.467 69.4153L183.384 62.5356L183.384 62.5356L187.467 69.4153ZM183.523 71.5259L180.108 78.7604C182.19 79.7432 184.595 79.7813 186.707 78.8651L183.523 71.5259ZM157.394 59.1923L153.551 66.2092C153.692 66.286 153.834 66.3586 153.979 66.4269L157.394 59.1923ZM149.107 59.9183L153.296 66.7334C153.579 66.5596 153.851 66.3685 154.109 66.161L149.107 59.9183ZM145.164 67.3662L137.176 66.9291C137.164 67.1611 137.161 67.3935 137.169 67.6257L145.164 67.3662ZM146.151 97.7786L151.493 103.734C153.252 102.156 154.224 99.8811 154.147 97.5191L146.151 97.7786ZM145.219 98.6228L150.588 104.554C150.594 104.549 150.599 104.544 150.604 104.539L145.219 98.6228ZM145.217 98.6252L150.485 104.646C150.519 104.616 150.552 104.586 150.585 104.556L145.217 98.6252ZM145.217 98.6253L139.949 92.6047C139.909 92.6391 139.87 92.6738 139.832 92.7089L145.217 98.6253ZM140.713 102.433L138.853 110.214C141.126 110.757 143.522 110.279 145.413 108.907L140.713 102.433ZM112.568 95.7073L110.069 103.307C110.279 103.376 110.493 103.437 110.709 103.488L112.568 95.7073ZM104.426 98.0918L109.951 103.878C109.989 103.841 110.027 103.804 110.065 103.766L104.426 98.0918ZM102.214 106.224L110.012 104.438C110.009 104.428 110.007 104.418 110.005 104.408L102.214 106.224ZM108.965 135.713L115.095 140.854C116.705 138.934 117.323 136.37 116.763 133.928L108.965 135.713ZM104.464 141.539L104.139 149.532C106.93 149.646 109.577 148.296 111.124 145.971L104.464 141.539ZM75.1328 140.348L74.6962 148.336C74.7336 148.339 74.771 148.34 74.8084 148.342L75.1328 140.348ZM67.9642 144.319L60.9455 140.48H60.9455L67.9642 144.319ZM67.4818 153.135L74.8088 149.923C74.7245 149.73 74.6327 149.542 74.5335 149.357L67.4818 153.135ZM79.4754 180.494L86.1353 184.926C87.6449 182.658 87.8962 179.777 86.8023 177.282L79.4754 180.494ZM75.8752 187.076L83.0306 190.654C83.0434 190.628 83.056 190.603 83.0685 190.577L75.8752 187.076ZM75.8752 187.076L77.2615 194.955C79.7572 194.516 81.8973 192.92 83.0306 190.654L75.8752 187.076ZM47.5018 192.069L48.2 200.038C48.4306 200.018 48.6602 199.988 48.8882 199.948L47.5018 192.069ZM40.8562 197.247L33.4156 194.307C33.3581 194.453 33.3049 194.6 33.256 194.749L40.8562 197.247ZM41.6169 205.954L34.7992 210.139C34.8863 210.281 34.9778 210.42 35.0735 210.556L41.6169 205.954ZM58.7797 230.353L64.9096 235.494C67.2397 232.715 67.4094 228.716 65.3231 225.75L58.7797 230.353ZM58.474 231.633L64.2916 237.125C65.8593 235.464 66.6425 233.212 66.4437 230.937L58.474 231.633ZM10.3221 282.645L15.325 288.887C15.6136 288.656 15.8858 288.405 16.1396 288.136L10.3221 282.645ZM13.6821 301.986L7.30422 306.816C7.34742 306.873 7.39139 306.929 7.43612 306.985L13.6821 301.986ZM96.5904 385.375L91.0059 391.103C91.0282 391.125 91.0506 391.146 91.0732 391.168L96.5904 385.375ZM96.5914 385.376L102.176 379.647C102.154 379.626 102.131 379.604 102.109 379.583L96.5914 385.376ZM96.9922 385.766L103.058 380.551C102.905 380.373 102.745 380.202 102.577 380.038L96.9922 385.766ZM115.828 405.424L120.018 412.239C120.751 411.788 121.406 411.223 121.958 410.564L115.828 405.424ZM89.6812 354.655L83.0579 359.142C83.1718 359.31 83.292 359.473 83.4183 359.632L89.6812 354.655ZM56.8433 289.431L62.1848 295.387C62.5306 295.077 62.8488 294.737 63.1357 294.372L56.8433 289.431ZM74.1332 277.054L77.4847 269.79C75.3903 268.824 72.9806 268.808 70.874 269.748L74.1332 277.054ZM110.838 291.207L117.621 286.964C116.647 285.407 115.166 284.232 113.428 283.637L110.838 291.207ZM189.192 364.643L195.502 359.726C194.043 357.853 191.827 356.726 189.454 356.648L189.192 364.643ZM299.787 383.617L307.056 386.958C308.128 384.625 308.015 381.919 306.753 379.684C305.491 377.448 303.233 375.954 300.682 375.667L299.787 383.617ZM227.768 350.808L226.755 342.873C223.683 343.265 221.113 345.395 220.158 348.341C219.203 351.288 220.034 354.52 222.292 356.64L227.768 350.808ZM307.555 343.825L307.699 351.824C310.71 351.77 313.435 350.029 314.75 347.321C316.066 344.612 315.75 341.395 313.932 338.994L307.555 343.825ZM292.141 326.075L292.516 318.084C289.206 317.928 286.142 319.83 284.813 322.866C283.483 325.902 284.163 329.443 286.523 331.77L292.141 326.075ZM336.755 326.471L342.776 331.738C344.871 329.343 345.347 325.933 343.989 323.055C342.63 320.177 339.695 318.379 336.514 318.474L336.755 326.471ZM322.938 344.393L316.349 339.855C314.226 342.937 314.524 347.079 317.065 349.826C319.606 352.573 323.712 353.191 326.95 351.314L322.938 344.393ZM401.536 347.192L408.235 351.565C409.639 349.415 409.925 346.721 409.004 344.324C408.084 341.926 406.068 340.117 403.586 339.459L401.536 347.192ZM322.202 386.226L322.402 378.229C319.265 378.15 316.371 379.913 315.003 382.737C313.634 385.561 314.043 388.924 316.048 391.338L322.202 386.226ZM450.403 359.123L447.516 351.662C446.313 352.128 445.241 352.877 444.39 353.847L450.403 359.123ZM534.546 279.525L531.054 272.328C529.13 273.261 527.66 274.926 526.972 276.95L534.546 279.525ZM536.072 278.781L534.609 270.916C533.895 271.049 533.203 271.278 532.552 271.597L536.072 278.781ZM576.937 287.735L571.62 293.712C571.96 294.014 572.325 294.287 572.711 294.528L576.937 287.735ZM557.276 354.215L564.308 358.029C564.41 357.841 564.505 357.649 564.591 357.453L557.276 354.215ZM540.905 405.784L537.063 412.801C537.354 412.961 537.655 413.102 537.963 413.224L540.905 405.784ZM555.29 384.052L548.815 379.353C548.662 379.565 548.518 379.784 548.386 380.01L555.29 384.052ZM618.647 292.019L611.628 288.18C611.618 288.198 611.608 288.217 611.597 288.236L618.647 292.019ZM618.674 273.216L613.937 279.662C614.222 279.872 614.521 280.062 614.832 280.233L618.674 273.216ZM567.364 235.514L559.801 238.121C560.331 239.658 561.317 240.998 562.627 241.961L567.364 235.514ZM566.064 230.196L559.454 225.691C558.414 227.216 557.934 229.054 558.095 230.893L566.064 230.196ZM582.718 205.759L576.588 200.618C576.418 200.822 576.257 201.034 576.107 201.254L582.718 205.759ZM583.651 197.321L591.123 194.463L591.123 194.463L583.651 197.321ZM577.343 192.025L578.862 184.17C578.811 184.16 578.76 184.151 578.709 184.142L577.343 192.025ZM548.515 187.03L541.373 190.635C542.513 192.894 544.655 194.481 547.149 194.913L548.515 187.03ZM546.982 183.823L539.73 187.199L539.73 187.199L546.982 183.823ZM545.449 180.614L538.083 177.492C537.165 179.658 537.247 182.119 538.307 184.219L545.449 180.614ZM557.219 152.844L550.2 149.005C550.072 149.238 549.957 149.478 549.853 149.722L557.219 152.844ZM556.458 144.137L549.64 148.323C549.718 148.449 549.799 148.573 549.883 148.694L556.458 144.137ZM549.466 140.572L549.708 148.568C549.86 148.563 550.012 148.554 550.164 148.541L549.466 140.572ZM520.316 141.454L513.839 146.151C515.395 148.295 517.91 149.531 520.558 149.451L520.316 141.454ZM517.973 138.526L524.103 133.387C524.085 133.364 524.066 133.342 524.047 133.32L517.973 138.526ZM517.972 138.526L511.842 143.665C511.86 143.688 511.879 143.71 511.898 143.732L517.972 138.526ZM515.629 135.598L507.824 133.842C507.32 136.084 507.804 138.434 509.152 140.294L515.629 135.598ZM522.245 106.191L530.05 107.947C530.068 107.868 530.085 107.789 530.1 107.709L522.245 106.191ZM520.278 98.0073L526.067 92.4861C526.031 92.4475 525.993 92.4093 525.956 92.3715L520.278 98.0073ZM512.115 95.3801L510.296 87.5896C510.254 87.5994 510.212 87.6096 510.17 87.62L512.115 95.3801ZM483.923 102.446L478.779 108.572C480.743 110.222 483.38 110.829 485.868 110.206L483.923 102.446ZM478.48 97.4912L470.482 97.3037C470.432 99.4241 471.227 101.478 472.69 103.012L478.48 97.4912ZM479.187 67.3483L471.198 66.9113C471.194 66.9944 471.191 67.0775 471.189 67.1608L479.187 67.3483ZM475.598 59.7246L480.742 53.5978C480.557 53.4423 480.365 53.2953 480.166 53.1571L475.598 59.7246ZM467.202 59.2068L470.619 66.4405C470.742 66.3822 470.864 66.3207 470.984 66.2562L467.202 59.2068ZM441.138 71.5173L437.634 78.7091C439.815 79.7718 442.361 79.7872 444.555 78.751L441.138 71.5173ZM434.56 67.9156L426.658 69.162C427.065 71.7432 428.707 73.9629 431.056 75.1074L434.56 67.9156ZM429.88 38.2445L421.911 38.9408C421.927 39.1249 421.949 39.3084 421.978 39.491L429.88 38.2445ZM424.707 31.5953L420.865 38.6123C421.156 38.7717 421.456 38.9128 421.765 39.0348L424.707 31.5953ZM416.42 32.3214L421.198 38.7373C421.274 38.6809 421.349 38.6231 421.422 38.564L416.42 32.3214ZM392.898 49.8403L390.585 57.4986C393.012 58.2318 395.643 57.7709 397.677 56.2563L392.898 49.8403ZM386.051 47.9335L378.506 50.5916C379.408 53.1539 381.55 55.083 384.192 55.7144L386.051 47.9335ZM376.057 19.5636L383.603 16.9054C383.579 16.8385 383.555 16.7719 383.529 16.7057L376.057 19.5636ZM361.607 16.6516L355.967 10.9774C355.852 11.092 355.74 11.2101 355.632 11.3315L361.607 16.6516ZM341.835 38.8556L340.956 46.8072C343.532 47.092 346.086 46.1113 347.81 44.1758L341.835 38.8556ZM338.945 38.415L337.595 46.3002L337.595 46.3002L338.945 38.415ZM334.646 37.8143L327.776 41.9138C329.107 44.143 331.436 45.5881 334.024 45.79L334.646 37.8143ZM319.483 12.404L312.431 16.1821C312.489 16.2907 312.55 16.3978 312.613 16.5036L319.483 12.404ZM312.418 8.0094L311.982 15.9975L312.418 8.0094ZM204.288 315.708L209.113 322.09C211.639 320.18 212.801 316.96 212.076 313.876C211.351 310.793 208.875 308.429 205.762 307.845L204.288 315.708ZM153.355 304.129L155.425 296.401C152.212 295.54 148.801 296.758 146.859 299.459C144.918 302.161 144.85 305.781 146.69 308.553L153.355 304.129ZM184.979 335.392L182.231 342.906C185.677 344.166 189.538 342.921 191.598 339.885L184.979 335.392ZM426.888 316.007L425.259 308.174C422.406 308.768 420.101 310.865 419.243 313.65C418.384 316.435 419.108 319.466 421.132 321.563L426.888 316.007ZM439.953 333.198L432.937 337.043C434.668 340.202 438.298 341.815 441.803 340.981L439.953 333.198ZM493.217 297.09L499.141 302.466C501.616 299.738 501.909 295.673 499.85 292.619C497.792 289.565 493.914 288.311 490.457 289.581L493.217 297.09ZM454.819 329.663L456.67 337.446C457.603 337.224 458.488 336.836 459.284 336.301L454.819 329.663ZM296.849 42.0747L312.151 16.5022L298.421 8.28666L283.119 33.8592L296.849 42.0747ZM283.224 46.5899L290.682 45.9364L289.286 29.9975L281.827 30.6509L283.224 46.5899ZM256.699 21.9024L276.581 43.9747L288.469 33.2661L268.587 11.1938L256.699 21.9024ZM256.714 21.6751C256.686 21.6816 256.633 21.6845 256.568 21.6622C256.496 21.6378 256.432 21.5907 256.397 21.5469L268.889 11.5493C265.042 6.74285 258.87 4.74143 253.076 6.09408L256.714 21.6751ZM256.14 22.38C256.209 22.2065 256.351 21.9875 256.535 21.8178C256.711 21.6552 256.792 21.6567 256.714 21.6751L253.076 6.09407C247.275 7.44842 243.097 11.8507 241.259 16.5016L256.14 22.38ZM246.204 50.5567L256.244 22.1028L241.156 16.7789L231.116 45.2328L246.204 50.5567ZM235.37 57.3098C236.447 56.7656 237.99 56.3299 240.66 55.6408L236.66 40.1486C234.43 40.7244 231.074 41.5535 228.151 43.0308L235.37 57.3098ZM203.226 38.5663L226.926 56.544L236.596 43.7966L212.896 25.8189L203.226 38.5663ZM203.227 38.5631C203.101 38.6176 203.004 38.6468 202.944 38.6621C202.883 38.6773 202.851 38.6807 202.85 38.6808C202.849 38.681 202.869 38.6787 202.912 38.6795C202.955 38.6803 203.011 38.6839 203.078 38.6927C203.218 38.7113 203.362 38.747 203.485 38.7917C203.612 38.8377 203.656 38.8707 203.625 38.8501L212.497 25.5351C208.464 22.8476 202.216 21.561 196.86 23.8846L203.227 38.5631ZM202.64 39.4699C202.681 39.2615 202.744 39.1396 202.843 39.0154C202.961 38.8669 203.237 38.5889 203.826 38.2732L196.261 24.1745C191.755 26.5921 188.044 30.6777 186.931 36.4328L202.64 39.4699ZM197.796 69.325L202.682 39.2337L186.889 36.669L182.003 66.7604L197.796 69.325ZM191.55 76.295C192.422 75.7775 192.986 75.4462 193.508 75.1822L186.29 60.9032C185.2 61.4541 184.164 62.0726 183.384 62.5356L191.55 76.295ZM186.707 78.8651C188.681 78.0088 190.378 76.9907 191.55 76.2949L183.384 62.5356C182.11 63.2917 181.247 63.793 180.339 64.1867L186.707 78.8651ZM153.979 66.4269L180.108 78.7604L186.938 64.2913L160.809 51.9577L153.979 66.4269ZM154.109 66.161C153.996 66.2517 153.897 66.2759 153.84 66.2809C153.782 66.286 153.68 66.2794 153.551 66.2092L161.236 52.1754C155.77 49.1824 148.966 49.7793 144.104 53.6757L154.109 66.161ZM153.152 67.8032C153.162 67.6217 153.193 67.4206 153.247 67.2185C153.3 67.0162 153.368 66.8467 153.433 66.7194C153.582 66.427 153.614 66.5382 153.296 66.7334L144.917 53.1033C139.67 56.329 137.434 62.2131 137.176 66.9291L153.152 67.8032ZM154.147 97.5191L153.16 67.1067L137.169 67.6257L138.156 98.038L154.147 97.5191ZM150.604 104.539C150.932 104.241 151.221 103.978 151.493 103.734L140.81 91.823C140.487 92.1129 140.153 92.4168 139.835 92.7063L150.604 104.539ZM150.585 104.556L150.588 104.554L139.851 92.6917L139.848 92.6941L150.585 104.556ZM150.485 104.646L150.485 104.646L139.949 92.6046L139.949 92.6047L150.485 104.646ZM145.413 108.907C147.418 107.451 149.306 105.721 150.601 104.542L139.832 92.7089C138.412 94.0016 137.177 95.1136 136.012 95.9594L145.413 108.907ZM110.709 103.488L138.853 110.214L142.572 94.6521L114.427 87.9263L110.709 103.488ZM110.065 103.766C110.288 103.544 110.461 103.415 110.567 103.347C110.672 103.28 110.699 103.28 110.644 103.297C110.583 103.316 110.472 103.34 110.33 103.34C110.187 103.34 110.092 103.315 110.069 103.307L115.068 88.1078C108.375 85.9064 102.532 88.6953 98.7864 92.4175L110.065 103.766ZM110.005 104.408C110.011 104.437 109.998 104.392 110.002 104.274C110.006 104.158 110.025 104.021 110.062 103.886C110.1 103.75 110.14 103.668 110.153 103.645C110.168 103.618 110.119 103.717 109.951 103.878L98.9009 92.3059C94.732 96.2869 93.1757 102.69 94.4223 108.039L110.005 104.408ZM116.763 133.928L110.012 104.438L94.4153 108.009L101.167 137.499L116.763 133.928ZM111.124 145.971C112.322 144.171 113.562 142.682 115.095 140.854L102.835 130.573C101.344 132.351 99.5584 134.47 97.804 137.107L111.124 145.971ZM74.8084 148.342L104.139 149.532L104.788 133.545L75.4572 132.355L74.8084 148.342ZM74.9829 148.158C74.9566 148.206 74.903 148.263 74.8373 148.299C74.7772 148.332 74.7251 148.338 74.6962 148.336L75.5694 132.36C69.6288 132.036 63.899 135.08 60.9455 140.48L74.9829 148.158ZM74.5335 149.357C74.6326 149.542 74.5725 149.589 74.5939 149.334C74.6178 149.048 74.7331 148.614 74.9829 148.158L60.9455 140.48C58.7027 144.58 57.2377 150.954 60.4302 156.913L74.5335 149.357ZM86.8023 177.282L74.8088 149.923L60.1549 156.347L72.1485 183.706L86.8023 177.282ZM83.0685 190.577C84.1535 188.348 84.9993 186.633 86.1353 184.926L72.8154 176.062C70.9988 178.791 69.7208 181.44 68.6819 183.575L83.0685 190.577ZM83.0306 190.654L83.0306 190.654L68.7198 183.498L68.7197 183.498L83.0306 190.654ZM48.8882 199.948L77.2615 194.955L74.4888 179.197L46.1154 184.19L48.8882 199.948ZM48.2967 200.186C48.3264 200.11 48.3635 200.044 48.3991 199.993C48.434 199.944 48.4543 199.928 48.4461 199.935C48.435 199.944 48.397 199.973 48.3331 200C48.3025 200.013 48.2725 200.023 48.2457 200.029C48.2187 200.036 48.2023 200.038 48.2 200.038L46.8036 184.099C39.8206 184.711 35.2931 189.555 33.4156 194.307L48.2967 200.186ZM48.4346 201.768C48.4378 201.773 48.3256 201.578 48.2874 201.141C48.2502 200.715 48.3 200.22 48.4563 199.744L33.256 194.749C31.6436 199.656 31.9331 205.471 34.7992 210.139L48.4346 201.768ZM65.3231 225.75L48.1602 201.351L35.0735 210.556L52.2363 234.956L65.3231 225.75ZM66.4437 230.937C66.4126 230.581 66.5177 231.348 66.3723 232.263C66.1834 233.451 65.6719 234.585 64.9096 235.494L52.6498 225.213C50.0125 228.358 50.4579 231.797 50.5044 232.33L66.4437 230.937ZM16.1396 288.136L64.2916 237.125L52.6565 226.142L4.50454 277.153L16.1396 288.136ZM20.0599 297.157C15.6798 291.372 15.9765 288.655 16.0234 288.334C16.0584 288.096 16.1137 288.071 16.0367 288.186C16.0043 288.234 15.9447 288.314 15.8387 288.425C15.7852 288.481 15.7183 288.548 15.6346 288.624C15.5926 288.662 15.5462 288.703 15.4949 288.747C15.4692 288.769 15.4422 288.791 15.4139 288.815C15.3998 288.827 15.3853 288.838 15.3705 288.85C15.3631 288.857 15.3556 288.863 15.348 288.869C15.3442 288.872 15.3384 288.876 15.3366 288.878C15.3308 288.883 15.325 288.887 10.3221 282.645C5.3192 276.402 5.31334 276.407 5.30746 276.411C5.30546 276.413 5.29954 276.418 5.29553 276.421C5.28752 276.427 5.27939 276.434 5.27113 276.441C5.25461 276.454 5.23761 276.468 5.22013 276.483C5.18517 276.511 5.1483 276.542 5.10965 276.575C5.03236 276.641 4.94777 276.716 4.85692 276.798C4.6754 276.964 4.46766 277.164 4.24238 277.401C3.79284 277.874 3.26563 278.501 2.73703 279.291C1.66756 280.89 0.615863 283.129 0.192914 286.012C-0.676071 291.934 1.30061 298.887 7.30422 306.816L20.0599 297.157ZM102.175 379.646C89.3399 367.134 70.9726 349.227 54.6516 332.996C38.132 316.568 24.234 302.368 19.928 296.988L7.43612 306.985C12.4551 313.256 27.181 328.242 43.3693 344.341C59.7561 360.637 78.1804 378.599 91.0059 391.103L102.175 379.646ZM102.109 379.583L102.108 379.582L91.0732 391.168L91.0741 391.169L102.109 379.583ZM102.577 380.038L102.176 379.647L91.0069 391.104L91.4078 391.495L102.577 380.038ZM111.639 398.609C114.747 396.698 117.69 397.685 118.094 397.817C118.908 398.084 119.428 398.418 119.509 398.469C119.742 398.617 119.718 398.633 119.328 398.291C118.627 397.676 117.491 396.57 115.902 394.909C112.769 391.636 108.363 386.721 103.058 380.551L90.926 390.982C96.3107 397.245 100.926 402.402 104.342 405.971C106.026 407.731 107.545 409.239 108.78 410.321C109.358 410.828 110.122 411.464 110.951 411.988C111.33 412.228 112.099 412.69 113.114 413.022C113.717 413.22 116.811 414.211 120.018 412.239L111.639 398.609ZM83.4183 359.632C93.5219 372.345 99.9928 384.101 103.771 392.708C105.665 397.024 106.846 400.462 107.471 402.759C107.792 403.934 107.922 404.646 107.959 404.942C107.981 405.114 107.944 404.935 107.963 404.538C107.972 404.339 108.004 403.884 108.152 403.293C108.276 402.798 108.638 401.548 109.698 400.283L121.958 410.564C123.09 409.215 123.508 407.839 123.674 407.176C123.864 406.417 123.923 405.754 123.944 405.307C123.987 404.414 123.914 403.579 123.834 402.945C123.668 401.628 123.337 400.125 122.908 398.552C122.036 395.353 120.567 391.164 118.421 386.276C114.12 376.477 106.95 363.525 95.9441 349.677L83.4183 359.632ZM51.5018 283.476C49.4937 285.277 48.7104 287.501 48.4079 289.093C48.1076 290.674 48.1688 292.172 48.3035 293.352C48.5729 295.71 49.3192 298.263 50.191 300.696C51.97 305.661 54.8996 311.821 58.3352 318.322C65.2504 331.407 74.78 346.923 83.0579 359.142L96.3044 350.168C88.2844 338.329 79.072 323.317 72.4812 310.846C69.1638 304.569 66.6493 299.195 65.2533 295.299C64.5377 293.302 64.2638 292.093 64.2002 291.536C64.1685 291.258 64.2349 291.51 64.1268 292.079C64.0165 292.66 63.6121 294.107 62.1848 295.387L51.5018 283.476ZM70.874 269.748C64.2349 272.71 59.2723 276.252 55.9262 279.106C54.2514 280.535 52.973 281.798 52.0827 282.743C51.6372 283.216 51.2876 283.611 51.033 283.908C50.9056 284.057 50.8019 284.181 50.7216 284.279C50.6814 284.328 50.6472 284.37 50.6187 284.406C50.6045 284.424 50.5917 284.44 50.5804 284.454C50.5748 284.461 50.5695 284.468 50.5646 284.474C50.5621 284.477 50.5597 284.48 50.5575 284.483C50.5563 284.484 50.5547 284.486 50.5541 284.487C50.5525 284.489 50.5509 284.491 56.8433 289.431C63.1357 294.372 63.1342 294.374 63.1326 294.376C63.1322 294.376 63.1306 294.378 63.1297 294.379C63.1277 294.382 63.1259 294.384 63.1241 294.386C63.1206 294.391 63.1173 294.395 63.1144 294.399C63.1086 294.406 63.1041 294.412 63.1009 294.416C63.0945 294.424 63.0933 294.425 63.0973 294.42C63.1053 294.41 63.134 294.376 63.1835 294.318C63.2826 294.202 63.4643 293.995 63.7293 293.714C64.2599 293.151 65.1189 292.295 66.3098 291.279C68.6951 289.244 72.3774 286.597 77.3925 284.36L70.874 269.748ZM113.428 283.637C101.911 279.696 92.8743 276.211 86.7409 273.722C83.6744 272.478 81.3346 271.483 79.7741 270.805C78.9938 270.466 78.4085 270.206 78.0248 270.034C77.8329 269.948 77.6914 269.884 77.6011 269.843C77.556 269.823 77.5236 269.808 77.5042 269.799C77.4945 269.794 77.488 269.791 77.4847 269.79C77.4831 269.789 77.4823 269.789 77.4823 269.789C77.4823 269.789 77.4825 269.789 77.4829 269.789C77.4831 269.789 77.4836 269.789 77.4837 269.789C77.4842 269.79 77.4847 269.79 74.1332 277.054C70.7817 284.318 70.7824 284.319 70.7831 284.319C70.7834 284.319 70.7842 284.319 70.7848 284.32C70.786 284.32 70.7874 284.321 70.789 284.322C70.7923 284.323 70.7964 284.325 70.8013 284.327C70.811 284.332 70.8241 284.338 70.8404 284.345C70.8729 284.36 70.9185 284.381 70.9769 284.407C71.0938 284.461 71.2622 284.537 71.4813 284.635C71.9195 284.831 72.5606 285.116 73.3979 285.48C75.0725 286.207 77.5323 287.253 80.7245 288.548C87.1082 291.139 96.4242 294.73 108.248 298.776L113.428 283.637ZM104.056 295.449C127.125 332.33 147.448 351.615 162.539 361.706C170.09 366.755 176.306 369.484 180.851 370.954C183.12 371.688 184.959 372.104 186.324 372.339C187.006 372.457 187.568 372.529 188.004 372.573C188.222 372.595 188.409 372.61 188.563 372.62C188.64 372.625 188.71 372.629 188.771 372.632C188.801 372.634 188.829 372.635 188.856 372.636C188.869 372.637 188.882 372.637 188.894 372.638C188.9 372.638 188.909 372.638 188.912 372.638C188.92 372.639 188.929 372.639 189.192 364.643C189.454 356.648 189.463 356.648 189.471 356.648C189.473 356.648 189.481 356.648 189.486 356.649C189.497 356.649 189.506 356.649 189.515 356.65C189.534 356.651 189.55 356.651 189.564 356.652C189.593 356.653 189.614 356.655 189.627 356.656C189.654 356.657 189.649 356.658 189.614 356.654C189.543 356.647 189.35 356.625 189.039 356.571C188.417 356.464 187.316 356.23 185.775 355.731C182.7 354.736 177.812 352.672 171.432 348.405C158.66 339.865 139.806 322.432 117.621 286.964L104.056 295.449ZM182.881 369.56C202.072 394.19 219.32 408.498 234.83 415.528C250.625 422.687 264.368 422.164 275.599 417.678C286.528 413.313 294.372 405.488 299.355 399.133C301.88 395.913 303.765 392.949 305.031 390.769C305.666 389.675 306.151 388.769 306.486 388.115C306.654 387.787 306.786 387.522 306.88 387.327C306.928 387.229 306.966 387.149 306.995 387.087C307.01 387.056 307.022 387.03 307.032 387.008C307.037 386.997 307.042 386.988 307.046 386.979C307.048 386.975 307.05 386.97 307.051 386.968C307.053 386.962 307.056 386.958 299.787 383.617C292.518 380.276 292.52 380.272 292.521 380.268C292.522 380.267 292.524 380.263 292.524 380.261C292.526 380.257 292.527 380.255 292.528 380.253C292.529 380.25 292.529 380.252 292.526 380.258C292.52 380.27 292.507 380.299 292.484 380.345C292.44 380.436 292.363 380.593 292.252 380.809C292.03 381.24 291.678 381.902 291.194 382.735C290.223 384.408 288.745 386.734 286.764 389.26C282.737 394.397 277.003 399.888 269.664 402.819C262.627 405.63 253.412 406.383 241.435 400.955C229.173 395.397 213.835 383.254 195.502 359.726L182.881 369.56ZM300.682 375.667C281.108 373.463 264.205 365.808 252.081 358.566C246.044 354.96 241.267 351.501 238.024 348.965C236.404 347.699 235.172 346.667 234.363 345.968C233.959 345.619 233.66 345.354 233.472 345.184C233.378 345.099 233.312 345.039 233.274 345.004C233.255 344.986 233.243 344.975 233.238 344.97C233.235 344.968 233.235 344.967 233.236 344.968C233.236 344.969 233.237 344.97 233.239 344.971C233.24 344.972 233.241 344.973 233.241 344.974C233.243 344.975 233.245 344.977 227.768 350.808C222.292 356.64 222.294 356.642 222.296 356.644C222.297 356.645 222.299 356.647 222.3 356.648C222.304 356.651 222.307 356.655 222.312 356.659C222.32 356.666 222.33 356.676 222.342 356.687C222.366 356.71 222.398 356.739 222.437 356.775C222.514 356.846 222.621 356.943 222.756 357.065C223.027 357.309 223.411 357.651 223.907 358.079C224.896 358.933 226.329 360.131 228.169 361.57C231.846 364.445 237.174 368.298 243.876 372.302C257.228 380.278 276.333 389.027 298.892 391.566L300.682 375.667ZM228.782 358.744C253.896 355.537 273.688 353.806 287.17 352.877C293.912 352.412 299.075 352.148 302.538 352.001C304.269 351.927 305.575 351.883 306.441 351.857C306.873 351.844 307.196 351.835 307.406 351.83C307.511 351.828 307.588 351.826 307.637 351.825C307.662 351.825 307.679 351.824 307.689 351.824C307.695 351.824 307.698 351.824 307.699 351.824C307.7 351.824 307.701 351.824 307.701 351.824C307.701 351.824 307.7 351.824 307.7 351.824C307.7 351.824 307.699 351.824 307.555 343.825C307.41 335.826 307.41 335.826 307.409 335.826C307.408 335.826 307.407 335.826 307.406 335.826C307.404 335.827 307.402 335.827 307.399 335.827C307.394 335.827 307.386 335.827 307.377 335.827C307.359 335.827 307.334 335.828 307.301 335.829C307.236 335.83 307.143 335.832 307.022 335.835C306.78 335.841 306.425 335.85 305.959 335.864C305.029 335.892 303.656 335.939 301.857 336.016C298.26 336.169 292.956 336.44 286.071 336.915C272.3 337.863 252.198 339.624 226.755 342.873L228.782 358.744ZM313.932 338.994C308.507 331.834 303.113 325.661 297.759 320.38L286.523 331.77C291.267 336.45 296.161 342.033 301.178 348.656L313.932 338.994ZM336.514 318.474C321.508 318.927 306.81 318.755 292.516 318.084L291.765 334.066C306.444 334.756 321.554 334.933 336.996 334.467L336.514 318.474ZM329.526 348.931C334.076 342.325 338.498 336.629 342.776 331.738L330.733 321.204C326.002 326.613 321.206 332.805 316.349 339.855L329.526 348.931ZM403.586 339.459C374.202 331.673 353.592 330.838 340.003 332.14C333.209 332.79 328.192 333.974 324.737 335.075C323.012 335.625 321.682 336.153 320.721 336.579C320.24 336.793 319.853 336.98 319.554 337.132C319.405 337.209 319.279 337.276 319.174 337.333C319.121 337.361 319.075 337.387 319.033 337.411C319.012 337.422 318.993 337.433 318.975 337.444C318.966 337.449 318.957 337.454 318.949 337.458C318.945 337.461 318.939 337.464 318.937 337.465C318.931 337.469 318.925 337.472 322.938 344.393C326.95 351.314 326.944 351.318 326.939 351.321C326.937 351.322 326.932 351.325 326.928 351.327C326.921 351.331 326.914 351.335 326.908 351.338C326.895 351.346 326.884 351.352 326.873 351.358C326.853 351.37 326.838 351.378 326.827 351.384C326.807 351.395 326.807 351.394 326.828 351.383C326.87 351.362 326.997 351.299 327.212 351.203C327.642 351.012 328.427 350.692 329.597 350.319C331.933 349.574 335.83 348.613 341.529 348.067C352.925 346.975 371.614 347.539 399.487 354.925L403.586 339.459ZM322.002 394.224C350.704 394.942 372.258 384.336 386.545 373.602C393.672 368.248 399.02 362.845 402.608 358.75C404.405 356.7 405.771 354.967 406.706 353.717C407.174 353.091 407.535 352.586 407.79 352.221C407.917 352.038 408.018 351.89 408.092 351.78C408.129 351.725 408.16 351.68 408.184 351.644C408.196 351.626 408.206 351.61 408.214 351.597C408.219 351.59 408.223 351.584 408.226 351.579C408.228 351.576 408.23 351.573 408.231 351.572C408.233 351.568 408.235 351.565 401.536 347.192C394.837 342.819 394.839 342.816 394.841 342.813C394.842 342.812 394.843 342.81 394.844 342.808C394.846 342.806 394.848 342.803 394.849 342.802C394.851 342.798 394.852 342.797 394.851 342.799C394.849 342.802 394.841 342.814 394.826 342.835C394.798 342.878 394.744 342.956 394.665 343.069C394.508 343.294 394.252 343.655 393.896 344.13C393.183 345.083 392.076 346.492 390.575 348.205C387.568 351.636 383.017 356.241 376.934 360.81C364.801 369.926 346.687 378.837 322.402 378.229L322.002 394.224ZM444.39 353.847C406.929 396.539 377.54 401.472 358.764 397.903C349.032 396.053 341.346 391.789 336.058 387.935C333.424 386.015 331.427 384.225 330.116 382.949C329.462 382.312 328.983 381.808 328.687 381.484C328.539 381.323 328.437 381.207 328.381 381.143C328.353 381.111 328.337 381.093 328.333 381.087C328.331 381.085 328.331 381.086 328.335 381.09C328.337 381.093 328.34 381.096 328.343 381.1C328.345 381.102 328.348 381.105 328.349 381.106C328.352 381.11 328.355 381.115 322.202 386.226C316.048 391.338 316.052 391.343 316.056 391.348C316.057 391.35 316.062 391.355 316.065 391.359C316.071 391.366 316.079 391.375 316.087 391.385C316.103 391.404 316.122 391.427 316.145 391.453C316.19 391.506 316.248 391.574 316.318 391.655C316.46 391.817 316.652 392.034 316.895 392.298C317.38 392.827 318.068 393.55 318.954 394.413C320.723 396.135 323.297 398.432 326.633 400.864C333.286 405.714 343.134 411.218 355.775 413.621C381.744 418.558 416.456 409.94 456.416 364.4L444.39 353.847ZM526.972 276.95C518.553 301.715 499.093 320.389 480.979 333.083C472.003 339.374 463.564 344.051 457.378 347.15C454.291 348.696 451.778 349.843 450.059 350.594C449.2 350.97 448.54 351.246 448.107 351.424C447.89 351.513 447.731 351.577 447.631 351.617C447.581 351.637 447.546 351.65 447.527 351.658C447.517 351.662 447.511 351.664 447.51 351.665C447.509 351.665 447.509 351.665 447.51 351.665C447.51 351.665 447.512 351.664 447.512 351.664C447.514 351.663 447.516 351.662 450.403 359.123C453.29 366.584 453.293 366.583 453.296 366.582C453.297 366.582 453.3 366.58 453.302 366.579C453.307 366.577 453.313 366.575 453.32 366.572C453.335 366.567 453.353 366.56 453.375 366.551C453.419 366.534 453.478 366.51 453.554 366.48C453.704 366.421 453.915 366.335 454.184 366.225C454.723 366.004 455.493 365.681 456.467 365.255C458.415 364.404 461.182 363.139 464.544 361.455C471.259 358.092 480.403 353.025 490.162 346.186C509.517 332.621 532.128 311.496 542.121 282.1L526.972 276.95ZM532.552 271.597C532.053 271.842 531.553 272.085 531.054 272.328L538.039 286.722C538.557 286.471 539.074 286.219 539.592 285.965L532.552 271.597ZM576.937 287.735C582.254 281.757 582.251 281.755 582.248 281.752C582.247 281.751 582.244 281.748 582.242 281.746C582.237 281.743 582.233 281.738 582.228 281.734C582.218 281.726 582.207 281.716 582.196 281.706C582.172 281.686 582.145 281.662 582.114 281.635C582.051 281.581 581.973 281.514 581.879 281.436C581.692 281.28 581.441 281.077 581.13 280.835C580.507 280.352 579.636 279.712 578.527 278.983C576.312 277.528 573.123 275.702 569.044 274.06C560.845 270.759 549.08 268.224 534.609 270.916L537.535 286.646C548.536 284.6 557.204 286.541 563.069 288.902C566.022 290.091 568.273 291.391 569.741 292.355C570.473 292.836 571.004 293.229 571.322 293.476C571.481 293.6 571.586 293.686 571.637 293.728C571.662 293.749 571.673 293.759 571.67 293.756C571.669 293.755 571.664 293.751 571.656 293.744C571.651 293.74 571.646 293.736 571.64 293.73C571.637 293.728 571.634 293.725 571.631 293.722C571.629 293.72 571.626 293.718 571.626 293.717C571.623 293.715 571.62 293.712 576.937 287.735ZM564.591 357.453C570.253 344.663 576.605 328.594 580.896 315.198C583.027 308.548 584.745 302.262 585.564 297.26C585.965 294.809 586.227 292.228 586.047 289.89C585.917 288.194 585.369 283.559 581.163 280.942L572.711 294.528C569.829 292.735 570.009 290.007 570.095 291.117C570.131 291.585 570.096 292.708 569.774 294.675C569.147 298.508 567.711 303.91 565.659 310.317C561.585 323.035 555.458 338.558 549.961 350.977L564.591 357.453ZM544.747 398.768C546.65 399.809 547.545 401.308 547.868 401.921C548.242 402.631 548.404 403.219 548.466 403.471C548.594 403.987 548.594 404.284 548.588 404.152C548.579 403.964 548.581 403.352 548.694 402.231C548.912 400.058 549.468 396.699 550.557 392.373C552.726 383.751 556.911 371.668 564.308 358.029L550.244 350.401C542.178 365.273 537.52 378.614 535.04 388.469C533.804 393.382 533.086 397.525 532.773 400.633C532.621 402.153 532.545 403.628 532.606 404.91C532.634 405.514 532.706 406.392 532.938 407.328C533.053 407.791 533.274 408.549 533.717 409.387C534.108 410.128 535.078 411.714 537.063 412.801L544.747 398.768ZM548.386 380.01C544.418 386.788 541.122 392.164 538.749 395.758C537.542 397.584 536.681 398.788 536.149 399.452C535.85 399.826 535.855 399.775 536.096 399.558C536.188 399.476 536.67 399.04 537.464 398.632C537.954 398.38 540.591 397.058 543.847 398.345L537.963 413.224C541.327 414.554 544.108 413.206 544.778 412.862C545.753 412.361 546.45 411.765 546.791 411.459C547.531 410.794 548.172 410.035 548.638 409.454C549.635 408.208 550.818 406.517 552.1 404.574C554.705 400.629 558.169 394.969 562.194 388.094L548.386 380.01ZM611.597 288.236C608.457 294.088 597.884 309.843 585.247 328.033C572.763 346.002 558.661 365.787 548.815 379.353L561.765 388.751C571.67 375.102 585.836 355.227 598.387 337.162C610.784 319.317 622.014 302.663 625.696 295.801L611.597 288.236ZM618.674 273.216C614.832 280.233 614.826 280.229 614.819 280.226C614.817 280.225 614.811 280.221 614.807 280.219C614.799 280.214 614.791 280.21 614.783 280.205C614.767 280.196 614.751 280.188 614.736 280.179C614.705 280.162 614.676 280.145 614.648 280.129C614.593 280.096 614.543 280.066 614.497 280.037C614.407 279.98 614.335 279.93 614.277 279.888C614.162 279.804 614.096 279.743 614.058 279.705C613.971 279.615 614.005 279.61 614.057 279.763C614.091 279.863 614.907 282.185 611.628 288.18L625.665 295.858C630.307 287.371 631.137 280.292 629.204 274.611C628.273 271.873 626.829 269.882 625.509 268.53C624.855 267.86 624.234 267.348 623.719 266.971C623.461 266.782 623.226 266.626 623.024 266.498C622.923 266.435 622.829 266.378 622.744 266.328C622.702 266.303 622.662 266.28 622.624 266.259C622.605 266.248 622.586 266.237 622.568 266.227C622.559 266.222 622.55 266.217 622.542 266.213C622.537 266.21 622.531 266.207 622.529 266.206C622.523 266.202 622.516 266.199 618.674 273.216ZM562.627 241.961L613.937 279.662L623.411 266.769L572.101 229.067L562.627 241.961ZM558.095 230.893C558.371 234.057 559.25 236.523 559.801 238.121L574.927 232.906C574.36 231.26 574.12 230.482 574.034 229.5L558.095 230.893ZM576.107 201.254L559.454 225.691L572.675 234.701L589.329 210.264L576.107 201.254ZM576.179 200.179C576.245 200.351 576.29 200.527 576.315 200.691C576.339 200.855 576.337 200.975 576.332 201.041C576.319 201.181 576.308 200.953 576.588 200.618L588.848 210.899C593.175 205.74 592.882 199.06 591.123 194.463L576.179 200.179ZM575.824 199.879C575.947 199.903 576.014 199.931 576.04 199.943C576.064 199.954 576.068 199.959 576.062 199.954C576.056 199.949 576.062 199.952 576.078 199.975C576.095 199.999 576.134 200.061 576.179 200.179L591.123 194.463C589.054 189.053 584.552 185.271 578.862 184.17L575.824 199.879ZM547.149 194.913L575.977 199.907L578.709 184.142L549.88 179.147L547.149 194.913ZM539.73 187.199C540.231 188.277 540.8 189.501 541.373 190.635L555.656 183.425C555.219 182.559 554.761 181.576 554.235 180.446L539.73 187.199ZM538.307 184.219C538.744 185.085 539.203 186.069 539.73 187.199L554.235 180.446C553.733 179.368 553.163 178.144 552.59 177.009L538.307 184.219ZM549.853 149.722L538.083 177.492L552.815 183.736L564.584 155.966L549.853 149.722ZM549.883 148.694C550.093 148.997 550.122 149.197 550.125 149.233C550.127 149.252 550.123 149.234 550.133 149.185C550.143 149.135 550.164 149.071 550.2 149.005L564.237 156.683C567.332 151.026 566.417 144.462 563.033 139.58L549.883 148.694ZM550.164 148.541C550.068 148.55 549.931 148.527 549.81 148.464C549.702 148.408 549.654 148.345 549.64 148.323L563.276 139.951C560.317 135.133 554.852 132.069 548.768 132.602L550.164 148.541ZM520.558 149.451L549.708 148.568L549.224 132.575L520.074 133.458L520.558 149.451ZM511.842 143.666C512.694 144.682 513.322 145.437 513.839 146.151L526.793 136.758C525.886 135.508 524.883 134.316 524.103 133.387L511.842 143.666ZM511.898 143.732L511.899 143.733L524.047 133.32L524.046 133.32L511.898 143.732ZM509.152 140.294C510.059 141.544 511.062 142.736 511.842 143.665L524.103 133.387C523.251 132.37 522.623 131.616 522.106 130.902L509.152 140.294ZM514.441 104.435L507.824 133.842L523.434 137.354L530.05 107.947L514.441 104.435ZM514.489 103.528C514.344 103.377 514.296 103.278 514.3 103.286C514.304 103.293 514.34 103.369 514.376 103.522C514.453 103.853 514.466 104.281 514.391 104.672L530.1 107.709C531.031 102.892 530.134 96.7509 526.067 92.4861L514.489 103.528ZM513.934 103.171C513.881 103.183 513.869 103.163 513.948 103.189C514.041 103.219 514.285 103.326 514.6 103.643L525.956 92.3715C522.005 88.3916 516.248 86.2001 510.296 87.5896L513.934 103.171ZM485.868 110.206L514.06 103.14L510.17 87.62L481.978 94.6857L485.868 110.206ZM472.69 103.012C474.876 105.304 477.002 107.08 478.779 108.572L489.067 96.3189C487.24 94.7846 485.761 93.5346 484.269 91.9701L472.69 103.012ZM471.189 67.1608L470.482 97.3037L486.478 97.6788L487.184 67.5358L471.189 67.1608ZM470.454 65.8514C470.78 66.1256 470.995 66.4223 471.108 66.6534C471.215 66.8712 471.196 66.9532 471.198 66.9113L487.175 67.7853C487.501 61.8184 484.49 56.7451 480.742 53.5978L470.454 65.8514ZM470.984 66.2562C471.049 66.2212 471.095 66.2017 471.121 66.1918C471.147 66.182 471.154 66.1809 471.145 66.183C471.136 66.1853 471.113 66.1897 471.08 66.1926C471.047 66.1956 471.009 66.1964 470.969 66.1939C470.928 66.1915 470.893 66.1863 470.864 66.1803C470.835 66.1743 470.819 66.1687 470.818 66.1681C470.816 66.1676 470.833 66.1734 470.867 66.1916C470.902 66.2098 470.957 66.2413 471.03 66.2921L480.166 53.1571C475.05 49.5983 468.887 49.2236 463.42 52.1574L470.984 66.2562ZM444.555 78.751L470.619 66.4405L463.785 51.9731L437.721 64.2835L444.555 78.751ZM433.848 76.6442C434.899 77.2507 436.246 78.0327 437.634 78.7091L444.642 64.3254C443.85 63.9394 442.998 63.4518 441.85 62.7887L433.848 76.6442ZM431.056 75.1074C431.849 75.4934 432.7 75.9811 433.848 76.6442L441.85 62.7887C440.8 62.1821 439.453 61.4001 438.064 60.7238L431.056 75.1074ZM421.978 39.491L426.658 69.162L442.463 66.6692L437.783 36.9981L421.978 39.491ZM421.765 39.0348C421.839 39.0642 421.905 39.1009 421.955 39.1361C422.004 39.1706 422.019 39.1906 422.012 39.1823C422.003 39.1712 421.975 39.1335 421.948 39.0704C421.935 39.0402 421.926 39.0107 421.919 38.9845C421.913 38.9581 421.911 38.9424 421.911 38.9408L437.85 37.5482C437.24 30.5675 432.404 26.0361 427.648 24.1558L421.765 39.0348ZM421.422 38.564C421.309 38.6547 421.21 38.6789 421.153 38.684C421.095 38.689 420.993 38.6824 420.865 38.6123L428.549 24.5784C423.083 21.5854 416.279 22.1823 411.417 26.0787L421.422 38.564ZM397.677 56.2563L421.198 38.7373L411.641 25.9054L388.12 43.4244L397.677 56.2563ZM384.192 55.7144C386.494 56.2644 388.431 56.8478 390.585 57.4986L395.212 42.1821C393.077 41.5374 390.726 40.8253 387.911 40.1526L384.192 55.7144ZM368.512 22.2217L378.506 50.5916L393.597 45.2753L383.603 16.9054L368.512 22.2217ZM368.193 21.7069C368.062 21.6815 368.05 21.6321 368.15 21.7248C368.267 21.8335 368.448 22.0642 368.585 22.4215L383.529 16.7057C381.688 11.8904 377.492 7.2092 371.232 5.99814L368.193 21.7069ZM367.246 22.3258C367.692 21.8829 367.994 21.7488 368.086 21.7162C368.111 21.7075 368.126 21.7037 368.133 21.7021C368.137 21.7013 368.139 21.7009 368.141 21.7008C368.142 21.7006 368.142 21.7005 368.142 21.7005C368.143 21.7005 368.143 21.7005 368.143 21.7005C368.144 21.7005 368.146 21.7005 368.149 21.7007C368.154 21.701 368.168 21.7021 368.193 21.7069L371.232 5.99814C365.143 4.82009 359.744 7.22397 355.967 10.9774L367.246 22.3258ZM347.81 44.1758L367.581 21.9718L355.632 11.3315L335.86 33.5355L347.81 44.1758ZM337.595 46.3002C338.556 46.4649 339.779 46.6771 340.956 46.8072L342.714 30.9041C342.102 30.8363 341.373 30.7143 340.295 30.5297L337.595 46.3002ZM334.024 45.79C335.048 45.87 336.151 46.053 337.595 46.3002L340.295 30.5297C338.973 30.3034 337.147 29.9851 335.268 29.8385L334.024 45.79ZM312.613 16.5036L327.776 41.9138L341.516 33.7148L326.352 8.30452L312.613 16.5036ZM311.982 15.9975C312.13 16.0056 312.231 16.0275 312.289 16.0447C312.318 16.0533 312.338 16.061 312.349 16.0659C312.355 16.0684 312.359 16.0704 312.361 16.0717C312.364 16.0729 312.365 16.0736 312.365 16.0737C312.365 16.0737 312.365 16.0733 312.363 16.0725C312.362 16.0716 312.361 16.0705 312.359 16.0693C312.356 16.0665 312.354 16.0651 312.356 16.0665C312.357 16.0679 312.364 16.0755 312.376 16.092C312.388 16.1085 312.407 16.1374 312.431 16.1821L326.534 8.62594C323.578 3.1072 318.268 0.317194 312.855 0.0213223L311.982 15.9975ZM312.305 16.2334C312.347 16.1558 312.402 16.0787 312.464 16.0124C312.525 15.9458 312.573 15.9118 312.588 15.902C312.603 15.8926 312.564 15.9205 312.461 15.9498C312.354 15.9806 312.188 16.0087 311.982 15.9975L312.855 0.0213223C306.131 -0.346189 300.811 3.90516 298.267 8.55548L312.305 16.2334ZM205.762 307.845C187.415 304.407 170.52 300.445 155.425 296.401L151.285 311.856C166.737 315.995 184.031 320.052 202.815 323.572L205.762 307.845ZM187.726 327.879C183.875 326.471 179.317 323.171 174.319 317.999C169.414 312.922 164.556 306.537 160.02 299.704L146.69 308.553C151.543 315.864 157.002 323.102 162.813 329.117C168.533 335.036 175.092 340.295 182.231 342.906L187.726 327.879ZM199.464 309.327C192.81 314.357 187.589 319.685 184.033 323.743C182.248 325.78 180.865 327.518 179.912 328.77C179.435 329.396 179.065 329.902 178.805 330.264C178.675 330.446 178.573 330.591 178.498 330.698C178.461 330.751 178.431 330.795 178.408 330.829C178.396 330.846 178.386 330.86 178.378 330.872C178.374 330.878 178.37 330.883 178.367 330.888C178.366 330.89 178.364 330.893 178.363 330.895C178.362 330.896 178.361 330.897 178.361 330.897C178.36 330.899 178.359 330.9 184.979 335.392C191.598 339.885 191.597 339.886 191.596 339.887C191.596 339.888 191.595 339.889 191.595 339.889C191.594 339.891 191.593 339.892 191.593 339.893C191.591 339.895 191.59 339.897 191.589 339.897C191.588 339.899 191.589 339.898 191.591 339.895C191.595 339.889 191.606 339.873 191.624 339.848C191.659 339.797 191.721 339.709 191.809 339.587C191.984 339.342 192.263 338.96 192.642 338.462C193.4 337.467 194.552 336.016 196.067 334.287C199.111 330.813 203.545 326.299 209.113 322.09L199.464 309.327ZM421.132 321.563C424.973 325.542 427.967 329.48 429.997 332.422C431.008 333.886 431.769 335.088 432.265 335.903C432.513 336.31 432.694 336.619 432.807 336.814C432.863 336.912 432.902 336.981 432.924 337.02C432.935 337.039 432.941 337.051 432.943 337.055C432.945 337.057 432.945 337.057 432.943 337.055C432.943 337.054 432.942 337.052 432.941 337.05C432.94 337.049 432.94 337.048 432.939 337.047C432.939 337.046 432.938 337.045 432.938 337.045C432.937 337.044 432.937 337.043 439.953 333.198C446.969 329.354 446.968 329.353 446.967 329.352C446.967 329.351 446.966 329.35 446.966 329.349C446.965 329.348 446.964 329.346 446.963 329.344C446.96 329.34 446.958 329.335 446.955 329.33C446.949 329.32 446.943 329.307 446.935 329.293C446.919 329.264 446.898 329.228 446.873 329.183C446.823 329.094 446.754 328.973 446.668 328.822C446.494 328.521 446.247 328.101 445.929 327.578C445.293 326.534 444.368 325.076 443.166 323.334C440.772 319.864 437.233 315.206 432.644 310.451L421.132 321.563ZM490.457 289.581C468.663 297.591 446.849 303.684 425.259 308.174L428.517 323.839C450.829 319.199 473.403 312.896 495.976 304.599L490.457 289.581ZM459.284 336.301C476.716 324.575 489.624 312.955 499.141 302.466L487.292 291.714C478.67 301.216 466.749 311.996 450.353 323.025L459.284 336.301ZM441.803 340.981L456.67 337.446L452.968 321.88L438.102 325.415L441.803 340.981Z" fill="black"/>
<path fill-rule="evenodd" clip-rule="evenodd" d="M291.799 338.202C242.912 289.152 202.832 324.5 189.009 340.225V327.057C194.471 319.526 245.781 252.167 309.828 336.724L291.799 338.202Z" fill="black"/>
<path fill-rule="evenodd" clip-rule="evenodd" d="M439.891 339.242L433.152 338.567C433.152 338.567 396.755 270.766 337.419 337.843L322.133 336.724C385.15 250.152 432.831 316.345 439.586 325.722C439.699 325.879 439.801 326.021 439.891 326.145V339.242Z" fill="black"/>
<path d="M234.727 257.716C249.127 257.716 260.801 246.042 260.801 231.641C260.801 217.241 249.127 205.567 234.727 205.567C220.326 205.567 208.652 217.241 208.652 231.641C208.652 246.042 220.326 257.716 234.727 257.716Z" fill="#151515"/>
<path d="M394.068 257.716C408.468 257.716 420.142 246.042 420.142 231.641C420.142 217.241 408.468 205.567 394.068 205.567C379.667 205.567 367.993 217.241 367.993 231.641C367.993 246.042 379.667 257.716 394.068 257.716Z" fill="#151515"/>
<path d="M292.127 261.48C290.417 261.816 288.789 262.485 287.337 263.45C285.885 264.415 284.638 265.657 283.665 267.104C282.693 268.551 282.016 270.175 281.672 271.884C281.328 273.593 281.323 275.353 281.659 277.064C282.536 281.524 284.282 285.768 286.798 289.553L286.798 289.554L286.799 289.555C289.316 293.34 292.554 296.591 296.328 299.124L296.331 299.126C300.102 301.658 304.334 303.423 308.787 304.32L308.791 304.321L308.797 304.322C313.25 305.216 317.835 305.225 322.292 304.349H322.293C326.752 303.473 330.995 301.728 334.78 299.213L334.781 299.212L334.784 299.21C338.566 296.694 341.816 293.458 344.348 289.686C346.885 285.911 348.651 281.672 349.546 277.212C350.238 273.761 349.531 270.175 347.58 267.245C345.629 264.314 342.594 262.279 339.142 261.587C337.433 261.244 335.673 261.241 333.963 261.578C332.253 261.915 330.625 262.586 329.174 263.552C327.723 264.519 326.477 265.761 325.506 267.209C324.535 268.657 323.859 270.282 323.516 271.991C323.309 273.023 322.9 274.004 322.313 274.878L322.309 274.883L322.305 274.889C321.717 275.766 320.962 276.519 320.082 277.104C319.202 277.689 318.215 278.095 317.178 278.298L317.175 278.298L317.172 278.299C316.133 278.503 315.065 278.501 314.027 278.294C312.991 278.084 312.006 277.673 311.129 277.084L311.124 277.08L311.12 277.078C310.244 276.49 309.493 275.735 308.908 274.857L308.908 274.855L308.907 274.855C308.321 273.973 307.915 272.986 307.711 271.948C307.375 270.237 306.705 268.609 305.741 267.157C304.776 265.706 303.534 264.458 302.087 263.486C300.64 262.514 299.016 261.836 297.307 261.492C295.598 261.148 293.838 261.144 292.127 261.48Z" fill="#151515"/>
<path d="M327.652 351.567C317.862 354.422 308.152 351.067 295.652 352.067L319.652 339.567C325.652 341.567 351.652 344.567 327.652 351.567Z" fill="black"/>
</svg>
