<svg xmlns="http://www.w3.org/2000/svg" width="1408" height="1351" fill="none"><g filter="url(#a)"><path fill="#FFD3E6" d="M618.988 99.32c37.112-65.76 131.927-65.76 169.038 0l142.087 251.778a97.014 97.014 0 0 0 65.33 47.407l283.657 57.163c74.09 14.93 103.39 104.994 52.24 160.567l-195.85 212.77a96.821 96.821 0 0 0-24.95 76.706l33.22 287.109c8.68 74.99-68.03 130.65-136.75 99.23l-263.126-120.28a97.129 97.129 0 0 0-80.753 0l-263.124 120.28c-68.724 31.42-145.432-24.24-136.754-99.23l33.222-287.109a96.825 96.825 0 0 0-24.954-76.706L75.679 616.235c-51.151-55.573-21.852-145.637 52.236-160.567l283.657-57.163a97.01 97.01 0 0 0 65.329-47.407L618.988 99.321Z"/><path stroke="#FFA5E6" stroke-width="50" d="m766.254 111.608 142.087 251.777c17.418 30.865 47.412 52.624 82.163 59.627l283.656 57.164c55.02 11.088 76.71 77.92 38.78 119.128L1117.1 812.075a121.779 121.779 0 0 0-31.39 96.51l33.22 287.105c6.43 55.59-50.46 96.97-101.53 73.63l-263.123-120.28a122.106 122.106 0 0 0-101.539 0l-263.124 120.28c-51.07 23.34-107.959-18.04-101.527-73.63l33.223-287.105a121.828 121.828 0 0 0-31.394-96.51L94.074 599.304c-37.93-41.209-16.243-108.04 38.78-119.128l283.656-57.164c34.752-7.003 64.746-28.762 82.164-59.627l142.087-251.777c27.545-48.81 97.948-48.81 125.493 0Z"/></g><path fill="#FFD3E6" stroke="#FFA5E6" stroke-width="50" d="m766.254 111.608 142.087 251.777c17.418 30.865 47.412 52.624 82.163 59.627l283.656 57.163c55.02 11.089 76.71 77.92 38.78 119.129l-195.84 212.77a121.781 121.781 0 0 0-31.39 96.51l33.22 287.106c6.43 55.59-50.46 96.97-101.53 73.63l-263.123-120.28a122.106 122.106 0 0 0-101.539 0l-263.124 120.28c-51.07 23.34-107.959-18.04-101.527-73.63l33.223-287.106a121.83 121.83 0 0 0-31.394-96.51L94.074 599.304c-37.93-41.209-16.243-108.04 38.78-119.129l283.656-57.163c34.752-7.003 64.746-28.762 82.164-59.627l142.087-251.777c27.545-48.81 97.948-48.81 125.493 0Z"/><circle cx="493.452" cy="708.175" r="51.347" fill="#9F57A5"/><circle cx="913.563" cy="708.175" r="51.347" fill="#9F57A5"/><path stroke="#B773B3" stroke-linecap="round" stroke-width="50" d="M744.07 800.704a42.011 42.011 0 0 1-82.407-.188"/><defs><filter id="a" width="1407.01" height="1351" x="0" y="0" color-interpolation-filters="sRGB" filterUnits="userSpaceOnUse"><feFlood flood-opacity="0" result="BackgroundImageFix"/><feColorMatrix in="SourceAlpha" result="hardAlpha" values="0 0 0 0 0 0 0 0 0 0 0 0 0 0 0 0 0 0 127 0"/><feOffset/><feGaussianBlur stdDeviation="25"/><feComposite in2="hardAlpha" operator="out"/><feColorMatrix values="0 0 0 0 1 0 0 0 0 0.433333 0 0 0 0 0.841334 0 0 0 1 0"/><feBlend in2="BackgroundImageFix" result="effect1_dropShadow_88_323"/><feBlend in="SourceGraphic" in2="effect1_dropShadow_88_323" result="shape"/></filter></defs></svg>